<svg width="75" height="82" viewBox="0 0 75 82" fill="none" xmlns="http://www.w3.org/2000/svg">
<circle cx="1.9023" cy="54.8197" r="1.90224" fill="white"/>
<circle cx="11.9323" cy="53.7821" r="1.90224" fill="white"/>
<circle cx="15.0451" cy="58.6244" r="1.90224" fill="white"/>
<circle cx="8.12782" cy="64.8497" r="1.90224" fill="white"/>
<circle cx="5.01509" cy="70.0377" r="1.90224" fill="white"/>
<circle cx="13.3158" cy="79.3759" r="1.90224" fill="white"/>
<circle cx="27.1502" cy="79.3759" r="1.90224" fill="white"/>
<circle cx="39.6012" cy="76.2631" r="1.90224" fill="white"/>
<circle cx="37.8719" cy="66.2333" r="1.90224" fill="white"/>
<circle cx="38.9095" cy="49.9777" r="1.90224" fill="white"/>
<circle cx="47.556" cy="30.6095" r="1.90224" fill="white"/>
<circle cx="53.0898" cy="23.3463" r="1.90224" fill="white"/>
<circle cx="59.6611" cy="21.2711" r="1.90224" fill="white"/>
<circle cx="72.4581" cy="13.6622" r="1.90224" fill="white"/>
<circle cx="70.7288" cy="5.01576" r="1.90224" fill="white"/>
<circle cx="61.3905" cy="1.90297" r="1.90224" fill="white"/>
<circle cx="71.7664" cy="23.3463" r="1.90224" fill="white"/>
<circle cx="72.4581" cy="31.9928" r="1.90224" fill="white"/>
<line x1="64.7678" y1="2.54884" x2="67.2243" y2="3.36768" stroke="white" stroke-width="0.691723" stroke-linecap="round"/>
<line x1="63.0248" y1="19.5779" x2="68.6895" y2="15.4867" stroke="white" stroke-width="0.691723" stroke-linecap="round"/>
<line x1="49.7599" y1="27.8742" x2="51.0463" y2="26.3304" stroke="white" stroke-width="0.691723" stroke-linecap="round"/>
<line x1="40.6231" y1="46.5866" x2="45.8943" y2="33.7379" stroke="white" stroke-width="0.691723" stroke-linecap="round"/>
<line x1="38.0703" y1="62.5779" x2="38.7128" y2="53.5837" stroke="white" stroke-width="0.691723" stroke-linecap="round"/>
<line x1="38.6578" y1="73.0808" x2="37.8022" y2="69.9437" stroke="white" stroke-width="0.691723" stroke-linecap="round"/>
<line x1="31.3157" y1="79.0973" x2="36.5558" y2="76.9397" stroke="white" stroke-width="0.691723" stroke-linecap="round"/>
<line x1="17.2745" y1="79.8767" x2="23.1551" y2="79.5672" stroke="white" stroke-width="0.691723" stroke-linecap="round"/>
<line x1="7.75231" y1="73.3235" x2="10.7218" y2="76.293" stroke="white" stroke-width="0.691723" stroke-linecap="round"/>
<line x1="12.1052" y1="61.0157" x2="10.865" y2="62.2559" stroke="white" stroke-width="0.691723" stroke-linecap="round"/>
<line x1="8.33688" y1="53.9874" x2="5.56655" y2="54.2645" stroke="white" stroke-width="0.691723" stroke-linecap="round"/>
<line x1="71.9796" y1="20.0246" x2="72.2491" y2="17.5993" stroke="white" stroke-width="0.691723" stroke-linecap="round"/>
<line x1="71.8871" y1="28.423" x2="71.655" y2="27.0301" stroke="white" stroke-width="0.691723" stroke-linecap="round"/>
<line x1="71.6336" y1="8.25537" x2="71.8937" y2="10.3359" stroke="white" stroke-width="0.691723" stroke-linecap="round"/>
</svg>
