<svg width="50" height="105" viewBox="0 0 50 105" fill="none" xmlns="http://www.w3.org/2000/svg">
<circle cx="8.47357" cy="44.0973" r="1.90224" fill="white"/>
<circle cx="24.0374" cy="58.2777" r="1.90224" fill="white"/>
<circle cx="6.74426" cy="57.2401" r="1.90224" fill="white"/>
<circle cx="1.90224" cy="62.0822" r="1.90224" fill="white"/>
<circle cx="8.81949" cy="95.6308" r="1.90224" fill="white"/>
<circle cx="17.4659" cy="85.9462" r="1.90224" fill="white"/>
<circle cx="34.0673" cy="88.0219" r="1.90224" fill="white"/>
<circle cx="37.5259" cy="92.518" r="1.90224" fill="white"/>
<circle cx="47.9018" cy="102.548" r="1.90224" fill="white"/>
<circle cx="41.3305" cy="56.2025" r="1.90224" fill="white"/>
<circle cx="22.9998" cy="28.1874" r="1.90224" fill="white"/>
<circle cx="39.6011" cy="1.90224" r="1.90224" fill="white"/>
<circle cx="35.1049" cy="7.78188" r="1.90224" fill="white"/>
<line x1="37.4222" y1="4.28865" x2="36.7996" y2="5.11872" stroke="white" stroke-width="0.691723" stroke-linecap="round"/>
<line x1="32.9903" y1="10.8461" x2="25.0268" y2="25.1141" stroke="white" stroke-width="0.691723" stroke-linecap="round"/>
<line x1="20.4298" y1="30.9243" x2="10.8644" y2="41.4793" stroke="white" stroke-width="0.691723" stroke-linecap="round"/>
<line x1="20.9544" y1="56.0378" x2="11.0759" y2="46.4886" stroke="white" stroke-width="0.691723" stroke-linecap="round"/>
<line x1="37.4035" y1="56.4194" x2="28.0587" y2="57.7083" stroke="white" stroke-width="0.691723" stroke-linecap="round"/>
<line x1="6.93325" y1="53.9391" x2="7.2477" y2="47.0211" stroke="white" stroke-width="0.691723" stroke-linecap="round"/>
<line x1="10.9984" y1="93.2443" x2="14.7337" y2="88.2639" stroke="white" stroke-width="0.691723" stroke-linecap="round"/>
<line x1="30.0525" y1="87.4607" x2="21.7473" y2="86.5024" stroke="white" stroke-width="0.691723" stroke-linecap="round"/>
<line x1="45.1645" y1="100.3" x2="40.1199" y2="95.2551" stroke="white" stroke-width="0.691723" stroke-linecap="round"/>
<line x1="7.89165" y1="92.0767" x2="2.4986" y2="66.1226" stroke="white" stroke-width="0.691723" stroke-linecap="round"/>
<line x1="3.80441" y1="59.6908" x2="4.35288" y2="59.1423" stroke="white" stroke-width="0.691723" stroke-linecap="round"/>
</svg>
