<svg width="90" height="95" viewBox="0 0 90 95" fill="none" xmlns="http://www.w3.org/2000/svg">
<circle cx="1.90224" cy="24.7287" r="1.90224" fill="white"/>
<circle cx="10.2029" cy="30.6083" r="1.90224" fill="white"/>
<circle cx="1.90224" cy="41.6762" r="1.90224" fill="white"/>
<circle cx="19.1954" cy="27.8419" r="1.90224" fill="white"/>
<circle cx="12.9698" cy="9.51112" r="1.90224" fill="white"/>
<circle cx="31.9922" cy="17.12" r="1.90224" fill="white"/>
<circle cx="54.4732" cy="38.9093" r="1.90224" fill="white"/>
<circle cx="23.6916" cy="52.7438" r="1.90224" fill="white"/>
<circle cx="37.526" cy="58.6234" r="1.90224" fill="white"/>
<circle cx="23.6916" cy="75.9166" r="1.90224" fill="white"/>
<circle cx="54.4732" cy="92.172" r="1.90224" fill="white"/>
<circle cx="61.3904" cy="75.9166" r="1.90224" fill="white"/>
<circle cx="68.6535" cy="60.3527" r="1.90224" fill="white"/>
<circle cx="73.8414" cy="49.9769" r="1.90224" fill="white"/>
<circle cx="80.4128" cy="49.9769" r="1.90224" fill="white"/>
<circle cx="87.33" cy="44.4433" r="1.90224" fill="white"/>
<circle cx="46.1725" cy="1.90224" r="1.90224" fill="white"/>
<line x1="5.32915" y1="26.9328" x2="6.87293" y2="28.2192" stroke="white" stroke-width="0.691723" stroke-linecap="round"/>
<line x1="13.2682" y1="34.0252" x2="21.9202" y2="49.3326" stroke="white" stroke-width="0.691723" stroke-linecap="round"/>
<line x1="17.0498" y1="10.5267" x2="27.8197" y2="14.7693" stroke="white" stroke-width="0.691723" stroke-linecap="round"/>
<line x1="36.1128" y1="20.0546" x2="51.874" y2="35.4804" stroke="white" stroke-width="0.691723" stroke-linecap="round"/>
<line x1="57.544" y1="42.65" x2="66.5144" y2="56.9362" stroke="white" stroke-width="0.691723" stroke-linecap="round"/>
<line x1="58.9325" y1="40.3827" x2="70.1267" y2="48.2845" stroke="white" stroke-width="0.691723" stroke-linecap="round"/>
<line x1="83.1026" y1="47.941" x2="84.6022" y2="46.9413" stroke="white" stroke-width="0.691723" stroke-linecap="round"/>
<line x1="76.7803" y1="50.1517" x2="77.1823" y2="50.1507" stroke="white" stroke-width="0.691723" stroke-linecap="round"/>
<line x1="22.5066" y1="25.4513" x2="28.9097" y2="19.6885" stroke="white" stroke-width="0.691723" stroke-linecap="round"/>
<line x1="34.932" y1="13.6911" x2="43.7811" y2="4.84192" stroke="white" stroke-width="0.691723" stroke-linecap="round"/>
<line x1="4.4002" y1="38.6027" x2="7.47512" y2="33.9903" stroke="white" stroke-width="0.691723" stroke-linecap="round"/>
<line x1="23.8644" y1="71.5933" x2="23.8644" y2="57.0672" stroke="white" stroke-width="0.691723" stroke-linecap="round"/>
<line x1="50.3768" y1="90.0758" x2="27.1292" y2="78.2836" stroke="white" stroke-width="0.691723" stroke-linecap="round"/>
<line x1="57.9668" y1="73.3948" x2="41.2297" y2="61.0094" stroke="white" stroke-width="0.691723" stroke-linecap="round"/>
<line x1="33.4304" y1="56.8759" x2="27.8236" y2="54.0725" stroke="white" stroke-width="0.691723" stroke-linecap="round"/>
<line x1="13.7261" y1="29.3166" x2="15.482" y2="28.8149" stroke="white" stroke-width="0.691723" stroke-linecap="round"/>
</svg>
