<svg width="99" height="66" viewBox="0 0 99 66" fill="none" xmlns="http://www.w3.org/2000/svg">
<circle cx="1.90222" cy="36.8344" r="1.90224" fill="white"/>
<circle cx="25.7667" cy="18.5033" r="1.90224" fill="white"/>
<circle cx="21.9622" cy="34.7592" r="1.90224" fill="white"/>
<circle cx="15.045" cy="49.9767" r="1.90224" fill="white"/>
<circle cx="18.8494" cy="63.1198" r="1.90224" fill="white"/>
<circle cx="64.5032" cy="47.9015" r="1.90224" fill="white"/>
<circle cx="89.0593" cy="56.8939" r="1.90224" fill="white"/>
<circle cx="66.5784" cy="33.0299" r="1.90224" fill="white"/>
<circle cx="55.8566" cy="22.3078" r="1.90224" fill="white"/>
<circle cx="57.9319" cy="11.9323" r="1.90224" fill="white"/>
<circle cx="74.5331" cy="3.63124" r="1.90224" fill="white"/>
<circle cx="79.3752" cy="11.9323" r="1.90224" fill="white"/>
<circle cx="91.1345" cy="15.7367" r="1.90224" fill="white"/>
<circle cx="96.6683" cy="1.90224" r="1.90224" fill="white"/>
<line x1="22.0645" y1="20.8895" x2="4.98027" y2="33.6189" stroke="white" stroke-width="0.691723" stroke-linecap="round"/>
<line x1="17.6913" y1="35.6689" x2="6.27093" y2="37.3004" stroke="white" stroke-width="0.691723" stroke-linecap="round"/>
<line x1="20.5367" y1="38.5162" x2="16.3809" y2="45.8688" stroke="white" stroke-width="0.691723" stroke-linecap="round"/>
<line x1="15.9932" y1="54.1883" x2="17.5273" y2="59.4044" stroke="white" stroke-width="0.691723" stroke-linecap="round"/>
<line x1="26.3724" y1="35.3958" x2="60.2978" y2="45.9127" stroke="white" stroke-width="0.691723" stroke-linecap="round"/>
<line x1="29.7837" y1="19.0674" x2="51.5781" y2="21.7498" stroke="white" stroke-width="0.691723" stroke-linecap="round"/>
<line x1="57.3455" y1="15.9661" x2="56.7775" y2="19.09" stroke="white" stroke-width="0.691723" stroke-linecap="round"/>
<line x1="58.9394" y1="24.8863" x2="63.9685" y2="29.6012" stroke="white" stroke-width="0.691723" stroke-linecap="round"/>
<line x1="66.3555" y1="37.0508" x2="65.4114" y2="43.9744" stroke="white" stroke-width="0.691723" stroke-linecap="round"/>
<line x1="68.5772" y1="48.9043" x2="85.2195" y2="54.8955" stroke="white" stroke-width="0.691723" stroke-linecap="round"/>
<line x1="70.7533" y1="4.96243" x2="61.3377" y2="9.83256" stroke="white" stroke-width="0.691723" stroke-linecap="round"/>
<line x1="76.5461" y1="6.40117" x2="77.6486" y2="8.88182" stroke="white" stroke-width="0.691723" stroke-linecap="round"/>
<line x1="82.3886" y1="13.5828" x2="87.2513" y2="14.7985" stroke="white" stroke-width="0.691723" stroke-linecap="round"/>
<line x1="94.9661" y1="5.63432" x2="92.4455" y2="12.251" stroke="white" stroke-width="0.691723" stroke-linecap="round"/>
</svg>
