<svg width="52" height="117" viewBox="0 0 52 117" fill="none" xmlns="http://www.w3.org/2000/svg">
<circle cx="1.90209" cy="45.827" r="1.90224" fill="white"/>
<circle cx="14.699" cy="43.0597" r="1.90224" fill="white"/>
<circle cx="24.3831" cy="34.0673" r="1.90224" fill="white"/>
<circle cx="24.3831" cy="20.2328" r="1.90224" fill="white"/>
<circle cx="36.8341" cy="49.6312" r="1.90224" fill="white"/>
<circle cx="49.6311" cy="59.661" r="1.90224" fill="white"/>
<circle cx="22.3079" cy="65.8866" r="1.90224" fill="white"/>
<circle cx="18.5035" cy="82.4879" r="1.90224" fill="white"/>
<circle cx="13.6615" cy="114.653" r="1.90224" fill="white"/>
<circle cx="34.759" cy="91.4804" r="1.90224" fill="white"/>
<circle cx="32.6838" cy="110.157" r="1.90224" fill="white"/>
<circle cx="22.6538" cy="5.70668" r="1.90224" fill="white"/>
<circle cx="10.8946" cy="1.90224" r="1.90224" fill="white"/>
<circle cx="7.09002" cy="10.5492" r="1.90224" fill="white"/>
<line x1="11.193" y1="12.321" x2="20.9671" y2="17.8596" stroke="white" stroke-width="0.691723" stroke-linecap="round"/>
<line x1="23.562" y1="9.63409" x2="24.5061" y2="16.5577" stroke="white" stroke-width="0.691723" stroke-linecap="round"/>
<line x1="24.5561" y1="24.5561" x2="24.5561" y2="30.0898" stroke="white" stroke-width="0.691723" stroke-linecap="round"/>
<line x1="24.8663" y1="38.0766" x2="22.5131" y2="61.9444" stroke="white" stroke-width="0.691723" stroke-linecap="round"/>
<line x1="21.4645" y1="37.15" x2="18.1275" y2="40.7905" stroke="white" stroke-width="0.691723" stroke-linecap="round"/>
<line x1="27.8032" y1="36.0619" x2="34.6784" y2="46.2109" stroke="white" stroke-width="0.691723" stroke-linecap="round"/>
<line x1="39.9145" y1="51.8279" x2="46.64" y2="57.2724" stroke="white" stroke-width="0.691723" stroke-linecap="round"/>
<line x1="21.3566" y1="69.9333" x2="19.437" y2="78.2517" stroke="white" stroke-width="0.691723" stroke-linecap="round"/>
<line x1="17.9268" y1="86.8607" x2="14.2297" y2="110.388" stroke="white" stroke-width="0.691723" stroke-linecap="round"/>
<line x1="34.5419" y1="95.4968" x2="33.2417" y2="106.224" stroke="white" stroke-width="0.691723" stroke-linecap="round"/>
<line x1="24.326" y1="68.9877" x2="33.3639" y2="87.7329" stroke="white" stroke-width="0.691723" stroke-linecap="round"/>
<line x1="10.4503" y1="43.9856" x2="5.94067" y2="44.8875" stroke="white" stroke-width="0.691723" stroke-linecap="round"/>
<line x1="9.49278" y1="5.65201" x2="8.76455" y2="7.10848" stroke="white" stroke-width="0.691723" stroke-linecap="round"/>
<line x1="14.9802" y1="1.89354" x2="19.1864" y2="3.69623" stroke="white" stroke-width="0.691723" stroke-linecap="round"/>
</svg>
