<svg width="111" height="63" viewBox="0 0 111 63" fill="none" xmlns="http://www.w3.org/2000/svg">
<circle cx="1.90222" cy="55.1649" r="1.90224" fill="white"/>
<circle cx="18.8495" cy="50.6686" r="1.90224" fill="white"/>
<circle cx="26.1126" cy="49.6308" r="1.90224" fill="white"/>
<circle cx="43.7515" cy="47.2101" r="1.90224" fill="white"/>
<circle cx="51.7063" cy="48.5932" r="1.90224" fill="white"/>
<circle cx="83.5256" cy="49.6308" r="1.90224" fill="white"/>
<circle cx="93.9013" cy="59.3153" r="1.90224" fill="white"/>
<circle cx="95.9766" cy="52.3981" r="1.90224" fill="white"/>
<circle cx="102.202" cy="48.9393" r="1.90224" fill="white"/>
<circle cx="108.773" cy="55.5109" r="1.90224" fill="white"/>
<circle cx="102.548" cy="61.0446" r="1.90224" fill="white"/>
<circle cx="17.1201" cy="43.7514" r="1.90224" fill="white"/>
<circle cx="27.496" cy="32.6835" r="1.90224" fill="white"/>
<circle cx="39.2553" cy="17.466" r="1.90224" fill="white"/>
<circle cx="35.4508" cy="8.47353" r="1.90224" fill="white"/>
<circle cx="43.7515" cy="1.90224" r="1.90224" fill="white"/>
<line x1="40.4283" y1="4.29212" x2="38.5325" y2="5.91713" stroke="white" stroke-width="0.691723" stroke-linecap="round"/>
<line x1="38.28" y1="14.3505" x2="37.1775" y2="11.8699" stroke="white" stroke-width="0.691723" stroke-linecap="round"/>
<line x1="29.6775" y1="29.6053" x2="36.8684" y2="20.1264" stroke="white" stroke-width="0.691723" stroke-linecap="round"/>
<line x1="19.7141" y1="40.6683" x2="24.7588" y2="35.6237" stroke="white" stroke-width="0.691723" stroke-linecap="round"/>
<line x1="4.56272" y1="52.7781" x2="14.0416" y2="45.5872" stroke="white" stroke-width="0.691723" stroke-linecap="round"/>
<line x1="5.40665" y1="54.9004" x2="15.1263" y2="51.6605" stroke="white" stroke-width="0.691723" stroke-linecap="round"/>
<line x1="29.7103" y1="49.0811" x2="40.0892" y2="48.1081" stroke="white" stroke-width="0.691723" stroke-linecap="round"/>
<line x1="47.0893" y1="47.7904" x2="48.4821" y2="48.0226" stroke="white" stroke-width="0.691723" stroke-linecap="round"/>
<line x1="55.3518" y1="48.7809" x2="79.9085" y2="49.7901" stroke="white" stroke-width="0.691723" stroke-linecap="round"/>
<line x1="87.2119" y1="50.5611" x2="92.4103" y2="51.4784" stroke="white" stroke-width="0.691723" stroke-linecap="round"/>
<line x1="95.3046" y1="55.4415" x2="94.8698" y2="56.5286" stroke="white" stroke-width="0.691723" stroke-linecap="round"/>
<line x1="99.2262" y1="60.8309" x2="96.801" y2="60.5615" stroke="white" stroke-width="0.691723" stroke-linecap="round"/>
<line x1="106.871" y1="57.9022" x2="105.631" y2="59.1424" stroke="white" stroke-width="0.691723" stroke-linecap="round"/>
<line x1="106.382" y1="53.2627" x2="104.45" y2="51.3308" stroke="white" stroke-width="0.691723" stroke-linecap="round"/>
<line x1="98.2938" y1="50.3573" x2="99.1239" y2="49.7348" stroke="white" stroke-width="0.691723" stroke-linecap="round"/>
<line x1="22.041" y1="50.0764" x2="22.7533" y2="49.8983" stroke="white" stroke-width="0.691723" stroke-linecap="round"/>
</svg>
