<svg width="91" height="64" viewBox="0 0 91 64" fill="none" xmlns="http://www.w3.org/2000/svg">
<circle cx="1.90218" cy="5.70693" r="1.90224" fill="white"/>
<circle cx="11.5864" cy="9.51137" r="1.90224" fill="white"/>
<circle cx="25.0749" cy="12.2785" r="1.90224" fill="white"/>
<circle cx="43.4055" cy="14.3537" r="1.90224" fill="white"/>
<circle cx="85.6007" cy="10.5492" r="1.90224" fill="white"/>
<circle cx="88.3676" cy="1.90248" r="1.90224" fill="white"/>
<circle cx="77.9917" cy="22.3082" r="1.90224" fill="white"/>
<circle cx="57.24" cy="54.8195" r="1.90224" fill="white"/>
<circle cx="50.6686" cy="61.3903" r="1.90224" fill="white"/>
<circle cx="37.8718" cy="51.0153" r="1.90224" fill="white"/>
<circle cx="21.9621" cy="38.2184" r="1.90224" fill="white"/>
<circle cx="17.466" cy="33.3759" r="1.90224" fill="white"/>
<circle cx="8.81941" cy="18.5038" r="1.90224" fill="white"/>
<line x1="76.1956" y1="25.7258" x2="59.6198" y2="51.7735" stroke="white" stroke-width="0.691723" stroke-linecap="round"/>
<line x1="83.8009" y1="13.6213" x2="80.3722" y2="18.9202" stroke="white" stroke-width="0.691723" stroke-linecap="round"/>
<line x1="82.0041" y1="10.062" x2="47.0688" y2="13.4538" stroke="white" stroke-width="0.691723" stroke-linecap="round"/>
<line x1="39.3867" y1="13.7875" x2="29.351" y2="12.4926" stroke="white" stroke-width="0.691723" stroke-linecap="round"/>
<line x1="21.758" y1="11.0334" x2="15.1835" y2="10.4073" stroke="white" stroke-width="0.691723" stroke-linecap="round"/>
<line x1="8.19691" y1="7.80181" x2="5.38054" y2="6.67526" stroke="white" stroke-width="0.691723" stroke-linecap="round"/>
<line x1="6.79372" y1="15.7719" x2="2.97462" y2="8.77021" stroke="white" stroke-width="0.691723" stroke-linecap="round"/>
<line x1="15.0953" y1="29.9493" x2="10.5811" y2="21.5659" stroke="white" stroke-width="0.691723" stroke-linecap="round"/>
<line x1="34.4443" y1="48.8044" x2="25.2853" y2="40.9538" stroke="white" stroke-width="0.691723" stroke-linecap="round"/>
<line x1="47.2413" y1="59.1821" x2="40.8511" y2="53.7505" stroke="white" stroke-width="0.691723" stroke-linecap="round"/>
<line x1="53.5642" y1="59.3471" x2="54.8507" y2="57.8033" stroke="white" stroke-width="0.691723" stroke-linecap="round"/>
<line x1="87.3594" y1="4.94186" x2="86.5647" y2="7.06107" stroke="white" stroke-width="0.691723" stroke-linecap="round"/>
</svg>
