<svg width="100" height="94" viewBox="0 0 100 94" fill="none" xmlns="http://www.w3.org/2000/svg">
<circle cx="1.90218" cy="35.4503" r="1.90224" fill="white"/>
<circle cx="7.43599" cy="33.7208" r="1.90224" fill="white"/>
<circle cx="26.8042" cy="24.0368" r="1.90224" fill="white"/>
<circle cx="44.789" cy="26.112" r="1.90224" fill="white"/>
<circle cx="39.6012" cy="1.90175" r="1.90224" fill="white"/>
<circle cx="48.5936" cy="13.661" r="1.90224" fill="white"/>
<circle cx="53.4357" cy="17.4655" r="1.90224" fill="white"/>
<circle cx="58.9694" cy="31.9916" r="1.90224" fill="white"/>
<circle cx="50.3229" cy="36.4879" r="1.90224" fill="white"/>
<circle cx="53.4357" cy="44.4428" r="1.90224" fill="white"/>
<circle cx="65.5407" cy="36.4879" r="1.90224" fill="white"/>
<circle cx="76.6083" cy="34.7587" r="1.90224" fill="white"/>
<circle cx="88.7135" cy="19.1947" r="1.90224" fill="white"/>
<circle cx="78.6835" cy="48.2472" r="1.90224" fill="white"/>
<circle cx="88.0218" cy="52.0517" r="1.90224" fill="white"/>
<circle cx="72.8039" cy="61.3898" r="1.90224" fill="white"/>
<circle cx="34.759" cy="78.683" r="1.90224" fill="white"/>
<circle cx="34.759" cy="91.8258" r="1.90224" fill="white"/>
<circle cx="14.0075" cy="86.2919" r="1.90224" fill="white"/>
<circle cx="6.74431" cy="65.194" r="1.90224" fill="white"/>
<circle cx="80.4128" cy="70.3822" r="1.90224" fill="white"/>
<circle cx="97.36" cy="48.9389" r="1.90224" fill="white"/>
<line x1="79.1526" y1="31.332" x2="86.3247" y2="22.53" stroke="white" stroke-width="0.691723" stroke-linecap="round"/>
<line x1="78.1126" y1="44.3312" x2="77.1887" y2="38.788" stroke="white" stroke-width="0.691723" stroke-linecap="round"/>
<line x1="69.0857" y1="35.9002" x2="72.9079" y2="35.0181" stroke="white" stroke-width="0.691723" stroke-linecap="round"/>
<line x1="56.8103" y1="42.0596" x2="61.7741" y2="38.647" stroke="white" stroke-width="0.691723" stroke-linecap="round"/>
<line x1="52.4627" y1="41.3213" x2="51.6976" y2="39.536" stroke="white" stroke-width="0.691723" stroke-linecap="round"/>
<line x1="49.3295" y1="33.0835" x2="46.5726" y2="28.4887" stroke="white" stroke-width="0.691723" stroke-linecap="round"/>
<line x1="58.008" y1="28.4978" x2="55.1295" y2="20.5021" stroke="white" stroke-width="0.691723" stroke-linecap="round"/>
<line x1="46.553" y1="10.998" x2="41.7801" y2="4.63411" stroke="white" stroke-width="0.691723" stroke-linecap="round"/>
<line x1="40.7799" y1="25.5587" x2="30.7467" y2="24.5878" stroke="white" stroke-width="0.691723" stroke-linecap="round"/>
<line x1="23.3788" y1="25.3703" x2="11.1904" y2="31.9586" stroke="white" stroke-width="0.691723" stroke-linecap="round"/>
<line x1="3.15997" y1="38.6812" x2="6.51648" y2="61.1697" stroke="white" stroke-width="0.691723" stroke-linecap="round"/>
<line x1="8.39046" y1="69.7404" x2="12.3274" y2="81.8792" stroke="white" stroke-width="0.691723" stroke-linecap="round"/>
<line x1="30.2309" y1="79.9917" x2="17.7372" y2="84.5946" stroke="white" stroke-width="0.691723" stroke-linecap="round"/>
<line x1="30.7024" y1="91.5487" x2="17.5349" y2="87.9276" stroke="white" stroke-width="0.691723" stroke-linecap="round"/>
<line x1="55.9009" y1="33.674" x2="54.0804" y2="34.7143" stroke="white" stroke-width="0.691723" stroke-linecap="round"/>
<line x1="62.0476" y1="33.4789" x2="62.8777" y2="34.1015" stroke="white" stroke-width="0.691723" stroke-linecap="round"/>
<line x1="74.1867" y1="57.9929" x2="77.0156" y2="51.7064" stroke="white" stroke-width="0.691723" stroke-linecap="round"/>
<line x1="78.0264" y1="68.0651" x2="75.3287" y2="64.4681" stroke="white" stroke-width="0.691723" stroke-linecap="round"/>
<line x1="84.2721" y1="50.9957" x2="82.1239" y2="49.9216" stroke="white" stroke-width="0.691723" stroke-linecap="round"/>
<line x1="93.872" y1="50.2487" x2="91.7528" y2="51.0435" stroke="white" stroke-width="0.691723" stroke-linecap="round"/>
</svg>
