<svg width="104" height="70" viewBox="0 0 104 70" fill="none" xmlns="http://www.w3.org/2000/svg">
<circle cx="34.075" cy="18.2785" r="1.90224" fill="white"/>
<circle cx="52.4055" cy="20.3537" r="1.90224" fill="white"/>
<circle cx="86.9917" cy="28.3082" r="1.90224" fill="white"/>
<circle cx="66.24" cy="60.8195" r="1.90224" fill="white"/>
<circle cx="59.6686" cy="67.3903" r="1.90224" fill="white"/>
<circle cx="46.8718" cy="57.0153" r="1.90224" fill="white"/>
<circle cx="30.9621" cy="44.2184" r="1.90224" fill="white"/>
<circle cx="26.466" cy="39.3759" r="1.90224" fill="white"/>
<circle cx="17.8195" cy="24.5038" r="1.90224" fill="white"/>
<line x1="85.1956" y1="31.7258" x2="68.6197" y2="57.7735" stroke="white" stroke-width="0.691723" stroke-linecap="round"/>
<line x1="92.801" y1="19.6213" x2="89.3723" y2="24.9202" stroke="white" stroke-width="0.691723" stroke-linecap="round"/>
<line x1="91.0041" y1="16.062" x2="56.0689" y2="19.4538" stroke="white" stroke-width="0.691723" stroke-linecap="round"/>
<line x1="48.3866" y1="19.7875" x2="38.351" y2="18.4926" stroke="white" stroke-width="0.691723" stroke-linecap="round"/>
<line x1="30.758" y1="17.0334" x2="24.1836" y2="16.4073" stroke="white" stroke-width="0.691723" stroke-linecap="round"/>
<line x1="17.1969" y1="13.8018" x2="14.3805" y2="12.6753" stroke="white" stroke-width="0.691723" stroke-linecap="round"/>
<line x1="15.7937" y1="21.7719" x2="11.9746" y2="14.7702" stroke="white" stroke-width="0.691723" stroke-linecap="round"/>
<line x1="24.0952" y1="35.9493" x2="19.5811" y2="27.5659" stroke="white" stroke-width="0.691723" stroke-linecap="round"/>
<line x1="43.4442" y1="54.8044" x2="34.2853" y2="46.9538" stroke="white" stroke-width="0.691723" stroke-linecap="round"/>
<line x1="56.2412" y1="65.1821" x2="49.8511" y2="59.7505" stroke="white" stroke-width="0.691723" stroke-linecap="round"/>
<line x1="62.5641" y1="65.3471" x2="63.8506" y2="63.8033" stroke="white" stroke-width="0.691723" stroke-linecap="round"/>
<line x1="96.3595" y1="10.9419" x2="95.5648" y2="13.0611" stroke="white" stroke-width="0.691723" stroke-linecap="round"/>
<path d="M8.5 7L9.9855 11.0145L14 12.5L9.9855 13.9855L8.5 18L7.0145 13.9855L3 12.5L7.0145 11.0145L8.5 7Z" fill="white"/>
<circle cx="8.5" cy="12.5" r="8.5" fill="url(#paint0_radial_26_470)"/>
<path d="M93.5 10L94.9855 14.0145L99 15.5L94.9855 16.9855L93.5 21L92.0145 16.9855L88 15.5L92.0145 14.0145L93.5 10Z" fill="white"/>
<circle cx="93.5" cy="15.5" r="8.5" fill="url(#paint1_radial_26_470)"/>
<path d="M21.5 11.9412L22.4612 14.5388L25.0588 15.5L22.4612 16.4612L21.5 19.0588L20.5388 16.4612L17.9412 15.5L20.5388 14.5388L21.5 11.9412Z" fill="white"/>
<circle cx="21.5" cy="15.5" r="5.5" fill="url(#paint2_radial_26_470)"/>
<path d="M98.5 1.94116L99.4612 4.53878L102.059 5.49999L99.4612 6.46119L98.5 9.05881L97.5388 6.46119L94.9412 5.49999L97.5388 4.53878L98.5 1.94116Z" fill="white"/>
<circle cx="98.5" cy="5.5" r="5.5" fill="url(#paint3_radial_26_470)"/>
<defs>
<radialGradient id="paint0_radial_26_470" cx="0" cy="0" r="1" gradientUnits="userSpaceOnUse" gradientTransform="translate(8.5 12.5) rotate(90) scale(8.5)">
<stop stop-color="white"/>
<stop offset="0.350015" stop-color="white" stop-opacity="0.80027"/>
<stop offset="0.490015" stop-color="white" stop-opacity="0.510483"/>
<stop offset="0.874517" stop-color="white" stop-opacity="0"/>
<stop offset="1" stop-color="white" stop-opacity="0"/>
</radialGradient>
<radialGradient id="paint1_radial_26_470" cx="0" cy="0" r="1" gradientUnits="userSpaceOnUse" gradientTransform="translate(93.5 15.5) rotate(90) scale(8.5)">
<stop stop-color="white"/>
<stop offset="0.350015" stop-color="white" stop-opacity="0.80027"/>
<stop offset="0.490015" stop-color="white" stop-opacity="0.510483"/>
<stop offset="0.874517" stop-color="white" stop-opacity="0"/>
<stop offset="1" stop-color="white" stop-opacity="0"/>
</radialGradient>
<radialGradient id="paint2_radial_26_470" cx="0" cy="0" r="1" gradientUnits="userSpaceOnUse" gradientTransform="translate(21.5 15.5) rotate(90) scale(5.5)">
<stop stop-color="white"/>
<stop offset="0.350015" stop-color="white" stop-opacity="0.80027"/>
<stop offset="0.490015" stop-color="white" stop-opacity="0.510483"/>
<stop offset="0.874517" stop-color="white" stop-opacity="0"/>
<stop offset="1" stop-color="white" stop-opacity="0"/>
</radialGradient>
<radialGradient id="paint3_radial_26_470" cx="0" cy="0" r="1" gradientUnits="userSpaceOnUse" gradientTransform="translate(98.5 5.5) rotate(90) scale(5.5)">
<stop stop-color="white"/>
<stop offset="0.350015" stop-color="white" stop-opacity="0.80027"/>
<stop offset="0.490015" stop-color="white" stop-opacity="0.510483"/>
<stop offset="0.874517" stop-color="white" stop-opacity="0"/>
<stop offset="1" stop-color="white" stop-opacity="0"/>
</radialGradient>
</defs>
</svg>
