<svg width="125" height="68" viewBox="0 0 125 68" fill="none" xmlns="http://www.w3.org/2000/svg">
<circle cx="25.8495" cy="53.6686" r="1.90224" fill="white"/>
<circle cx="33.1126" cy="52.6308" r="1.90224" fill="white"/>
<circle cx="50.7515" cy="50.2101" r="1.90224" fill="white"/>
<circle cx="58.7063" cy="51.5932" r="1.90224" fill="white"/>
<circle cx="90.5257" cy="52.6308" r="1.90224" fill="white"/>
<circle cx="109.548" cy="64.0446" r="1.90224" fill="white"/>
<circle cx="24.1201" cy="46.7514" r="1.90224" fill="white"/>
<circle cx="46.2554" cy="20.466" r="1.90224" fill="white"/>
<circle cx="42.4508" cy="11.4735" r="1.90224" fill="white"/>
<line x1="47.4283" y1="7.29212" x2="45.5325" y2="8.91713" stroke="white" stroke-width="0.691723" stroke-linecap="round"/>
<line x1="45.2799" y1="17.3505" x2="44.1774" y2="14.8699" stroke="white" stroke-width="0.691723" stroke-linecap="round"/>
<line x1="36.6775" y1="32.6053" x2="43.8684" y2="23.1264" stroke="white" stroke-width="0.691723" stroke-linecap="round"/>
<line x1="26.7141" y1="43.6683" x2="31.7588" y2="38.6237" stroke="white" stroke-width="0.691723" stroke-linecap="round"/>
<line x1="11.5627" y1="55.7781" x2="21.0416" y2="48.5872" stroke="white" stroke-width="0.691723" stroke-linecap="round"/>
<line x1="12.4066" y1="57.9004" x2="22.1262" y2="54.6605" stroke="white" stroke-width="0.691723" stroke-linecap="round"/>
<line x1="36.7103" y1="52.0811" x2="47.0891" y2="51.1081" stroke="white" stroke-width="0.691723" stroke-linecap="round"/>
<line x1="54.0893" y1="50.7904" x2="55.4822" y2="51.0226" stroke="white" stroke-width="0.691723" stroke-linecap="round"/>
<line x1="62.3517" y1="51.7809" x2="86.9085" y2="52.7901" stroke="white" stroke-width="0.691723" stroke-linecap="round"/>
<line x1="94.2119" y1="53.5611" x2="99.4103" y2="54.4784" stroke="white" stroke-width="0.691723" stroke-linecap="round"/>
<line x1="102.305" y1="58.4415" x2="101.87" y2="59.5286" stroke="white" stroke-width="0.691723" stroke-linecap="round"/>
<line x1="106.226" y1="63.8309" x2="103.801" y2="63.5615" stroke="white" stroke-width="0.691723" stroke-linecap="round"/>
<line x1="113.871" y1="60.9022" x2="112.631" y2="62.1424" stroke="white" stroke-width="0.691723" stroke-linecap="round"/>
<line x1="113.382" y1="56.2627" x2="111.45" y2="54.3308" stroke="white" stroke-width="0.691723" stroke-linecap="round"/>
<line x1="105.294" y1="53.3573" x2="106.124" y2="52.7348" stroke="white" stroke-width="0.691723" stroke-linecap="round"/>
<line x1="29.041" y1="53.0764" x2="29.7533" y2="52.8983" stroke="white" stroke-width="0.691723" stroke-linecap="round"/>
<path d="M8.5 52L9.9855 56.0145L14 57.5L9.9855 58.9855L8.5 63L7.0145 58.9855L3 57.5L7.0145 56.0145L8.5 52Z" fill="white"/>
<circle cx="8.5" cy="57.5" r="8.5" fill="url(#paint0_radial_26_472)"/>
<path d="M34.5 29L35.9855 33.0145L40 34.5L35.9855 35.9855L34.5 40L33.0145 35.9855L29 34.5L33.0145 33.0145L34.5 29Z" fill="white"/>
<circle cx="34.5" cy="34.5" r="8.5" fill="url(#paint1_radial_26_472)"/>
<path d="M116.5 52L117.985 56.0145L122 57.5L117.985 58.9855L116.5 63L115.015 58.9855L111 57.5L115.015 56.0145L116.5 52Z" fill="white"/>
<circle cx="116.5" cy="57.5" r="8.5" fill="url(#paint2_radial_26_472)"/>
<path d="M108.5 48.9412L109.461 51.5388L112.059 52.5L109.461 53.4612L108.5 56.0588L107.539 53.4612L104.941 52.5L107.539 51.5388L108.5 48.9412Z" fill="white"/>
<circle cx="108.5" cy="52.5" r="5.5" fill="url(#paint3_radial_26_472)"/>
<path d="M102.5 50.9412L103.461 53.5388L106.059 54.5L103.461 55.4612L102.5 58.0588L101.539 55.4612L98.9412 54.5L101.539 53.5388L102.5 50.9412Z" fill="white"/>
<circle cx="102.5" cy="54.5" r="5.5" fill="url(#paint4_radial_26_472)"/>
<path d="M49.5 1.94116L50.4612 4.53878L53.0588 5.49999L50.4612 6.46119L49.5 9.05881L48.5388 6.46119L45.9412 5.49999L48.5388 4.53878L49.5 1.94116Z" fill="white"/>
<circle cx="49.5" cy="5.5" r="5.5" fill="url(#paint5_radial_26_472)"/>
<path d="M100.5 58.9412L101.461 61.5388L104.059 62.5L101.461 63.4612L100.5 66.0588L99.5388 63.4612L96.9412 62.5L99.5388 61.5388L100.5 58.9412Z" fill="white"/>
<circle cx="100.5" cy="62.5" r="5.5" fill="url(#paint6_radial_26_472)"/>
<defs>
<radialGradient id="paint0_radial_26_472" cx="0" cy="0" r="1" gradientUnits="userSpaceOnUse" gradientTransform="translate(8.5 57.5) rotate(90) scale(8.5)">
<stop stop-color="white"/>
<stop offset="0.350015" stop-color="white" stop-opacity="0.80027"/>
<stop offset="0.490015" stop-color="white" stop-opacity="0.510483"/>
<stop offset="0.874517" stop-color="white" stop-opacity="0"/>
<stop offset="1" stop-color="white" stop-opacity="0"/>
</radialGradient>
<radialGradient id="paint1_radial_26_472" cx="0" cy="0" r="1" gradientUnits="userSpaceOnUse" gradientTransform="translate(34.5 34.5) rotate(90) scale(8.5)">
<stop stop-color="white"/>
<stop offset="0.350015" stop-color="white" stop-opacity="0.80027"/>
<stop offset="0.490015" stop-color="white" stop-opacity="0.510483"/>
<stop offset="0.874517" stop-color="white" stop-opacity="0"/>
<stop offset="1" stop-color="white" stop-opacity="0"/>
</radialGradient>
<radialGradient id="paint2_radial_26_472" cx="0" cy="0" r="1" gradientUnits="userSpaceOnUse" gradientTransform="translate(116.5 57.5) rotate(90) scale(8.5)">
<stop stop-color="white"/>
<stop offset="0.350015" stop-color="white" stop-opacity="0.80027"/>
<stop offset="0.490015" stop-color="white" stop-opacity="0.510483"/>
<stop offset="0.874517" stop-color="white" stop-opacity="0"/>
<stop offset="1" stop-color="white" stop-opacity="0"/>
</radialGradient>
<radialGradient id="paint3_radial_26_472" cx="0" cy="0" r="1" gradientUnits="userSpaceOnUse" gradientTransform="translate(108.5 52.5) rotate(90) scale(5.5)">
<stop stop-color="white"/>
<stop offset="0.350015" stop-color="white" stop-opacity="0.80027"/>
<stop offset="0.490015" stop-color="white" stop-opacity="0.510483"/>
<stop offset="0.874517" stop-color="white" stop-opacity="0"/>
<stop offset="1" stop-color="white" stop-opacity="0"/>
</radialGradient>
<radialGradient id="paint4_radial_26_472" cx="0" cy="0" r="1" gradientUnits="userSpaceOnUse" gradientTransform="translate(102.5 54.5) rotate(90) scale(5.5)">
<stop stop-color="white"/>
<stop offset="0.350015" stop-color="white" stop-opacity="0.80027"/>
<stop offset="0.490015" stop-color="white" stop-opacity="0.510483"/>
<stop offset="0.874517" stop-color="white" stop-opacity="0"/>
<stop offset="1" stop-color="white" stop-opacity="0"/>
</radialGradient>
<radialGradient id="paint5_radial_26_472" cx="0" cy="0" r="1" gradientUnits="userSpaceOnUse" gradientTransform="translate(49.5 5.5) rotate(90) scale(5.5)">
<stop stop-color="white"/>
<stop offset="0.350015" stop-color="white" stop-opacity="0.80027"/>
<stop offset="0.490015" stop-color="white" stop-opacity="0.510483"/>
<stop offset="0.874517" stop-color="white" stop-opacity="0"/>
<stop offset="1" stop-color="white" stop-opacity="0"/>
</radialGradient>
<radialGradient id="paint6_radial_26_472" cx="0" cy="0" r="1" gradientUnits="userSpaceOnUse" gradientTransform="translate(100.5 62.5) rotate(90) scale(5.5)">
<stop stop-color="white"/>
<stop offset="0.350015" stop-color="white" stop-opacity="0.80027"/>
<stop offset="0.490015" stop-color="white" stop-opacity="0.510483"/>
<stop offset="0.874517" stop-color="white" stop-opacity="0"/>
<stop offset="1" stop-color="white" stop-opacity="0"/>
</radialGradient>
</defs>
</svg>
