<svg width="99" height="102" viewBox="0 0 99 102" fill="none" xmlns="http://www.w3.org/2000/svg">
<circle cx="19.2029" cy="34.6083" r="1.90224" fill="white"/>
<circle cx="10.9022" cy="45.6762" r="1.90224" fill="white"/>
<circle cx="28.1953" cy="31.8419" r="1.90224" fill="white"/>
<circle cx="40.9922" cy="21.12" r="1.90224" fill="white"/>
<circle cx="32.6915" cy="56.7438" r="1.90224" fill="white"/>
<circle cx="46.5259" cy="62.6234" r="1.90224" fill="white"/>
<circle cx="32.6915" cy="79.9166" r="1.90224" fill="white"/>
<circle cx="77.6536" cy="64.3527" r="1.90224" fill="white"/>
<circle cx="82.8413" cy="53.9769" r="1.90224" fill="white"/>
<circle cx="89.4129" cy="53.9769" r="1.90224" fill="white"/>
<circle cx="96.3301" cy="48.4433" r="1.90224" fill="white"/>
<line x1="14.3292" y1="30.9328" x2="15.8729" y2="32.2192" stroke="white" stroke-width="0.691723" stroke-linecap="round"/>
<line x1="22.2682" y1="38.0252" x2="30.9202" y2="53.3326" stroke="white" stroke-width="0.691723" stroke-linecap="round"/>
<line x1="26.0499" y1="14.5267" x2="36.8197" y2="18.7693" stroke="white" stroke-width="0.691723" stroke-linecap="round"/>
<line x1="45.1128" y1="24.0546" x2="60.8739" y2="39.4804" stroke="white" stroke-width="0.691723" stroke-linecap="round"/>
<line x1="66.544" y1="46.65" x2="75.5144" y2="60.9362" stroke="white" stroke-width="0.691723" stroke-linecap="round"/>
<line x1="67.9326" y1="44.3827" x2="79.1267" y2="52.2845" stroke="white" stroke-width="0.691723" stroke-linecap="round"/>
<line x1="92.1026" y1="51.941" x2="93.6023" y2="50.9413" stroke="white" stroke-width="0.691723" stroke-linecap="round"/>
<line x1="85.7802" y1="54.1517" x2="86.1822" y2="54.1507" stroke="white" stroke-width="0.691723" stroke-linecap="round"/>
<line x1="31.5067" y1="29.4513" x2="37.9097" y2="23.6885" stroke="white" stroke-width="0.691723" stroke-linecap="round"/>
<line x1="43.932" y1="17.6911" x2="52.7811" y2="8.84192" stroke="white" stroke-width="0.691723" stroke-linecap="round"/>
<line x1="13.4002" y1="42.6027" x2="16.4751" y2="37.9903" stroke="white" stroke-width="0.691723" stroke-linecap="round"/>
<line x1="32.8643" y1="75.5933" x2="32.8643" y2="61.0672" stroke="white" stroke-width="0.691723" stroke-linecap="round"/>
<line x1="59.3768" y1="94.0758" x2="36.1292" y2="82.2836" stroke="white" stroke-width="0.691723" stroke-linecap="round"/>
<line x1="66.9668" y1="77.3948" x2="50.2298" y2="65.0094" stroke="white" stroke-width="0.691723" stroke-linecap="round"/>
<line x1="42.4304" y1="60.8759" x2="36.8236" y2="58.0725" stroke="white" stroke-width="0.691723" stroke-linecap="round"/>
<line x1="22.7261" y1="33.3166" x2="24.482" y2="32.8149" stroke="white" stroke-width="0.691723" stroke-linecap="round"/>
<path d="M8.5 21L9.9855 25.0145L14 26.5L9.9855 27.9855L8.5 32L7.0145 27.9855L3 26.5L7.0145 25.0145L8.5 21Z" fill="white"/>
<circle cx="8.5" cy="26.5" r="8.5" fill="url(#paint0_radial_26_463)"/>
<path d="M19.5 6L20.9855 10.0145L25 11.5L20.9855 12.9855L19.5 17L18.0145 12.9855L14 11.5L18.0145 10.0145L19.5 6Z" fill="white"/>
<circle cx="19.5" cy="11.5" r="8.5" fill="url(#paint1_radial_26_463)"/>
<path d="M63.5 38.9412L64.4612 41.5388L67.0588 42.5L64.4612 43.4612L63.5 46.0588L62.5388 43.4612L59.9412 42.5L62.5388 41.5388L63.5 38.9412Z" fill="white"/>
<circle cx="63.5" cy="42.5" r="5.5" fill="url(#paint2_radial_26_463)"/>
<path d="M56.5 1.94116L57.4612 4.53878L60.0588 5.49999L57.4612 6.46119L56.5 9.05881L55.5388 6.46119L52.9412 5.49999L55.5388 4.53878L56.5 1.94116Z" fill="white"/>
<circle cx="56.5" cy="5.5" r="5.5" fill="url(#paint3_radial_26_463)"/>
<path d="M72.5 75.9412L73.4612 78.5388L76.0588 79.5L73.4612 80.4612L72.5 83.0588L71.5388 80.4612L68.9412 79.5L71.5388 78.5388L72.5 75.9412Z" fill="white"/>
<circle cx="72.5" cy="79.5" r="5.5" fill="url(#paint4_radial_26_463)"/>
<path d="M64.5 92.9412L65.4612 95.5388L68.0588 96.5L65.4612 97.4612L64.5 100.059L63.5388 97.4612L60.9412 96.5L63.5388 95.5388L64.5 92.9412Z" fill="white"/>
<circle cx="64.5" cy="96.5" r="5.5" fill="url(#paint5_radial_26_463)"/>
<defs>
<radialGradient id="paint0_radial_26_463" cx="0" cy="0" r="1" gradientUnits="userSpaceOnUse" gradientTransform="translate(8.5 26.5) rotate(90) scale(8.5)">
<stop stop-color="white"/>
<stop offset="0.350015" stop-color="white" stop-opacity="0.80027"/>
<stop offset="0.490015" stop-color="white" stop-opacity="0.510483"/>
<stop offset="0.874517" stop-color="white" stop-opacity="0"/>
<stop offset="1" stop-color="white" stop-opacity="0"/>
</radialGradient>
<radialGradient id="paint1_radial_26_463" cx="0" cy="0" r="1" gradientUnits="userSpaceOnUse" gradientTransform="translate(19.5 11.5) rotate(90) scale(8.5)">
<stop stop-color="white"/>
<stop offset="0.350015" stop-color="white" stop-opacity="0.80027"/>
<stop offset="0.490015" stop-color="white" stop-opacity="0.510483"/>
<stop offset="0.874517" stop-color="white" stop-opacity="0"/>
<stop offset="1" stop-color="white" stop-opacity="0"/>
</radialGradient>
<radialGradient id="paint2_radial_26_463" cx="0" cy="0" r="1" gradientUnits="userSpaceOnUse" gradientTransform="translate(63.5 42.5) rotate(90) scale(5.5)">
<stop stop-color="white"/>
<stop offset="0.350015" stop-color="white" stop-opacity="0.80027"/>
<stop offset="0.490015" stop-color="white" stop-opacity="0.510483"/>
<stop offset="0.874517" stop-color="white" stop-opacity="0"/>
<stop offset="1" stop-color="white" stop-opacity="0"/>
</radialGradient>
<radialGradient id="paint3_radial_26_463" cx="0" cy="0" r="1" gradientUnits="userSpaceOnUse" gradientTransform="translate(56.5 5.5) rotate(90) scale(5.5)">
<stop stop-color="white"/>
<stop offset="0.350015" stop-color="white" stop-opacity="0.80027"/>
<stop offset="0.490015" stop-color="white" stop-opacity="0.510483"/>
<stop offset="0.874517" stop-color="white" stop-opacity="0"/>
<stop offset="1" stop-color="white" stop-opacity="0"/>
</radialGradient>
<radialGradient id="paint4_radial_26_463" cx="0" cy="0" r="1" gradientUnits="userSpaceOnUse" gradientTransform="translate(72.5 79.5) rotate(90) scale(5.5)">
<stop stop-color="white"/>
<stop offset="0.350015" stop-color="white" stop-opacity="0.80027"/>
<stop offset="0.490015" stop-color="white" stop-opacity="0.510483"/>
<stop offset="0.874517" stop-color="white" stop-opacity="0"/>
<stop offset="1" stop-color="white" stop-opacity="0"/>
</radialGradient>
<radialGradient id="paint5_radial_26_463" cx="0" cy="0" r="1" gradientUnits="userSpaceOnUse" gradientTransform="translate(64.5 96.5) rotate(90) scale(5.5)">
<stop stop-color="white"/>
<stop offset="0.350015" stop-color="white" stop-opacity="0.80027"/>
<stop offset="0.490015" stop-color="white" stop-opacity="0.510483"/>
<stop offset="0.874517" stop-color="white" stop-opacity="0"/>
<stop offset="1" stop-color="white" stop-opacity="0"/>
</radialGradient>
</defs>
</svg>
