<svg width="50" height="93" viewBox="0 0 50 93" fill="none" xmlns="http://www.w3.org/2000/svg">
<line x1="5.66787" y1="15.3125" x2="18.7705" y2="34.7985" stroke="white" stroke-width="0.691723" stroke-linecap="round"/>
<line x1="22.1724" y1="43.883" x2="23.1307" y2="52.1883" stroke="white" stroke-width="0.691723" stroke-linecap="round"/>
<line x1="23.4405" y1="61.2814" x2="18.74" y2="83.777" stroke="white" stroke-width="0.691723" stroke-linecap="round"/>
<line x1="45.4013" y1="6.01454" x2="25.0363" y2="36.2227" stroke="white" stroke-width="0.691723" stroke-linecap="round"/>
<circle cx="1.90224" cy="11.2411" r="1.90224" fill="white"/>
<circle cx="47.9017" cy="1.90273" r="1.90224" fill="white"/>
<circle cx="23.3455" cy="56.203" r="1.90224" fill="white"/>
<path d="M21.5 32L22.9855 36.0145L27 37.5L22.9855 38.9855L21.5 43L20.0145 38.9855L16 37.5L20.0145 36.0145L21.5 32Z" fill="white"/>
<circle cx="21.5" cy="37.5" r="8.5" fill="url(#paint0_radial_26_464)"/>
<path d="M17.5 83.9412L18.4612 86.5388L21.0588 87.5L18.4612 88.4612L17.5 91.0588L16.5388 88.4612L13.9412 87.5L16.5388 86.5388L17.5 83.9412Z" fill="white"/>
<circle cx="17.5" cy="87.5" r="5.5" fill="url(#paint1_radial_26_464)"/>
<defs>
<radialGradient id="paint0_radial_26_464" cx="0" cy="0" r="1" gradientUnits="userSpaceOnUse" gradientTransform="translate(21.5 37.5) rotate(90) scale(8.5)">
<stop stop-color="white"/>
<stop offset="0.350015" stop-color="white" stop-opacity="0.80027"/>
<stop offset="0.490015" stop-color="white" stop-opacity="0.510483"/>
<stop offset="0.874517" stop-color="white" stop-opacity="0"/>
<stop offset="1" stop-color="white" stop-opacity="0"/>
</radialGradient>
<radialGradient id="paint1_radial_26_464" cx="0" cy="0" r="1" gradientUnits="userSpaceOnUse" gradientTransform="translate(17.5 87.5) rotate(90) scale(5.5)">
<stop stop-color="white"/>
<stop offset="0.350015" stop-color="white" stop-opacity="0.80027"/>
<stop offset="0.490015" stop-color="white" stop-opacity="0.510483"/>
<stop offset="0.874517" stop-color="white" stop-opacity="0"/>
<stop offset="1" stop-color="white" stop-opacity="0"/>
</radialGradient>
</defs>
</svg>
