<svg width="67" height="117" viewBox="0 0 67 117" fill="none" xmlns="http://www.w3.org/2000/svg">
<circle cx="20.699" cy="43.0597" r="1.90224" fill="white"/>
<circle cx="30.3831" cy="20.2328" r="1.90224" fill="white"/>
<circle cx="42.8341" cy="49.6312" r="1.90224" fill="white"/>
<circle cx="28.3079" cy="65.8866" r="1.90224" fill="white"/>
<circle cx="24.5034" cy="82.4879" r="1.90224" fill="white"/>
<circle cx="19.6615" cy="114.653" r="1.90224" fill="white"/>
<circle cx="40.7589" cy="91.4804" r="1.90224" fill="white"/>
<circle cx="38.6837" cy="110.157" r="1.90224" fill="white"/>
<circle cx="28.6538" cy="5.70668" r="1.90224" fill="white"/>
<circle cx="16.8945" cy="1.90224" r="1.90224" fill="white"/>
<circle cx="13.09" cy="10.5492" r="1.90224" fill="white"/>
<line x1="17.1931" y1="12.321" x2="26.9671" y2="17.8596" stroke="white" stroke-width="0.691723" stroke-linecap="round"/>
<line x1="29.562" y1="9.63409" x2="30.5062" y2="16.5577" stroke="white" stroke-width="0.691723" stroke-linecap="round"/>
<line x1="30.5561" y1="24.5561" x2="30.5561" y2="30.0898" stroke="white" stroke-width="0.691723" stroke-linecap="round"/>
<line x1="30.8663" y1="38.0766" x2="28.5131" y2="61.9444" stroke="white" stroke-width="0.691723" stroke-linecap="round"/>
<line x1="27.4645" y1="37.15" x2="24.1274" y2="40.7905" stroke="white" stroke-width="0.691723" stroke-linecap="round"/>
<line x1="33.8032" y1="36.0619" x2="40.6783" y2="46.2109" stroke="white" stroke-width="0.691723" stroke-linecap="round"/>
<line x1="45.9145" y1="51.8279" x2="52.64" y2="57.2724" stroke="white" stroke-width="0.691723" stroke-linecap="round"/>
<line x1="27.3566" y1="69.9333" x2="25.437" y2="78.2517" stroke="white" stroke-width="0.691723" stroke-linecap="round"/>
<line x1="23.9269" y1="86.8607" x2="20.2298" y2="110.388" stroke="white" stroke-width="0.691723" stroke-linecap="round"/>
<line x1="40.5418" y1="95.4968" x2="39.2416" y2="106.224" stroke="white" stroke-width="0.691723" stroke-linecap="round"/>
<line x1="30.326" y1="68.9877" x2="39.3638" y2="87.7329" stroke="white" stroke-width="0.691723" stroke-linecap="round"/>
<line x1="16.4504" y1="43.9856" x2="11.9407" y2="44.8875" stroke="white" stroke-width="0.691723" stroke-linecap="round"/>
<line x1="15.4928" y1="5.65201" x2="14.7646" y2="7.10848" stroke="white" stroke-width="0.691723" stroke-linecap="round"/>
<line x1="20.9801" y1="1.89354" x2="25.1864" y2="3.69623" stroke="white" stroke-width="0.691723" stroke-linecap="round"/>
<path d="M31.5 29L32.9855 33.0145L37 34.5L32.9855 35.9855L31.5 40L30.0145 35.9855L26 34.5L30.0145 33.0145L31.5 29Z" fill="white"/>
<circle cx="31.5" cy="34.5" r="8.5" fill="url(#paint0_radial_26_466)"/>
<path d="M58.5 52L59.9855 56.0145L64 57.5L59.9855 58.9855L58.5 63L57.0145 58.9855L53 57.5L57.0145 56.0145L58.5 52Z" fill="white"/>
<circle cx="58.5" cy="57.5" r="8.5" fill="url(#paint1_radial_26_466)"/>
<path d="M5.49999 42.9412L6.46119 45.5388L9.05881 46.5L6.46119 47.4612L5.49999 50.0588L4.53878 47.4612L1.94116 46.5L4.53878 45.5388L5.49999 42.9412Z" fill="white"/>
<circle cx="5.5" cy="46.5" r="5.5" fill="url(#paint2_radial_26_466)"/>
<defs>
<radialGradient id="paint0_radial_26_466" cx="0" cy="0" r="1" gradientUnits="userSpaceOnUse" gradientTransform="translate(31.5 34.5) rotate(90) scale(8.5)">
<stop stop-color="white"/>
<stop offset="0.350015" stop-color="white" stop-opacity="0.80027"/>
<stop offset="0.490015" stop-color="white" stop-opacity="0.510483"/>
<stop offset="0.874517" stop-color="white" stop-opacity="0"/>
<stop offset="1" stop-color="white" stop-opacity="0"/>
</radialGradient>
<radialGradient id="paint1_radial_26_466" cx="0" cy="0" r="1" gradientUnits="userSpaceOnUse" gradientTransform="translate(58.5 57.5) rotate(90) scale(8.5)">
<stop stop-color="white"/>
<stop offset="0.350015" stop-color="white" stop-opacity="0.80027"/>
<stop offset="0.490015" stop-color="white" stop-opacity="0.510483"/>
<stop offset="0.874517" stop-color="white" stop-opacity="0"/>
<stop offset="1" stop-color="white" stop-opacity="0"/>
</radialGradient>
<radialGradient id="paint2_radial_26_466" cx="0" cy="0" r="1" gradientUnits="userSpaceOnUse" gradientTransform="translate(5.5 46.5) rotate(90) scale(5.5)">
<stop stop-color="white"/>
<stop offset="0.350015" stop-color="white" stop-opacity="0.80027"/>
<stop offset="0.490015" stop-color="white" stop-opacity="0.510483"/>
<stop offset="0.874517" stop-color="white" stop-opacity="0"/>
<stop offset="1" stop-color="white" stop-opacity="0"/>
</radialGradient>
</defs>
</svg>
