<svg width="76" height="85" viewBox="0 0 76 85" fill="none" xmlns="http://www.w3.org/2000/svg">
<circle cx="68.1195" cy="34.1132" r="1.90224" fill="white"/>
<circle cx="64.3153" cy="74.9249" r="1.90224" fill="white"/>
<circle cx="73.9992" cy="82.1876" r="1.90224" fill="white"/>
<circle cx="18.3156" cy="52.444" r="1.90224" fill="white"/>
<circle cx="17.6239" cy="78.7294" r="1.90224" fill="white"/>
<circle cx="6.90224" cy="80.8041" r="1.90224" fill="white"/>
<line x1="44.571" y1="12.1301" x2="65.5052" y2="31.376" stroke="white" stroke-width="0.691723" stroke-linecap="round"/>
<line x1="37.6579" y1="9.83106" x2="13.0558" y2="19.2675" stroke="white" stroke-width="0.691723" stroke-linecap="round"/>
<line x1="64.7676" y1="33.1658" x2="13.5639" y2="21.901" stroke="white" stroke-width="0.691723" stroke-linecap="round"/>
<line x1="17.0221" y1="48.5768" x2="9.95265" y2="24.3389" stroke="white" stroke-width="0.691723" stroke-linecap="round"/>
<line x1="17.8098" y1="74.739" x2="18.4759" y2="56.7537" stroke="white" stroke-width="0.691723" stroke-linecap="round"/>
<line x1="64.8711" y1="70.9135" x2="68.2588" y2="38.053" stroke="white" stroke-width="0.691723" stroke-linecap="round"/>
<line x1="10.7764" y1="79.5153" x2="13.9135" y2="78.6597" stroke="white" stroke-width="0.691723" stroke-linecap="round"/>
<line x1="67.7418" y1="77.1239" x2="71.0109" y2="79.7987" stroke="white" stroke-width="0.691723" stroke-linecap="round"/>
<path d="M41.5 3L42.9855 7.0145L47 8.5L42.9855 9.9855L41.5 14L40.0145 9.9855L36 8.5L40.0145 7.0145L41.5 3Z" fill="white"/>
<circle cx="41.5" cy="8.5" r="8.5" fill="url(#paint0_radial_26_467)"/>
<path d="M8.5 14L9.9855 18.0145L14 19.5L9.9855 20.9855L8.5 25L7.0145 20.9855L3 19.5L7.0145 18.0145L8.5 14Z" fill="white"/>
<circle cx="8.5" cy="19.5" r="8.5" fill="url(#paint1_radial_26_467)"/>
<path d="M68.5 29.9412L69.4612 32.5388L72.0588 33.5L69.4612 34.4612L68.5 37.0588L67.5388 34.4612L64.9412 33.5L67.5388 32.5388L68.5 29.9412Z" fill="white"/>
<circle cx="68.5" cy="33.5" r="5.5" fill="url(#paint2_radial_26_467)"/>
<defs>
<radialGradient id="paint0_radial_26_467" cx="0" cy="0" r="1" gradientUnits="userSpaceOnUse" gradientTransform="translate(41.5 8.5) rotate(90) scale(8.5)">
<stop stop-color="white"/>
<stop offset="0.350015" stop-color="white" stop-opacity="0.80027"/>
<stop offset="0.490015" stop-color="white" stop-opacity="0.510483"/>
<stop offset="0.874517" stop-color="white" stop-opacity="0"/>
<stop offset="1" stop-color="white" stop-opacity="0"/>
</radialGradient>
<radialGradient id="paint1_radial_26_467" cx="0" cy="0" r="1" gradientUnits="userSpaceOnUse" gradientTransform="translate(8.5 19.5) rotate(90) scale(8.5)">
<stop stop-color="white"/>
<stop offset="0.350015" stop-color="white" stop-opacity="0.80027"/>
<stop offset="0.490015" stop-color="white" stop-opacity="0.510483"/>
<stop offset="0.874517" stop-color="white" stop-opacity="0"/>
<stop offset="1" stop-color="white" stop-opacity="0"/>
</radialGradient>
<radialGradient id="paint2_radial_26_467" cx="0" cy="0" r="1" gradientUnits="userSpaceOnUse" gradientTransform="translate(68.5 33.5) rotate(90) scale(5.5)">
<stop stop-color="white"/>
<stop offset="0.350015" stop-color="white" stop-opacity="0.80027"/>
<stop offset="0.490015" stop-color="white" stop-opacity="0.510483"/>
<stop offset="0.874517" stop-color="white" stop-opacity="0"/>
<stop offset="1" stop-color="white" stop-opacity="0"/>
</radialGradient>
</defs>
</svg>
