<svg width="75" height="87" viewBox="0 0 75 87" fill="none" xmlns="http://www.w3.org/2000/svg">
<circle cx="1.90224" cy="54.8197" r="1.90224" fill="white"/>
<circle cx="15.0451" cy="58.6244" r="1.90224" fill="white"/>
<circle cx="8.12782" cy="64.8497" r="1.90224" fill="white"/>
<circle cx="5.01515" cy="70.0377" r="1.90224" fill="white"/>
<circle cx="27.1503" cy="79.3759" r="1.90224" fill="white"/>
<circle cx="39.6012" cy="76.2631" r="1.90224" fill="white"/>
<circle cx="37.8718" cy="66.2333" r="1.90224" fill="white"/>
<circle cx="47.556" cy="30.6095" r="1.90224" fill="white"/>
<circle cx="59.6611" cy="21.2711" r="1.90224" fill="white"/>
<circle cx="72.4581" cy="13.6622" r="1.90224" fill="white"/>
<circle cx="70.7288" cy="5.01576" r="1.90224" fill="white"/>
<circle cx="61.3905" cy="1.90297" r="1.90224" fill="white"/>
<circle cx="71.7664" cy="23.3463" r="1.90224" fill="white"/>
<circle cx="72.4581" cy="31.9928" r="1.90224" fill="white"/>
<line x1="64.7678" y1="2.54884" x2="67.2243" y2="3.36768" stroke="white" stroke-width="0.691723" stroke-linecap="round"/>
<line x1="63.0248" y1="19.5779" x2="68.6895" y2="15.4867" stroke="white" stroke-width="0.691723" stroke-linecap="round"/>
<line x1="49.7598" y1="27.8742" x2="51.0463" y2="26.3304" stroke="white" stroke-width="0.691723" stroke-linecap="round"/>
<line x1="40.6231" y1="46.5866" x2="45.8943" y2="33.7379" stroke="white" stroke-width="0.691723" stroke-linecap="round"/>
<line x1="38.0703" y1="62.5779" x2="38.7127" y2="53.5837" stroke="white" stroke-width="0.691723" stroke-linecap="round"/>
<line x1="38.6578" y1="73.0808" x2="37.8023" y2="69.9437" stroke="white" stroke-width="0.691723" stroke-linecap="round"/>
<line x1="31.3158" y1="79.0973" x2="36.5558" y2="76.9397" stroke="white" stroke-width="0.691723" stroke-linecap="round"/>
<line x1="17.2746" y1="79.8767" x2="23.1552" y2="79.5672" stroke="white" stroke-width="0.691723" stroke-linecap="round"/>
<line x1="7.75231" y1="73.3235" x2="10.7218" y2="76.293" stroke="white" stroke-width="0.691723" stroke-linecap="round"/>
<line x1="12.1052" y1="61.0157" x2="10.865" y2="62.2559" stroke="white" stroke-width="0.691723" stroke-linecap="round"/>
<line x1="8.33688" y1="53.9874" x2="5.56655" y2="54.2645" stroke="white" stroke-width="0.691723" stroke-linecap="round"/>
<line x1="71.9796" y1="20.0246" x2="72.2491" y2="17.5993" stroke="white" stroke-width="0.691723" stroke-linecap="round"/>
<line x1="71.8871" y1="28.423" x2="71.655" y2="27.0301" stroke="white" stroke-width="0.691723" stroke-linecap="round"/>
<line x1="71.6336" y1="8.25537" x2="71.8937" y2="10.3359" stroke="white" stroke-width="0.691723" stroke-linecap="round"/>
<path d="M53.5 19L54.9855 23.0145L59 24.5L54.9855 25.9855L53.5 30L52.0145 25.9855L48 24.5L52.0145 23.0145L53.5 19Z" fill="white"/>
<circle cx="53.5" cy="24.5" r="8.5" fill="url(#paint0_radial_26_468)"/>
<path d="M12.5 73L13.9855 77.0145L18 78.5L13.9855 79.9855L12.5 84L11.0145 79.9855L7 78.5L11.0145 77.0145L12.5 73Z" fill="white"/>
<circle cx="12.5" cy="78.5" r="8.5" fill="url(#paint1_radial_26_468)"/>
<path d="M12.5 49.9412L13.4612 52.5388L16.0588 53.5L13.4612 54.4612L12.5 57.0588L11.5388 54.4612L8.94116 53.5L11.5388 52.5388L12.5 49.9412Z" fill="white"/>
<circle cx="12.5" cy="53.5" r="5.5" fill="url(#paint2_radial_26_468)"/>
<path d="M39.5 45.9412L40.4612 48.5388L43.0588 49.5L40.4612 50.4612L39.5 53.0588L38.5388 50.4612L35.9412 49.5L38.5388 48.5388L39.5 45.9412Z" fill="white"/>
<circle cx="39.5" cy="49.5" r="5.5" fill="url(#paint3_radial_26_468)"/>
<defs>
<radialGradient id="paint0_radial_26_468" cx="0" cy="0" r="1" gradientUnits="userSpaceOnUse" gradientTransform="translate(53.5 24.5) rotate(90) scale(8.5)">
<stop stop-color="white"/>
<stop offset="0.350015" stop-color="white" stop-opacity="0.80027"/>
<stop offset="0.490015" stop-color="white" stop-opacity="0.510483"/>
<stop offset="0.874517" stop-color="white" stop-opacity="0"/>
<stop offset="1" stop-color="white" stop-opacity="0"/>
</radialGradient>
<radialGradient id="paint1_radial_26_468" cx="0" cy="0" r="1" gradientUnits="userSpaceOnUse" gradientTransform="translate(12.5 78.5) rotate(90) scale(8.5)">
<stop stop-color="white"/>
<stop offset="0.350015" stop-color="white" stop-opacity="0.80027"/>
<stop offset="0.490015" stop-color="white" stop-opacity="0.510483"/>
<stop offset="0.874517" stop-color="white" stop-opacity="0"/>
<stop offset="1" stop-color="white" stop-opacity="0"/>
</radialGradient>
<radialGradient id="paint2_radial_26_468" cx="0" cy="0" r="1" gradientUnits="userSpaceOnUse" gradientTransform="translate(12.5 53.5) rotate(90) scale(5.5)">
<stop stop-color="white"/>
<stop offset="0.350015" stop-color="white" stop-opacity="0.80027"/>
<stop offset="0.490015" stop-color="white" stop-opacity="0.510483"/>
<stop offset="0.874517" stop-color="white" stop-opacity="0"/>
<stop offset="1" stop-color="white" stop-opacity="0"/>
</radialGradient>
<radialGradient id="paint3_radial_26_468" cx="0" cy="0" r="1" gradientUnits="userSpaceOnUse" gradientTransform="translate(39.5 49.5) rotate(90) scale(5.5)">
<stop stop-color="white"/>
<stop offset="0.350015" stop-color="white" stop-opacity="0.80027"/>
<stop offset="0.490015" stop-color="white" stop-opacity="0.510483"/>
<stop offset="0.874517" stop-color="white" stop-opacity="0"/>
<stop offset="1" stop-color="white" stop-opacity="0"/>
</radialGradient>
</defs>
</svg>
