<svg width="100" height="94" viewBox="0 0 100 94" fill="none" xmlns="http://www.w3.org/2000/svg">
<circle cx="1.90224" cy="35.4503" r="1.90224" fill="white"/>
<circle cx="7.43605" cy="33.7208" r="1.90224" fill="white"/>
<circle cx="26.8042" cy="24.0368" r="1.90224" fill="white"/>
<circle cx="44.7891" cy="26.112" r="1.90224" fill="white"/>
<circle cx="39.6012" cy="1.90175" r="1.90224" fill="white"/>
<circle cx="53.4357" cy="17.4655" r="1.90224" fill="white"/>
<circle cx="50.3229" cy="36.4879" r="1.90224" fill="white"/>
<circle cx="65.5408" cy="36.4879" r="1.90224" fill="white"/>
<circle cx="88.7135" cy="19.1947" r="1.90224" fill="white"/>
<circle cx="88.0219" cy="52.0517" r="1.90224" fill="white"/>
<circle cx="34.759" cy="78.683" r="1.90224" fill="white"/>
<circle cx="34.759" cy="91.8258" r="1.90224" fill="white"/>
<circle cx="14.0075" cy="86.2919" r="1.90224" fill="white"/>
<circle cx="6.74428" cy="65.194" r="1.90224" fill="white"/>
<circle cx="80.4129" cy="70.3822" r="1.90224" fill="white"/>
<circle cx="97.36" cy="48.9389" r="1.90224" fill="white"/>
<line x1="79.1527" y1="31.332" x2="86.3248" y2="22.53" stroke="white" stroke-width="0.691723" stroke-linecap="round"/>
<line x1="78.1126" y1="44.3312" x2="77.1887" y2="38.788" stroke="white" stroke-width="0.691723" stroke-linecap="round"/>
<line x1="69.0857" y1="35.9002" x2="72.9078" y2="35.0181" stroke="white" stroke-width="0.691723" stroke-linecap="round"/>
<line x1="56.8104" y1="42.0596" x2="61.7742" y2="38.647" stroke="white" stroke-width="0.691723" stroke-linecap="round"/>
<line x1="52.4627" y1="41.3213" x2="51.6976" y2="39.536" stroke="white" stroke-width="0.691723" stroke-linecap="round"/>
<line x1="49.3296" y1="33.0835" x2="46.5727" y2="28.4887" stroke="white" stroke-width="0.691723" stroke-linecap="round"/>
<line x1="58.008" y1="28.4978" x2="55.1295" y2="20.5021" stroke="white" stroke-width="0.691723" stroke-linecap="round"/>
<line x1="46.553" y1="10.998" x2="41.7801" y2="4.63411" stroke="white" stroke-width="0.691723" stroke-linecap="round"/>
<line x1="40.7799" y1="25.5587" x2="30.7467" y2="24.5878" stroke="white" stroke-width="0.691723" stroke-linecap="round"/>
<line x1="23.3788" y1="25.3703" x2="11.1904" y2="31.9586" stroke="white" stroke-width="0.691723" stroke-linecap="round"/>
<line x1="3.15997" y1="38.6812" x2="6.51648" y2="61.1697" stroke="white" stroke-width="0.691723" stroke-linecap="round"/>
<line x1="8.39053" y1="69.7404" x2="12.3275" y2="81.8792" stroke="white" stroke-width="0.691723" stroke-linecap="round"/>
<line x1="30.2308" y1="79.9917" x2="17.7372" y2="84.5946" stroke="white" stroke-width="0.691723" stroke-linecap="round"/>
<line x1="30.7025" y1="91.5487" x2="17.535" y2="87.9276" stroke="white" stroke-width="0.691723" stroke-linecap="round"/>
<line x1="55.9008" y1="33.674" x2="54.0804" y2="34.7143" stroke="white" stroke-width="0.691723" stroke-linecap="round"/>
<line x1="62.0477" y1="33.4789" x2="62.8778" y2="34.1015" stroke="white" stroke-width="0.691723" stroke-linecap="round"/>
<line x1="74.1868" y1="57.9929" x2="77.0157" y2="51.7064" stroke="white" stroke-width="0.691723" stroke-linecap="round"/>
<line x1="78.0264" y1="68.0651" x2="75.3287" y2="64.4681" stroke="white" stroke-width="0.691723" stroke-linecap="round"/>
<line x1="84.2722" y1="50.9957" x2="82.124" y2="49.9216" stroke="white" stroke-width="0.691723" stroke-linecap="round"/>
<line x1="93.8721" y1="50.2487" x2="91.7529" y2="51.0435" stroke="white" stroke-width="0.691723" stroke-linecap="round"/>
<path d="M59.5 25L60.9855 29.0145L65 30.5L60.9855 31.9855L59.5 36L58.0145 31.9855L54 30.5L58.0145 29.0145L59.5 25Z" fill="white"/>
<circle cx="59.5" cy="30.5" r="8.5" fill="url(#paint0_radial_26_469)"/>
<path d="M71.5 57L72.9855 61.0145L77 62.5L72.9855 63.9855L71.5 68L70.0145 63.9855L66 62.5L70.0145 61.0145L71.5 57Z" fill="white"/>
<circle cx="71.5" cy="62.5" r="8.5" fill="url(#paint1_radial_26_469)"/>
<path d="M76.5 30.9412L77.4612 33.5388L80.0588 34.5L77.4612 35.4612L76.5 38.0588L75.5388 35.4612L72.9412 34.5L75.5388 33.5388L76.5 30.9412Z" fill="white"/>
<circle cx="76.5" cy="34.5" r="5.5" fill="url(#paint2_radial_26_469)"/>
<path d="M54.5 39.9412L55.4612 42.5388L58.0588 43.5L55.4612 44.4612L54.5 47.0588L53.5388 44.4612L50.9412 43.5L53.5388 42.5388L54.5 39.9412Z" fill="white"/>
<circle cx="54.5" cy="43.5" r="5.5" fill="url(#paint3_radial_26_469)"/>
<path d="M48.5 8.94116L49.4612 11.5388L52.0588 12.5L49.4612 13.4612L48.5 16.0588L47.5388 13.4612L44.9412 12.5L47.5388 11.5388L48.5 8.94116Z" fill="white"/>
<circle cx="48.5" cy="12.5" r="5.5" fill="url(#paint4_radial_26_469)"/>
<path d="M78.5 45.9412L79.4612 48.5388L82.0588 49.5L79.4612 50.4612L78.5 53.0588L77.5388 50.4612L74.9412 49.5L77.5388 48.5388L78.5 45.9412Z" fill="white"/>
<circle cx="78.5" cy="49.5" r="5.5" fill="url(#paint5_radial_26_469)"/>
<defs>
<radialGradient id="paint0_radial_26_469" cx="0" cy="0" r="1" gradientUnits="userSpaceOnUse" gradientTransform="translate(59.5 30.5) rotate(90) scale(8.5)">
<stop stop-color="white"/>
<stop offset="0.350015" stop-color="white" stop-opacity="0.80027"/>
<stop offset="0.490015" stop-color="white" stop-opacity="0.510483"/>
<stop offset="0.874517" stop-color="white" stop-opacity="0"/>
<stop offset="1" stop-color="white" stop-opacity="0"/>
</radialGradient>
<radialGradient id="paint1_radial_26_469" cx="0" cy="0" r="1" gradientUnits="userSpaceOnUse" gradientTransform="translate(71.5 62.5) rotate(90) scale(8.5)">
<stop stop-color="white"/>
<stop offset="0.350015" stop-color="white" stop-opacity="0.80027"/>
<stop offset="0.490015" stop-color="white" stop-opacity="0.510483"/>
<stop offset="0.874517" stop-color="white" stop-opacity="0"/>
<stop offset="1" stop-color="white" stop-opacity="0"/>
</radialGradient>
<radialGradient id="paint2_radial_26_469" cx="0" cy="0" r="1" gradientUnits="userSpaceOnUse" gradientTransform="translate(76.5 34.5) rotate(90) scale(5.5)">
<stop stop-color="white"/>
<stop offset="0.350015" stop-color="white" stop-opacity="0.80027"/>
<stop offset="0.490015" stop-color="white" stop-opacity="0.510483"/>
<stop offset="0.874517" stop-color="white" stop-opacity="0"/>
<stop offset="1" stop-color="white" stop-opacity="0"/>
</radialGradient>
<radialGradient id="paint3_radial_26_469" cx="0" cy="0" r="1" gradientUnits="userSpaceOnUse" gradientTransform="translate(54.5 43.5) rotate(90) scale(5.5)">
<stop stop-color="white"/>
<stop offset="0.350015" stop-color="white" stop-opacity="0.80027"/>
<stop offset="0.490015" stop-color="white" stop-opacity="0.510483"/>
<stop offset="0.874517" stop-color="white" stop-opacity="0"/>
<stop offset="1" stop-color="white" stop-opacity="0"/>
</radialGradient>
<radialGradient id="paint4_radial_26_469" cx="0" cy="0" r="1" gradientUnits="userSpaceOnUse" gradientTransform="translate(48.5 12.5) rotate(90) scale(5.5)">
<stop stop-color="white"/>
<stop offset="0.350015" stop-color="white" stop-opacity="0.80027"/>
<stop offset="0.490015" stop-color="white" stop-opacity="0.510483"/>
<stop offset="0.874517" stop-color="white" stop-opacity="0"/>
<stop offset="1" stop-color="white" stop-opacity="0"/>
</radialGradient>
<radialGradient id="paint5_radial_26_469" cx="0" cy="0" r="1" gradientUnits="userSpaceOnUse" gradientTransform="translate(78.5 49.5) rotate(90) scale(5.5)">
<stop stop-color="white"/>
<stop offset="0.350015" stop-color="white" stop-opacity="0.80027"/>
<stop offset="0.490015" stop-color="white" stop-opacity="0.510483"/>
<stop offset="0.874517" stop-color="white" stop-opacity="0"/>
<stop offset="1" stop-color="white" stop-opacity="0"/>
</radialGradient>
</defs>
</svg>
