<svg width="399" height="50" viewBox="0 0 399 50" fill="none" xmlns="http://www.w3.org/2000/svg">
<rect x="5" y="5" width="389" height="40" rx="2" fill="#343251" stroke="#EBD2FF" stroke-width="2"/>
<rect x="0.5" y="0.5" width="398" height="49" rx="6.5" stroke="#EBD2FF"/>
<path d="M24.1125 23.5501C19.9283 24.3087 17.9702 19.9211 19.5382 16.9872C21.1116 14.0401 25.0809 14.8093 27.2088 16.4753C28.8008 17.7194 29.7931 19.9583 30.2336 21.8948C30.4989 23.0646 30.6024 24.2689 30.6024 25.468V35.5218" stroke="white" stroke-width="2.53937" stroke-miterlimit="10" stroke-linecap="round"/>
<path d="M37.3842 23.5501C41.5684 24.3087 43.5265 19.9211 41.9584 16.9872C40.385 14.0401 36.4157 14.8093 34.2878 16.4753C32.6959 17.7194 31.7035 19.9583 31.2631 21.8948C30.9978 23.0646 30.8943 24.2689 30.8943 25.468V35.5218" stroke="white" stroke-width="2.53937" stroke-miterlimit="10" stroke-linecap="round"/>
<path d="M74.712 20.708H76.596V21.536H74.712V20.708ZM74.712 23.012H76.596V23.84H74.712V23.012ZM69.624 19.724C71.256 19.724 72.456 20.78 72.456 22.292C72.456 23.792 71.256 24.836 69.624 24.836C67.992 24.836 66.792 23.792 66.792 22.292C66.792 20.78 67.992 19.724 69.624 19.724ZM69.624 20.564C68.544 20.564 67.764 21.272 67.764 22.292C67.764 23.312 68.544 24.008 69.624 24.008C70.704 24.008 71.484 23.312 71.484 22.292C71.484 21.272 70.704 20.564 69.624 20.564ZM74.016 19.088H75.012V25.508H74.016V19.088ZM71.556 25.856C73.764 25.856 75.12 26.612 75.12 27.884C75.12 29.168 73.764 29.912 71.556 29.912C69.348 29.912 67.992 29.168 67.992 27.884C67.992 26.612 69.348 25.856 71.556 25.856ZM71.556 26.66C69.948 26.66 68.964 27.104 68.964 27.884C68.964 28.664 69.948 29.12 71.556 29.12C73.164 29.12 74.148 28.664 74.148 27.884C74.148 27.104 73.164 26.66 71.556 26.66ZM80.3151 20.636H81.1071V22.4C81.1071 24.656 79.7271 26.984 78.0351 27.848L77.4591 27.056C79.0071 26.3 80.3151 24.236 80.3151 22.4V20.636ZM80.4951 20.636H81.2871V22.4C81.2871 24.116 82.5111 26.048 84.0831 26.792L83.5191 27.584C81.8031 26.732 80.4951 24.548 80.4951 22.4V20.636ZM77.8431 20.192H83.6871V21.032H77.8431V20.192ZM84.9711 19.088H85.9791V29.936H84.9711V19.088ZM85.7391 23.468H87.7551V24.308H85.7391V23.468ZM96.5741 19.076H97.5701V29.948H96.5741V19.076ZM89.3021 26.504H90.2021C92.0141 26.504 93.6341 26.432 95.5541 26.12L95.6621 26.936C93.6941 27.26 92.0621 27.332 90.2021 27.332H89.3021V26.504ZM89.2781 20.096H94.2941V23.972H90.2981V26.816H89.3021V23.156H93.2861V20.912H89.2781V20.096ZM103.771 24.6364C103.771 23.5625 103.91 22.5753 104.188 21.6747C104.469 20.7713 104.87 19.9403 105.39 19.1818H106.276C106.072 19.4631 105.88 19.8097 105.701 20.2216C105.525 20.6307 105.37 21.081 105.237 21.5724C105.103 22.0611 104.998 22.5668 104.921 23.0895C104.847 23.6122 104.81 24.1278 104.81 24.6364C104.81 25.3125 104.876 25.9986 105.006 26.6946C105.137 27.3906 105.313 28.0369 105.535 28.6335C105.756 29.2301 106.004 29.7159 106.276 30.0909H105.39C104.87 29.3324 104.469 28.5028 104.188 27.6023C103.91 26.6989 103.771 25.7102 103.771 24.6364ZM108.255 29H107.147L110.351 20.2727H111.442L114.647 29H113.539L110.931 21.6534H110.863L108.255 29ZM108.664 25.5909H113.13V26.5284H108.664V25.5909ZM115.87 29V22.4545H116.841V23.4432H116.909C117.029 23.1193 117.245 22.8565 117.557 22.6548C117.87 22.4531 118.222 22.3523 118.614 22.3523C118.688 22.3523 118.78 22.3537 118.891 22.3565C119.002 22.3594 119.086 22.3636 119.142 22.3693V23.392C119.108 23.3835 119.03 23.3707 118.908 23.3537C118.789 23.3338 118.662 23.3239 118.529 23.3239C118.211 23.3239 117.926 23.3906 117.676 23.5241C117.429 23.6548 117.233 23.8366 117.088 24.0696C116.946 24.2997 116.875 24.5625 116.875 24.858V29H115.87ZM120.335 29V22.4545H121.34V29H120.335ZM120.846 21.3636C120.65 21.3636 120.481 21.2969 120.339 21.1634C120.2 21.0298 120.13 20.8693 120.13 20.6818C120.13 20.4943 120.2 20.3338 120.339 20.2003C120.481 20.0668 120.65 20 120.846 20C121.042 20 121.21 20.0668 121.349 20.2003C121.491 20.3338 121.562 20.4943 121.562 20.6818C121.562 20.8693 121.491 21.0298 121.349 21.1634C121.21 21.2969 121.042 21.3636 120.846 21.3636ZM125.926 29.1364C125.296 29.1364 124.752 28.9972 124.294 28.7188C123.84 28.4375 123.489 28.0455 123.242 27.5426C122.998 27.0369 122.875 26.4489 122.875 25.7784C122.875 25.108 122.998 24.517 123.242 24.0057C123.489 23.4915 123.833 23.0909 124.273 22.804C124.716 22.5142 125.233 22.3693 125.824 22.3693C126.165 22.3693 126.502 22.4261 126.834 22.5398C127.167 22.6534 127.469 22.8381 127.742 23.0938C128.015 23.3466 128.232 23.6818 128.394 24.0994C128.556 24.517 128.637 25.0312 128.637 25.642V26.0682H123.591V25.1989H127.614C127.614 24.8295 127.54 24.5 127.392 24.2102C127.248 23.9205 127.04 23.6918 126.77 23.5241C126.503 23.3565 126.188 23.2727 125.824 23.2727C125.424 23.2727 125.077 23.3722 124.784 23.571C124.495 23.767 124.272 24.0227 124.115 24.3381C123.959 24.6534 123.881 24.9915 123.881 25.3523V25.9318C123.881 26.4261 123.966 26.8452 124.137 27.1889C124.31 27.5298 124.55 27.7898 124.857 27.9688C125.164 28.1449 125.52 28.233 125.926 28.233C126.191 28.233 126.429 28.196 126.642 28.1222C126.858 28.0455 127.044 27.9318 127.201 27.7812C127.357 27.6278 127.478 27.4375 127.563 27.2102L128.534 27.483C128.432 27.8125 128.26 28.1023 128.019 28.3523C127.777 28.5994 127.479 28.7926 127.124 28.9318C126.769 29.0682 126.37 29.1364 125.926 29.1364ZM134.803 23.9205L133.9 24.1761C133.843 24.0256 133.759 23.8793 133.648 23.7372C133.54 23.5923 133.392 23.473 133.205 23.3793C133.017 23.2855 132.777 23.2386 132.485 23.2386C132.084 23.2386 131.75 23.331 131.483 23.5156C131.219 23.6974 131.087 23.929 131.087 24.2102C131.087 24.4602 131.178 24.6577 131.36 24.8026C131.542 24.9474 131.826 25.0682 132.212 25.1648L133.184 25.4034C133.769 25.5455 134.205 25.7628 134.492 26.0554C134.779 26.3452 134.922 26.7187 134.922 27.1761C134.922 27.5511 134.814 27.8864 134.598 28.1818C134.385 28.4773 134.087 28.7102 133.703 28.8807C133.32 29.0511 132.874 29.1364 132.365 29.1364C131.698 29.1364 131.145 28.9915 130.708 28.7017C130.27 28.4119 129.993 27.9886 129.877 27.4318L130.831 27.1932C130.922 27.5455 131.094 27.8097 131.347 27.9858C131.603 28.1619 131.936 28.25 132.348 28.25C132.817 28.25 133.189 28.1506 133.465 27.9517C133.743 27.75 133.882 27.5085 133.882 27.2273C133.882 27 133.803 26.8097 133.644 26.6562C133.485 26.5 133.24 26.3835 132.911 26.3068L131.82 26.0511C131.221 25.9091 130.78 25.6889 130.499 25.3906C130.221 25.0895 130.081 24.7131 130.081 24.2614C130.081 23.892 130.185 23.5653 130.392 23.2812C130.603 22.9972 130.888 22.7741 131.249 22.6122C131.613 22.4503 132.025 22.3693 132.485 22.3693C133.132 22.3693 133.641 22.5114 134.01 22.7955C134.382 23.0795 134.647 23.4545 134.803 23.9205ZM138.584 25.3182C138.584 26.392 138.443 27.3807 138.162 28.2841C137.884 29.1847 137.484 30.0142 136.964 30.7727H136.078C136.283 30.4915 136.473 30.1449 136.649 29.733C136.828 29.3239 136.984 28.875 137.118 28.3864C137.251 27.8949 137.355 27.3878 137.429 26.8651C137.506 26.3395 137.544 25.8239 137.544 25.3182C137.544 24.642 137.479 23.956 137.348 23.2599C137.217 22.5639 137.041 21.9176 136.82 21.321C136.598 20.7244 136.351 20.2386 136.078 19.8636H136.964C137.484 20.6222 137.884 21.4531 138.162 22.3565C138.443 23.2571 138.584 24.2443 138.584 25.3182ZM141.517 29.0682C141.306 29.0682 141.126 28.9929 140.975 28.8423C140.825 28.6918 140.75 28.5114 140.75 28.3011C140.75 28.0909 140.825 27.9105 140.975 27.7599C141.126 27.6094 141.306 27.5341 141.517 27.5341C141.727 27.5341 141.907 27.6094 142.058 27.7599C142.208 27.9105 142.284 28.0909 142.284 28.3011C142.284 28.4403 142.248 28.5682 142.177 28.6847C142.109 28.8011 142.017 28.8949 141.9 28.9659C141.787 29.0341 141.659 29.0682 141.517 29.0682ZM141.517 24.2102C141.306 24.2102 141.126 24.1349 140.975 23.9844C140.825 23.8338 140.75 23.6534 140.75 23.4432C140.75 23.233 140.825 23.0526 140.975 22.902C141.126 22.7514 141.306 22.6761 141.517 22.6761C141.727 22.6761 141.907 22.7514 142.058 22.902C142.208 23.0526 142.284 23.233 142.284 23.4432C142.284 23.5824 142.248 23.7102 142.177 23.8267C142.109 23.9432 142.017 24.0369 141.9 24.108C141.787 24.1761 141.659 24.2102 141.517 24.2102ZM150.395 29.1193C149.833 29.1193 149.331 29.0227 148.891 28.8295C148.453 28.6364 148.105 28.3679 147.847 28.0241C147.591 27.6776 147.452 27.2756 147.429 26.8182H148.503C148.526 27.0994 148.623 27.3423 148.793 27.5469C148.963 27.7486 149.186 27.9048 149.462 28.0156C149.738 28.1264 150.043 28.1818 150.378 28.1818C150.753 28.1818 151.086 28.1165 151.375 27.9858C151.665 27.8551 151.892 27.6733 152.057 27.4403C152.222 27.2074 152.304 26.9375 152.304 26.6307C152.304 26.3097 152.225 26.027 152.066 25.7827C151.907 25.5355 151.674 25.3423 151.367 25.2031C151.06 25.0639 150.685 24.9943 150.242 24.9943H149.543V24.0568H150.242C150.588 24.0568 150.892 23.9943 151.154 23.8693C151.418 23.7443 151.624 23.5682 151.772 23.3409C151.922 23.1136 151.998 22.8466 151.998 22.5398C151.998 22.2443 151.932 21.9872 151.801 21.7685C151.671 21.5497 151.486 21.3793 151.248 21.2571C151.012 21.1349 150.733 21.0739 150.412 21.0739C150.111 21.0739 149.827 21.1293 149.56 21.2401C149.296 21.348 149.08 21.5057 148.912 21.7131C148.745 21.9176 148.654 22.1648 148.64 22.4545H147.617C147.634 21.9972 147.772 21.5966 148.03 21.2528C148.289 20.9062 148.627 20.6364 149.044 20.4432C149.465 20.25 149.926 20.1534 150.429 20.1534C150.969 20.1534 151.432 20.2628 151.819 20.4815C152.205 20.6974 152.502 20.983 152.709 21.3381C152.917 21.6932 153.02 22.0767 153.02 22.4886C153.02 22.9801 152.891 23.3991 152.632 23.7457C152.377 24.0923 152.029 24.3324 151.588 24.4659V24.5341C152.14 24.625 152.57 24.8594 152.88 25.2372C153.189 25.6122 153.344 26.0767 153.344 26.6307C153.344 27.1051 153.215 27.5312 152.956 27.9091C152.701 28.2841 152.351 28.5795 151.908 28.7955C151.465 29.0114 150.961 29.1193 150.395 29.1193ZM155.567 29.0682C155.357 29.0682 155.177 28.9929 155.026 28.8423C154.876 28.6918 154.8 28.5114 154.8 28.3011C154.8 28.0909 154.876 27.9105 155.026 27.7599C155.177 27.6094 155.357 27.5341 155.567 27.5341C155.778 27.5341 155.958 27.6094 156.109 27.7599C156.259 27.9105 156.335 28.0909 156.335 28.3011C156.335 28.4403 156.299 28.5682 156.228 28.6847C156.16 28.8011 156.067 28.8949 155.951 28.9659C155.837 29.0341 155.71 29.0682 155.567 29.0682ZM158.122 29V28.233L161.003 25.0795C161.341 24.7102 161.619 24.3892 161.838 24.1165C162.057 23.8409 162.219 23.5824 162.324 23.3409C162.432 23.0966 162.486 22.8409 162.486 22.5739C162.486 22.267 162.412 22.0014 162.264 21.777C162.119 21.5526 161.92 21.3793 161.668 21.2571C161.415 21.1349 161.131 21.0739 160.815 21.0739C160.48 21.0739 160.188 21.1435 159.938 21.2827C159.69 21.419 159.499 21.6108 159.362 21.858C159.229 22.1051 159.162 22.3949 159.162 22.7273H158.156C158.156 22.2159 158.274 21.767 158.51 21.3807C158.746 20.9943 159.067 20.6932 159.473 20.4773C159.882 20.2614 160.341 20.1534 160.849 20.1534C161.361 20.1534 161.814 20.2614 162.209 20.4773C162.604 20.6932 162.913 20.9844 163.138 21.3509C163.362 21.7173 163.474 22.125 163.474 22.5739C163.474 22.8949 163.416 23.2088 163.3 23.5156C163.186 23.8196 162.987 24.1591 162.703 24.5341C162.422 24.9062 162.031 25.3608 161.531 25.8977L159.571 27.9943V28.0625H163.628V29H158.122ZM168.456 20.2727V29H167.399V21.3807H167.348L165.217 22.7955V21.7216L167.399 20.2727H168.456ZM174.426 25.5057C174.418 25.0341 174.494 24.6548 174.656 24.3679C174.818 24.081 175.028 23.8722 175.287 23.7415C175.548 23.6108 175.824 23.5455 176.114 23.5455C176.403 23.5455 176.668 23.6094 176.906 23.7372C177.148 23.8622 177.423 24.0597 177.733 24.3295C177.943 24.5114 178.111 24.6392 178.236 24.7131C178.364 24.7869 178.503 24.8239 178.653 24.8239C178.898 24.8239 179.091 24.7358 179.233 24.5597C179.375 24.3807 179.443 24.1222 179.438 23.7841H180.358C180.366 24.2557 180.29 24.6349 180.128 24.9219C179.969 25.2088 179.759 25.4176 179.497 25.5483C179.236 25.679 178.96 25.7443 178.67 25.7443C178.381 25.7443 178.116 25.6818 177.878 25.5568C177.639 25.429 177.364 25.2301 177.051 24.9602C176.844 24.7784 176.676 24.6506 176.548 24.5767C176.42 24.5028 176.281 24.4659 176.131 24.4659C175.901 24.4659 175.71 24.5469 175.56 24.7088C175.412 24.8679 175.341 25.1335 175.347 25.5057H174.426ZM185.422 27.2102V26.3409L189.257 20.2727H189.887V21.6193H189.461L186.564 26.2045V26.2727H191.728V27.2102H185.422ZM189.529 29V26.946V26.5412V20.2727H190.535V29H189.529ZM193.665 29.0682C193.455 29.0682 193.275 28.9929 193.124 28.8423C192.973 28.6918 192.898 28.5114 192.898 28.3011C192.898 28.0909 192.973 27.9105 193.124 27.7599C193.275 27.6094 193.455 27.5341 193.665 27.5341C193.875 27.5341 194.056 27.6094 194.206 27.7599C194.357 27.9105 194.432 28.0909 194.432 28.3011C194.432 28.4403 194.397 28.5682 194.326 28.6847C194.257 28.8011 194.165 28.8949 194.049 28.9659C193.935 29.0341 193.807 29.0682 193.665 29.0682ZM198.245 20.2727V29H197.188V21.3807H197.137L195.006 22.7955V21.7216L197.188 20.2727H198.245ZM203.533 20.1534C203.891 20.1562 204.249 20.2244 204.607 20.358C204.965 20.4915 205.292 20.7131 205.587 21.0227C205.883 21.3295 206.12 21.7486 206.299 22.2798C206.478 22.8111 206.567 23.4773 206.567 24.2784C206.567 25.054 206.494 25.7429 206.346 26.3452C206.201 26.9446 205.991 27.4503 205.715 27.8622C205.442 28.2741 205.11 28.5866 204.718 28.7997C204.329 29.0128 203.888 29.1193 203.397 29.1193C202.908 29.1193 202.472 29.0227 202.089 28.8295C201.708 28.6335 201.396 28.3622 201.151 28.0156C200.91 27.6662 200.755 27.2614 200.687 26.8011H201.727C201.82 27.2017 202.006 27.5327 202.285 27.794C202.566 28.0526 202.937 28.1818 203.397 28.1818C204.07 28.1818 204.602 27.8878 204.991 27.2997C205.383 26.7116 205.579 25.8807 205.579 24.8068H205.511C205.352 25.0455 205.163 25.2514 204.944 25.4247C204.725 25.598 204.482 25.7315 204.215 25.8253C203.948 25.919 203.664 25.9659 203.363 25.9659C202.863 25.9659 202.404 25.8423 201.987 25.5952C201.572 25.3452 201.239 25.0028 200.989 24.5682C200.742 24.1307 200.619 23.6307 200.619 23.0682C200.619 22.5341 200.738 22.0455 200.977 21.6023C201.218 21.1562 201.556 20.8011 201.991 20.5369C202.428 20.2727 202.942 20.1449 203.533 20.1534ZM203.533 21.0909C203.175 21.0909 202.853 21.1804 202.566 21.3594C202.282 21.5355 202.056 21.7741 201.888 22.0753C201.724 22.3736 201.641 22.7045 201.641 23.0682C201.641 23.4318 201.721 23.7628 201.88 24.0611C202.042 24.3565 202.262 24.5923 202.54 24.7685C202.822 24.9418 203.141 25.0284 203.499 25.0284C203.769 25.0284 204.021 24.9759 204.254 24.8707C204.487 24.7628 204.69 24.6165 204.863 24.4318C205.039 24.2443 205.177 24.0327 205.276 23.7969C205.376 23.5582 205.425 23.3097 205.425 23.0511C205.425 22.7102 205.343 22.3906 205.178 22.0923C205.016 21.794 204.792 21.5526 204.505 21.3679C204.221 21.1832 203.897 21.0909 203.533 21.0909ZM209.456 27.8068L209.387 28.267C209.339 28.5909 209.265 28.9375 209.166 29.3068C209.069 29.6761 208.968 30.0241 208.863 30.3509C208.758 30.6776 208.672 30.9375 208.603 31.1307H207.836C207.873 30.9489 207.922 30.7088 207.981 30.4105C208.041 30.1122 208.1 29.7784 208.16 29.4091C208.223 29.0426 208.274 28.6676 208.314 28.2841L208.365 27.8068H209.456ZM218.717 20.156H219.581V20.612C219.581 22.556 217.517 23.984 215.333 24.356L214.949 23.564C216.857 23.288 218.717 22.04 218.717 20.612V20.156ZM218.969 20.156H219.821V20.612C219.821 22.04 221.693 23.288 223.589 23.564L223.217 24.356C221.021 23.984 218.969 22.556 218.969 20.612V20.156ZM218.753 25.796H219.737V29.936H218.753V25.796ZM214.373 25.268H224.177V26.084H214.373V25.268ZM215.285 19.76H223.229V20.564H215.285V19.76ZM227.812 24.668H228.797V27.92H227.812V24.668ZM231.821 24.668H232.817V27.92H231.821V24.668ZM225.413 27.728H235.241V28.556H225.413V27.728ZM230.309 19.772C232.601 19.772 234.245 20.864 234.245 22.568C234.245 24.26 232.601 25.352 230.309 25.352C228.005 25.352 226.361 24.26 226.361 22.568C226.361 20.864 228.005 19.772 230.309 19.772ZM230.309 20.564C228.569 20.564 227.321 21.356 227.321 22.568C227.321 23.768 228.569 24.56 230.309 24.56C232.049 24.56 233.285 23.768 233.285 22.568C233.285 21.356 232.049 20.564 230.309 20.564ZM244.939 20.624H247.999V21.404H244.939V20.624ZM244.939 22.604H247.999V23.384H244.939V22.604ZM247.747 19.088H248.743V24.74H247.747V19.088ZM241.759 25.28H248.743V27.848H242.755V29.516H241.783V27.104H247.759V26.072H241.759V25.28ZM241.783 29H249.139V29.792H241.783V29ZM240.355 19.58H241.339V21.14H244.279V19.58H245.251V24.32H240.355V19.58ZM241.339 21.92V23.516H244.279V21.92H241.339ZM251.919 29.0682C251.709 29.0682 251.528 28.9929 251.378 28.8423C251.227 28.6918 251.152 28.5114 251.152 28.3011C251.152 28.0909 251.227 27.9105 251.378 27.7599C251.528 27.6094 251.709 27.5341 251.919 27.5341C252.129 27.5341 252.31 27.6094 252.46 27.7599C252.611 27.9105 252.686 28.0909 252.686 28.3011C252.686 28.4403 252.651 28.5682 252.58 28.6847C252.511 28.8011 252.419 28.8949 252.303 28.9659C252.189 29.0341 252.061 29.0682 251.919 29.0682ZM251.919 24.2102C251.709 24.2102 251.528 24.1349 251.378 23.9844C251.227 23.8338 251.152 23.6534 251.152 23.4432C251.152 23.233 251.227 23.0526 251.378 22.902C251.528 22.7514 251.709 22.6761 251.919 22.6761C252.129 22.6761 252.31 22.7514 252.46 22.902C252.611 23.0526 252.686 23.233 252.686 23.4432C252.686 23.5824 252.651 23.7102 252.58 23.8267C252.511 23.9432 252.419 24.0369 252.303 24.108C252.189 24.1761 252.061 24.2102 251.919 24.2102ZM264.961 19.088H265.957V24.608H264.961V19.088ZM265.525 21.416H267.553V22.244H265.525V21.416ZM259.069 25.124H265.957V27.788H260.077V29.408H259.093V27.032H264.985V25.916H259.069V25.124ZM259.093 28.988H266.353V29.792H259.093V28.988ZM260.533 19.472C262.165 19.472 263.341 20.468 263.341 21.884C263.341 23.312 262.165 24.308 260.533 24.308C258.925 24.308 257.737 23.312 257.737 21.884C257.737 20.468 258.925 19.472 260.533 19.472ZM260.533 20.288C259.489 20.288 258.709 20.948 258.709 21.884C258.709 22.832 259.489 23.492 260.533 23.492C261.601 23.492 262.381 22.832 262.381 21.884C262.381 20.948 261.601 20.288 260.533 20.288ZM276.828 19.088H277.788V29.936H276.828V19.088ZM272.328 23.228H275.052V24.044H272.328V23.228ZM274.644 19.34H275.592V29.384H274.644V19.34ZM268.98 26.492H269.676C271.368 26.492 272.388 26.444 273.588 26.192L273.684 27.02C272.448 27.284 271.404 27.332 269.676 27.332H268.98V26.492ZM268.98 20.408H273.06V21.224H269.964V26.816H268.98V20.408ZM286.955 19.088H287.963V29.936H286.955V19.088ZM287.723 23.348H289.739V24.2H287.723V23.348ZM280.043 20H281.027V22.868H284.123V20H285.107V27.332H280.043V20ZM281.027 23.66V26.516H284.123V23.66H281.027ZM298.079 19.1H299.075V27.092H298.079V19.1ZM298.775 22.412H300.683V23.252H298.775V22.412ZM292.391 28.88H299.567V29.696H292.391V28.88ZM292.391 26.468H293.387V29.18H292.391V26.468ZM291.131 24.584H291.983C293.951 24.584 295.355 24.524 297.047 24.224L297.131 25.052C295.415 25.34 293.987 25.4 291.983 25.4H291.131V24.584ZM291.107 19.796H295.991V22.904H292.103V24.872H291.131V22.148H295.007V20.612H291.107V19.796Z" fill="white"/>
</svg>
