<svg width="399" height="50" viewBox="0 0 399 50" fill="none" xmlns="http://www.w3.org/2000/svg">
<rect x="5" y="5" width="389" height="40" rx="2" fill="#343251" stroke="#EBD2FF" stroke-width="2"/>
<rect x="0.5" y="0.5" width="398" height="49" rx="6.5" stroke="#EBD2FF"/>
<path d="M17 13.4543C18.1887 13.0802 19.5524 12.7911 20.7729 13.197C22.15 13.6532 23.0946 15.1228 23.0946 16.5527C23.0946 19.094 23.0946 29.5722 23.0946 29.5722" stroke="white" stroke-width="2.56812" stroke-linecap="round" stroke-linejoin="round"/>
<path d="M23.3706 16.7965C24.1772 15.2977 25.9231 13.9448 27.653 13.9448C29.9056 13.9448 31.5613 16.3164 31.6568 18.3696C31.7204 19.749 31.7231 21.131 31.7072 22.5131C31.6939 23.7652 31.5453 25.0359 31.6594 26.2853C31.8292 28.1475 32.9277 29.8134 34.2066 31.1265C35.4775 32.4316 37.4038 32.933 39.1814 32.5351C43.0207 31.6783 44.297 26.1102 40.7999 23.9827C39.1974 23.0065 36.8917 23.1577 35.581 24.569C34.5196 25.7096 34.2066 27.3729 34.05 28.869C33.7502 31.7552 32.9887 34.6281 30.293 36.1561C28.7222 37.0474 26.9737 37.4426 25.1775 37.3365" stroke="white" stroke-width="2.56812" stroke-linecap="round" stroke-linejoin="round"/>
<path d="M68.532 20.636H71.844V21.452H68.532V20.636ZM68.532 23.072H71.844V23.888H68.532V23.072ZM66.552 19.7C68.148 19.7 69.348 20.768 69.348 22.268C69.348 23.78 68.148 24.824 66.552 24.824C64.944 24.824 63.756 23.78 63.756 22.268C63.756 20.768 64.944 19.7 66.552 19.7ZM66.552 20.552C65.496 20.552 64.716 21.272 64.716 22.268C64.716 23.276 65.496 23.996 66.552 23.996C67.608 23.996 68.4 23.276 68.4 22.268C68.4 21.272 67.608 20.552 66.552 20.552ZM71.52 19.088H72.516V25.316H71.52V19.088ZM65.484 25.88H72.516V29.792H65.484V25.88ZM71.544 26.672H66.456V28.988H71.544V26.672ZM74.6391 27.704H84.4671V28.532H74.6391V27.704ZM79.0071 25.076H79.9911V27.98H79.0071V25.076ZM78.9831 19.808H79.8471V20.648C79.8471 22.964 77.6271 24.752 75.4431 25.208L75.0231 24.38C76.9311 24.032 78.9831 22.436 78.9831 20.648V19.808ZM79.1631 19.808H80.0271V20.648C80.0271 22.448 82.0911 24.032 83.9991 24.38L83.5671 25.208C81.3831 24.752 79.1631 22.964 79.1631 20.648V19.808ZM88.3541 20.636H89.1461V22.4C89.1461 24.656 87.7661 26.984 86.0741 27.848L85.4981 27.056C87.0461 26.3 88.3541 24.236 88.3541 22.4V20.636ZM88.5341 20.636H89.3261V22.4C89.3261 24.116 90.5501 26.048 92.1221 26.792L91.5581 27.584C89.8421 26.732 88.5341 24.548 88.5341 22.4V20.636ZM85.8821 20.192H91.7261V21.032H85.8821V20.192ZM93.0101 19.088H94.0181V29.936H93.0101V19.088ZM93.7781 23.468H95.7941V24.308H93.7781V23.468ZM104.613 19.076H105.609V29.948H104.613V19.076ZM97.3412 26.504H98.2412C100.053 26.504 101.673 26.432 103.593 26.12L103.701 26.936C101.733 27.26 100.101 27.332 98.2412 27.332H97.3412V26.504ZM97.3172 20.096H102.333V23.972H98.3372V26.816H97.3412V23.156H101.325V20.912H97.3172V20.096ZM111.81 24.6364C111.81 23.5625 111.949 22.5753 112.227 21.6747C112.509 20.7713 112.909 19.9403 113.429 19.1818H114.315C114.111 19.4631 113.919 19.8097 113.74 20.2216C113.564 20.6307 113.409 21.081 113.276 21.5724C113.142 22.0611 113.037 22.5668 112.96 23.0895C112.886 23.6122 112.849 24.1278 112.849 24.6364C112.849 25.3125 112.915 25.9986 113.045 26.6946C113.176 27.3906 113.352 28.0369 113.574 28.6335C113.795 29.2301 114.043 29.7159 114.315 30.0909H113.429C112.909 29.3324 112.509 28.5028 112.227 27.6023C111.949 26.6989 111.81 25.7102 111.81 24.6364ZM122.958 23H121.902C121.839 22.696 121.73 22.429 121.574 22.1989C121.42 21.9688 121.233 21.7756 121.011 21.6193C120.792 21.4602 120.549 21.3409 120.282 21.2614C120.015 21.1818 119.737 21.142 119.447 21.142C118.919 21.142 118.44 21.2756 118.011 21.5426C117.585 21.8097 117.245 22.2031 116.993 22.723C116.743 23.2429 116.618 23.8807 116.618 24.6364C116.618 25.392 116.743 26.0298 116.993 26.5497C117.245 27.0696 117.585 27.4631 118.011 27.7301C118.44 27.9972 118.919 28.1307 119.447 28.1307C119.737 28.1307 120.015 28.0909 120.282 28.0114C120.549 27.9318 120.792 27.8139 121.011 27.6577C121.233 27.4986 121.42 27.304 121.574 27.0739C121.73 26.8409 121.839 26.5739 121.902 26.2727H122.958C122.879 26.7187 122.734 27.1179 122.524 27.4702C122.314 27.8224 122.052 28.1222 121.74 28.3693C121.427 28.6136 121.076 28.7997 120.687 28.9276C120.301 29.0554 119.887 29.1193 119.447 29.1193C118.703 29.1193 118.041 28.9375 117.461 28.5739C116.882 28.2102 116.426 27.6932 116.093 27.0227C115.761 26.3523 115.595 25.5568 115.595 24.6364C115.595 23.7159 115.761 22.9205 116.093 22.25C116.426 21.5795 116.882 21.0625 117.461 20.6989C118.041 20.3352 118.703 20.1534 119.447 20.1534C119.887 20.1534 120.301 20.2173 120.687 20.3452C121.076 20.473 121.427 20.6605 121.74 20.9077C122.052 21.152 122.314 21.4503 122.524 21.8026C122.734 22.152 122.879 22.5511 122.958 23ZM126.456 29.1534C126.041 29.1534 125.665 29.0753 125.327 28.919C124.989 28.7599 124.72 28.5312 124.521 28.233C124.322 27.9318 124.223 27.5682 124.223 27.142C124.223 26.767 124.297 26.4631 124.445 26.2301C124.592 25.9943 124.79 25.8097 125.037 25.6761C125.284 25.5426 125.557 25.4432 125.855 25.3778C126.156 25.3097 126.459 25.2557 126.763 25.2159C127.161 25.1648 127.483 25.1264 127.73 25.1009C127.98 25.0724 128.162 25.0256 128.276 24.9602C128.392 24.8949 128.45 24.7812 128.45 24.6193V24.5852C128.45 24.1648 128.335 23.8381 128.105 23.6051C127.878 23.3722 127.533 23.2557 127.07 23.2557C126.589 23.2557 126.213 23.3608 125.94 23.571C125.668 23.7812 125.476 24.0057 125.365 24.2443L124.411 23.9034C124.581 23.5057 124.808 23.196 125.092 22.9744C125.379 22.75 125.692 22.5937 126.03 22.5057C126.371 22.4148 126.706 22.3693 127.036 22.3693C127.246 22.3693 127.487 22.3949 127.76 22.446C128.036 22.4943 128.301 22.5952 128.557 22.7486C128.815 22.902 129.03 23.1335 129.2 23.4432C129.371 23.7528 129.456 24.1676 129.456 24.6875V29H128.45V28.1136H128.399C128.331 28.2557 128.217 28.4077 128.058 28.5696C127.899 28.7315 127.688 28.8693 127.423 28.983C127.159 29.0966 126.837 29.1534 126.456 29.1534ZM126.609 28.25C127.007 28.25 127.342 28.1719 127.615 28.0156C127.891 27.8594 128.098 27.6577 128.237 27.4105C128.379 27.1634 128.45 26.9034 128.45 26.6307V25.7102C128.408 25.7614 128.314 25.8082 128.169 25.8509C128.027 25.8906 127.862 25.9261 127.675 25.9574C127.49 25.9858 127.31 26.0114 127.134 26.0341C126.96 26.054 126.82 26.071 126.712 26.0852C126.45 26.1193 126.206 26.1747 125.979 26.2514C125.754 26.3253 125.572 26.4375 125.433 26.5881C125.297 26.7358 125.229 26.9375 125.229 27.1932C125.229 27.5426 125.358 27.8068 125.616 27.9858C125.878 28.1619 126.209 28.25 126.609 28.25ZM131.292 31.4545V22.4545H132.263V23.4943H132.382C132.456 23.3807 132.559 23.2358 132.689 23.0597C132.823 22.8807 133.013 22.7216 133.26 22.5824C133.51 22.4403 133.848 22.3693 134.275 22.3693C134.826 22.3693 135.311 22.5071 135.732 22.7827C136.152 23.0582 136.48 23.4489 136.716 23.9545C136.952 24.4602 137.07 25.0568 137.07 25.7443C137.07 26.4375 136.952 27.0384 136.716 27.5469C136.48 28.0526 136.154 28.4446 135.736 28.723C135.319 28.9986 134.837 29.1364 134.292 29.1364C133.871 29.1364 133.534 29.0668 133.282 28.9276C133.029 28.7855 132.834 28.625 132.698 28.446C132.561 28.2642 132.456 28.1136 132.382 27.9943H132.297V31.4545H131.292ZM132.28 25.7273C132.28 26.2216 132.353 26.6577 132.498 27.0355C132.642 27.4105 132.854 27.7045 133.132 27.9176C133.411 28.1278 133.752 28.233 134.155 28.233C134.576 28.233 134.926 28.1222 135.208 27.9006C135.492 27.6761 135.705 27.375 135.847 26.9972C135.992 26.6165 136.064 26.1932 136.064 25.7273C136.064 25.267 135.993 24.8523 135.851 24.483C135.712 24.1108 135.5 23.8168 135.216 23.6009C134.935 23.3821 134.581 23.2727 134.155 23.2727C133.746 23.2727 133.402 23.3764 133.124 23.5838C132.846 23.7884 132.635 24.0753 132.493 24.4446C132.351 24.8111 132.28 25.2386 132.28 25.7273ZM138.604 29V22.4545H139.576V23.4432H139.644C139.763 23.1193 139.979 22.8565 140.292 22.6548C140.604 22.4531 140.956 22.3523 141.348 22.3523C141.422 22.3523 141.515 22.3537 141.625 22.3565C141.736 22.3594 141.82 22.3636 141.877 22.3693V23.392C141.843 23.3835 141.765 23.3707 141.642 23.3537C141.523 23.3338 141.397 23.3239 141.263 23.3239C140.945 23.3239 140.661 23.3906 140.411 23.5241C140.164 23.6548 139.968 23.8366 139.823 24.0696C139.681 24.2997 139.61 24.5625 139.61 24.858V29H138.604ZM143.069 29V22.4545H144.075V29H143.069ZM143.58 21.3636C143.384 21.3636 143.215 21.2969 143.073 21.1634C142.934 21.0298 142.864 20.8693 142.864 20.6818C142.864 20.4943 142.934 20.3338 143.073 20.2003C143.215 20.0668 143.384 20 143.58 20C143.776 20 143.944 20.0668 144.083 20.2003C144.225 20.3338 144.296 20.4943 144.296 20.6818C144.296 20.8693 144.225 21.0298 144.083 21.1634C143.944 21.2969 143.776 21.3636 143.58 21.3636ZM148.576 29.1364C147.962 29.1364 147.434 28.9915 146.99 28.7017C146.547 28.4119 146.206 28.0128 145.968 27.5043C145.729 26.9957 145.61 26.4148 145.61 25.7614C145.61 25.0966 145.732 24.5099 145.976 24.0014C146.223 23.4901 146.567 23.0909 147.007 22.804C147.451 22.5142 147.968 22.3693 148.559 22.3693C149.019 22.3693 149.434 22.4545 149.803 22.625C150.172 22.7955 150.475 23.0341 150.711 23.3409C150.946 23.6477 151.093 24.0057 151.15 24.4148H150.144C150.067 24.1165 149.897 23.8523 149.632 23.6222C149.371 23.3892 149.019 23.2727 148.576 23.2727C148.184 23.2727 147.84 23.375 147.544 23.5795C147.252 23.7812 147.023 24.0668 146.858 24.4361C146.696 24.8026 146.615 25.233 146.615 25.7273C146.615 26.233 146.695 26.6733 146.854 27.0483C147.016 27.4233 147.243 27.7145 147.536 27.9219C147.831 28.1293 148.178 28.233 148.576 28.233C148.837 28.233 149.074 28.1875 149.287 28.0966C149.5 28.0057 149.681 27.875 149.828 27.7045C149.976 27.5341 150.081 27.3295 150.144 27.0909H151.15C151.093 27.4773 150.952 27.8253 150.728 28.1349C150.506 28.4418 150.212 28.6861 149.846 28.8679C149.482 29.0469 149.059 29.1364 148.576 29.1364ZM155.279 29.1364C154.688 29.1364 154.169 28.9957 153.723 28.7145C153.28 28.4332 152.934 28.0398 152.684 27.5341C152.436 27.0284 152.313 26.4375 152.313 25.7614C152.313 25.0795 152.436 24.4844 152.684 23.9759C152.934 23.4673 153.28 23.0724 153.723 22.7912C154.169 22.5099 154.688 22.3693 155.279 22.3693C155.87 22.3693 156.387 22.5099 156.83 22.7912C157.276 23.0724 157.623 23.4673 157.87 23.9759C158.12 24.4844 158.245 25.0795 158.245 25.7614C158.245 26.4375 158.12 27.0284 157.87 27.5341C157.623 28.0398 157.276 28.4332 156.83 28.7145C156.387 28.9957 155.87 29.1364 155.279 29.1364ZM155.279 28.233C155.728 28.233 156.097 28.1179 156.387 27.8878C156.676 27.6577 156.891 27.3551 157.03 26.9801C157.169 26.6051 157.239 26.1989 157.239 25.7614C157.239 25.3239 157.169 24.9162 157.03 24.5384C156.891 24.1605 156.676 23.8551 156.387 23.6222C156.097 23.3892 155.728 23.2727 155.279 23.2727C154.83 23.2727 154.461 23.3892 154.171 23.6222C153.881 23.8551 153.667 24.1605 153.527 24.5384C153.388 24.9162 153.319 25.3239 153.319 25.7614C153.319 26.1989 153.388 26.6051 153.527 26.9801C153.667 27.3551 153.881 27.6577 154.171 27.8878C154.461 28.1179 154.83 28.233 155.279 28.233ZM159.78 29V22.4545H160.751V23.4432H160.82C160.939 23.1193 161.155 22.8565 161.467 22.6548C161.78 22.4531 162.132 22.3523 162.524 22.3523C162.598 22.3523 162.69 22.3537 162.801 22.3565C162.912 22.3594 162.996 22.3636 163.053 22.3693V23.392C163.018 23.3835 162.94 23.3707 162.818 23.3537C162.699 23.3338 162.572 23.3239 162.439 23.3239C162.121 23.3239 161.837 23.3906 161.587 23.5241C161.339 23.6548 161.143 23.8366 160.999 24.0696C160.857 24.2997 160.786 24.5625 160.786 24.858V29H159.78ZM165.25 25.0625V29H164.245V22.4545H165.216V23.4773H165.301C165.455 23.1449 165.688 22.8778 166 22.6761C166.313 22.4716 166.716 22.3693 167.211 22.3693C167.654 22.3693 168.042 22.4602 168.374 22.642C168.706 22.821 168.965 23.0938 169.15 23.4602C169.334 23.8239 169.426 24.2841 169.426 24.8409V29H168.421V24.9091C168.421 24.3949 168.287 23.9943 168.02 23.7074C167.753 23.4176 167.387 23.2727 166.921 23.2727C166.6 23.2727 166.313 23.3423 166.06 23.4815C165.81 23.6207 165.613 23.8239 165.468 24.0909C165.323 24.358 165.25 24.6818 165.25 25.0625ZM173.412 25.3182C173.412 26.392 173.271 27.3807 172.99 28.2841C172.712 29.1847 172.313 30.0142 171.793 30.7727H170.906C171.111 30.4915 171.301 30.1449 171.477 29.733C171.656 29.3239 171.813 28.875 171.946 28.3864C172.08 27.8949 172.183 27.3878 172.257 26.8651C172.334 26.3395 172.372 25.8239 172.372 25.3182C172.372 24.642 172.307 23.956 172.176 23.2599C172.045 22.5639 171.869 21.9176 171.648 21.321C171.426 20.7244 171.179 20.2386 170.906 19.8636H171.793C172.313 20.6222 172.712 21.4531 172.99 22.3565C173.271 23.2571 173.412 24.2443 173.412 25.3182ZM176.345 29.0682C176.135 29.0682 175.954 28.9929 175.804 28.8423C175.653 28.6918 175.578 28.5114 175.578 28.3011C175.578 28.0909 175.653 27.9105 175.804 27.7599C175.954 27.6094 176.135 27.5341 176.345 27.5341C176.555 27.5341 176.735 27.6094 176.886 27.7599C177.037 27.9105 177.112 28.0909 177.112 28.3011C177.112 28.4403 177.076 28.5682 177.005 28.6847C176.937 28.8011 176.845 28.8949 176.728 28.9659C176.615 29.0341 176.487 29.0682 176.345 29.0682ZM176.345 24.2102C176.135 24.2102 175.954 24.1349 175.804 23.9844C175.653 23.8338 175.578 23.6534 175.578 23.4432C175.578 23.233 175.653 23.0526 175.804 22.902C175.954 22.7514 176.135 22.6761 176.345 22.6761C176.555 22.6761 176.735 22.7514 176.886 22.902C177.037 23.0526 177.112 23.233 177.112 23.4432C177.112 23.5824 177.076 23.7102 177.005 23.8267C176.937 23.9432 176.845 24.0369 176.728 24.108C176.615 24.1761 176.487 24.2102 176.345 24.2102ZM185.343 20.2727V29H184.286V21.3807H184.235L182.104 22.7955V21.7216L184.286 20.2727H185.343ZM187.853 29V28.233L190.733 25.0795C191.071 24.7102 191.35 24.3892 191.569 24.1165C191.787 23.8409 191.949 23.5824 192.054 23.3409C192.162 23.0966 192.216 22.8409 192.216 22.5739C192.216 22.267 192.142 22.0014 191.995 21.777C191.85 21.5526 191.651 21.3793 191.398 21.2571C191.145 21.1349 190.861 21.0739 190.546 21.0739C190.211 21.0739 189.918 21.1435 189.668 21.2827C189.421 21.419 189.229 21.6108 189.093 21.858C188.959 22.1051 188.892 22.3949 188.892 22.7273H187.887C187.887 22.2159 188.005 21.767 188.24 21.3807C188.476 20.9943 188.797 20.6932 189.203 20.4773C189.613 20.2614 190.071 20.1534 190.58 20.1534C191.091 20.1534 191.544 20.2614 191.939 20.4773C192.334 20.6932 192.644 20.9844 192.868 21.3509C193.093 21.7173 193.205 22.125 193.205 22.5739C193.205 22.8949 193.147 23.2088 193.03 23.5156C192.917 23.8196 192.718 24.1591 192.434 24.5341C192.152 24.9062 191.762 25.3608 191.262 25.8977L189.301 27.9943V28.0625H193.358V29H187.853ZM195.868 29.0682C195.658 29.0682 195.478 28.9929 195.327 28.8423C195.176 28.6918 195.101 28.5114 195.101 28.3011C195.101 28.0909 195.176 27.9105 195.327 27.7599C195.478 27.6094 195.658 27.5341 195.868 27.5341C196.078 27.5341 196.259 27.6094 196.409 27.7599C196.56 27.9105 196.635 28.0909 196.635 28.3011C196.635 28.4403 196.6 28.5682 196.529 28.6847C196.461 28.8011 196.368 28.8949 196.252 28.9659C196.138 29.0341 196.01 29.0682 195.868 29.0682ZM198.423 29V28.233L201.304 25.0795C201.642 24.7102 201.92 24.3892 202.139 24.1165C202.358 23.8409 202.52 23.5824 202.625 23.3409C202.733 23.0966 202.787 22.8409 202.787 22.5739C202.787 22.267 202.713 22.0014 202.565 21.777C202.42 21.5526 202.221 21.3793 201.968 21.2571C201.716 21.1349 201.431 21.0739 201.116 21.0739C200.781 21.0739 200.488 21.1435 200.238 21.2827C199.991 21.419 199.799 21.6108 199.663 21.858C199.529 22.1051 199.463 22.3949 199.463 22.7273H198.457C198.457 22.2159 198.575 21.767 198.811 21.3807C199.047 20.9943 199.368 20.6932 199.774 20.4773C200.183 20.2614 200.642 20.1534 201.15 20.1534C201.662 20.1534 202.115 20.2614 202.51 20.4773C202.904 20.6932 203.214 20.9844 203.439 21.3509C203.663 21.7173 203.775 22.125 203.775 22.5739C203.775 22.8949 203.717 23.2088 203.6 23.5156C203.487 23.8196 203.288 24.1591 203.004 24.5341C202.723 24.9062 202.332 25.3608 201.832 25.8977L199.872 27.9943V28.0625H203.929V29H198.423ZM205.689 29V28.233L208.569 25.0795C208.907 24.7102 209.186 24.3892 209.404 24.1165C209.623 23.8409 209.785 23.5824 209.89 23.3409C209.998 23.0966 210.052 22.8409 210.052 22.5739C210.052 22.267 209.978 22.0014 209.831 21.777C209.686 21.5526 209.487 21.3793 209.234 21.2571C208.981 21.1349 208.697 21.0739 208.382 21.0739C208.047 21.0739 207.754 21.1435 207.504 21.2827C207.257 21.419 207.065 21.6108 206.929 21.858C206.795 22.1051 206.728 22.3949 206.728 22.7273H205.723C205.723 22.2159 205.841 21.767 206.076 21.3807C206.312 20.9943 206.633 20.6932 207.039 20.4773C207.449 20.2614 207.907 20.1534 208.416 20.1534C208.927 20.1534 209.38 20.2614 209.775 20.4773C210.17 20.6932 210.48 20.9844 210.704 21.3509C210.929 21.7173 211.041 22.125 211.041 22.5739C211.041 22.8949 210.983 23.2088 210.866 23.5156C210.752 23.8196 210.554 24.1591 210.27 24.5341C209.988 24.9062 209.598 25.3608 209.098 25.8977L207.137 27.9943V28.0625H211.194V29H205.689ZM216.414 25.5057C216.406 25.0341 216.483 24.6548 216.645 24.3679C216.806 24.081 217.017 23.8722 217.275 23.7415C217.537 23.6108 217.812 23.5455 218.102 23.5455C218.392 23.5455 218.656 23.6094 218.895 23.7372C219.136 23.8622 219.412 24.0597 219.721 24.3295C219.931 24.5114 220.099 24.6392 220.224 24.7131C220.352 24.7869 220.491 24.8239 220.642 24.8239C220.886 24.8239 221.079 24.7358 221.221 24.5597C221.363 24.3807 221.431 24.1222 221.426 23.7841H222.346C222.355 24.2557 222.278 24.6349 222.116 24.9219C221.957 25.2088 221.747 25.4176 221.485 25.5483C221.224 25.679 220.949 25.7443 220.659 25.7443C220.369 25.7443 220.105 25.6818 219.866 25.5568C219.627 25.429 219.352 25.2301 219.039 24.9602C218.832 24.7784 218.664 24.6506 218.537 24.5767C218.409 24.5028 218.27 24.4659 218.119 24.4659C217.889 24.4659 217.699 24.5469 217.548 24.7088C217.4 24.8679 217.329 25.1335 217.335 25.5057H216.414ZM230.683 20.2727V29H229.626V21.3807H229.575L227.444 22.7955V21.7216L229.626 20.2727H230.683ZM233.427 29.0682C233.217 29.0682 233.036 28.9929 232.886 28.8423C232.735 28.6918 232.66 28.5114 232.66 28.3011C232.66 28.0909 232.735 27.9105 232.886 27.7599C233.036 27.6094 233.217 27.5341 233.427 27.5341C233.637 27.5341 233.817 27.6094 233.968 27.7599C234.119 27.9105 234.194 28.0909 234.194 28.3011C234.194 28.4403 234.158 28.5682 234.087 28.6847C234.019 28.8011 233.927 28.8949 233.81 28.9659C233.697 29.0341 233.569 29.0682 233.427 29.0682ZM238.007 20.2727V29H236.95V21.3807H236.899L234.768 22.7955V21.7216L236.95 20.2727H238.007ZM243.295 20.1534C243.653 20.1562 244.011 20.2244 244.369 20.358C244.727 20.4915 245.054 20.7131 245.349 21.0227C245.645 21.3295 245.882 21.7486 246.061 22.2798C246.24 22.8111 246.329 23.4773 246.329 24.2784C246.329 25.054 246.255 25.7429 246.108 26.3452C245.963 26.9446 245.752 27.4503 245.477 27.8622C245.204 28.2741 244.872 28.5866 244.48 28.7997C244.091 29.0128 243.65 29.1193 243.159 29.1193C242.67 29.1193 242.234 29.0227 241.85 28.8295C241.47 28.6335 241.157 28.3622 240.913 28.0156C240.672 27.6662 240.517 27.2614 240.449 26.8011H241.488C241.582 27.2017 241.768 27.5327 242.047 27.794C242.328 28.0526 242.699 28.1818 243.159 28.1818C243.832 28.1818 244.363 27.8878 244.752 27.2997C245.145 26.7116 245.341 25.8807 245.341 24.8068H245.272C245.113 25.0455 244.924 25.2514 244.706 25.4247C244.487 25.598 244.244 25.7315 243.977 25.8253C243.71 25.919 243.426 25.9659 243.125 25.9659C242.625 25.9659 242.166 25.8423 241.748 25.5952C241.333 25.3452 241.001 25.0028 240.751 24.5682C240.504 24.1307 240.38 23.6307 240.38 23.0682C240.38 22.5341 240.5 22.0455 240.738 21.6023C240.98 21.1562 241.318 20.8011 241.752 20.5369C242.19 20.2727 242.704 20.1449 243.295 20.1534ZM243.295 21.0909C242.937 21.0909 242.615 21.1804 242.328 21.3594C242.044 21.5355 241.818 21.7741 241.65 22.0753C241.485 22.3736 241.403 22.7045 241.403 23.0682C241.403 23.4318 241.483 23.7628 241.642 24.0611C241.804 24.3565 242.024 24.5923 242.302 24.7685C242.583 24.9418 242.903 25.0284 243.261 25.0284C243.531 25.0284 243.782 24.9759 244.015 24.8707C244.248 24.7628 244.451 24.6165 244.625 24.4318C244.801 24.2443 244.939 24.0327 245.038 23.7969C245.137 23.5582 245.187 23.3097 245.187 23.0511C245.187 22.7102 245.105 22.3906 244.94 22.0923C244.778 21.794 244.554 21.5526 244.267 21.3679C243.983 21.1832 243.659 21.0909 243.295 21.0909ZM249.217 27.8068L249.149 28.267C249.101 28.5909 249.027 28.9375 248.928 29.3068C248.831 29.6761 248.73 30.0241 248.625 30.3509C248.52 30.6776 248.433 30.9375 248.365 31.1307H247.598C247.635 30.9489 247.683 30.7088 247.743 30.4105C247.803 30.1122 247.862 29.7784 247.922 29.4091C247.984 29.0426 248.036 28.6676 248.075 28.2841L248.126 27.8068H249.217ZM258.479 20.156H259.343V20.612C259.343 22.556 257.279 23.984 255.095 24.356L254.711 23.564C256.619 23.288 258.479 22.04 258.479 20.612V20.156ZM258.731 20.156H259.583V20.612C259.583 22.04 261.455 23.288 263.351 23.564L262.979 24.356C260.783 23.984 258.731 22.556 258.731 20.612V20.156ZM258.515 25.796H259.499V29.936H258.515V25.796ZM254.135 25.268H263.939V26.084H254.135V25.268ZM255.047 19.76H262.991V20.564H255.047V19.76ZM267.574 24.668H268.558V27.92H267.574V24.668ZM271.582 24.668H272.578V27.92H271.582V24.668ZM265.174 27.728H275.002V28.556H265.174V27.728ZM270.07 19.772C272.362 19.772 274.006 20.864 274.006 22.568C274.006 24.26 272.362 25.352 270.07 25.352C267.766 25.352 266.122 24.26 266.122 22.568C266.122 20.864 267.766 19.772 270.07 19.772ZM270.07 20.564C268.33 20.564 267.082 21.356 267.082 22.568C267.082 23.768 268.33 24.56 270.07 24.56C271.81 24.56 273.046 23.768 273.046 22.568C273.046 21.356 271.81 20.564 270.07 20.564ZM284.7 20.624H287.76V21.404H284.7V20.624ZM284.7 22.604H287.76V23.384H284.7V22.604ZM287.508 19.088H288.504V24.74H287.508V19.088ZM281.52 25.28H288.504V27.848H282.516V29.516H281.544V27.104H287.52V26.072H281.52V25.28ZM281.544 29H288.9V29.792H281.544V29ZM280.116 19.58H281.1V21.14H284.04V19.58H285.012V24.32H280.116V19.58ZM281.1 21.92V23.516H284.04V21.92H281.1ZM291.681 29.0682C291.471 29.0682 291.29 28.9929 291.14 28.8423C290.989 28.6918 290.914 28.5114 290.914 28.3011C290.914 28.0909 290.989 27.9105 291.14 27.7599C291.29 27.6094 291.471 27.5341 291.681 27.5341C291.891 27.5341 292.071 27.6094 292.222 27.7599C292.373 27.9105 292.448 28.0909 292.448 28.3011C292.448 28.4403 292.412 28.5682 292.341 28.6847C292.273 28.8011 292.181 28.8949 292.064 28.9659C291.951 29.0341 291.823 29.0682 291.681 29.0682ZM291.681 24.2102C291.471 24.2102 291.29 24.1349 291.14 23.9844C290.989 23.8338 290.914 23.6534 290.914 23.4432C290.914 23.233 290.989 23.0526 291.14 22.902C291.29 22.7514 291.471 22.6761 291.681 22.6761C291.891 22.6761 292.071 22.7514 292.222 22.902C292.373 23.0526 292.448 23.233 292.448 23.4432C292.448 23.5824 292.412 23.7102 292.341 23.8267C292.273 23.9432 292.181 24.0369 292.064 24.108C291.951 24.1761 291.823 24.2102 291.681 24.2102ZM304.723 19.088H305.719V24.608H304.723V19.088ZM305.287 21.416H307.315V22.244H305.287V21.416ZM298.831 25.124H305.719V27.788H299.839V29.408H298.855V27.032H304.747V25.916H298.831V25.124ZM298.855 28.988H306.115V29.792H298.855V28.988ZM300.295 19.472C301.927 19.472 303.103 20.468 303.103 21.884C303.103 23.312 301.927 24.308 300.295 24.308C298.687 24.308 297.499 23.312 297.499 21.884C297.499 20.468 298.687 19.472 300.295 19.472ZM300.295 20.288C299.251 20.288 298.471 20.948 298.471 21.884C298.471 22.832 299.251 23.492 300.295 23.492C301.363 23.492 302.143 22.832 302.143 21.884C302.143 20.948 301.363 20.288 300.295 20.288ZM308.802 26.504H309.654C311.658 26.504 313.038 26.456 314.67 26.168L314.778 26.984C313.098 27.272 311.682 27.332 309.654 27.332H308.802V26.504ZM308.802 20.072H313.854V20.9H309.798V26.792H308.802V20.072ZM309.546 23.108H313.614V23.912H309.546V23.108ZM315.678 19.088H316.686V29.936H315.678V19.088ZM316.446 23.444H318.462V24.284H316.446V23.444ZM327.257 19.076H328.253V29.948H327.257V19.076ZM322.529 19.916C324.137 19.916 325.289 21.392 325.289 23.696C325.289 26.012 324.137 27.488 322.529 27.488C320.933 27.488 319.781 26.012 319.781 23.696C319.781 21.392 320.933 19.916 322.529 19.916ZM322.529 20.816C321.473 20.816 320.729 21.944 320.729 23.696C320.729 25.46 321.473 26.612 322.529 26.612C323.597 26.612 324.329 25.46 324.329 23.696C324.329 21.944 323.597 20.816 322.529 20.816ZM330.424 27.74H340.252V28.58H330.424V27.74ZM331.612 19.916H339.04V23.204H332.632V25.376H331.648V22.412H338.056V20.732H331.612V19.916ZM331.648 24.956H339.292V25.772H331.648V24.956Z" fill="white"/>
</svg>
