<svg width="399" height="50" viewBox="0 0 399 50" fill="none" xmlns="http://www.w3.org/2000/svg">
<rect x="5" y="5" width="389" height="40" rx="2" fill="#343251" stroke="#EBD2FF" stroke-width="2"/>
<rect x="0.5" y="0.5" width="398" height="49" rx="6.5" stroke="#EBD2FF"/>
<path d="M17 22.8414L23.8428 16L27.4459 23.4144L33.7076 16.2096L38.258 23.677L43.9493 16L48.5978 23.677" stroke="white" stroke-width="2.56812" stroke-linecap="round" stroke-linejoin="round"/>
<path d="M16.9999 33.9723L23.8427 27.1335L27.4458 34.5479L33.7075 27.3431L38.2579 34.8079L43.9492 27.1335L48.5977 34.8079" stroke="white" stroke-width="2.56812" stroke-linecap="round" stroke-linejoin="round"/>
<path d="M67.992 24.212H68.976V25.88H67.992V24.212ZM63.588 23.66H73.392V24.464H63.588V23.66ZM64.86 19.448H72.12V22.748H64.86V19.448ZM71.148 20.24H65.844V21.956H71.148V20.24ZM64.776 25.52H72.144V27.956H65.784V29.276H64.8V27.236H71.16V26.288H64.776V25.52ZM64.8 29.036H72.468V29.816H64.8V29.036ZM79.7631 20.852H82.8231V21.668H79.7631V20.852ZM79.7631 23.072H82.8231V23.9H79.7631V23.072ZM75.1671 19.748H76.1511V21.476H79.0911V19.748H80.0631V24.86H75.1671V19.748ZM76.1511 22.28V24.056H79.0911V22.28H76.1511ZM82.5591 19.088H83.5551V25.652H82.5591V19.088ZM79.9911 25.868C82.2231 25.868 83.6031 26.624 83.6031 27.896C83.6031 29.18 82.2231 29.912 79.9911 29.912C77.7471 29.912 76.3671 29.18 76.3671 27.896C76.3671 26.624 77.7471 25.868 79.9911 25.868ZM79.9911 26.66C78.3591 26.66 77.3631 27.104 77.3631 27.896C77.3631 28.676 78.3591 29.132 79.9911 29.132C81.6231 29.132 82.6191 28.676 82.6191 27.896C82.6191 27.104 81.6231 26.66 79.9911 26.66ZM88.3541 20.636H89.1461V22.4C89.1461 24.656 87.7661 26.984 86.0741 27.848L85.4981 27.056C87.0461 26.3 88.3541 24.236 88.3541 22.4V20.636ZM88.5341 20.636H89.3261V22.4C89.3261 24.116 90.5501 26.048 92.1221 26.792L91.5581 27.584C89.8421 26.732 88.5341 24.548 88.5341 22.4V20.636ZM85.8821 20.192H91.7261V21.032H85.8821V20.192ZM93.0101 19.088H94.0181V29.936H93.0101V19.088ZM93.7781 23.468H95.7941V24.308H93.7781V23.468ZM104.613 19.076H105.609V29.948H104.613V19.076ZM97.3412 26.504H98.2412C100.053 26.504 101.673 26.432 103.593 26.12L103.701 26.936C101.733 27.26 100.101 27.332 98.2412 27.332H97.3412V26.504ZM97.3172 20.096H102.333V23.972H98.3372V26.816H97.3412V23.156H101.325V20.912H97.3172V20.096ZM111.81 24.6364C111.81 23.5625 111.949 22.5753 112.227 21.6747C112.509 20.7713 112.909 19.9403 113.429 19.1818H114.315C114.111 19.4631 113.919 19.8097 113.74 20.2216C113.564 20.6307 113.409 21.081 113.276 21.5724C113.142 22.0611 113.037 22.5668 112.96 23.0895C112.886 23.6122 112.849 24.1278 112.849 24.6364C112.849 25.3125 112.915 25.9986 113.045 26.6946C113.176 27.3906 113.352 28.0369 113.574 28.6335C113.795 29.2301 114.043 29.7159 114.315 30.0909H113.429C112.909 29.3324 112.509 28.5028 112.227 27.6023C111.949 26.6989 111.81 25.7102 111.81 24.6364ZM116.294 29H115.186L118.39 20.2727H119.481L122.686 29H121.578L118.97 21.6534H118.902L116.294 29ZM116.703 25.5909H121.169V26.5284H116.703V25.5909ZM128.375 31.4545V27.9943H128.289C128.216 28.1136 128.11 28.2642 127.974 28.446C127.838 28.625 127.643 28.7855 127.39 28.9276C127.137 29.0668 126.801 29.1364 126.38 29.1364C125.835 29.1364 125.353 28.9986 124.936 28.723C124.518 28.4446 124.191 28.0526 123.956 27.5469C123.72 27.0384 123.602 26.4375 123.602 25.7443C123.602 25.0568 123.72 24.4602 123.956 23.9545C124.191 23.4489 124.52 23.0582 124.94 22.7827C125.36 22.5071 125.846 22.3693 126.397 22.3693C126.824 22.3693 127.16 22.4403 127.407 22.5824C127.657 22.7216 127.848 22.8807 127.978 23.0597C128.112 23.2358 128.216 23.3807 128.289 23.4943H128.409V22.4545H129.38V31.4545H128.375ZM126.517 28.233C126.92 28.233 127.261 28.1278 127.539 27.9176C127.818 27.7045 128.029 27.4105 128.174 27.0355C128.319 26.6577 128.392 26.2216 128.392 25.7273C128.392 25.2386 128.321 24.8111 128.179 24.4446C128.037 24.0753 127.826 23.7884 127.548 23.5838C127.27 23.3764 126.926 23.2727 126.517 23.2727C126.091 23.2727 125.735 23.3821 125.451 23.6009C125.17 23.8168 124.958 24.1108 124.816 24.483C124.677 24.8523 124.608 25.267 124.608 25.7273C124.608 26.1932 124.679 26.6165 124.821 26.9972C124.966 27.375 125.179 27.6761 125.46 27.9006C125.744 28.1222 126.096 28.233 126.517 28.233ZM135.346 26.3239V22.4545H136.352V29H135.346V27.892H135.278C135.125 28.2244 134.886 28.5071 134.562 28.7401C134.238 28.9702 133.829 29.0852 133.335 29.0852C132.926 29.0852 132.562 28.9957 132.244 28.8168C131.926 28.6349 131.676 28.3622 131.494 27.9986C131.312 27.6321 131.221 27.1705 131.221 26.6136V22.4545H132.227V26.5455C132.227 27.0227 132.36 27.4034 132.627 27.6875C132.897 27.9716 133.241 28.1136 133.659 28.1136C133.909 28.1136 134.163 28.0497 134.422 27.9219C134.683 27.794 134.902 27.598 135.078 27.3338C135.257 27.0696 135.346 26.733 135.346 26.3239ZM140.12 29.1534C139.705 29.1534 139.329 29.0753 138.991 28.919C138.653 28.7599 138.384 28.5312 138.185 28.233C137.987 27.9318 137.887 27.5682 137.887 27.142C137.887 26.767 137.961 26.4631 138.109 26.2301C138.256 25.9943 138.454 25.8097 138.701 25.6761C138.948 25.5426 139.221 25.4432 139.519 25.3778C139.82 25.3097 140.123 25.2557 140.427 25.2159C140.825 25.1648 141.147 25.1264 141.394 25.1009C141.644 25.0724 141.826 25.0256 141.94 24.9602C142.056 24.8949 142.114 24.7812 142.114 24.6193V24.5852C142.114 24.1648 141.999 23.8381 141.769 23.6051C141.542 23.3722 141.197 23.2557 140.734 23.2557C140.254 23.2557 139.877 23.3608 139.604 23.571C139.332 23.7812 139.14 24.0057 139.029 24.2443L138.075 23.9034C138.245 23.5057 138.472 23.196 138.756 22.9744C139.043 22.75 139.356 22.5937 139.694 22.5057C140.035 22.4148 140.37 22.3693 140.7 22.3693C140.91 22.3693 141.151 22.3949 141.424 22.446C141.7 22.4943 141.965 22.5952 142.221 22.7486C142.479 22.902 142.694 23.1335 142.864 23.4432C143.035 23.7528 143.12 24.1676 143.12 24.6875V29H142.114V28.1136H142.063C141.995 28.2557 141.881 28.4077 141.722 28.5696C141.563 28.7315 141.352 28.8693 141.087 28.983C140.823 29.0966 140.501 29.1534 140.12 29.1534ZM140.273 28.25C140.671 28.25 141.006 28.1719 141.279 28.0156C141.555 27.8594 141.762 27.6577 141.901 27.4105C142.043 27.1634 142.114 26.9034 142.114 26.6307V25.7102C142.072 25.7614 141.978 25.8082 141.833 25.8509C141.691 25.8906 141.526 25.9261 141.339 25.9574C141.154 25.9858 140.974 26.0114 140.798 26.0341C140.624 26.054 140.484 26.071 140.376 26.0852C140.114 26.1193 139.87 26.1747 139.643 26.2514C139.418 26.3253 139.237 26.4375 139.097 26.5881C138.961 26.7358 138.893 26.9375 138.893 27.1932C138.893 27.5426 139.022 27.8068 139.281 27.9858C139.542 28.1619 139.873 28.25 140.273 28.25ZM144.956 29V22.4545H145.927V23.4432H145.995C146.115 23.1193 146.331 22.8565 146.643 22.6548C146.956 22.4531 147.308 22.3523 147.7 22.3523C147.774 22.3523 147.866 22.3537 147.977 22.3565C148.088 22.3594 148.172 22.3636 148.228 22.3693V23.392C148.194 23.3835 148.116 23.3707 147.994 23.3537C147.875 23.3338 147.748 23.3239 147.615 23.3239C147.297 23.3239 147.012 23.3906 146.762 23.5241C146.515 23.6548 146.319 23.8366 146.174 24.0696C146.032 24.2997 145.961 24.5625 145.961 24.858V29H144.956ZM149.42 29V22.4545H150.426V29H149.42ZM149.932 21.3636C149.736 21.3636 149.567 21.2969 149.425 21.1634C149.286 21.0298 149.216 20.8693 149.216 20.6818C149.216 20.4943 149.286 20.3338 149.425 20.2003C149.567 20.0668 149.736 20 149.932 20C150.128 20 150.295 20.0668 150.435 20.2003C150.577 20.3338 150.648 20.4943 150.648 20.6818C150.648 20.8693 150.577 21.0298 150.435 21.1634C150.295 21.2969 150.128 21.3636 149.932 21.3636ZM156.393 26.3239V22.4545H157.399V29H156.393V27.892H156.325C156.172 28.2244 155.933 28.5071 155.609 28.7401C155.285 28.9702 154.876 29.0852 154.382 29.0852C153.973 29.0852 153.609 28.9957 153.291 28.8168C152.973 28.6349 152.723 28.3622 152.541 27.9986C152.359 27.6321 152.268 27.1705 152.268 26.6136V22.4545H153.274V26.5455C153.274 27.0227 153.407 27.4034 153.674 27.6875C153.944 27.9716 154.288 28.1136 154.706 28.1136C154.956 28.1136 155.21 28.0497 155.468 27.9219C155.73 27.794 155.949 27.598 156.125 27.3338C156.304 27.0696 156.393 26.733 156.393 26.3239ZM163.877 23.9205L162.974 24.1761C162.917 24.0256 162.833 23.8793 162.722 23.7372C162.614 23.5923 162.467 23.473 162.279 23.3793C162.092 23.2855 161.852 23.2386 161.559 23.2386C161.158 23.2386 160.825 23.331 160.558 23.5156C160.293 23.6974 160.161 23.929 160.161 24.2102C160.161 24.4602 160.252 24.6577 160.434 24.8026C160.616 24.9474 160.9 25.0682 161.286 25.1648L162.258 25.4034C162.843 25.5455 163.279 25.7628 163.566 26.0554C163.853 26.3452 163.996 26.7187 163.996 27.1761C163.996 27.5511 163.888 27.8864 163.673 28.1818C163.46 28.4773 163.161 28.7102 162.778 28.8807C162.394 29.0511 161.948 29.1364 161.44 29.1364C160.772 29.1364 160.219 28.9915 159.782 28.7017C159.344 28.4119 159.067 27.9886 158.951 27.4318L159.906 27.1932C159.996 27.5455 160.168 27.8097 160.421 27.9858C160.677 28.1619 161.011 28.25 161.423 28.25C161.891 28.25 162.263 28.1506 162.539 27.9517C162.817 27.75 162.957 27.5085 162.957 27.2273C162.957 27 162.877 26.8097 162.718 26.6562C162.559 26.5 162.315 26.3835 161.985 26.3068L160.894 26.0511C160.295 25.9091 159.854 25.6889 159.573 25.3906C159.295 25.0895 159.156 24.7131 159.156 24.2614C159.156 23.892 159.259 23.5653 159.467 23.2812C159.677 22.9972 159.962 22.7741 160.323 22.6122C160.687 22.4503 161.099 22.3693 161.559 22.3693C162.207 22.3693 162.715 22.5114 163.085 22.7955C163.457 23.0795 163.721 23.4545 163.877 23.9205ZM167.658 25.3182C167.658 26.392 167.517 27.3807 167.236 28.2841C166.958 29.1847 166.559 30.0142 166.039 30.7727H165.152C165.357 30.4915 165.547 30.1449 165.723 29.733C165.902 29.3239 166.059 28.875 166.192 28.3864C166.326 27.8949 166.429 27.3878 166.503 26.8651C166.58 26.3395 166.618 25.8239 166.618 25.3182C166.618 24.642 166.553 23.956 166.422 23.2599C166.292 22.5639 166.115 21.9176 165.894 21.321C165.672 20.7244 165.425 20.2386 165.152 19.8636H166.039C166.559 20.6222 166.958 21.4531 167.236 22.3565C167.517 23.2571 167.658 24.2443 167.658 25.3182ZM170.591 29.0682C170.381 29.0682 170.2 28.9929 170.05 28.8423C169.899 28.6918 169.824 28.5114 169.824 28.3011C169.824 28.0909 169.899 27.9105 170.05 27.7599C170.2 27.6094 170.381 27.5341 170.591 27.5341C170.801 27.5341 170.982 27.6094 171.132 27.7599C171.283 27.9105 171.358 28.0909 171.358 28.3011C171.358 28.4403 171.322 28.5682 171.251 28.6847C171.183 28.8011 171.091 28.8949 170.974 28.9659C170.861 29.0341 170.733 29.0682 170.591 29.0682ZM170.591 24.2102C170.381 24.2102 170.2 24.1349 170.05 23.9844C169.899 23.8338 169.824 23.6534 169.824 23.4432C169.824 23.233 169.899 23.0526 170.05 22.902C170.2 22.7514 170.381 22.6761 170.591 22.6761C170.801 22.6761 170.982 22.7514 171.132 22.902C171.283 23.0526 171.358 23.233 171.358 23.4432C171.358 23.5824 171.322 23.7102 171.251 23.8267C171.183 23.9432 171.091 24.0369 170.974 24.108C170.861 24.1761 170.733 24.2102 170.591 24.2102ZM179.589 20.2727V29H178.532V21.3807H178.481L176.35 22.7955V21.7216L178.532 20.2727H179.589ZM182.333 29.0682C182.123 29.0682 181.942 28.9929 181.792 28.8423C181.641 28.6918 181.566 28.5114 181.566 28.3011C181.566 28.0909 181.641 27.9105 181.792 27.7599C181.942 27.6094 182.123 27.5341 182.333 27.5341C182.543 27.5341 182.724 27.6094 182.874 27.7599C183.025 27.9105 183.1 28.0909 183.1 28.3011C183.1 28.4403 183.065 28.5682 182.994 28.6847C182.925 28.8011 182.833 28.8949 182.717 28.9659C182.603 29.0341 182.475 29.0682 182.333 29.0682ZM184.888 29V28.233L187.768 25.0795C188.107 24.7102 188.385 24.3892 188.604 24.1165C188.822 23.8409 188.984 23.5824 189.089 23.3409C189.197 23.0966 189.251 22.8409 189.251 22.5739C189.251 22.267 189.178 22.0014 189.03 21.777C188.885 21.5526 188.686 21.3793 188.433 21.2571C188.18 21.1349 187.896 21.0739 187.581 21.0739C187.246 21.0739 186.953 21.1435 186.703 21.2827C186.456 21.419 186.264 21.6108 186.128 21.858C185.994 22.1051 185.928 22.3949 185.928 22.7273H184.922C184.922 22.2159 185.04 21.767 185.276 21.3807C185.511 20.9943 185.832 20.6932 186.239 20.4773C186.648 20.2614 187.107 20.1534 187.615 20.1534C188.126 20.1534 188.58 20.2614 188.974 20.4773C189.369 20.6932 189.679 20.9844 189.903 21.3509C190.128 21.7173 190.24 22.125 190.24 22.5739C190.24 22.8949 190.182 23.2088 190.065 23.5156C189.952 23.8196 189.753 24.1591 189.469 24.5341C189.188 24.9062 188.797 25.3608 188.297 25.8977L186.337 27.9943V28.0625H190.393V29H184.888ZM195 29.1193C194.358 29.1193 193.811 28.9446 193.359 28.5952C192.908 28.2429 192.563 27.733 192.324 27.0653C192.085 26.3949 191.966 25.5852 191.966 24.6364C191.966 23.6932 192.085 22.8878 192.324 22.2202C192.565 21.5497 192.912 21.0384 193.364 20.6861C193.818 20.331 194.364 20.1534 195 20.1534C195.636 20.1534 196.18 20.331 196.632 20.6861C197.087 21.0384 197.433 21.5497 197.672 22.2202C197.913 22.8878 198.034 23.6932 198.034 24.6364C198.034 25.5852 197.915 26.3949 197.676 27.0653C197.438 27.733 197.092 28.2429 196.641 28.5952C196.189 28.9446 195.642 29.1193 195 29.1193ZM195 28.1818C195.636 28.1818 196.131 27.875 196.483 27.2614C196.835 26.6477 197.011 25.7727 197.011 24.6364C197.011 23.8807 196.93 23.2372 196.768 22.706C196.609 22.1747 196.379 21.7699 196.078 21.4915C195.78 21.2131 195.42 21.0739 195 21.0739C194.369 21.0739 193.876 21.3849 193.521 22.0071C193.166 22.6264 192.989 23.5028 192.989 24.6364C192.989 25.392 193.068 26.0341 193.227 26.5625C193.386 27.0909 193.615 27.4929 193.913 27.7685C194.214 28.044 194.577 28.1818 195 28.1818ZM203.114 25.5057C203.105 25.0341 203.182 24.6548 203.344 24.3679C203.506 24.081 203.716 23.8722 203.974 23.7415C204.236 23.6108 204.511 23.5455 204.801 23.5455C205.091 23.5455 205.355 23.6094 205.594 23.7372C205.835 23.8622 206.111 24.0597 206.42 24.3295C206.631 24.5114 206.798 24.6392 206.923 24.7131C207.051 24.7869 207.19 24.8239 207.341 24.8239C207.585 24.8239 207.778 24.7358 207.92 24.5597C208.063 24.3807 208.131 24.1222 208.125 23.7841H209.045C209.054 24.2557 208.977 24.6349 208.815 24.9219C208.656 25.2088 208.446 25.4176 208.185 25.5483C207.923 25.679 207.648 25.7443 207.358 25.7443C207.068 25.7443 206.804 25.6818 206.565 25.5568C206.327 25.429 206.051 25.2301 205.739 24.9602C205.531 24.7784 205.364 24.6506 205.236 24.5767C205.108 24.5028 204.969 24.4659 204.818 24.4659C204.588 24.4659 204.398 24.5469 204.247 24.7088C204.099 24.8679 204.028 25.1335 204.034 25.5057H203.114ZM214.314 29V28.233L217.194 25.0795C217.532 24.7102 217.811 24.3892 218.029 24.1165C218.248 23.8409 218.41 23.5824 218.515 23.3409C218.623 23.0966 218.677 22.8409 218.677 22.5739C218.677 22.267 218.603 22.0014 218.456 21.777C218.311 21.5526 218.112 21.3793 217.859 21.2571C217.606 21.1349 217.322 21.0739 217.007 21.0739C216.672 21.0739 216.379 21.1435 216.129 21.2827C215.882 21.419 215.69 21.6108 215.554 21.858C215.42 22.1051 215.353 22.3949 215.353 22.7273H214.348C214.348 22.2159 214.466 21.767 214.701 21.3807C214.937 20.9943 215.258 20.6932 215.664 20.4773C216.074 20.2614 216.532 20.1534 217.041 20.1534C217.552 20.1534 218.005 20.2614 218.4 20.4773C218.795 20.6932 219.105 20.9844 219.329 21.3509C219.554 21.7173 219.666 22.125 219.666 22.5739C219.666 22.8949 219.608 23.2088 219.491 23.5156C219.377 23.8196 219.179 24.1591 218.895 24.5341C218.613 24.9062 218.223 25.3608 217.723 25.8977L215.762 27.9943V28.0625H219.819V29H214.314ZM222.329 29.0682C222.119 29.0682 221.939 28.9929 221.788 28.8423C221.637 28.6918 221.562 28.5114 221.562 28.3011C221.562 28.0909 221.637 27.9105 221.788 27.7599C221.939 27.6094 222.119 27.5341 222.329 27.5341C222.539 27.5341 222.72 27.6094 222.87 27.7599C223.021 27.9105 223.096 28.0909 223.096 28.3011C223.096 28.4403 223.061 28.5682 222.99 28.6847C222.922 28.8011 222.829 28.8949 222.713 28.9659C222.599 29.0341 222.471 29.0682 222.329 29.0682ZM226.909 20.2727V29H225.852V21.3807H225.801L223.67 22.7955V21.7216L225.852 20.2727H226.909ZM232.214 29.1193C231.629 29.1193 231.112 29.0156 230.663 28.8082C230.217 28.598 229.869 28.3097 229.619 27.9432C229.369 27.5739 229.246 27.1534 229.249 26.6818C229.246 26.3125 229.318 25.9716 229.466 25.6591C229.614 25.3437 229.815 25.081 230.071 24.8707C230.33 24.6577 230.618 24.5227 230.936 24.4659V24.4148C230.518 24.3068 230.186 24.0724 229.939 23.7116C229.692 23.348 229.57 22.9347 229.572 22.4716C229.57 22.0284 229.682 21.6321 229.909 21.2827C230.136 20.9332 230.449 20.6577 230.847 20.456C231.247 20.2543 231.703 20.1534 232.214 20.1534C232.72 20.1534 233.172 20.2543 233.57 20.456C233.967 20.6577 234.28 20.9332 234.507 21.2827C234.737 21.6321 234.854 22.0284 234.857 22.4716C234.854 22.9347 234.727 23.348 234.477 23.7116C234.23 24.0724 233.902 24.3068 233.493 24.4148V24.4659C233.808 24.5227 234.092 24.6577 234.345 24.8707C234.598 25.081 234.8 25.3437 234.95 25.6591C235.101 25.9716 235.178 26.3125 235.18 26.6818C235.178 27.1534 235.05 27.5739 234.797 27.9432C234.547 28.3097 234.199 28.598 233.753 28.8082C233.31 29.0156 232.797 29.1193 232.214 29.1193ZM232.214 28.1818C232.609 28.1818 232.95 28.1179 233.237 27.9901C233.524 27.8622 233.746 27.6818 233.902 27.4489C234.058 27.2159 234.138 26.9432 234.141 26.6307C234.138 26.3011 234.053 26.0099 233.885 25.7571C233.717 25.5043 233.489 25.3054 233.199 25.1605C232.912 25.0156 232.584 24.9432 232.214 24.9432C231.842 24.9432 231.51 25.0156 231.217 25.1605C230.928 25.3054 230.699 25.5043 230.531 25.7571C230.366 26.0099 230.286 26.3011 230.288 26.6307C230.286 26.9432 230.361 27.2159 230.514 27.4489C230.67 27.6818 230.893 27.8622 231.183 27.9901C231.473 28.1179 231.817 28.1818 232.214 28.1818ZM232.214 24.0398C232.527 24.0398 232.804 23.9773 233.045 23.8523C233.29 23.7273 233.482 23.5526 233.621 23.3281C233.76 23.1037 233.831 22.8409 233.834 22.5398C233.831 22.2443 233.761 21.9872 233.625 21.7685C233.489 21.5469 233.3 21.3764 233.058 21.2571C232.817 21.1349 232.536 21.0739 232.214 21.0739C231.888 21.0739 231.602 21.1349 231.358 21.2571C231.114 21.3764 230.925 21.5469 230.791 21.7685C230.658 21.9872 230.592 22.2443 230.595 22.5398C230.592 22.8409 230.659 23.1037 230.795 23.3281C230.935 23.5526 231.126 23.7273 231.371 23.8523C231.615 23.9773 231.896 24.0398 232.214 24.0398ZM238.061 27.8068L237.993 28.267C237.945 28.5909 237.871 28.9375 237.771 29.3068C237.675 29.6761 237.574 30.0241 237.469 30.3509C237.364 30.6776 237.277 30.9375 237.209 31.1307H236.442C236.479 30.9489 236.527 30.7088 236.587 30.4105C236.646 30.1122 236.706 29.7784 236.766 29.4091C236.828 29.0426 236.879 28.6676 236.919 28.2841L236.97 27.8068H238.061ZM247.323 20.156H248.187V20.612C248.187 22.556 246.123 23.984 243.939 24.356L243.555 23.564C245.463 23.288 247.323 22.04 247.323 20.612V20.156ZM247.575 20.156H248.427V20.612C248.427 22.04 250.299 23.288 252.195 23.564L251.823 24.356C249.627 23.984 247.575 22.556 247.575 20.612V20.156ZM247.359 25.796H248.343V29.936H247.359V25.796ZM242.979 25.268H252.783V26.084H242.979V25.268ZM243.891 19.76H251.835V20.564H243.891V19.76ZM256.418 24.668H257.402V27.92H256.418V24.668ZM260.426 24.668H261.422V27.92H260.426V24.668ZM254.018 27.728H263.846V28.556H254.018V27.728ZM258.914 19.772C261.206 19.772 262.85 20.864 262.85 22.568C262.85 24.26 261.206 25.352 258.914 25.352C256.61 25.352 254.966 24.26 254.966 22.568C254.966 20.864 256.61 19.772 258.914 19.772ZM258.914 20.564C257.174 20.564 255.926 21.356 255.926 22.568C255.926 23.768 257.174 24.56 258.914 24.56C260.654 24.56 261.89 23.768 261.89 22.568C261.89 21.356 260.654 20.564 258.914 20.564ZM273.544 20.624H276.604V21.404H273.544V20.624ZM273.544 22.604H276.604V23.384H273.544V22.604ZM276.352 19.088H277.348V24.74H276.352V19.088ZM270.364 25.28H277.348V27.848H271.36V29.516H270.388V27.104H276.364V26.072H270.364V25.28ZM270.388 29H277.744V29.792H270.388V29ZM268.96 19.58H269.944V21.14H272.884V19.58H273.856V24.32H268.96V19.58ZM269.944 21.92V23.516H272.884V21.92H269.944ZM280.525 29.0682C280.314 29.0682 280.134 28.9929 279.983 28.8423C279.833 28.6918 279.757 28.5114 279.757 28.3011C279.757 28.0909 279.833 27.9105 279.983 27.7599C280.134 27.6094 280.314 27.5341 280.525 27.5341C280.735 27.5341 280.915 27.6094 281.066 27.7599C281.216 27.9105 281.292 28.0909 281.292 28.3011C281.292 28.4403 281.256 28.5682 281.185 28.6847C281.117 28.8011 281.025 28.8949 280.908 28.9659C280.794 29.0341 280.667 29.0682 280.525 29.0682ZM280.525 24.2102C280.314 24.2102 280.134 24.1349 279.983 23.9844C279.833 23.8338 279.757 23.6534 279.757 23.4432C279.757 23.233 279.833 23.0526 279.983 22.902C280.134 22.7514 280.314 22.6761 280.525 22.6761C280.735 22.6761 280.915 22.7514 281.066 22.902C281.216 23.0526 281.292 23.233 281.292 23.4432C281.292 23.5824 281.256 23.7102 281.185 23.8267C281.117 23.9432 281.025 24.0369 280.908 24.108C280.794 24.1761 280.667 24.2102 280.525 24.2102ZM288.803 20.024H289.619V21.968C289.619 24.368 288.323 26.708 286.607 27.62L285.995 26.828C287.567 26.036 288.803 23.948 288.803 21.968V20.024ZM288.983 20.024H289.787V21.968C289.787 23.876 290.999 25.856 292.535 26.624L291.923 27.416C290.243 26.516 288.983 24.296 288.983 21.968V20.024ZM293.483 19.088H294.491V29.936H293.483V19.088ZM294.251 23.48H296.267V24.32H294.251V23.48ZM305.41 19.088H306.37V24.86H305.41V19.088ZM301.15 21.488H303.802V22.268H301.15V21.488ZM303.334 19.304H304.27V24.752H303.334V19.304ZM297.706 23.516H298.39C300.022 23.516 301.054 23.48 302.326 23.24L302.398 24.044C301.102 24.296 300.046 24.32 298.39 24.32H297.706V23.516ZM297.706 19.712H301.81V20.516H298.69V24.032H297.706V19.712ZM299.17 25.34H306.37V27.872H300.178V29.48H299.194V27.128H305.386V26.12H299.17V25.34ZM299.194 29H306.766V29.792H299.194V29ZM308.613 20.336H312.753V27.032H308.613V20.336ZM311.817 21.128H309.549V26.24H311.817V21.128ZM316.485 19.088H317.445V29.936H316.485V19.088ZM312.249 23.168H314.745V23.996H312.249V23.168ZM314.337 19.316H315.285V29.396H314.337V19.316ZM327.164 19.076H328.16V29.948H327.164V19.076ZM319.892 26.504H320.792C322.604 26.504 324.224 26.432 326.144 26.12L326.252 26.936C324.284 27.26 322.652 27.332 320.792 27.332H319.892V26.504ZM319.868 20.096H324.884V23.972H320.888V26.816H319.892V23.156H323.876V20.912H319.868V20.096Z" fill="white"/>
</svg>
