<svg width="399" height="50" viewBox="0 0 399 50" fill="none" xmlns="http://www.w3.org/2000/svg">
<rect x="5" y="5" width="389" height="40" rx="2" fill="#343251" stroke="#EBD2FF" stroke-width="2"/>
<rect x="0.5" y="0.5" width="398" height="49" rx="6.5" stroke="#EBD2FF"/>
<path d="M18.6184 14C18.6184 14 26.9125 24.4438 19.027 35.6701" stroke="white" stroke-width="2.56812" stroke-linecap="round" stroke-linejoin="round"/>
<path d="M35.5251 14C35.5251 14 27.231 24.4438 35.1165 35.6701" stroke="white" stroke-width="2.56812" stroke-linecap="round" stroke-linejoin="round"/>
<path d="M17 24.8364H37.2126" stroke="white" stroke-width="2.56812" stroke-linecap="round" stroke-linejoin="round"/>
<path d="M67.992 24.212H68.976V25.88H67.992V24.212ZM63.588 23.66H73.392V24.464H63.588V23.66ZM64.86 19.448H72.12V22.748H64.86V19.448ZM71.148 20.24H65.844V21.956H71.148V20.24ZM64.776 25.52H72.144V27.956H65.784V29.276H64.8V27.236H71.16V26.288H64.776V25.52ZM64.8 29.036H72.468V29.816H64.8V29.036ZM75.6711 20.168H82.6551V20.996H75.6711V20.168ZM74.6391 27.596H84.4431V28.424H74.6391V27.596ZM78.4431 23.72H79.4391V28.004H78.4431V23.72ZM82.2831 20.168H83.2671V21.248C83.2671 22.592 83.2671 24.08 82.8711 26.276L81.8751 26.144C82.2831 24.068 82.2831 22.544 82.2831 21.248V20.168ZM93.5741 19.088H94.5701V29.936H93.5741V19.088ZM90.3941 20.252H91.3781C91.3781 23.396 89.9621 26.144 86.3381 27.92L85.8101 27.116C88.9421 25.604 90.3941 23.3 90.3941 20.42V20.252ZM86.3021 20.252H90.8261V21.068H86.3021V20.252ZM99.3932 20.636H100.185V22.4C100.185 24.656 98.8052 26.984 97.1132 27.848L96.5372 27.056C98.0852 26.3 99.3932 24.236 99.3932 22.4V20.636ZM99.5732 20.636H100.365V22.4C100.365 24.116 101.589 26.048 103.161 26.792L102.597 27.584C100.881 26.732 99.5732 24.548 99.5732 22.4V20.636ZM96.9212 20.192H102.765V21.032H96.9212V20.192ZM104.049 19.088H105.057V29.936H104.049V19.088ZM104.817 23.468H106.833V24.308H104.817V23.468ZM115.652 19.076H116.648V29.948H115.652V19.076ZM108.38 26.504H109.28C111.092 26.504 112.712 26.432 114.632 26.12L114.74 26.936C112.772 27.26 111.14 27.332 109.28 27.332H108.38V26.504ZM108.356 20.096H113.372V23.972H109.376V26.816H108.38V23.156H112.364V20.912H108.356V20.096ZM122.849 24.6364C122.849 23.5625 122.988 22.5753 123.266 21.6747C123.548 20.7713 123.948 19.9403 124.468 19.1818H125.354C125.15 19.4631 124.958 19.8097 124.779 20.2216C124.603 20.6307 124.448 21.081 124.315 21.5724C124.181 22.0611 124.076 22.5668 123.999 23.0895C123.925 23.6122 123.888 24.1278 123.888 24.6364C123.888 25.3125 123.954 25.9986 124.085 26.6946C124.215 27.3906 124.391 28.0369 124.613 28.6335C124.835 29.2301 125.082 29.7159 125.354 30.0909H124.468C123.948 29.3324 123.548 28.5028 123.266 27.6023C122.988 26.6989 122.849 25.7102 122.849 24.6364ZM126.975 29V20.2727H129.924C130.608 20.2727 131.168 20.3963 131.603 20.6435C132.04 20.8878 132.364 21.2188 132.574 21.6364C132.784 22.054 132.89 22.5199 132.89 23.0341C132.89 23.5483 132.784 24.0156 132.574 24.4361C132.367 24.8565 132.046 25.1918 131.611 25.4418C131.176 25.6889 130.62 25.8125 129.941 25.8125H127.827V24.875H129.907C130.375 24.875 130.752 24.794 131.036 24.6321C131.32 24.4702 131.526 24.2514 131.654 23.9759C131.784 23.6974 131.85 23.3835 131.85 23.0341C131.85 22.6847 131.784 22.3722 131.654 22.0966C131.526 21.821 131.319 21.6051 131.032 21.4489C130.745 21.2898 130.364 21.2102 129.89 21.2102H128.032V29H126.975ZM134.456 29V22.4545H135.461V29H134.456ZM134.967 21.3636C134.771 21.3636 134.602 21.2969 134.46 21.1634C134.321 21.0298 134.251 20.8693 134.251 20.6818C134.251 20.4943 134.321 20.3338 134.46 20.2003C134.602 20.0668 134.771 20 134.967 20C135.163 20 135.331 20.0668 135.47 20.2003C135.612 20.3338 135.683 20.4943 135.683 20.6818C135.683 20.8693 135.612 21.0298 135.47 21.1634C135.331 21.2969 135.163 21.3636 134.967 21.3636ZM141.94 23.9205L141.036 24.1761C140.979 24.0256 140.896 23.8793 140.785 23.7372C140.677 23.5923 140.529 23.473 140.342 23.3793C140.154 23.2855 139.914 23.2386 139.621 23.2386C139.221 23.2386 138.887 23.331 138.62 23.5156C138.356 23.6974 138.224 23.929 138.224 24.2102C138.224 24.4602 138.315 24.6577 138.496 24.8026C138.678 24.9474 138.962 25.0682 139.349 25.1648L140.32 25.4034C140.906 25.5455 141.342 25.7628 141.629 26.0554C141.915 26.3452 142.059 26.7187 142.059 27.1761C142.059 27.5511 141.951 27.8864 141.735 28.1818C141.522 28.4773 141.224 28.7102 140.84 28.8807C140.457 29.0511 140.011 29.1364 139.502 29.1364C138.835 29.1364 138.282 28.9915 137.844 28.7017C137.407 28.4119 137.13 27.9886 137.013 27.4318L137.968 27.1932C138.059 27.5455 138.231 27.8097 138.484 27.9858C138.739 28.1619 139.073 28.25 139.485 28.25C139.954 28.25 140.326 28.1506 140.602 27.9517C140.88 27.75 141.019 27.5085 141.019 27.2273C141.019 27 140.94 26.8097 140.781 26.6562C140.621 26.5 140.377 26.3835 140.048 26.3068L138.957 26.0511C138.357 25.9091 137.917 25.6889 137.636 25.3906C137.357 25.0895 137.218 24.7131 137.218 24.2614C137.218 23.892 137.322 23.5653 137.529 23.2812C137.739 22.9972 138.025 22.7741 138.386 22.6122C138.749 22.4503 139.161 22.3693 139.621 22.3693C140.269 22.3693 140.778 22.5114 141.147 22.7955C141.519 23.0795 141.783 23.4545 141.94 23.9205ZM146.232 29.1364C145.618 29.1364 145.09 28.9915 144.647 28.7017C144.203 28.4119 143.863 28.0128 143.624 27.5043C143.385 26.9957 143.266 26.4148 143.266 25.7614C143.266 25.0966 143.388 24.5099 143.632 24.0014C143.88 23.4901 144.223 23.0909 144.664 22.804C145.107 22.5142 145.624 22.3693 146.215 22.3693C146.675 22.3693 147.09 22.4545 147.459 22.625C147.828 22.7955 148.131 23.0341 148.367 23.3409C148.603 23.6477 148.749 24.0057 148.806 24.4148H147.8C147.723 24.1165 147.553 23.8523 147.289 23.6222C147.027 23.3892 146.675 23.2727 146.232 23.2727C145.84 23.2727 145.496 23.375 145.201 23.5795C144.908 23.7812 144.679 24.0668 144.515 24.4361C144.353 24.8026 144.272 25.233 144.272 25.7273C144.272 26.233 144.351 26.6733 144.51 27.0483C144.672 27.4233 144.9 27.7145 145.192 27.9219C145.488 28.1293 145.834 28.233 146.232 28.233C146.493 28.233 146.73 28.1875 146.944 28.0966C147.157 28.0057 147.337 27.875 147.485 27.7045C147.632 27.5341 147.738 27.3295 147.8 27.0909H148.806C148.749 27.4773 148.608 27.8253 148.384 28.1349C148.162 28.4418 147.868 28.6861 147.502 28.8679C147.138 29.0469 146.715 29.1364 146.232 29.1364ZM153.02 29.1364C152.39 29.1364 151.846 28.9972 151.388 28.7188C150.934 28.4375 150.583 28.0455 150.336 27.5426C150.091 27.0369 149.969 26.4489 149.969 25.7784C149.969 25.108 150.091 24.517 150.336 24.0057C150.583 23.4915 150.926 23.0909 151.367 22.804C151.81 22.5142 152.327 22.3693 152.918 22.3693C153.259 22.3693 153.596 22.4261 153.928 22.5398C154.26 22.6534 154.563 22.8381 154.836 23.0938C155.108 23.3466 155.326 23.6818 155.488 24.0994C155.65 24.517 155.73 25.0312 155.73 25.642V26.0682H150.685V25.1989H154.708C154.708 24.8295 154.634 24.5 154.486 24.2102C154.341 23.9205 154.134 23.6918 153.864 23.5241C153.597 23.3565 153.282 23.2727 152.918 23.2727C152.517 23.2727 152.171 23.3722 151.878 23.571C151.588 23.767 151.365 24.0227 151.209 24.3381C151.053 24.6534 150.975 24.9915 150.975 25.3523V25.9318C150.975 26.4261 151.06 26.8452 151.23 27.1889C151.404 27.5298 151.644 27.7898 151.951 27.9688C152.257 28.1449 152.614 28.233 153.02 28.233C153.284 28.233 153.523 28.196 153.736 28.1222C153.952 28.0455 154.138 27.9318 154.294 27.7812C154.451 27.6278 154.571 27.4375 154.657 27.2102L155.628 27.483C155.526 27.8125 155.354 28.1023 155.113 28.3523C154.871 28.5994 154.573 28.7926 154.218 28.9318C153.863 29.0682 153.463 29.1364 153.02 29.1364ZM161.897 23.9205L160.993 24.1761C160.936 24.0256 160.853 23.8793 160.742 23.7372C160.634 23.5923 160.486 23.473 160.299 23.3793C160.111 23.2855 159.871 23.2386 159.578 23.2386C159.178 23.2386 158.844 23.331 158.577 23.5156C158.313 23.6974 158.181 23.929 158.181 24.2102C158.181 24.4602 158.272 24.6577 158.453 24.8026C158.635 24.9474 158.919 25.0682 159.306 25.1648L160.277 25.4034C160.863 25.5455 161.299 25.7628 161.586 26.0554C161.873 26.3452 162.016 26.7187 162.016 27.1761C162.016 27.5511 161.908 27.8864 161.692 28.1818C161.479 28.4773 161.181 28.7102 160.797 28.8807C160.414 29.0511 159.968 29.1364 159.459 29.1364C158.792 29.1364 158.239 28.9915 157.801 28.7017C157.364 28.4119 157.087 27.9886 156.971 27.4318L157.925 27.1932C158.016 27.5455 158.188 27.8097 158.441 27.9858C158.696 28.1619 159.03 28.25 159.442 28.25C159.911 28.25 160.283 28.1506 160.559 27.9517C160.837 27.75 160.976 27.5085 160.976 27.2273C160.976 27 160.897 26.8097 160.738 26.6562C160.578 26.5 160.334 26.3835 160.005 26.3068L158.914 26.0511C158.314 25.9091 157.874 25.6889 157.593 25.3906C157.314 25.0895 157.175 24.7131 157.175 24.2614C157.175 23.892 157.279 23.5653 157.486 23.2812C157.696 22.9972 157.982 22.7741 158.343 22.6122C158.706 22.4503 159.118 22.3693 159.578 22.3693C160.226 22.3693 160.735 22.5114 161.104 22.7955C161.476 23.0795 161.74 23.4545 161.897 23.9205ZM165.678 25.3182C165.678 26.392 165.537 27.3807 165.256 28.2841C164.977 29.1847 164.578 30.0142 164.058 30.7727H163.172C163.376 30.4915 163.567 30.1449 163.743 29.733C163.922 29.3239 164.078 28.875 164.212 28.3864C164.345 27.8949 164.449 27.3878 164.523 26.8651C164.599 26.3395 164.638 25.8239 164.638 25.3182C164.638 24.642 164.572 23.956 164.442 23.2599C164.311 22.5639 164.135 21.9176 163.913 21.321C163.692 20.7244 163.445 20.2386 163.172 19.8636H164.058C164.578 20.6222 164.977 21.4531 165.256 22.3565C165.537 23.2571 165.678 24.2443 165.678 25.3182ZM168.61 29.0682C168.4 29.0682 168.22 28.9929 168.069 28.8423C167.919 28.6918 167.843 28.5114 167.843 28.3011C167.843 28.0909 167.919 27.9105 168.069 27.7599C168.22 27.6094 168.4 27.5341 168.61 27.5341C168.821 27.5341 169.001 27.6094 169.152 27.7599C169.302 27.9105 169.377 28.0909 169.377 28.3011C169.377 28.4403 169.342 28.5682 169.271 28.6847C169.203 28.8011 169.11 28.8949 168.994 28.9659C168.88 29.0341 168.752 29.0682 168.61 29.0682ZM168.61 24.2102C168.4 24.2102 168.22 24.1349 168.069 23.9844C167.919 23.8338 167.843 23.6534 167.843 23.4432C167.843 23.233 167.919 23.0526 168.069 22.902C168.22 22.7514 168.4 22.6761 168.61 22.6761C168.821 22.6761 169.001 22.7514 169.152 22.902C169.302 23.0526 169.377 23.233 169.377 23.4432C169.377 23.5824 169.342 23.7102 169.271 23.8267C169.203 23.9432 169.11 24.0369 168.994 24.108C168.88 24.1761 168.752 24.2102 168.61 24.2102ZM174.54 29V28.233L177.421 25.0795C177.759 24.7102 178.037 24.3892 178.256 24.1165C178.475 23.8409 178.637 23.5824 178.742 23.3409C178.85 23.0966 178.904 22.8409 178.904 22.5739C178.904 22.267 178.83 22.0014 178.682 21.777C178.537 21.5526 178.338 21.3793 178.086 21.2571C177.833 21.1349 177.549 21.0739 177.233 21.0739C176.898 21.0739 176.605 21.1435 176.355 21.2827C176.108 21.419 175.917 21.6108 175.78 21.858C175.647 22.1051 175.58 22.3949 175.58 22.7273H174.574C174.574 22.2159 174.692 21.767 174.928 21.3807C175.164 20.9943 175.485 20.6932 175.891 20.4773C176.3 20.2614 176.759 20.1534 177.267 20.1534C177.779 20.1534 178.232 20.2614 178.627 20.4773C179.022 20.6932 179.331 20.9844 179.556 21.3509C179.78 21.7173 179.892 22.125 179.892 22.5739C179.892 22.8949 179.834 23.2088 179.718 23.5156C179.604 23.8196 179.405 24.1591 179.121 24.5341C178.84 24.9062 178.449 25.3608 177.949 25.8977L175.989 27.9943V28.0625H180.046V29H174.54ZM182.556 29.0682C182.346 29.0682 182.165 28.9929 182.015 28.8423C181.864 28.6918 181.789 28.5114 181.789 28.3011C181.789 28.0909 181.864 27.9105 182.015 27.7599C182.165 27.6094 182.346 27.5341 182.556 27.5341C182.766 27.5341 182.946 27.6094 183.097 27.7599C183.248 27.9105 183.323 28.0909 183.323 28.3011C183.323 28.4403 183.287 28.5682 183.216 28.6847C183.148 28.8011 183.056 28.8949 182.939 28.9659C182.826 29.0341 182.698 29.0682 182.556 29.0682ZM187.136 20.2727V29H186.079V21.3807H186.028L183.897 22.7955V21.7216L186.079 20.2727H187.136ZM192.424 20.1534C192.782 20.1562 193.14 20.2244 193.498 20.358C193.856 20.4915 194.183 20.7131 194.478 21.0227C194.773 21.3295 195.011 21.7486 195.19 22.2798C195.369 22.8111 195.458 23.4773 195.458 24.2784C195.458 25.054 195.384 25.7429 195.237 26.3452C195.092 26.9446 194.881 27.4503 194.606 27.8622C194.333 28.2741 194.001 28.5866 193.609 28.7997C193.219 29.0128 192.779 29.1193 192.288 29.1193C191.799 29.1193 191.363 29.0227 190.979 28.8295C190.599 28.6335 190.286 28.3622 190.042 28.0156C189.8 27.6662 189.646 27.2614 189.577 26.8011H190.617C190.711 27.2017 190.897 27.5327 191.175 27.794C191.457 28.0526 191.827 28.1818 192.288 28.1818C192.961 28.1818 193.492 27.8878 193.881 27.2997C194.273 26.7116 194.469 25.8807 194.469 24.8068H194.401C194.242 25.0455 194.053 25.2514 193.835 25.4247C193.616 25.598 193.373 25.7315 193.106 25.8253C192.839 25.919 192.555 25.9659 192.254 25.9659C191.754 25.9659 191.295 25.8423 190.877 25.5952C190.462 25.3452 190.13 25.0028 189.88 24.5682C189.633 24.1307 189.509 23.6307 189.509 23.0682C189.509 22.5341 189.629 22.0455 189.867 21.6023C190.109 21.1562 190.447 20.8011 190.881 20.5369C191.319 20.2727 191.833 20.1449 192.424 20.1534ZM192.424 21.0909C192.066 21.0909 191.744 21.1804 191.457 21.3594C191.173 21.5355 190.947 21.7741 190.779 22.0753C190.614 22.3736 190.532 22.7045 190.532 23.0682C190.532 23.4318 190.612 23.7628 190.771 24.0611C190.933 24.3565 191.153 24.5923 191.431 24.7685C191.712 24.9418 192.032 25.0284 192.39 25.0284C192.66 25.0284 192.911 24.9759 193.144 24.8707C193.377 24.7628 193.58 24.6165 193.754 24.4318C193.93 24.2443 194.067 24.0327 194.167 23.7969C194.266 23.5582 194.316 23.3097 194.316 23.0511C194.316 22.7102 194.234 22.3906 194.069 22.0923C193.907 21.794 193.683 21.5526 193.396 21.3679C193.112 21.1832 192.788 21.0909 192.424 21.0909ZM200.594 25.5057C200.586 25.0341 200.662 24.6548 200.824 24.3679C200.986 24.081 201.196 23.8722 201.455 23.7415C201.716 23.6108 201.992 23.5455 202.282 23.5455C202.571 23.5455 202.836 23.6094 203.074 23.7372C203.316 23.8622 203.591 24.0597 203.901 24.3295C204.111 24.5114 204.279 24.6392 204.404 24.7131C204.532 24.7869 204.671 24.8239 204.821 24.8239C205.066 24.8239 205.259 24.7358 205.401 24.5597C205.543 24.3807 205.611 24.1222 205.605 23.7841H206.526C206.534 24.2557 206.458 24.6349 206.296 24.9219C206.137 25.2088 205.926 25.4176 205.665 25.5483C205.404 25.679 205.128 25.7443 204.838 25.7443C204.549 25.7443 204.284 25.6818 204.046 25.5568C203.807 25.429 203.532 25.2301 203.219 24.9602C203.012 24.7784 202.844 24.6506 202.716 24.5767C202.588 24.5028 202.449 24.4659 202.299 24.4659C202.069 24.4659 201.878 24.5469 201.728 24.7088C201.58 24.8679 201.509 25.1335 201.515 25.5057H200.594ZM214.743 29.1193C214.18 29.1193 213.679 29.0227 213.239 28.8295C212.801 28.6364 212.453 28.3679 212.195 28.0241C211.939 27.6776 211.8 27.2756 211.777 26.8182H212.851C212.874 27.0994 212.97 27.3423 213.141 27.5469C213.311 27.7486 213.534 27.9048 213.81 28.0156C214.085 28.1264 214.391 28.1818 214.726 28.1818C215.101 28.1818 215.433 28.1165 215.723 27.9858C216.013 27.8551 216.24 27.6733 216.405 27.4403C216.57 27.2074 216.652 26.9375 216.652 26.6307C216.652 26.3097 216.572 26.027 216.413 25.7827C216.254 25.5355 216.021 25.3423 215.714 25.2031C215.408 25.0639 215.033 24.9943 214.589 24.9943H213.891V24.0568H214.589C214.936 24.0568 215.24 23.9943 215.501 23.8693C215.766 23.7443 215.972 23.5682 216.119 23.3409C216.27 23.1136 216.345 22.8466 216.345 22.5398C216.345 22.2443 216.28 21.9872 216.149 21.7685C216.018 21.5497 215.834 21.3793 215.595 21.2571C215.359 21.1349 215.081 21.0739 214.76 21.0739C214.459 21.0739 214.175 21.1293 213.908 21.2401C213.643 21.348 213.428 21.5057 213.26 21.7131C213.092 21.9176 213.001 22.1648 212.987 22.4545H211.964C211.982 21.9972 212.119 21.5966 212.378 21.2528C212.636 20.9062 212.974 20.6364 213.392 20.4432C213.813 20.25 214.274 20.1534 214.777 20.1534C215.317 20.1534 215.78 20.2628 216.166 20.4815C216.553 20.6974 216.849 20.983 217.057 21.3381C217.264 21.6932 217.368 22.0767 217.368 22.4886C217.368 22.9801 217.239 23.3991 216.98 23.7457C216.724 24.0923 216.376 24.3324 215.936 24.4659V24.5341C216.487 24.625 216.918 24.8594 217.227 25.2372C217.537 25.6122 217.692 26.0767 217.692 26.6307C217.692 27.1051 217.563 27.5312 217.304 27.9091C217.048 28.2841 216.699 28.5795 216.256 28.7955C215.813 29.0114 215.308 29.1193 214.743 29.1193ZM219.915 29.0682C219.705 29.0682 219.525 28.9929 219.374 28.8423C219.223 28.6918 219.148 28.5114 219.148 28.3011C219.148 28.0909 219.223 27.9105 219.374 27.7599C219.525 27.6094 219.705 27.5341 219.915 27.5341C220.125 27.5341 220.306 27.6094 220.456 27.7599C220.607 27.9105 220.682 28.0909 220.682 28.3011C220.682 28.4403 220.647 28.5682 220.576 28.6847C220.507 28.8011 220.415 28.8949 220.299 28.9659C220.185 29.0341 220.057 29.0682 219.915 29.0682ZM222.47 29V28.233L225.35 25.0795C225.689 24.7102 225.967 24.3892 226.186 24.1165C226.404 23.8409 226.566 23.5824 226.672 23.3409C226.779 23.0966 226.833 22.8409 226.833 22.5739C226.833 22.267 226.76 22.0014 226.612 21.777C226.467 21.5526 226.268 21.3793 226.015 21.2571C225.762 21.1349 225.478 21.0739 225.163 21.0739C224.828 21.0739 224.535 21.1435 224.285 21.2827C224.038 21.419 223.846 21.6108 223.71 21.858C223.576 22.1051 223.51 22.3949 223.51 22.7273H222.504C222.504 22.2159 222.622 21.767 222.858 21.3807C223.093 20.9943 223.414 20.6932 223.821 20.4773C224.23 20.2614 224.689 20.1534 225.197 20.1534C225.708 20.1534 226.162 20.2614 226.556 20.4773C226.951 20.6932 227.261 20.9844 227.485 21.3509C227.71 21.7173 227.822 22.125 227.822 22.5739C227.822 22.8949 227.764 23.2088 227.647 23.5156C227.534 23.8196 227.335 24.1591 227.051 24.5341C226.77 24.9062 226.379 25.3608 225.879 25.8977L223.919 27.9943V28.0625H227.975V29H222.47ZM232.582 29.1193C231.94 29.1193 231.393 28.9446 230.941 28.5952C230.49 28.2429 230.145 27.733 229.906 27.0653C229.667 26.3949 229.548 25.5852 229.548 24.6364C229.548 23.6932 229.667 22.8878 229.906 22.2202C230.147 21.5497 230.494 21.0384 230.946 20.6861C231.4 20.331 231.946 20.1534 232.582 20.1534C233.218 20.1534 233.762 20.331 234.214 20.6861C234.669 21.0384 235.015 21.5497 235.254 22.2202C235.495 22.8878 235.616 23.6932 235.616 24.6364C235.616 25.5852 235.497 26.3949 235.258 27.0653C235.02 27.733 234.674 28.2429 234.223 28.5952C233.771 28.9446 233.224 29.1193 232.582 29.1193ZM232.582 28.1818C233.218 28.1818 233.713 27.875 234.065 27.2614C234.417 26.6477 234.593 25.7727 234.593 24.6364C234.593 23.8807 234.512 23.2372 234.35 22.706C234.191 22.1747 233.961 21.7699 233.66 21.4915C233.362 21.2131 233.002 21.0739 232.582 21.0739C231.951 21.0739 231.458 21.3849 231.103 22.0071C230.748 22.6264 230.571 23.5028 230.571 24.6364C230.571 25.392 230.65 26.0341 230.809 26.5625C230.968 27.0909 231.197 27.4929 231.495 27.7685C231.797 28.044 232.159 28.1818 232.582 28.1818ZM238.448 27.8068L238.38 28.267C238.331 28.5909 238.257 28.9375 238.158 29.3068C238.061 29.6761 237.961 30.0241 237.855 30.3509C237.75 30.6776 237.664 30.9375 237.596 31.1307H236.828C236.865 30.9489 236.914 30.7088 236.973 30.4105C237.033 30.1122 237.093 29.7784 237.152 29.4091C237.215 29.0426 237.266 28.6676 237.306 28.2841L237.357 27.8068H238.448ZM247.71 20.156H248.574V20.612C248.574 22.556 246.51 23.984 244.326 24.356L243.942 23.564C245.85 23.288 247.71 22.04 247.71 20.612V20.156ZM247.962 20.156H248.814V20.612C248.814 22.04 250.686 23.288 252.582 23.564L252.21 24.356C250.014 23.984 247.962 22.556 247.962 20.612V20.156ZM247.746 25.796H248.73V29.936H247.746V25.796ZM243.366 25.268H253.17V26.084H243.366V25.268ZM244.278 19.76H252.222V20.564H244.278V19.76ZM256.805 24.668H257.789V27.92H256.805V24.668ZM260.813 24.668H261.809V27.92H260.813V24.668ZM254.405 27.728H264.233V28.556H254.405V27.728ZM259.301 19.772C261.593 19.772 263.237 20.864 263.237 22.568C263.237 24.26 261.593 25.352 259.301 25.352C256.997 25.352 255.353 24.26 255.353 22.568C255.353 20.864 256.997 19.772 259.301 19.772ZM259.301 20.564C257.561 20.564 256.313 21.356 256.313 22.568C256.313 23.768 257.561 24.56 259.301 24.56C261.041 24.56 262.277 23.768 262.277 22.568C262.277 21.356 261.041 20.564 259.301 20.564ZM273.931 20.624H276.991V21.404H273.931V20.624ZM273.931 22.604H276.991V23.384H273.931V22.604ZM276.739 19.088H277.735V24.74H276.739V19.088ZM270.751 25.28H277.735V27.848H271.747V29.516H270.775V27.104H276.751V26.072H270.751V25.28ZM270.775 29H278.131V29.792H270.775V29ZM269.347 19.58H270.331V21.14H273.271V19.58H274.243V24.32H269.347V19.58ZM270.331 21.92V23.516H273.271V21.92H270.331ZM280.911 29.0682C280.701 29.0682 280.521 28.9929 280.37 28.8423C280.219 28.6918 280.144 28.5114 280.144 28.3011C280.144 28.0909 280.219 27.9105 280.37 27.7599C280.521 27.6094 280.701 27.5341 280.911 27.5341C281.121 27.5341 281.302 27.6094 281.452 27.7599C281.603 27.9105 281.678 28.0909 281.678 28.3011C281.678 28.4403 281.643 28.5682 281.572 28.6847C281.504 28.8011 281.411 28.8949 281.295 28.9659C281.181 29.0341 281.053 29.0682 280.911 29.0682ZM280.911 24.2102C280.701 24.2102 280.521 24.1349 280.37 23.9844C280.219 23.8338 280.144 23.6534 280.144 23.4432C280.144 23.233 280.219 23.0526 280.37 22.902C280.521 22.7514 280.701 22.6761 280.911 22.6761C281.121 22.6761 281.302 22.7514 281.452 22.902C281.603 23.0526 281.678 23.233 281.678 23.4432C281.678 23.5824 281.643 23.7102 281.572 23.8267C281.504 23.9432 281.411 24.0369 281.295 24.108C281.181 24.1761 281.053 24.2102 280.911 24.2102ZM293.954 19.088H294.95V24.608H293.954V19.088ZM294.518 21.416H296.546V22.244H294.518V21.416ZM288.062 25.124H294.95V27.788H289.07V29.408H288.086V27.032H293.978V25.916H288.062V25.124ZM288.086 28.988H295.346V29.792H288.086V28.988ZM289.526 19.472C291.158 19.472 292.334 20.468 292.334 21.884C292.334 23.312 291.158 24.308 289.526 24.308C287.918 24.308 286.729 23.312 286.729 21.884C286.729 20.468 287.918 19.472 289.526 19.472ZM289.526 20.288C288.482 20.288 287.701 20.948 287.701 21.884C287.701 22.832 288.482 23.492 289.526 23.492C290.594 23.492 291.374 22.832 291.374 21.884C291.374 20.948 290.594 20.288 289.526 20.288ZM305.473 19.076H306.469V29.948H305.473V19.076ZM298.201 26.504H299.101C300.913 26.504 302.533 26.432 304.453 26.12L304.561 26.936C302.593 27.26 300.961 27.332 299.101 27.332H298.201V26.504ZM298.177 20.096H303.193V23.972H299.197V26.816H298.201V23.156H302.185V20.912H298.177V20.096ZM308.964 26.444H309.684C311.004 26.444 312.228 26.396 313.716 26.144L313.8 26.96C312.276 27.224 311.052 27.272 309.684 27.272H308.964V26.444ZM308.94 20.276H312.816V24.056H309.936V26.78H308.964V23.252H311.856V21.092H308.94V20.276ZM316.86 19.088H317.82V29.936H316.86V19.088ZM313.332 22.976H315.084V23.804H313.332V22.976ZM314.676 19.352H315.6V29.372H314.676V19.352ZM320.111 26.504H320.963C322.967 26.504 324.347 26.456 325.979 26.168L326.087 26.984C324.407 27.272 322.991 27.332 320.963 27.332H320.111V26.504ZM320.111 20.072H325.163V20.9H321.107V26.792H320.111V20.072ZM320.855 23.108H324.923V23.912H320.855V23.108ZM326.987 19.088H327.995V29.936H326.987V19.088ZM327.755 23.444H329.771V24.284H327.755V23.444Z" fill="white"/>
</svg>
