<svg width="399" height="50" viewBox="0 0 399 50" fill="none" xmlns="http://www.w3.org/2000/svg">
<rect x="5" y="5" width="389" height="40" rx="2" fill="#343251" stroke="#EBD2FF" stroke-width="2"/>
<rect x="0.5" y="0.5" width="398" height="49" rx="6.5" stroke="#EBD2FF"/>
<path d="M29.441 36.2857C33.7228 36.2857 37.1938 32.8153 37.1938 28.5345C37.1938 24.2536 33.7228 20.7832 29.441 20.7832C25.1592 20.7832 21.6881 24.2536 21.6881 28.5345C21.6881 32.8153 25.1592 36.2857 29.441 36.2857Z" stroke="white" stroke-width="2.53937" stroke-miterlimit="10" stroke-linecap="round"/>
<path d="M19.1436 14C18.6952 15.6208 19.3453 17.3849 20.4199 18.6794C21.4944 19.9739 22.9484 20.8838 24.3759 21.7725" stroke="white" stroke-width="2.53937" stroke-miterlimit="10" stroke-linecap="round"/>
<path d="M39.7382 14C40.1866 15.6208 39.5366 17.3849 38.462 18.6794C37.3874 19.9739 35.9334 20.8838 34.506 21.7725" stroke="white" stroke-width="2.53937" stroke-miterlimit="10" stroke-linecap="round"/>
<path d="M74.004 19.1H75V26.444H74.004V19.1ZM74.58 22.352H76.584V23.192H74.58V22.352ZM71.52 26.588C73.776 26.588 75.084 27.176 75.084 28.256C75.084 29.336 73.776 29.924 71.52 29.924C69.276 29.924 67.968 29.336 67.968 28.256C67.968 27.176 69.276 26.588 71.52 26.588ZM71.52 27.332C69.876 27.332 68.964 27.656 68.964 28.256C68.964 28.856 69.876 29.18 71.52 29.18C73.152 29.18 74.076 28.856 74.076 28.256C74.076 27.656 73.152 27.332 71.52 27.332ZM69.432 24.02H70.428V25.508H69.432V24.02ZM66.66 25.964L66.528 25.172C68.472 25.172 71.136 25.148 73.356 24.824L73.44 25.52C71.136 25.94 68.556 25.964 66.66 25.964ZM66.804 20.024H73.032V20.768H66.804V20.024ZM69.924 21.224C71.46 21.224 72.444 21.8 72.444 22.76C72.444 23.72 71.46 24.296 69.924 24.296C68.388 24.296 67.392 23.72 67.392 22.76C67.392 21.8 68.388 21.224 69.924 21.224ZM69.924 21.896C68.952 21.896 68.328 22.232 68.328 22.76C68.328 23.3 68.952 23.624 69.924 23.624C70.896 23.624 71.508 23.3 71.508 22.76C71.508 22.232 70.896 21.896 69.924 21.896ZM69.432 19.004H70.428V20.3H69.432V19.004ZM77.6391 27.704H87.4671V28.532H77.6391V27.704ZM82.0071 25.076H82.9911V27.98H82.0071V25.076ZM81.9831 19.808H82.8471V20.648C82.8471 22.964 80.6271 24.752 78.4431 25.208L78.0231 24.38C79.9311 24.032 81.9831 22.436 81.9831 20.648V19.808ZM82.1631 19.808H83.0271V20.648C83.0271 22.448 85.0911 24.032 86.9991 24.38L86.5671 25.208C84.3831 24.752 82.1631 22.964 82.1631 20.648V19.808ZM91.3541 20.636H92.1461V22.4C92.1461 24.656 90.7661 26.984 89.0741 27.848L88.4981 27.056C90.0461 26.3 91.3541 24.236 91.3541 22.4V20.636ZM91.5341 20.636H92.3261V22.4C92.3261 24.116 93.5501 26.048 95.1221 26.792L94.5581 27.584C92.8421 26.732 91.5341 24.548 91.5341 22.4V20.636ZM88.8821 20.192H94.7261V21.032H88.8821V20.192ZM96.0101 19.088H97.0181V29.936H96.0101V19.088ZM96.7781 23.468H98.7941V24.308H96.7781V23.468ZM107.613 19.076H108.609V29.948H107.613V19.076ZM100.341 26.504H101.241C103.053 26.504 104.673 26.432 106.593 26.12L106.701 26.936C104.733 27.26 103.101 27.332 101.241 27.332H100.341V26.504ZM100.317 20.096H105.333V23.972H101.337V26.816H100.341V23.156H104.325V20.912H100.317V20.096ZM114.81 24.6364C114.81 23.5625 114.949 22.5753 115.227 21.6747C115.509 20.7713 115.909 19.9403 116.429 19.1818H117.315C117.111 19.4631 116.919 19.8097 116.74 20.2216C116.564 20.6307 116.409 21.081 116.276 21.5724C116.142 22.0611 116.037 22.5668 115.96 23.0895C115.886 23.6122 115.849 24.1278 115.849 24.6364C115.849 25.3125 115.915 25.9986 116.045 26.6946C116.176 27.3906 116.352 28.0369 116.574 28.6335C116.795 29.2301 117.043 29.7159 117.315 30.0909H116.429C115.909 29.3324 115.509 28.5028 115.227 27.6023C114.949 26.6989 114.81 25.7102 114.81 24.6364ZM118.458 21.2102V20.2727H125.004V21.2102H122.26V29H121.203V21.2102H118.458ZM127.534 29.1534C127.119 29.1534 126.743 29.0753 126.405 28.919C126.067 28.7599 125.798 28.5312 125.599 28.233C125.401 27.9318 125.301 27.5682 125.301 27.142C125.301 26.767 125.375 26.4631 125.523 26.2301C125.67 25.9943 125.868 25.8097 126.115 25.6761C126.362 25.5426 126.635 25.4432 126.933 25.3778C127.234 25.3097 127.537 25.2557 127.841 25.2159C128.239 25.1648 128.561 25.1264 128.808 25.1009C129.058 25.0724 129.24 25.0256 129.354 24.9602C129.47 24.8949 129.528 24.7812 129.528 24.6193V24.5852C129.528 24.1648 129.413 23.8381 129.183 23.6051C128.956 23.3722 128.611 23.2557 128.148 23.2557C127.668 23.2557 127.291 23.3608 127.018 23.571C126.746 23.7812 126.554 24.0057 126.443 24.2443L125.489 23.9034C125.659 23.5057 125.886 23.196 126.17 22.9744C126.457 22.75 126.77 22.5937 127.108 22.5057C127.449 22.4148 127.784 22.3693 128.114 22.3693C128.324 22.3693 128.565 22.3949 128.838 22.446C129.114 22.4943 129.379 22.5952 129.635 22.7486C129.893 22.902 130.108 23.1335 130.278 23.4432C130.449 23.7528 130.534 24.1676 130.534 24.6875V29H129.528V28.1136H129.477C129.409 28.2557 129.295 28.4077 129.136 28.5696C128.977 28.7315 128.766 28.8693 128.501 28.983C128.237 29.0966 127.915 29.1534 127.534 29.1534ZM127.688 28.25C128.085 28.25 128.42 28.1719 128.693 28.0156C128.969 27.8594 129.176 27.6577 129.315 27.4105C129.457 27.1634 129.528 26.9034 129.528 26.6307V25.7102C129.486 25.7614 129.392 25.8082 129.247 25.8509C129.105 25.8906 128.94 25.9261 128.753 25.9574C128.568 25.9858 128.388 26.0114 128.212 26.0341C128.038 26.054 127.898 26.071 127.79 26.0852C127.528 26.1193 127.284 26.1747 127.057 26.2514C126.832 26.3253 126.651 26.4375 126.511 26.5881C126.375 26.7358 126.307 26.9375 126.307 27.1932C126.307 27.5426 126.436 27.8068 126.695 27.9858C126.956 28.1619 127.287 28.25 127.688 28.25ZM136.495 26.3239V22.4545H137.5V29H136.495V27.892H136.426C136.273 28.2244 136.034 28.5071 135.711 28.7401C135.387 28.9702 134.978 29.0852 134.483 29.0852C134.074 29.0852 133.711 28.9957 133.392 28.8168C133.074 28.6349 132.824 28.3622 132.642 27.9986C132.461 27.6321 132.37 27.1705 132.37 26.6136V22.4545H133.375V26.5455C133.375 27.0227 133.509 27.4034 133.776 27.6875C134.046 27.9716 134.39 28.1136 134.807 28.1136C135.057 28.1136 135.311 28.0497 135.57 27.9219C135.831 27.794 136.05 27.598 136.226 27.3338C136.405 27.0696 136.495 26.733 136.495 26.3239ZM139.342 29V22.4545H140.314V23.4432H140.382C140.501 23.1193 140.717 22.8565 141.03 22.6548C141.342 22.4531 141.695 22.3523 142.087 22.3523C142.161 22.3523 142.253 22.3537 142.364 22.3565C142.474 22.3594 142.558 22.3636 142.615 22.3693V23.392C142.581 23.3835 142.503 23.3707 142.381 23.3537C142.261 23.3338 142.135 23.3239 142.001 23.3239C141.683 23.3239 141.399 23.3906 141.149 23.5241C140.902 23.6548 140.706 23.8366 140.561 24.0696C140.419 24.2997 140.348 24.5625 140.348 24.858V29H139.342ZM147.932 26.3239V22.4545H148.938V29H147.932V27.892H147.864C147.711 28.2244 147.472 28.5071 147.148 28.7401C146.824 28.9702 146.415 29.0852 145.921 29.0852C145.512 29.0852 145.148 28.9957 144.83 28.8168C144.512 28.6349 144.262 28.3622 144.08 27.9986C143.898 27.6321 143.807 27.1705 143.807 26.6136V22.4545H144.813V26.5455C144.813 27.0227 144.946 27.4034 145.213 27.6875C145.483 27.9716 145.827 28.1136 146.245 28.1136C146.495 28.1136 146.749 28.0497 147.007 27.9219C147.269 27.794 147.488 27.598 147.664 27.3338C147.843 27.0696 147.932 26.733 147.932 26.3239ZM155.416 23.9205L154.513 24.1761C154.456 24.0256 154.372 23.8793 154.261 23.7372C154.153 23.5923 154.006 23.473 153.818 23.3793C153.631 23.2855 153.391 23.2386 153.098 23.2386C152.697 23.2386 152.364 23.331 152.097 23.5156C151.832 23.6974 151.7 23.929 151.7 24.2102C151.7 24.4602 151.791 24.6577 151.973 24.8026C152.155 24.9474 152.439 25.0682 152.825 25.1648L153.797 25.4034C154.382 25.5455 154.818 25.7628 155.105 26.0554C155.392 26.3452 155.536 26.7187 155.536 27.1761C155.536 27.5511 155.428 27.8864 155.212 28.1818C154.999 28.4773 154.7 28.7102 154.317 28.8807C153.933 29.0511 153.487 29.1364 152.979 29.1364C152.311 29.1364 151.759 28.9915 151.321 28.7017C150.884 28.4119 150.607 27.9886 150.49 27.4318L151.445 27.1932C151.536 27.5455 151.707 27.8097 151.96 27.9858C152.216 28.1619 152.55 28.25 152.962 28.25C153.43 28.25 153.803 28.1506 154.078 27.9517C154.357 27.75 154.496 27.5085 154.496 27.2273C154.496 27 154.416 26.8097 154.257 26.6562C154.098 26.5 153.854 26.3835 153.524 26.3068L152.433 26.0511C151.834 25.9091 151.393 25.6889 151.112 25.3906C150.834 25.0895 150.695 24.7131 150.695 24.2614C150.695 23.892 150.798 23.5653 151.006 23.2812C151.216 22.9972 151.501 22.7741 151.862 22.6122C152.226 22.4503 152.638 22.3693 153.098 22.3693C153.746 22.3693 154.254 22.5114 154.624 22.7955C154.996 23.0795 155.26 23.4545 155.416 23.9205ZM159.197 25.3182C159.197 26.392 159.056 27.3807 158.775 28.2841C158.497 29.1847 158.098 30.0142 157.578 30.7727H156.691C156.896 30.4915 157.086 30.1449 157.262 29.733C157.441 29.3239 157.598 28.875 157.731 28.3864C157.865 27.8949 157.968 27.3878 158.042 26.8651C158.119 26.3395 158.157 25.8239 158.157 25.3182C158.157 24.642 158.092 23.956 157.961 23.2599C157.831 22.5639 157.654 21.9176 157.433 21.321C157.211 20.7244 156.964 20.2386 156.691 19.8636H157.578C158.098 20.6222 158.497 21.4531 158.775 22.3565C159.056 23.2571 159.197 24.2443 159.197 25.3182ZM162.13 29.0682C161.92 29.0682 161.739 28.9929 161.589 28.8423C161.438 28.6918 161.363 28.5114 161.363 28.3011C161.363 28.0909 161.438 27.9105 161.589 27.7599C161.739 27.6094 161.92 27.5341 162.13 27.5341C162.34 27.5341 162.521 27.6094 162.671 27.7599C162.822 27.9105 162.897 28.0909 162.897 28.3011C162.897 28.4403 162.862 28.5682 162.79 28.6847C162.722 28.8011 162.63 28.8949 162.513 28.9659C162.4 29.0341 162.272 29.0682 162.13 29.0682ZM162.13 24.2102C161.92 24.2102 161.739 24.1349 161.589 23.9844C161.438 23.8338 161.363 23.6534 161.363 23.4432C161.363 23.233 161.438 23.0526 161.589 22.902C161.739 22.7514 161.92 22.6761 162.13 22.6761C162.34 22.6761 162.521 22.7514 162.671 22.902C162.822 23.0526 162.897 23.233 162.897 23.4432C162.897 23.5824 162.862 23.7102 162.79 23.8267C162.722 23.9432 162.63 24.0369 162.513 24.108C162.4 24.1761 162.272 24.2102 162.13 24.2102ZM167.855 27.2102V26.3409L171.69 20.2727H172.321V21.6193H171.895L168.997 26.2045V26.2727H174.162V27.2102H167.855ZM171.963 29V26.946V26.5412V20.2727H172.969V29H171.963ZM176.099 29.0682C175.888 29.0682 175.708 28.9929 175.558 28.8423C175.407 28.6918 175.332 28.5114 175.332 28.3011C175.332 28.0909 175.407 27.9105 175.558 27.7599C175.708 27.6094 175.888 27.5341 176.099 27.5341C176.309 27.5341 176.489 27.6094 176.64 27.7599C176.79 27.9105 176.866 28.0909 176.866 28.3011C176.866 28.4403 176.83 28.5682 176.759 28.6847C176.691 28.8011 176.599 28.8949 176.482 28.9659C176.369 29.0341 176.241 29.0682 176.099 29.0682ZM178.653 29V28.233L181.534 25.0795C181.872 24.7102 182.151 24.3892 182.369 24.1165C182.588 23.8409 182.75 23.5824 182.855 23.3409C182.963 23.0966 183.017 22.8409 183.017 22.5739C183.017 22.267 182.943 22.0014 182.795 21.777C182.651 21.5526 182.452 21.3793 182.199 21.2571C181.946 21.1349 181.662 21.0739 181.347 21.0739C181.011 21.0739 180.719 21.1435 180.469 21.2827C180.222 21.419 180.03 21.6108 179.893 21.858C179.76 22.1051 179.693 22.3949 179.693 22.7273H178.688C178.688 22.2159 178.805 21.767 179.041 21.3807C179.277 20.9943 179.598 20.6932 180.004 20.4773C180.413 20.2614 180.872 20.1534 181.381 20.1534C181.892 20.1534 182.345 20.2614 182.74 20.4773C183.135 20.6932 183.445 20.9844 183.669 21.3509C183.893 21.7173 184.006 22.125 184.006 22.5739C184.006 22.8949 183.947 23.2088 183.831 23.5156C183.717 23.8196 183.518 24.1591 183.234 24.5341C182.953 24.9062 182.562 25.3608 182.062 25.8977L180.102 27.9943V28.0625H184.159V29H178.653ZM188.766 29.1193C188.124 29.1193 187.577 28.9446 187.125 28.5952C186.673 28.2429 186.328 27.733 186.089 27.0653C185.851 26.3949 185.732 25.5852 185.732 24.6364C185.732 23.6932 185.851 22.8878 186.089 22.2202C186.331 21.5497 186.678 21.0384 187.129 20.6861C187.584 20.331 188.129 20.1534 188.766 20.1534C189.402 20.1534 189.946 20.331 190.398 20.6861C190.852 21.0384 191.199 21.5497 191.438 22.2202C191.679 22.8878 191.8 23.6932 191.8 24.6364C191.8 25.5852 191.68 26.3949 191.442 27.0653C191.203 27.733 190.858 28.2429 190.406 28.5952C189.955 28.9446 189.408 29.1193 188.766 29.1193ZM188.766 28.1818C189.402 28.1818 189.896 27.875 190.249 27.2614C190.601 26.6477 190.777 25.7727 190.777 24.6364C190.777 23.8807 190.696 23.2372 190.534 22.706C190.375 22.1747 190.145 21.7699 189.844 21.4915C189.545 21.2131 189.186 21.0739 188.766 21.0739C188.135 21.0739 187.642 21.3849 187.287 22.0071C186.932 22.6264 186.754 23.5028 186.754 24.6364C186.754 25.392 186.834 26.0341 186.993 26.5625C187.152 27.0909 187.381 27.4929 187.679 27.7685C187.98 28.044 188.342 28.1818 188.766 28.1818ZM196.879 25.5057C196.871 25.0341 196.947 24.6548 197.109 24.3679C197.271 24.081 197.482 23.8722 197.74 23.7415C198.001 23.6108 198.277 23.5455 198.567 23.5455C198.857 23.5455 199.121 23.6094 199.359 23.7372C199.601 23.8622 199.876 24.0597 200.186 24.3295C200.396 24.5114 200.564 24.6392 200.689 24.7131C200.817 24.7869 200.956 24.8239 201.107 24.8239C201.351 24.8239 201.544 24.7358 201.686 24.5597C201.828 24.3807 201.896 24.1222 201.891 23.7841H202.811C202.82 24.2557 202.743 24.6349 202.581 24.9219C202.422 25.2088 202.212 25.4176 201.95 25.5483C201.689 25.679 201.413 25.7443 201.124 25.7443C200.834 25.7443 200.57 25.6818 200.331 25.5568C200.092 25.429 199.817 25.2301 199.504 24.9602C199.297 24.7784 199.129 24.6506 199.001 24.5767C198.874 24.5028 198.734 24.4659 198.584 24.4659C198.354 24.4659 198.163 24.5469 198.013 24.7088C197.865 24.8679 197.794 25.1335 197.8 25.5057H196.879ZM210.806 29.1193C210.306 29.1193 209.856 29.0199 209.456 28.821C209.055 28.6222 208.734 28.3494 208.493 28.0028C208.251 27.6562 208.119 27.2614 208.096 26.8182H209.119C209.159 27.2131 209.338 27.5398 209.656 27.7983C209.977 28.054 210.36 28.1818 210.806 28.1818C211.164 28.1818 211.483 28.098 211.761 27.9304C212.042 27.7628 212.262 27.5327 212.422 27.2401C212.583 26.9446 212.664 26.6108 212.664 26.2386C212.664 25.858 212.581 25.5185 212.413 25.2202C212.248 24.919 212.021 24.6818 211.731 24.5085C211.441 24.3352 211.11 24.2472 210.738 24.2443C210.471 24.2415 210.197 24.2827 209.916 24.3679C209.635 24.4503 209.403 24.5568 209.221 24.6875L208.233 24.5682L208.761 20.2727H213.295V21.2102H209.647L209.341 23.7841H209.392C209.571 23.642 209.795 23.5241 210.065 23.4304C210.335 23.3366 210.616 23.2898 210.909 23.2898C211.443 23.2898 211.919 23.4176 212.336 23.6733C212.757 23.9261 213.086 24.2727 213.325 24.7131C213.566 25.1534 213.687 25.6562 213.687 26.2216C213.687 26.7784 213.562 27.2756 213.312 27.7131C213.065 28.1477 212.724 28.4915 212.289 28.7443C211.855 28.9943 211.36 29.1193 210.806 29.1193ZM215.802 29.0682C215.592 29.0682 215.411 28.9929 215.261 28.8423C215.11 28.6918 215.035 28.5114 215.035 28.3011C215.035 28.0909 215.11 27.9105 215.261 27.7599C215.411 27.6094 215.592 27.5341 215.802 27.5341C216.012 27.5341 216.192 27.6094 216.343 27.7599C216.494 27.9105 216.569 28.0909 216.569 28.3011C216.569 28.4403 216.533 28.5682 216.462 28.6847C216.394 28.8011 216.302 28.8949 216.185 28.9659C216.072 29.0341 215.944 29.0682 215.802 29.0682ZM218.357 29V28.233L221.237 25.0795C221.575 24.7102 221.854 24.3892 222.072 24.1165C222.291 23.8409 222.453 23.5824 222.558 23.3409C222.666 23.0966 222.72 22.8409 222.72 22.5739C222.72 22.267 222.646 22.0014 222.499 21.777C222.354 21.5526 222.155 21.3793 221.902 21.2571C221.649 21.1349 221.365 21.0739 221.05 21.0739C220.714 21.0739 220.422 21.1435 220.172 21.2827C219.925 21.419 219.733 21.6108 219.597 21.858C219.463 22.1051 219.396 22.3949 219.396 22.7273H218.391C218.391 22.2159 218.509 21.767 218.744 21.3807C218.98 20.9943 219.301 20.6932 219.707 20.4773C220.116 20.2614 220.575 20.1534 221.084 20.1534C221.595 20.1534 222.048 20.2614 222.443 20.4773C222.838 20.6932 223.148 20.9844 223.372 21.3509C223.597 21.7173 223.709 22.125 223.709 22.5739C223.709 22.8949 223.651 23.2088 223.534 23.5156C223.42 23.8196 223.222 24.1591 222.938 24.5341C222.656 24.9062 222.266 25.3608 221.766 25.8977L219.805 27.9943V28.0625H223.862V29H218.357ZM228.469 29.1193C227.827 29.1193 227.28 28.9446 226.828 28.5952C226.376 28.2429 226.031 27.733 225.793 27.0653C225.554 26.3949 225.435 25.5852 225.435 24.6364C225.435 23.6932 225.554 22.8878 225.793 22.2202C226.034 21.5497 226.381 21.0384 226.832 20.6861C227.287 20.331 227.832 20.1534 228.469 20.1534C229.105 20.1534 229.649 20.331 230.101 20.6861C230.555 21.0384 230.902 21.5497 231.141 22.2202C231.382 22.8878 231.503 23.6932 231.503 24.6364C231.503 25.5852 231.384 26.3949 231.145 27.0653C230.906 27.733 230.561 28.2429 230.109 28.5952C229.658 28.9446 229.111 29.1193 228.469 29.1193ZM228.469 28.1818C229.105 28.1818 229.599 27.875 229.952 27.2614C230.304 26.6477 230.48 25.7727 230.48 24.6364C230.48 23.8807 230.399 23.2372 230.237 22.706C230.078 22.1747 229.848 21.7699 229.547 21.4915C229.249 21.2131 228.889 21.0739 228.469 21.0739C227.838 21.0739 227.345 21.3849 226.99 22.0071C226.635 22.6264 226.457 23.5028 226.457 24.6364C226.457 25.392 226.537 26.0341 226.696 26.5625C226.855 27.0909 227.084 27.4929 227.382 27.7685C227.683 28.044 228.045 28.1818 228.469 28.1818ZM234.335 27.8068L234.266 28.267C234.218 28.5909 234.144 28.9375 234.045 29.3068C233.948 29.6761 233.847 30.0241 233.742 30.3509C233.637 30.6776 233.55 30.9375 233.482 31.1307H232.715C232.752 30.9489 232.8 30.7088 232.86 30.4105C232.92 30.1122 232.979 29.7784 233.039 29.4091C233.102 29.0426 233.153 28.6676 233.192 28.2841L233.244 27.8068H234.335ZM243.596 20.156H244.46V20.612C244.46 22.556 242.396 23.984 240.212 24.356L239.828 23.564C241.736 23.288 243.596 22.04 243.596 20.612V20.156ZM243.848 20.156H244.7V20.612C244.7 22.04 246.572 23.288 248.468 23.564L248.096 24.356C245.9 23.984 243.848 22.556 243.848 20.612V20.156ZM243.632 25.796H244.616V29.936H243.632V25.796ZM239.252 25.268H249.056V26.084H239.252V25.268ZM240.164 19.76H248.108V20.564H240.164V19.76ZM252.691 24.668H253.675V27.92H252.691V24.668ZM256.699 24.668H257.695V27.92H256.699V24.668ZM250.291 27.728H260.119V28.556H250.291V27.728ZM255.187 19.772C257.479 19.772 259.123 20.864 259.123 22.568C259.123 24.26 257.479 25.352 255.187 25.352C252.883 25.352 251.239 24.26 251.239 22.568C251.239 20.864 252.883 19.772 255.187 19.772ZM255.187 20.564C253.447 20.564 252.199 21.356 252.199 22.568C252.199 23.768 253.447 24.56 255.187 24.56C256.927 24.56 258.163 23.768 258.163 22.568C258.163 21.356 256.927 20.564 255.187 20.564ZM269.817 20.624H272.877V21.404H269.817V20.624ZM269.817 22.604H272.877V23.384H269.817V22.604ZM272.625 19.088H273.621V24.74H272.625V19.088ZM266.637 25.28H273.621V27.848H267.633V29.516H266.661V27.104H272.637V26.072H266.637V25.28ZM266.661 29H274.017V29.792H266.661V29ZM265.233 19.58H266.217V21.14H269.157V19.58H270.129V24.32H265.233V19.58ZM266.217 21.92V23.516H269.157V21.92H266.217ZM276.798 29.0682C276.588 29.0682 276.407 28.9929 276.257 28.8423C276.106 28.6918 276.031 28.5114 276.031 28.3011C276.031 28.0909 276.106 27.9105 276.257 27.7599C276.407 27.6094 276.588 27.5341 276.798 27.5341C277.008 27.5341 277.189 27.6094 277.339 27.7599C277.49 27.9105 277.565 28.0909 277.565 28.3011C277.565 28.4403 277.529 28.5682 277.458 28.6847C277.39 28.8011 277.298 28.8949 277.181 28.9659C277.068 29.0341 276.94 29.0682 276.798 29.0682ZM276.798 24.2102C276.588 24.2102 276.407 24.1349 276.257 23.9844C276.106 23.8338 276.031 23.6534 276.031 23.4432C276.031 23.233 276.106 23.0526 276.257 22.902C276.407 22.7514 276.588 22.6761 276.798 22.6761C277.008 22.6761 277.189 22.7514 277.339 22.902C277.49 23.0526 277.565 23.233 277.565 23.4432C277.565 23.5824 277.529 23.7102 277.458 23.8267C277.39 23.9432 277.298 24.0369 277.181 24.108C277.068 24.1761 276.94 24.2102 276.798 24.2102ZM289.84 19.088H290.836V24.608H289.84V19.088ZM290.404 21.416H292.432V22.244H290.404V21.416ZM283.948 25.124H290.836V27.788H284.956V29.408H283.972V27.032H289.864V25.916H283.948V25.124ZM283.972 28.988H291.232V29.792H283.972V28.988ZM285.412 19.472C287.044 19.472 288.22 20.468 288.22 21.884C288.22 23.312 287.044 24.308 285.412 24.308C283.804 24.308 282.616 23.312 282.616 21.884C282.616 20.468 283.804 19.472 285.412 19.472ZM285.412 20.288C284.368 20.288 283.588 20.948 283.588 21.884C283.588 22.832 284.368 23.492 285.412 23.492C286.48 23.492 287.26 22.832 287.26 21.884C287.26 20.948 286.48 20.288 285.412 20.288ZM301.707 19.088H302.667V29.936H301.707V19.088ZM297.207 23.228H299.931V24.044H297.207V23.228ZM299.523 19.34H300.471V29.384H299.523V19.34ZM293.859 26.492H294.555C296.247 26.492 297.267 26.444 298.467 26.192L298.563 27.02C297.327 27.284 296.283 27.332 294.555 27.332H293.859V26.492ZM293.859 20.408H297.939V21.224H294.843V26.816H293.859V20.408ZM311.834 19.088H312.842V29.936H311.834V19.088ZM312.602 23.348H314.618V24.2H312.602V23.348ZM304.922 20H305.906V22.868H309.002V20H309.986V27.332H304.922V20ZM305.906 23.66V26.516H309.002V23.66H305.906ZM322.957 19.1H323.953V27.092H322.957V19.1ZM323.653 22.412H325.561V23.252H323.653V22.412ZM317.269 28.88H324.445V29.696H317.269V28.88ZM317.269 26.468H318.265V29.18H317.269V26.468ZM316.009 24.584H316.861C318.829 24.584 320.233 24.524 321.925 24.224L322.009 25.052C320.293 25.34 318.865 25.4 316.861 25.4H316.009V24.584ZM315.985 19.796H320.869V22.904H316.981V24.872H316.009V22.148H319.885V20.612H315.985V19.796Z" fill="white"/>
</svg>
