<svg width="399" height="50" viewBox="0 0 399 50" fill="none" xmlns="http://www.w3.org/2000/svg">
<rect x="5" y="5" width="389" height="40" rx="2" fill="#343251" stroke="#EBD2FF" stroke-width="2"/>
<rect x="0.5" y="0.5" width="398" height="49" rx="6.5" stroke="#EBD2FF"/>
<path d="M19 15C19 15 28.0556 22.1915 37.7905 15.3555" stroke="white" stroke-width="2.53937" stroke-linecap="round" stroke-linejoin="round"/>
<path d="M19 35.0147C19 35.0147 28.0556 27.8231 37.7905 34.6592" stroke="white" stroke-width="2.53937" stroke-linecap="round" stroke-linejoin="round"/>
<path d="M24.2985 18.0588C24.2534 18.1941 24.2985 31.7124 24.2985 31.7124" stroke="white" stroke-width="2.53937" stroke-linecap="round" stroke-linejoin="round"/>
<path d="M32.9456 18.3025V32.224" stroke="white" stroke-width="2.53937" stroke-linecap="round" stroke-linejoin="round"/>
<path d="M74.244 19.088H75.24V25.724H74.244V19.088ZM74.736 21.908H76.608V22.748H74.736V21.908ZM68.184 19.736H68.916V20.78C68.916 22.184 68.436 24.008 67.056 24.848L66.492 24.128C67.74 23.384 68.184 21.86 68.184 20.78V19.736ZM68.412 19.736H69.132V20.78C69.132 21.776 69.42 23.384 70.632 24.212L70.152 24.968C68.724 24.056 68.412 22.064 68.412 20.78V19.736ZM71.16 19.736H71.88V20.78C71.88 22.148 71.556 24.08 70.152 24.968L69.66 24.212C70.872 23.408 71.16 21.836 71.16 20.78V19.736ZM71.376 19.736H72.108V20.78C72.108 21.992 72.54 23.432 73.788 24.128L73.236 24.848C71.844 24.044 71.376 22.316 71.376 20.78V19.736ZM71.724 25.844C73.956 25.844 75.336 26.588 75.336 27.884C75.336 29.168 73.956 29.924 71.724 29.924C69.48 29.924 68.1 29.168 68.1 27.884C68.1 26.588 69.48 25.844 71.724 25.844ZM71.724 26.636C70.092 26.636 69.096 27.092 69.096 27.884C69.096 28.652 70.092 29.12 71.724 29.12C73.344 29.12 74.34 28.652 74.34 27.884C74.34 27.092 73.344 26.636 71.724 26.636ZM77.6391 24.164H87.4431V24.98H77.6391V24.164ZM82.0431 24.536H83.0271V26.48H82.0431V24.536ZM82.5231 26.012C84.8391 26.012 86.2431 26.72 86.2431 27.968C86.2431 29.216 84.8391 29.924 82.5231 29.924C80.2071 29.924 78.8031 29.216 78.8031 27.968C78.8031 26.72 80.2071 26.012 82.5231 26.012ZM82.5231 26.792C80.8311 26.792 79.8111 27.224 79.8111 27.968C79.8111 28.724 80.8311 29.144 82.5231 29.144C84.2271 29.144 85.2351 28.724 85.2351 27.968C85.2351 27.224 84.2271 26.792 82.5231 26.792ZM78.8751 22.352H86.3031V23.168H78.8751V22.352ZM78.8751 19.58H86.2191V20.384H79.8591V22.856H78.8751V19.58ZM96.5501 19.076H97.5461V29.948H96.5501V19.076ZM91.8221 19.916C93.4301 19.916 94.5821 21.392 94.5821 23.696C94.5821 26.012 93.4301 27.488 91.8221 27.488C90.2261 27.488 89.0741 26.012 89.0741 23.696C89.0741 21.392 90.2261 19.916 91.8221 19.916ZM91.8221 20.816C90.7661 20.816 90.0221 21.944 90.0221 23.696C90.0221 25.46 90.7661 26.612 91.8221 26.612C92.8901 26.612 93.6221 25.46 93.6221 23.696C93.6221 21.944 92.8901 20.816 91.8221 20.816ZM102.393 20.636H103.185V22.4C103.185 24.656 101.805 26.984 100.113 27.848L99.5372 27.056C101.085 26.3 102.393 24.236 102.393 22.4V20.636ZM102.573 20.636H103.365V22.4C103.365 24.116 104.589 26.048 106.161 26.792L105.597 27.584C103.881 26.732 102.573 24.548 102.573 22.4V20.636ZM99.9212 20.192H105.765V21.032H99.9212V20.192ZM107.049 19.088H108.057V29.936H107.049V19.088ZM107.817 23.468H109.833V24.308H107.817V23.468ZM118.652 19.076H119.648V29.948H118.652V19.076ZM111.38 26.504H112.28C114.092 26.504 115.712 26.432 117.632 26.12L117.74 26.936C115.772 27.26 114.14 27.332 112.28 27.332H111.38V26.504ZM111.356 20.096H116.372V23.972H112.376V26.816H111.38V23.156H115.364V20.912H111.356V20.096ZM125.849 24.6364C125.849 23.5625 125.988 22.5753 126.266 21.6747C126.548 20.7713 126.948 19.9403 127.468 19.1818H128.354C128.15 19.4631 127.958 19.8097 127.779 20.2216C127.603 20.6307 127.448 21.081 127.315 21.5724C127.181 22.0611 127.076 22.5668 126.999 23.0895C126.925 23.6122 126.888 24.1278 126.888 24.6364C126.888 25.3125 126.954 25.9986 127.085 26.6946C127.215 27.3906 127.391 28.0369 127.613 28.6335C127.835 29.2301 128.082 29.7159 128.354 30.0909H127.468C126.948 29.3324 126.548 28.5028 126.266 27.6023C125.988 26.6989 125.849 25.7102 125.849 24.6364ZM135.941 23C135.847 22.7131 135.723 22.456 135.57 22.2287C135.419 21.9986 135.239 21.8026 135.029 21.6406C134.821 21.4787 134.586 21.3551 134.321 21.2699C134.057 21.1847 133.767 21.142 133.452 21.142C132.935 21.142 132.465 21.2756 132.042 21.5426C131.618 21.8097 131.282 22.2031 131.032 22.723C130.782 23.2429 130.657 23.8807 130.657 24.6364C130.657 25.392 130.783 26.0298 131.036 26.5497C131.289 27.0696 131.631 27.4631 132.063 27.7301C132.495 27.9972 132.98 28.1307 133.52 28.1307C134.02 28.1307 134.461 28.0241 134.841 27.8111C135.225 27.5952 135.523 27.2912 135.736 26.8991C135.952 26.5043 136.06 26.0398 136.06 25.5057L136.384 25.5739H133.759V24.6364H137.083V25.5739C137.083 26.2926 136.929 26.9176 136.623 27.4489C136.319 27.9801 135.898 28.392 135.361 28.6847C134.827 28.9744 134.213 29.1193 133.52 29.1193C132.748 29.1193 132.069 28.9375 131.483 28.5739C130.901 28.2102 130.446 27.6932 130.12 27.0227C129.796 26.3523 129.634 25.5568 129.634 24.6364C129.634 23.946 129.726 23.3253 129.911 22.7741C130.098 22.2202 130.363 21.7486 130.703 21.3594C131.044 20.9702 131.448 20.6719 131.914 20.4645C132.38 20.2571 132.892 20.1534 133.452 20.1534C133.912 20.1534 134.341 20.223 134.739 20.3622C135.14 20.4986 135.496 20.6932 135.809 20.946C136.124 21.196 136.387 21.4957 136.597 21.8452C136.807 22.1918 136.952 22.5767 137.032 23H135.941ZM141.501 29.1364C140.87 29.1364 140.326 28.9972 139.869 28.7188C139.414 28.4375 139.063 28.0455 138.816 27.5426C138.572 27.0369 138.45 26.4489 138.45 25.7784C138.45 25.108 138.572 24.517 138.816 24.0057C139.063 23.4915 139.407 23.0909 139.847 22.804C140.29 22.5142 140.808 22.3693 141.398 22.3693C141.739 22.3693 142.076 22.4261 142.408 22.5398C142.741 22.6534 143.043 22.8381 143.316 23.0938C143.589 23.3466 143.806 23.6818 143.968 24.0994C144.13 24.517 144.211 25.0312 144.211 25.642V26.0682H139.165V25.1989H143.188C143.188 24.8295 143.114 24.5 142.967 24.2102C142.822 23.9205 142.614 23.6918 142.344 23.5241C142.077 23.3565 141.762 23.2727 141.398 23.2727C140.998 23.2727 140.651 23.3722 140.359 23.571C140.069 23.767 139.846 24.0227 139.69 24.3381C139.533 24.6534 139.455 24.9915 139.455 25.3523V25.9318C139.455 26.4261 139.54 26.8452 139.711 27.1889C139.884 27.5298 140.124 27.7898 140.431 27.9688C140.738 28.1449 141.094 28.233 141.501 28.233C141.765 28.233 142.004 28.196 142.217 28.1222C142.433 28.0455 142.619 27.9318 142.775 27.7812C142.931 27.6278 143.052 27.4375 143.137 27.2102L144.109 27.483C144.006 27.8125 143.835 28.1023 143.593 28.3523C143.352 28.5994 143.053 28.7926 142.698 28.9318C142.343 29.0682 141.944 29.1364 141.501 29.1364ZM145.741 29V22.4545H146.712V23.4773H146.798C146.934 23.1278 147.154 22.8565 147.458 22.6634C147.762 22.4673 148.127 22.3693 148.553 22.3693C148.985 22.3693 149.344 22.4673 149.631 22.6634C149.921 22.8565 150.147 23.1278 150.309 23.4773H150.377C150.545 23.1392 150.796 22.8707 151.131 22.6719C151.467 22.4702 151.869 22.3693 152.337 22.3693C152.923 22.3693 153.401 22.5526 153.773 22.919C154.146 23.2827 154.332 23.8494 154.332 24.6193V29H153.326V24.6193C153.326 24.1364 153.194 23.7912 152.93 23.5838C152.665 23.3764 152.354 23.2727 151.996 23.2727C151.536 23.2727 151.18 23.4119 150.927 23.6903C150.674 23.9659 150.548 24.3153 150.548 24.7386V29H149.525V24.517C149.525 24.1449 149.404 23.8452 149.163 23.6179C148.921 23.3878 148.61 23.2727 148.229 23.2727C147.968 23.2727 147.724 23.3423 147.496 23.4815C147.272 23.6207 147.09 23.8139 146.951 24.0611C146.815 24.3054 146.746 24.5881 146.746 24.9091V29H145.741ZM156.17 29V22.4545H157.176V29H156.17ZM156.682 21.3636C156.486 21.3636 156.317 21.2969 156.175 21.1634C156.036 21.0298 155.966 20.8693 155.966 20.6818C155.966 20.4943 156.036 20.3338 156.175 20.2003C156.317 20.0668 156.486 20 156.682 20C156.878 20 157.045 20.0668 157.185 20.2003C157.327 20.3338 157.398 20.4943 157.398 20.6818C157.398 20.8693 157.327 21.0298 157.185 21.1634C157.045 21.2969 156.878 21.3636 156.682 21.3636ZM160.024 25.0625V29H159.018V22.4545H159.99V23.4773H160.075C160.228 23.1449 160.461 22.8778 160.774 22.6761C161.086 22.4716 161.49 22.3693 161.984 22.3693C162.427 22.3693 162.815 22.4602 163.147 22.642C163.48 22.821 163.738 23.0938 163.923 23.4602C164.108 23.8239 164.2 24.2841 164.2 24.8409V29H163.194V24.9091C163.194 24.3949 163.061 23.9943 162.794 23.7074C162.527 23.4176 162.16 23.2727 161.694 23.2727C161.373 23.2727 161.086 23.3423 160.833 23.4815C160.583 23.6207 160.386 23.8239 160.241 24.0909C160.096 24.358 160.024 24.6818 160.024 25.0625ZM166.038 29V22.4545H167.043V29H166.038ZM166.549 21.3636C166.353 21.3636 166.184 21.2969 166.042 21.1634C165.903 21.0298 165.833 20.8693 165.833 20.6818C165.833 20.4943 165.903 20.3338 166.042 20.2003C166.184 20.0668 166.353 20 166.549 20C166.745 20 166.913 20.0668 167.052 20.2003C167.194 20.3338 167.265 20.4943 167.265 20.6818C167.265 20.8693 167.194 21.0298 167.052 21.1634C166.913 21.2969 166.745 21.3636 166.549 21.3636ZM171.443 25.3182C171.443 26.392 171.303 27.3807 171.021 28.2841C170.743 29.1847 170.344 30.0142 169.824 30.7727H168.938C169.142 30.4915 169.332 30.1449 169.509 29.733C169.688 29.3239 169.844 28.875 169.977 28.3864C170.111 27.8949 170.214 27.3878 170.288 26.8651C170.365 26.3395 170.403 25.8239 170.403 25.3182C170.403 24.642 170.338 23.956 170.207 23.2599C170.077 22.5639 169.901 21.9176 169.679 21.321C169.457 20.7244 169.21 20.2386 168.938 19.8636H169.824C170.344 20.6222 170.743 21.4531 171.021 22.3565C171.303 23.2571 171.443 24.2443 171.443 25.3182ZM174.376 29.0682C174.166 29.0682 173.985 28.9929 173.835 28.8423C173.684 28.6918 173.609 28.5114 173.609 28.3011C173.609 28.0909 173.684 27.9105 173.835 27.7599C173.985 27.6094 174.166 27.5341 174.376 27.5341C174.586 27.5341 174.767 27.6094 174.917 27.7599C175.068 27.9105 175.143 28.0909 175.143 28.3011C175.143 28.4403 175.108 28.5682 175.037 28.6847C174.968 28.8011 174.876 28.8949 174.76 28.9659C174.646 29.0341 174.518 29.0682 174.376 29.0682ZM174.376 24.2102C174.166 24.2102 173.985 24.1349 173.835 23.9844C173.684 23.8338 173.609 23.6534 173.609 23.4432C173.609 23.233 173.684 23.0526 173.835 22.902C173.985 22.7514 174.166 22.6761 174.376 22.6761C174.586 22.6761 174.767 22.7514 174.917 22.902C175.068 23.0526 175.143 23.233 175.143 23.4432C175.143 23.5824 175.108 23.7102 175.037 23.8267C174.968 23.9432 174.876 24.0369 174.76 24.108C174.646 24.1761 174.518 24.2102 174.376 24.2102ZM183.033 29.1193C182.533 29.1193 182.083 29.0199 181.682 28.821C181.282 28.6222 180.961 28.3494 180.719 28.0028C180.478 27.6562 180.346 27.2614 180.323 26.8182H181.346C181.385 27.2131 181.564 27.5398 181.882 27.7983C182.203 28.054 182.587 28.1818 183.033 28.1818C183.391 28.1818 183.709 28.098 183.988 27.9304C184.269 27.7628 184.489 27.5327 184.648 27.2401C184.81 26.9446 184.891 26.6108 184.891 26.2386C184.891 25.858 184.807 25.5185 184.64 25.2202C184.475 24.919 184.248 24.6818 183.958 24.5085C183.668 24.3352 183.337 24.2472 182.965 24.2443C182.698 24.2415 182.424 24.2827 182.142 24.3679C181.861 24.4503 181.63 24.5568 181.448 24.6875L180.459 24.5682L180.988 20.2727H185.522V21.2102H181.874L181.567 23.7841H181.618C181.797 23.642 182.022 23.5241 182.292 23.4304C182.561 23.3366 182.843 23.2898 183.135 23.2898C183.669 23.2898 184.145 23.4176 184.563 23.6733C184.983 23.9261 185.313 24.2727 185.551 24.7131C185.793 25.1534 185.914 25.6562 185.914 26.2216C185.914 26.7784 185.789 27.2756 185.539 27.7131C185.292 28.1477 184.951 28.4915 184.516 28.7443C184.081 28.9943 183.587 29.1193 183.033 29.1193ZM188.028 29.0682C187.818 29.0682 187.638 28.9929 187.487 28.8423C187.337 28.6918 187.261 28.5114 187.261 28.3011C187.261 28.0909 187.337 27.9105 187.487 27.7599C187.638 27.6094 187.818 27.5341 188.028 27.5341C188.239 27.5341 188.419 27.6094 188.57 27.7599C188.72 27.9105 188.795 28.0909 188.795 28.3011C188.795 28.4403 188.76 28.5682 188.689 28.6847C188.621 28.8011 188.528 28.8949 188.412 28.9659C188.298 29.0341 188.17 29.0682 188.028 29.0682ZM190.583 29V28.233L193.464 25.0795C193.802 24.7102 194.08 24.3892 194.299 24.1165C194.518 23.8409 194.68 23.5824 194.785 23.3409C194.893 23.0966 194.947 22.8409 194.947 22.5739C194.947 22.267 194.873 22.0014 194.725 21.777C194.58 21.5526 194.381 21.3793 194.129 21.2571C193.876 21.1349 193.592 21.0739 193.276 21.0739C192.941 21.0739 192.648 21.1435 192.398 21.2827C192.151 21.419 191.96 21.6108 191.823 21.858C191.69 22.1051 191.623 22.3949 191.623 22.7273H190.617C190.617 22.2159 190.735 21.767 190.971 21.3807C191.207 20.9943 191.528 20.6932 191.934 20.4773C192.343 20.2614 192.802 20.1534 193.31 20.1534C193.822 20.1534 194.275 20.2614 194.67 20.4773C195.065 20.6932 195.374 20.9844 195.599 21.3509C195.823 21.7173 195.935 22.125 195.935 22.5739C195.935 22.8949 195.877 23.2088 195.761 23.5156C195.647 23.8196 195.448 24.1591 195.164 24.5341C194.883 24.9062 194.492 25.3608 193.992 25.8977L192.032 27.9943V28.0625H196.089V29H190.583ZM200.917 20.2727V29H199.86V21.3807H199.809L197.678 22.7955V21.7216L199.86 20.2727H200.917ZM206.887 25.5057C206.879 25.0341 206.955 24.6548 207.117 24.3679C207.279 24.081 207.489 23.8722 207.748 23.7415C208.009 23.6108 208.285 23.5455 208.575 23.5455C208.864 23.5455 209.129 23.6094 209.367 23.7372C209.609 23.8622 209.884 24.0597 210.194 24.3295C210.404 24.5114 210.572 24.6392 210.697 24.7131C210.825 24.7869 210.964 24.8239 211.114 24.8239C211.359 24.8239 211.552 24.7358 211.694 24.5597C211.836 24.3807 211.904 24.1222 211.898 23.7841H212.819C212.827 24.2557 212.751 24.6349 212.589 24.9219C212.43 25.2088 212.219 25.4176 211.958 25.5483C211.697 25.679 211.421 25.7443 211.131 25.7443C210.842 25.7443 210.577 25.6818 210.339 25.5568C210.1 25.429 209.825 25.2301 209.512 24.9602C209.305 24.7784 209.137 24.6506 209.009 24.5767C208.881 24.5028 208.742 24.4659 208.592 24.4659C208.362 24.4659 208.171 24.5469 208.021 24.7088C207.873 24.8679 207.802 25.1335 207.808 25.5057H206.887ZM220.985 29.1193C220.627 29.1136 220.269 29.0455 219.911 28.9148C219.553 28.7841 219.226 28.5639 218.931 28.2543C218.635 27.9418 218.398 27.5199 218.219 26.9886C218.04 26.4545 217.951 25.7841 217.951 24.9773C217.951 24.2045 218.023 23.5199 218.168 22.9233C218.313 22.3239 218.523 21.8196 218.799 21.4105C219.074 20.9986 219.407 20.6861 219.796 20.473C220.188 20.2599 220.63 20.1534 221.121 20.1534C221.61 20.1534 222.044 20.2514 222.425 20.4474C222.809 20.6406 223.121 20.9105 223.363 21.2571C223.604 21.6037 223.76 22.0028 223.831 22.4545H222.792C222.695 22.0625 222.507 21.7372 222.229 21.4787C221.951 21.2202 221.581 21.0909 221.121 21.0909C220.445 21.0909 219.912 21.3849 219.523 21.973C219.137 22.5611 218.942 23.3864 218.939 24.4489H219.007C219.167 24.2074 219.355 24.0014 219.574 23.831C219.796 23.6577 220.04 23.5241 220.307 23.4304C220.574 23.3366 220.857 23.2898 221.155 23.2898C221.655 23.2898 222.113 23.4148 222.527 23.6648C222.942 23.9119 223.275 24.2543 223.525 24.6918C223.775 25.1264 223.9 25.625 223.9 26.1875C223.9 26.7273 223.779 27.2216 223.537 27.6705C223.296 28.1165 222.956 28.4716 222.519 28.7358C222.084 28.9972 221.573 29.125 220.985 29.1193ZM220.985 28.1818C221.343 28.1818 221.664 28.0923 221.948 27.9134C222.235 27.7344 222.461 27.4943 222.625 27.1932C222.793 26.892 222.877 26.5568 222.877 26.1875C222.877 25.8267 222.796 25.4986 222.634 25.2031C222.475 24.9048 222.255 24.6676 221.973 24.4915C221.695 24.3153 221.377 24.2273 221.019 24.2273C220.749 24.2273 220.498 24.2812 220.265 24.3892C220.032 24.4943 219.827 24.6392 219.651 24.8239C219.478 25.0085 219.341 25.2202 219.242 25.4588C219.142 25.6946 219.093 25.9432 219.093 26.2045C219.093 26.5511 219.174 26.875 219.336 27.1761C219.5 27.4773 219.725 27.7202 220.009 27.9048C220.296 28.0895 220.621 28.1818 220.985 28.1818ZM225.915 29.0682C225.705 29.0682 225.525 28.9929 225.374 28.8423C225.223 28.6918 225.148 28.5114 225.148 28.3011C225.148 28.0909 225.223 27.9105 225.374 27.7599C225.525 27.6094 225.705 27.5341 225.915 27.5341C226.125 27.5341 226.306 27.6094 226.456 27.7599C226.607 27.9105 226.682 28.0909 226.682 28.3011C226.682 28.4403 226.647 28.5682 226.576 28.6847C226.507 28.8011 226.415 28.8949 226.299 28.9659C226.185 29.0341 226.057 29.0682 225.915 29.0682ZM228.47 29V28.233L231.35 25.0795C231.689 24.7102 231.967 24.3892 232.186 24.1165C232.404 23.8409 232.566 23.5824 232.672 23.3409C232.779 23.0966 232.833 22.8409 232.833 22.5739C232.833 22.267 232.76 22.0014 232.612 21.777C232.467 21.5526 232.268 21.3793 232.015 21.2571C231.762 21.1349 231.478 21.0739 231.163 21.0739C230.828 21.0739 230.535 21.1435 230.285 21.2827C230.038 21.419 229.846 21.6108 229.71 21.858C229.576 22.1051 229.51 22.3949 229.51 22.7273H228.504C228.504 22.2159 228.622 21.767 228.858 21.3807C229.093 20.9943 229.414 20.6932 229.821 20.4773C230.23 20.2614 230.689 20.1534 231.197 20.1534C231.708 20.1534 232.162 20.2614 232.556 20.4773C232.951 20.6932 233.261 20.9844 233.485 21.3509C233.71 21.7173 233.822 22.125 233.822 22.5739C233.822 22.8949 233.764 23.2088 233.647 23.5156C233.534 23.8196 233.335 24.1591 233.051 24.5341C232.77 24.9062 232.379 25.3608 231.879 25.8977L229.919 27.9943V28.0625H233.975V29H228.47ZM238.582 29.1193C237.94 29.1193 237.393 28.9446 236.941 28.5952C236.49 28.2429 236.145 27.733 235.906 27.0653C235.667 26.3949 235.548 25.5852 235.548 24.6364C235.548 23.6932 235.667 22.8878 235.906 22.2202C236.147 21.5497 236.494 21.0384 236.946 20.6861C237.4 20.331 237.946 20.1534 238.582 20.1534C239.218 20.1534 239.762 20.331 240.214 20.6861C240.669 21.0384 241.015 21.5497 241.254 22.2202C241.495 22.8878 241.616 23.6932 241.616 24.6364C241.616 25.5852 241.497 26.3949 241.258 27.0653C241.02 27.733 240.674 28.2429 240.223 28.5952C239.771 28.9446 239.224 29.1193 238.582 29.1193ZM238.582 28.1818C239.218 28.1818 239.713 27.875 240.065 27.2614C240.417 26.6477 240.593 25.7727 240.593 24.6364C240.593 23.8807 240.512 23.2372 240.35 22.706C240.191 22.1747 239.961 21.7699 239.66 21.4915C239.362 21.2131 239.002 21.0739 238.582 21.0739C237.951 21.0739 237.458 21.3849 237.103 22.0071C236.748 22.6264 236.571 23.5028 236.571 24.6364C236.571 25.392 236.65 26.0341 236.809 26.5625C236.968 27.0909 237.197 27.4929 237.495 27.7685C237.797 28.044 238.159 28.1818 238.582 28.1818ZM244.448 27.8068L244.38 28.267C244.331 28.5909 244.257 28.9375 244.158 29.3068C244.061 29.6761 243.961 30.0241 243.855 30.3509C243.75 30.6776 243.664 30.9375 243.596 31.1307H242.828C242.865 30.9489 242.914 30.7088 242.973 30.4105C243.033 30.1122 243.093 29.7784 243.152 29.4091C243.215 29.0426 243.266 28.6676 243.306 28.2841L243.357 27.8068H244.448ZM253.71 20.156H254.574V20.612C254.574 22.556 252.51 23.984 250.326 24.356L249.942 23.564C251.85 23.288 253.71 22.04 253.71 20.612V20.156ZM253.962 20.156H254.814V20.612C254.814 22.04 256.686 23.288 258.582 23.564L258.21 24.356C256.014 23.984 253.962 22.556 253.962 20.612V20.156ZM253.746 25.796H254.73V29.936H253.746V25.796ZM249.366 25.268H259.17V26.084H249.366V25.268ZM250.278 19.76H258.222V20.564H250.278V19.76ZM262.805 24.668H263.789V27.92H262.805V24.668ZM266.813 24.668H267.809V27.92H266.813V24.668ZM260.405 27.728H270.233V28.556H260.405V27.728ZM265.301 19.772C267.593 19.772 269.237 20.864 269.237 22.568C269.237 24.26 267.593 25.352 265.301 25.352C262.997 25.352 261.353 24.26 261.353 22.568C261.353 20.864 262.997 19.772 265.301 19.772ZM265.301 20.564C263.561 20.564 262.313 21.356 262.313 22.568C262.313 23.768 263.561 24.56 265.301 24.56C267.041 24.56 268.277 23.768 268.277 22.568C268.277 21.356 267.041 20.564 265.301 20.564ZM279.931 20.624H282.991V21.404H279.931V20.624ZM279.931 22.604H282.991V23.384H279.931V22.604ZM282.739 19.088H283.735V24.74H282.739V19.088ZM276.751 25.28H283.735V27.848H277.747V29.516H276.775V27.104H282.751V26.072H276.751V25.28ZM276.775 29H284.131V29.792H276.775V29ZM275.347 19.58H276.331V21.14H279.271V19.58H280.243V24.32H275.347V19.58ZM276.331 21.92V23.516H279.271V21.92H276.331ZM286.911 29.0682C286.701 29.0682 286.521 28.9929 286.37 28.8423C286.219 28.6918 286.144 28.5114 286.144 28.3011C286.144 28.0909 286.219 27.9105 286.37 27.7599C286.521 27.6094 286.701 27.5341 286.911 27.5341C287.121 27.5341 287.302 27.6094 287.452 27.7599C287.603 27.9105 287.678 28.0909 287.678 28.3011C287.678 28.4403 287.643 28.5682 287.572 28.6847C287.504 28.8011 287.411 28.8949 287.295 28.9659C287.181 29.0341 287.053 29.0682 286.911 29.0682ZM286.911 24.2102C286.701 24.2102 286.521 24.1349 286.37 23.9844C286.219 23.8338 286.144 23.6534 286.144 23.4432C286.144 23.233 286.219 23.0526 286.37 22.902C286.521 22.7514 286.701 22.6761 286.911 22.6761C287.121 22.6761 287.302 22.7514 287.452 22.902C287.603 23.0526 287.678 23.233 287.678 23.4432C287.678 23.5824 287.643 23.7102 287.572 23.8267C287.504 23.9432 287.411 24.0369 287.295 24.108C287.181 24.1761 287.053 24.2102 286.911 24.2102ZM297.146 20.216H298.118C298.118 23.348 297.062 26.228 293.174 28.16L292.634 27.392C296.066 25.7 297.146 23.276 297.146 20.324V20.216ZM293.222 20.216H297.734V21.02H293.222V20.216ZM296.99 22.904V23.672L292.838 24.08L292.682 23.192L296.99 22.904ZM299.87 19.076H300.878V29.936H299.87V19.076ZM300.602 23.48H302.606V24.308H300.602V23.48ZM307.921 19.832H308.785V20.66C308.785 23.024 306.589 24.86 304.417 25.352L303.973 24.524C305.881 24.164 307.921 22.508 307.921 20.66V19.832ZM308.101 19.832H308.965V20.66C308.965 22.52 311.017 24.164 312.913 24.524L312.469 25.352C310.309 24.86 308.101 23.036 308.101 20.66V19.832ZM303.577 27.656H313.405V28.472H303.577V27.656ZM315.876 24.716H323.328V25.52H315.876V24.716ZM314.616 27.764H324.444V28.592H314.616V27.764ZM319.02 25.136H320.004V28.148H319.02V25.136ZM315.876 19.964H323.208V20.78H316.884V25.016H315.876V19.964ZM316.56 22.292H322.98V23.096H316.56V22.292ZM325.655 27.74H335.483V28.58H325.655V27.74ZM326.843 19.916H334.271V23.204H327.863V25.376H326.879V22.412H333.287V20.732H326.843V19.916ZM326.879 24.956H334.523V25.772H326.879V24.956ZM338.514 27.8068L338.446 28.267C338.398 28.5909 338.324 28.9375 338.224 29.3068C338.128 29.6761 338.027 30.0241 337.922 30.3509C337.817 30.6776 337.73 30.9375 337.662 31.1307H336.895C336.932 30.9489 336.98 30.7088 337.04 30.4105C337.099 30.1122 337.159 29.7784 337.219 29.4091C337.281 29.0426 337.332 28.6676 337.372 28.2841L337.423 27.8068H338.514ZM344.332 19.364H352.3V20.144H344.332V19.364ZM344.38 22.208H352.252V22.976H344.38V22.208ZM345.976 19.664H346.972V22.712H345.976V19.664ZM349.672 19.664H350.656V22.712H349.672V19.664ZM343.42 24.008H353.224V24.8H343.42V24.008ZM347.824 22.76H348.808V24.428H347.824V22.76ZM344.608 25.652H351.976V28.016H345.616V29.36H344.632V27.308H350.992V26.396H344.608V25.652ZM344.632 29.06H352.3V29.816H344.632V29.06ZM354.459 24.848H364.299V25.652H354.459V24.848ZM355.707 19.364H363.027V21.992H356.715V23.456H355.731V21.26H362.055V20.144H355.707V19.364ZM355.731 23.132H363.267V23.912H355.731V23.132ZM358.875 25.28H359.871V27.2H358.875V25.28ZM355.551 26.804H363.099V29.936H362.103V27.608H355.551V26.804ZM369.854 19.832H370.718V20.66C370.718 23.024 368.522 24.86 366.35 25.352L365.906 24.524C367.814 24.164 369.854 22.508 369.854 20.66V19.832ZM370.034 19.832H370.898V20.66C370.898 22.52 372.95 24.164 374.846 24.524L374.402 25.352C372.242 24.86 370.034 23.036 370.034 20.66V19.832ZM365.51 27.656H375.338V28.472H365.51V27.656Z" fill="white"/>
</svg>
