<svg width="399" height="50" viewBox="0 0 399 50" fill="none" xmlns="http://www.w3.org/2000/svg">
<rect x="5" y="5" width="389" height="40" rx="2" fill="#343251" stroke="#EBD2FF" stroke-width="2"/>
<rect x="0.5" y="0.5" width="398" height="49" rx="6.5" stroke="#EBD2FF"/>
<path d="M24.0447 22.3208C24.0447 24.5412 22.2431 26.3424 20.0224 26.3424C17.8016 26.3424 16 24.5412 16 22.3208C16 20.1005 17.8016 18.2993 20.0224 18.2993C22.2431 18.2993 24.0447 20.1005 24.0447 22.3208Z" stroke="white" stroke-width="2.56812" stroke-miterlimit="10" stroke-linecap="round"/>
<path d="M39.1736 27.0879C39.1736 29.3083 37.372 31.1095 35.1513 31.1095C32.9305 31.1095 31.1289 29.3083 31.1289 27.0879C31.1289 24.8676 32.9305 23.0664 35.1513 23.0664C37.372 23.0664 39.1736 24.8676 39.1736 27.0879Z" stroke="white" stroke-width="2.56812" stroke-miterlimit="10" stroke-linecap="round"/>
<path d="M19.7065 18.204C19.7065 18.204 28.4491 14.896 37.9213 19.2465" stroke="white" stroke-width="2.56812" stroke-miterlimit="10" stroke-linecap="round"/>
<path d="M17.2921 30.1677C17.2921 30.1677 25.6207 34.4121 35.5121 31.1227" stroke="white" stroke-width="2.56812" stroke-miterlimit="10" stroke-linecap="round"/>
<path d="M74.856 19.088H75.816V29.936H74.856V19.088ZM70.152 23.516H72.888V24.32H70.152V23.516ZM72.6 19.364H73.536V29.384H72.6V19.364ZM70.284 20.456H71.244C71.244 23.3 70.104 25.856 67.176 27.596L66.588 26.888C69.144 25.352 70.284 23.192 70.284 20.636V20.456ZM67.068 20.456H70.656V21.272H67.068V20.456ZM80.3151 20.636H81.1071V22.4C81.1071 24.656 79.7271 26.984 78.0351 27.848L77.4591 27.056C79.0071 26.3 80.3151 24.236 80.3151 22.4V20.636ZM80.4951 20.636H81.2871V22.4C81.2871 24.116 82.5111 26.048 84.0831 26.792L83.5191 27.584C81.8031 26.732 80.4951 24.548 80.4951 22.4V20.636ZM77.8431 20.192H83.6871V21.032H77.8431V20.192ZM84.9711 19.088H85.9791V29.936H84.9711V19.088ZM85.7391 23.468H87.7551V24.308H85.7391V23.468ZM96.5741 19.076H97.5701V29.948H96.5741V19.076ZM89.3021 26.504H90.2021C92.0141 26.504 93.6341 26.432 95.5541 26.12L95.6621 26.936C93.6941 27.26 92.0621 27.332 90.2021 27.332H89.3021V26.504ZM89.2781 20.096H94.2941V23.972H90.2981V26.816H89.3021V23.156H93.2861V20.912H89.2781V20.096ZM103.771 24.6364C103.771 23.5625 103.91 22.5753 104.188 21.6747C104.469 20.7713 104.87 19.9403 105.39 19.1818H106.276C106.072 19.4631 105.88 19.8097 105.701 20.2216C105.525 20.6307 105.37 21.081 105.237 21.5724C105.103 22.0611 104.998 22.5668 104.921 23.0895C104.847 23.6122 104.81 24.1278 104.81 24.6364C104.81 25.3125 104.876 25.9986 105.006 26.6946C105.137 27.3906 105.313 28.0369 105.535 28.6335C105.756 29.2301 106.004 29.7159 106.276 30.0909H105.39C104.87 29.3324 104.469 28.5028 104.188 27.6023C103.91 26.6989 103.771 25.7102 103.771 24.6364ZM114.919 23H113.863C113.8 22.696 113.691 22.429 113.534 22.1989C113.381 21.9688 113.194 21.7756 112.972 21.6193C112.753 21.4602 112.51 21.3409 112.243 21.2614C111.976 21.1818 111.698 21.142 111.408 21.142C110.88 21.142 110.401 21.2756 109.972 21.5426C109.546 21.8097 109.206 22.2031 108.953 22.723C108.703 23.2429 108.578 23.8807 108.578 24.6364C108.578 25.392 108.703 26.0298 108.953 26.5497C109.206 27.0696 109.546 27.4631 109.972 27.7301C110.401 27.9972 110.88 28.1307 111.408 28.1307C111.698 28.1307 111.976 28.0909 112.243 28.0114C112.51 27.9318 112.753 27.8139 112.972 27.6577C113.194 27.4986 113.381 27.304 113.534 27.0739C113.691 26.8409 113.8 26.5739 113.863 26.2727H114.919C114.84 26.7187 114.695 27.1179 114.485 27.4702C114.275 27.8224 114.013 28.1222 113.701 28.3693C113.388 28.6136 113.037 28.7997 112.648 28.9276C112.262 29.0554 111.848 29.1193 111.408 29.1193C110.664 29.1193 110.002 28.9375 109.422 28.5739C108.843 28.2102 108.387 27.6932 108.054 27.0227C107.722 26.3523 107.556 25.5568 107.556 24.6364C107.556 23.7159 107.722 22.9205 108.054 22.25C108.387 21.5795 108.843 21.0625 109.422 20.6989C110.002 20.3352 110.664 20.1534 111.408 20.1534C111.848 20.1534 112.262 20.2173 112.648 20.3452C113.037 20.473 113.388 20.6605 113.701 20.9077C114.013 21.152 114.275 21.4503 114.485 21.8026C114.695 22.152 114.84 22.5511 114.919 23ZM118.417 29.1534C118.002 29.1534 117.626 29.0753 117.288 28.919C116.95 28.7599 116.681 28.5312 116.482 28.233C116.283 27.9318 116.184 27.5682 116.184 27.142C116.184 26.767 116.258 26.4631 116.406 26.2301C116.553 25.9943 116.751 25.8097 116.998 25.6761C117.245 25.5426 117.518 25.4432 117.816 25.3778C118.117 25.3097 118.42 25.2557 118.724 25.2159C119.121 25.1648 119.444 25.1264 119.691 25.1009C119.941 25.0724 120.123 25.0256 120.237 24.9602C120.353 24.8949 120.411 24.7812 120.411 24.6193V24.5852C120.411 24.1648 120.296 23.8381 120.066 23.6051C119.839 23.3722 119.494 23.2557 119.031 23.2557C118.55 23.2557 118.174 23.3608 117.901 23.571C117.629 23.7812 117.437 24.0057 117.326 24.2443L116.371 23.9034C116.542 23.5057 116.769 23.196 117.053 22.9744C117.34 22.75 117.653 22.5937 117.991 22.5057C118.332 22.4148 118.667 22.3693 118.996 22.3693C119.207 22.3693 119.448 22.3949 119.721 22.446C119.996 22.4943 120.262 22.5952 120.518 22.7486C120.776 22.902 120.991 23.1335 121.161 23.4432C121.332 23.7528 121.417 24.1676 121.417 24.6875V29H120.411V28.1136H120.36C120.292 28.2557 120.178 28.4077 120.019 28.5696C119.86 28.7315 119.648 28.8693 119.384 28.983C119.12 29.0966 118.798 29.1534 118.417 29.1534ZM118.57 28.25C118.968 28.25 119.303 28.1719 119.576 28.0156C119.852 27.8594 120.059 27.6577 120.198 27.4105C120.34 27.1634 120.411 26.9034 120.411 26.6307V25.7102C120.369 25.7614 120.275 25.8082 120.13 25.8509C119.988 25.8906 119.823 25.9261 119.636 25.9574C119.451 25.9858 119.271 26.0114 119.094 26.0341C118.921 26.054 118.781 26.071 118.673 26.0852C118.411 26.1193 118.167 26.1747 117.94 26.2514C117.715 26.3253 117.533 26.4375 117.394 26.5881C117.258 26.7358 117.19 26.9375 117.19 27.1932C117.19 27.5426 117.319 27.8068 117.577 27.9858C117.839 28.1619 118.17 28.25 118.57 28.25ZM124.258 25.0625V29H123.252V22.4545H124.224V23.4773H124.309C124.463 23.1449 124.696 22.8778 125.008 22.6761C125.321 22.4716 125.724 22.3693 126.218 22.3693C126.662 22.3693 127.049 22.4602 127.382 22.642C127.714 22.821 127.973 23.0938 128.157 23.4602C128.342 23.8239 128.434 24.2841 128.434 24.8409V29H127.429V24.9091C127.429 24.3949 127.295 23.9943 127.028 23.7074C126.761 23.4176 126.395 23.2727 125.929 23.2727C125.608 23.2727 125.321 23.3423 125.068 23.4815C124.818 23.6207 124.62 23.8239 124.475 24.0909C124.331 24.358 124.258 24.6818 124.258 25.0625ZM132.931 29.1364C132.317 29.1364 131.789 28.9915 131.346 28.7017C130.903 28.4119 130.562 28.0128 130.323 27.5043C130.085 26.9957 129.965 26.4148 129.965 25.7614C129.965 25.0966 130.087 24.5099 130.332 24.0014C130.579 23.4901 130.923 23.0909 131.363 22.804C131.806 22.5142 132.323 22.3693 132.914 22.3693C133.374 22.3693 133.789 22.4545 134.158 22.625C134.528 22.7955 134.83 23.0341 135.066 23.3409C135.302 23.6477 135.448 24.0057 135.505 24.4148H134.499C134.423 24.1165 134.252 23.8523 133.988 23.6222C133.727 23.3892 133.374 23.2727 132.931 23.2727C132.539 23.2727 132.195 23.375 131.9 23.5795C131.607 23.7812 131.379 24.0668 131.214 24.4361C131.052 24.8026 130.971 25.233 130.971 25.7273C130.971 26.233 131.05 26.6733 131.21 27.0483C131.371 27.4233 131.599 27.7145 131.891 27.9219C132.187 28.1293 132.533 28.233 132.931 28.233C133.192 28.233 133.43 28.1875 133.643 28.0966C133.856 28.0057 134.036 27.875 134.184 27.7045C134.332 27.5341 134.437 27.3295 134.499 27.0909H135.505C135.448 27.4773 135.308 27.8253 135.083 28.1349C134.862 28.4418 134.567 28.6861 134.201 28.8679C133.837 29.0469 133.414 29.1364 132.931 29.1364ZM139.719 29.1364C139.089 29.1364 138.545 28.9972 138.087 28.7188C137.633 28.4375 137.282 28.0455 137.035 27.5426C136.79 27.0369 136.668 26.4489 136.668 25.7784C136.668 25.108 136.79 24.517 137.035 24.0057C137.282 23.4915 137.626 23.0909 138.066 22.804C138.509 22.5142 139.026 22.3693 139.617 22.3693C139.958 22.3693 140.295 22.4261 140.627 22.5398C140.96 22.6534 141.262 22.8381 141.535 23.0938C141.808 23.3466 142.025 23.6818 142.187 24.0994C142.349 24.517 142.43 25.0312 142.43 25.642V26.0682H137.384V25.1989H141.407C141.407 24.8295 141.333 24.5 141.185 24.2102C141.04 23.9205 140.833 23.6918 140.563 23.5241C140.296 23.3565 139.981 23.2727 139.617 23.2727C139.217 23.2727 138.87 23.3722 138.577 23.571C138.288 23.767 138.065 24.0227 137.908 24.3381C137.752 24.6534 137.674 24.9915 137.674 25.3523V25.9318C137.674 26.4261 137.759 26.8452 137.93 27.1889C138.103 27.5298 138.343 27.7898 138.65 27.9688C138.957 28.1449 139.313 28.233 139.719 28.233C139.984 28.233 140.222 28.196 140.435 28.1222C140.651 28.0455 140.837 27.9318 140.994 27.7812C141.15 27.6278 141.271 27.4375 141.356 27.2102L142.327 27.483C142.225 27.8125 142.053 28.1023 141.812 28.3523C141.57 28.5994 141.272 28.7926 140.917 28.9318C140.562 29.0682 140.163 29.1364 139.719 29.1364ZM143.96 29V22.4545H144.931V23.4432H144.999C145.119 23.1193 145.335 22.8565 145.647 22.6548C145.96 22.4531 146.312 22.3523 146.704 22.3523C146.778 22.3523 146.87 22.3537 146.981 22.3565C147.092 22.3594 147.175 22.3636 147.232 22.3693V23.392C147.198 23.3835 147.12 23.3707 146.998 23.3537C146.879 23.3338 146.752 23.3239 146.619 23.3239C146.3 23.3239 146.016 23.3906 145.766 23.5241C145.519 23.6548 145.323 23.8366 145.178 24.0696C145.036 24.2997 144.965 24.5625 144.965 24.858V29H143.96ZM150.572 25.3182C150.572 26.392 150.431 27.3807 150.15 28.2841C149.872 29.1847 149.473 30.0142 148.953 30.7727H148.066C148.271 30.4915 148.461 30.1449 148.637 29.733C148.816 29.3239 148.973 28.875 149.106 28.3864C149.24 27.8949 149.343 27.3878 149.417 26.8651C149.494 26.3395 149.532 25.8239 149.532 25.3182C149.532 24.642 149.467 23.956 149.336 23.2599C149.206 22.5639 149.029 21.9176 148.808 21.321C148.586 20.7244 148.339 20.2386 148.066 19.8636H148.953C149.473 20.6222 149.872 21.4531 150.15 22.3565C150.431 23.2571 150.572 24.2443 150.572 25.3182ZM153.505 29.0682C153.295 29.0682 153.114 28.9929 152.964 28.8423C152.813 28.6918 152.738 28.5114 152.738 28.3011C152.738 28.0909 152.813 27.9105 152.964 27.7599C153.114 27.6094 153.295 27.5341 153.505 27.5341C153.715 27.5341 153.896 27.6094 154.046 27.7599C154.197 27.9105 154.272 28.0909 154.272 28.3011C154.272 28.4403 154.237 28.5682 154.165 28.6847C154.097 28.8011 154.005 28.8949 153.888 28.9659C153.775 29.0341 153.647 29.0682 153.505 29.0682ZM153.505 24.2102C153.295 24.2102 153.114 24.1349 152.964 23.9844C152.813 23.8338 152.738 23.6534 152.738 23.4432C152.738 23.233 152.813 23.0526 152.964 22.902C153.114 22.7514 153.295 22.6761 153.505 22.6761C153.715 22.6761 153.896 22.7514 154.046 22.902C154.197 23.0526 154.272 23.233 154.272 23.4432C154.272 23.5824 154.237 23.7102 154.165 23.8267C154.097 23.9432 154.005 24.0369 153.888 24.108C153.775 24.1761 153.647 24.2102 153.505 24.2102ZM162.332 29.1193C161.974 29.1136 161.616 29.0455 161.259 28.9148C160.901 28.7841 160.574 28.5639 160.278 28.2543C159.983 27.9418 159.746 27.5199 159.567 26.9886C159.388 26.4545 159.298 25.7841 159.298 24.9773C159.298 24.2045 159.371 23.5199 159.516 22.9233C159.661 22.3239 159.871 21.8196 160.146 21.4105C160.422 20.9986 160.754 20.6861 161.143 20.473C161.536 20.2599 161.977 20.1534 162.469 20.1534C162.957 20.1534 163.392 20.2514 163.773 20.4474C164.156 20.6406 164.469 20.9105 164.71 21.2571C164.952 21.6037 165.108 22.0028 165.179 22.4545H164.139C164.043 22.0625 163.855 21.7372 163.577 21.4787C163.298 21.2202 162.929 21.0909 162.469 21.0909C161.793 21.0909 161.26 21.3849 160.871 21.973C160.484 22.5611 160.29 23.3864 160.287 24.4489H160.355C160.514 24.2074 160.703 24.0014 160.922 23.831C161.143 23.6577 161.388 23.5241 161.655 23.4304C161.922 23.3366 162.205 23.2898 162.503 23.2898C163.003 23.2898 163.46 23.4148 163.875 23.6648C164.29 23.9119 164.622 24.2543 164.872 24.6918C165.122 25.1264 165.247 25.625 165.247 26.1875C165.247 26.7273 165.126 27.2216 164.885 27.6705C164.643 28.1165 164.304 28.4716 163.866 28.7358C163.432 28.9972 162.92 29.125 162.332 29.1193ZM162.332 28.1818C162.69 28.1818 163.011 28.0923 163.295 27.9134C163.582 27.7344 163.808 27.4943 163.973 27.1932C164.141 26.892 164.224 26.5568 164.224 26.1875C164.224 25.8267 164.143 25.4986 163.982 25.2031C163.822 24.9048 163.602 24.6676 163.321 24.4915C163.043 24.3153 162.724 24.2273 162.366 24.2273C162.097 24.2273 161.845 24.2812 161.612 24.3892C161.379 24.4943 161.175 24.6392 160.999 24.8239C160.825 25.0085 160.689 25.2202 160.589 25.4588C160.49 25.6946 160.44 25.9432 160.44 26.2045C160.44 26.5511 160.521 26.875 160.683 27.1761C160.848 27.4773 161.072 27.7202 161.357 27.9048C161.643 28.0895 161.969 28.1818 162.332 28.1818ZM167.263 29.0682C167.053 29.0682 166.872 28.9929 166.722 28.8423C166.571 28.6918 166.496 28.5114 166.496 28.3011C166.496 28.0909 166.571 27.9105 166.722 27.7599C166.872 27.6094 167.053 27.5341 167.263 27.5341C167.473 27.5341 167.653 27.6094 167.804 27.7599C167.955 27.9105 168.03 28.0909 168.03 28.3011C168.03 28.4403 167.994 28.5682 167.923 28.6847C167.855 28.8011 167.763 28.8949 167.646 28.9659C167.533 29.0341 167.405 29.0682 167.263 29.0682ZM169.817 29V28.233L172.698 25.0795C173.036 24.7102 173.315 24.3892 173.533 24.1165C173.752 23.8409 173.914 23.5824 174.019 23.3409C174.127 23.0966 174.181 22.8409 174.181 22.5739C174.181 22.267 174.107 22.0014 173.96 21.777C173.815 21.5526 173.616 21.3793 173.363 21.2571C173.11 21.1349 172.826 21.0739 172.511 21.0739C172.175 21.0739 171.883 21.1435 171.633 21.2827C171.386 21.419 171.194 21.6108 171.058 21.858C170.924 22.1051 170.857 22.3949 170.857 22.7273H169.852C169.852 22.2159 169.969 21.767 170.205 21.3807C170.441 20.9943 170.762 20.6932 171.168 20.4773C171.577 20.2614 172.036 20.1534 172.545 20.1534C173.056 20.1534 173.509 20.2614 173.904 20.4773C174.299 20.6932 174.609 20.9844 174.833 21.3509C175.058 21.7173 175.17 22.125 175.17 22.5739C175.17 22.8949 175.112 23.2088 174.995 23.5156C174.881 23.8196 174.683 24.1591 174.398 24.5341C174.117 24.9062 173.727 25.3608 173.227 25.8977L171.266 27.9943V28.0625H175.323V29H169.817ZM180.151 20.2727V29H179.094V21.3807H179.043L176.913 22.7955V21.7216L179.094 20.2727H180.151ZM186.121 25.5057C186.113 25.0341 186.19 24.6548 186.352 24.3679C186.513 24.081 186.724 23.8722 186.982 23.7415C187.244 23.6108 187.519 23.5455 187.809 23.5455C188.099 23.5455 188.363 23.6094 188.602 23.7372C188.843 23.8622 189.119 24.0597 189.428 24.3295C189.638 24.5114 189.806 24.6392 189.931 24.7131C190.059 24.7869 190.198 24.8239 190.349 24.8239C190.593 24.8239 190.786 24.7358 190.928 24.5597C191.07 24.3807 191.138 24.1222 191.133 23.7841H192.053C192.062 24.2557 191.985 24.6349 191.823 24.9219C191.664 25.2088 191.454 25.4176 191.192 25.5483C190.931 25.679 190.656 25.7443 190.366 25.7443C190.076 25.7443 189.812 25.6818 189.573 25.5568C189.335 25.429 189.059 25.2301 188.746 24.9602C188.539 24.7784 188.371 24.6506 188.244 24.5767C188.116 24.5028 187.977 24.4659 187.826 24.4659C187.596 24.4659 187.406 24.5469 187.255 24.7088C187.107 24.8679 187.036 25.1335 187.042 25.5057H186.121ZM197.594 29L201.498 21.2784V21.2102H196.998V20.2727H202.588V21.2614L198.702 29H197.594ZM203.427 29.0682C203.217 29.0682 203.036 28.9929 202.886 28.8423C202.735 28.6918 202.66 28.5114 202.66 28.3011C202.66 28.0909 202.735 27.9105 202.886 27.7599C203.036 27.6094 203.217 27.5341 203.427 27.5341C203.637 27.5341 203.817 27.6094 203.968 27.7599C204.119 27.9105 204.194 28.0909 204.194 28.3011C204.194 28.4403 204.158 28.5682 204.087 28.6847C204.019 28.8011 203.927 28.8949 203.81 28.9659C203.697 29.0341 203.569 29.0682 203.427 29.0682ZM205.982 29V28.233L208.862 25.0795C209.2 24.7102 209.479 24.3892 209.697 24.1165C209.916 23.8409 210.078 23.5824 210.183 23.3409C210.291 23.0966 210.345 22.8409 210.345 22.5739C210.345 22.267 210.271 22.0014 210.124 21.777C209.979 21.5526 209.78 21.3793 209.527 21.2571C209.274 21.1349 208.99 21.0739 208.675 21.0739C208.339 21.0739 208.047 21.1435 207.797 21.2827C207.55 21.419 207.358 21.6108 207.222 21.858C207.088 22.1051 207.021 22.3949 207.021 22.7273H206.016C206.016 22.2159 206.134 21.767 206.369 21.3807C206.605 20.9943 206.926 20.6932 207.332 20.4773C207.741 20.2614 208.2 20.1534 208.709 20.1534C209.22 20.1534 209.673 20.2614 210.068 20.4773C210.463 20.6932 210.773 20.9844 210.997 21.3509C211.222 21.7173 211.334 22.125 211.334 22.5739C211.334 22.8949 211.276 23.2088 211.159 23.5156C211.045 23.8196 210.847 24.1591 210.562 24.5341C210.281 24.9062 209.891 25.3608 209.391 25.8977L207.43 27.9943V28.0625H211.487V29H205.982ZM213.247 29V28.233L216.128 25.0795C216.466 24.7102 216.744 24.3892 216.963 24.1165C217.182 23.8409 217.344 23.5824 217.449 23.3409C217.557 23.0966 217.611 22.8409 217.611 22.5739C217.611 22.267 217.537 22.0014 217.389 21.777C217.244 21.5526 217.045 21.3793 216.793 21.2571C216.54 21.1349 216.256 21.0739 215.94 21.0739C215.605 21.0739 215.312 21.1435 215.062 21.2827C214.815 21.419 214.624 21.6108 214.487 21.858C214.354 22.1051 214.287 22.3949 214.287 22.7273H213.281C213.281 22.2159 213.399 21.767 213.635 21.3807C213.871 20.9943 214.192 20.6932 214.598 20.4773C215.007 20.2614 215.466 20.1534 215.974 20.1534C216.486 20.1534 216.939 20.2614 217.334 20.4773C217.729 20.6932 218.038 20.9844 218.263 21.3509C218.487 21.7173 218.599 22.125 218.599 22.5739C218.599 22.8949 218.541 23.2088 218.425 23.5156C218.311 23.8196 218.112 24.1591 217.828 24.5341C217.547 24.9062 217.156 25.3608 216.656 25.8977L214.696 27.9943V28.0625H218.753V29H213.247ZM222.03 27.8068L221.962 28.267C221.913 28.5909 221.839 28.9375 221.74 29.3068C221.643 29.6761 221.543 30.0241 221.438 30.3509C221.332 30.6776 221.246 30.9375 221.178 31.1307H220.411C220.447 30.9489 220.496 30.7088 220.555 30.4105C220.615 30.1122 220.675 29.7784 220.734 29.4091C220.797 29.0426 220.848 28.6676 220.888 28.2841L220.939 27.8068H222.03ZM231.292 20.156H232.156V20.612C232.156 22.556 230.092 23.984 227.908 24.356L227.524 23.564C229.432 23.288 231.292 22.04 231.292 20.612V20.156ZM231.544 20.156H232.396V20.612C232.396 22.04 234.268 23.288 236.164 23.564L235.792 24.356C233.596 23.984 231.544 22.556 231.544 20.612V20.156ZM231.328 25.796H232.312V29.936H231.328V25.796ZM226.948 25.268H236.752V26.084H226.948V25.268ZM227.86 19.76H235.804V20.564H227.86V19.76ZM240.387 24.668H241.371V27.92H240.387V24.668ZM244.395 24.668H245.391V27.92H244.395V24.668ZM237.987 27.728H247.815V28.556H237.987V27.728ZM242.883 19.772C245.175 19.772 246.819 20.864 246.819 22.568C246.819 24.26 245.175 25.352 242.883 25.352C240.579 25.352 238.935 24.26 238.935 22.568C238.935 20.864 240.579 19.772 242.883 19.772ZM242.883 20.564C241.143 20.564 239.895 21.356 239.895 22.568C239.895 23.768 241.143 24.56 242.883 24.56C244.623 24.56 245.859 23.768 245.859 22.568C245.859 21.356 244.623 20.564 242.883 20.564ZM257.513 20.624H260.573V21.404H257.513V20.624ZM257.513 22.604H260.573V23.384H257.513V22.604ZM260.321 19.088H261.317V24.74H260.321V19.088ZM254.333 25.28H261.317V27.848H255.329V29.516H254.357V27.104H260.333V26.072H254.333V25.28ZM254.357 29H261.713V29.792H254.357V29ZM252.929 19.58H253.913V21.14H256.853V19.58H257.825V24.32H252.929V19.58ZM253.913 21.92V23.516H256.853V21.92H253.913ZM264.493 29.0682C264.283 29.0682 264.103 28.9929 263.952 28.8423C263.801 28.6918 263.726 28.5114 263.726 28.3011C263.726 28.0909 263.801 27.9105 263.952 27.7599C264.103 27.6094 264.283 27.5341 264.493 27.5341C264.703 27.5341 264.884 27.6094 265.034 27.7599C265.185 27.9105 265.26 28.0909 265.26 28.3011C265.26 28.4403 265.225 28.5682 265.154 28.6847C265.086 28.8011 264.993 28.8949 264.877 28.9659C264.763 29.0341 264.635 29.0682 264.493 29.0682ZM264.493 24.2102C264.283 24.2102 264.103 24.1349 263.952 23.9844C263.801 23.8338 263.726 23.6534 263.726 23.4432C263.726 23.233 263.801 23.0526 263.952 22.902C264.103 22.7514 264.283 22.6761 264.493 22.6761C264.703 22.6761 264.884 22.7514 265.034 22.902C265.185 23.0526 265.26 23.233 265.26 23.4432C265.26 23.5824 265.225 23.7102 265.154 23.8267C265.086 23.9432 264.993 24.0369 264.877 24.108C264.763 24.1761 264.635 24.2102 264.493 24.2102ZM277.536 19.088H278.532V24.608H277.536V19.088ZM278.1 21.416H280.128V22.244H278.1V21.416ZM271.644 25.124H278.532V27.788H272.652V29.408H271.668V27.032H277.56V25.916H271.644V25.124ZM271.668 28.988H278.928V29.792H271.668V28.988ZM273.108 19.472C274.74 19.472 275.916 20.468 275.916 21.884C275.916 23.312 274.74 24.308 273.108 24.308C271.5 24.308 270.312 23.312 270.312 21.884C270.312 20.468 271.5 19.472 273.108 19.472ZM273.108 20.288C272.064 20.288 271.284 20.948 271.284 21.884C271.284 22.832 272.064 23.492 273.108 23.492C274.176 23.492 274.956 22.832 274.956 21.884C274.956 20.948 274.176 20.288 273.108 20.288ZM281.699 26.432H282.527C284.543 26.432 285.839 26.384 287.351 26.096L287.459 26.912C285.899 27.2 284.591 27.272 282.527 27.272H281.699V26.432ZM281.699 20.12H286.631V20.936H282.683V26.744H281.699V20.12ZM289.103 19.088H290.099V29.96H289.103V19.088ZM285.995 23.012H289.511V23.84H285.995V23.012ZM299.53 19.088H300.538V29.936H299.53V19.088ZM300.298 23.348H302.314V24.2H300.298V23.348ZM292.618 20H293.602V22.868H296.698V20H297.682V27.332H292.618V20ZM293.602 23.66V26.516H296.698V23.66H293.602ZM310.653 19.1H311.649V27.092H310.653V19.1ZM311.349 22.412H313.257V23.252H311.349V22.412ZM304.965 28.88H312.141V29.696H304.965V28.88ZM304.965 26.468H305.961V29.18H304.965V26.468ZM303.705 24.584H304.557C306.525 24.584 307.929 24.524 309.621 24.224L309.705 25.052C307.989 25.34 306.561 25.4 304.557 25.4H303.705V24.584ZM303.681 19.796H308.565V22.904H304.677V24.872H303.705V22.148H307.581V20.612H303.681V19.796Z" fill="white"/>
</svg>
