<svg width="399" height="50" viewBox="0 0 399 50" fill="none" xmlns="http://www.w3.org/2000/svg">
<rect x="5" y="5" width="389" height="40" rx="2" fill="#343251" stroke="#EBD2FF" stroke-width="2"/>
<rect x="0.5" y="0.5" width="398" height="49" rx="6.5" stroke="#EBD2FF"/>
<path d="M21.2482 34.1773C24.1467 34.1773 26.4963 31.8281 26.4963 28.9302C26.4963 26.0323 24.1467 23.6831 21.2482 23.6831C18.3497 23.6831 16 26.0323 16 28.9302C16 31.8281 18.3497 34.1773 21.2482 34.1773Z" stroke="white" stroke-width="2.56812" stroke-miterlimit="10" stroke-linecap="round"/>
<path d="M24.3313 24.3544C23.5671 22.4577 23.339 20.4973 24.0182 18.529C24.8752 16.0434 26.9501 14.2024 29.6325 14.0141C32.1611 13.8363 34.5225 15.3616 35.6183 17.6085C37.0113 20.4549 35.873 23.4498 34.3872 26.0097C34.3288 26.1105 34.2678 26.2139 34.2068 26.3147C33.3842 27.6915 32.4423 29.0417 31.9196 30.5697C31.0626 33.0712 32.2646 36.4587 35.3689 36.3022C37.266 36.2041 38.3618 34.6814 38.7439 32.973" stroke="white" stroke-width="2.56812" stroke-miterlimit="10" stroke-linecap="round"/>
<path d="M69.252 20.024H70.068V21.968C70.068 24.368 68.772 26.708 67.056 27.62L66.444 26.828C68.016 26.036 69.252 23.948 69.252 21.968V20.024ZM69.432 20.024H70.236V21.968C70.236 23.876 71.448 25.856 72.984 26.624L72.372 27.416C70.692 26.516 69.432 24.296 69.432 21.968V20.024ZM73.932 19.088H74.94V29.936H73.932V19.088ZM74.7 23.48H76.716V24.32H74.7V23.48ZM80.3151 20.636H81.1071V22.4C81.1071 24.656 79.7271 26.984 78.0351 27.848L77.4591 27.056C79.0071 26.3 80.3151 24.236 80.3151 22.4V20.636ZM80.4951 20.636H81.2871V22.4C81.2871 24.116 82.5111 26.048 84.0831 26.792L83.5191 27.584C81.8031 26.732 80.4951 24.548 80.4951 22.4V20.636ZM77.8431 20.192H83.6871V21.032H77.8431V20.192ZM84.9711 19.088H85.9791V29.936H84.9711V19.088ZM85.7391 23.468H87.7551V24.308H85.7391V23.468ZM91.3541 20.636H92.1461V22.4C92.1461 24.656 90.7661 26.984 89.0741 27.848L88.4981 27.056C90.0461 26.3 91.3541 24.236 91.3541 22.4V20.636ZM91.5341 20.636H92.3261V22.4C92.3261 24.116 93.5501 26.048 95.1221 26.792L94.5581 27.584C92.8421 26.732 91.5341 24.548 91.5341 22.4V20.636ZM88.8821 20.192H94.7261V21.032H88.8821V20.192ZM96.0101 19.088H97.0181V29.936H96.0101V19.088ZM96.7781 23.468H98.7941V24.308H96.7781V23.468ZM107.613 19.076H108.609V29.948H107.613V19.076ZM100.341 26.504H101.241C103.053 26.504 104.673 26.432 106.593 26.12L106.701 26.936C104.733 27.26 103.101 27.332 101.241 27.332H100.341V26.504ZM100.317 20.096H105.333V23.972H101.337V26.816H100.341V23.156H104.325V20.912H100.317V20.096ZM114.81 25.3182C114.81 24.2443 114.949 23.2571 115.227 22.3565C115.509 21.4531 115.909 20.6222 116.429 19.8636H117.315C117.111 20.1449 116.919 20.4915 116.74 20.9034C116.564 21.3125 116.409 21.7628 116.276 22.2543C116.142 22.7429 116.037 23.2486 115.96 23.7713C115.886 24.294 115.849 24.8097 115.849 25.3182C115.849 25.9943 115.915 26.6804 116.045 27.3764C116.176 28.0724 116.352 28.7187 116.574 29.3153C116.795 29.9119 117.043 30.3977 117.315 30.7727H116.429C115.909 30.0142 115.509 29.1847 115.227 28.2841C114.949 27.3807 114.81 26.392 114.81 25.3182ZM118.936 29V20.2727H119.993V28.0625H124.049V29H118.936ZM128.294 29.1364C127.663 29.1364 127.119 28.9972 126.662 28.7188C126.207 28.4375 125.856 28.0455 125.609 27.5426C125.365 27.0369 125.243 26.4489 125.243 25.7784C125.243 25.108 125.365 24.517 125.609 24.0057C125.856 23.4915 126.2 23.0909 126.64 22.804C127.083 22.5142 127.6 22.3693 128.191 22.3693C128.532 22.3693 128.869 22.4261 129.201 22.5398C129.534 22.6534 129.836 22.8381 130.109 23.0938C130.382 23.3466 130.599 23.6818 130.761 24.0994C130.923 24.517 131.004 25.0312 131.004 25.642V26.0682H125.958V25.1989H129.981C129.981 24.8295 129.907 24.5 129.76 24.2102C129.615 23.9205 129.407 23.6918 129.137 23.5241C128.87 23.3565 128.555 23.2727 128.191 23.2727C127.791 23.2727 127.444 23.3722 127.152 23.571C126.862 23.767 126.639 24.0227 126.483 24.3381C126.326 24.6534 126.248 24.9915 126.248 25.3523V25.9318C126.248 26.4261 126.333 26.8452 126.504 27.1889C126.677 27.5298 126.917 27.7898 127.224 27.9688C127.531 28.1449 127.887 28.233 128.294 28.233C128.558 28.233 128.797 28.196 129.01 28.1222C129.225 28.0455 129.412 27.9318 129.568 27.7812C129.724 27.6278 129.845 27.4375 129.93 27.2102L130.902 27.483C130.799 27.8125 130.627 28.1023 130.386 28.3523C130.145 28.5994 129.846 28.7926 129.491 28.9318C129.136 29.0682 128.737 29.1364 128.294 29.1364ZM135.193 29.1364C134.602 29.1364 134.083 28.9957 133.637 28.7145C133.194 28.4332 132.848 28.0398 132.598 27.5341C132.35 27.0284 132.227 26.4375 132.227 25.7614C132.227 25.0795 132.35 24.4844 132.598 23.9759C132.848 23.4673 133.194 23.0724 133.637 22.7912C134.083 22.5099 134.602 22.3693 135.193 22.3693C135.784 22.3693 136.301 22.5099 136.744 22.7912C137.19 23.0724 137.537 23.4673 137.784 23.9759C138.034 24.4844 138.159 25.0795 138.159 25.7614C138.159 26.4375 138.034 27.0284 137.784 27.5341C137.537 28.0398 137.19 28.4332 136.744 28.7145C136.301 28.9957 135.784 29.1364 135.193 29.1364ZM135.193 28.233C135.642 28.233 136.011 28.1179 136.301 27.8878C136.591 27.6577 136.805 27.3551 136.944 26.9801C137.083 26.6051 137.153 26.1989 137.153 25.7614C137.153 25.3239 137.083 24.9162 136.944 24.5384C136.805 24.1605 136.591 23.8551 136.301 23.6222C136.011 23.3892 135.642 23.2727 135.193 23.2727C134.744 23.2727 134.375 23.3892 134.085 23.6222C133.795 23.8551 133.581 24.1605 133.441 24.5384C133.302 24.9162 133.233 25.3239 133.233 25.7614C133.233 26.1989 133.302 26.6051 133.441 26.9801C133.581 27.3551 133.795 27.6577 134.085 27.8878C134.375 28.1179 134.744 28.233 135.193 28.233ZM141.701 25.3182C141.701 26.392 141.56 27.3807 141.279 28.2841C141.001 29.1847 140.602 30.0142 140.082 30.7727H139.195C139.4 30.4915 139.59 30.1449 139.766 29.733C139.945 29.3239 140.102 28.875 140.235 28.3864C140.369 27.8949 140.472 27.3878 140.546 26.8651C140.623 26.3395 140.661 25.8239 140.661 25.3182C140.661 24.642 140.596 23.956 140.465 23.2599C140.335 22.5639 140.158 21.9176 139.937 21.321C139.715 20.7244 139.468 20.2386 139.195 19.8636H140.082C140.602 20.6222 141.001 21.4531 141.279 22.3565C141.56 23.2571 141.701 24.2443 141.701 25.3182ZM144.634 29.0682C144.424 29.0682 144.243 28.9929 144.093 28.8423C143.942 28.6918 143.867 28.5114 143.867 28.3011C143.867 28.0909 143.942 27.9105 144.093 27.7599C144.243 27.6094 144.424 27.5341 144.634 27.5341C144.844 27.5341 145.025 27.6094 145.175 27.7599C145.326 27.9105 145.401 28.0909 145.401 28.3011C145.401 28.4403 145.365 28.5682 145.294 28.6847C145.226 28.8011 145.134 28.8949 145.017 28.9659C144.904 29.0341 144.776 29.0682 144.634 29.0682ZM144.634 24.2102C144.424 24.2102 144.243 24.1349 144.093 23.9844C143.942 23.8338 143.867 23.6534 143.867 23.4432C143.867 23.233 143.942 23.0526 144.093 22.902C144.243 22.7514 144.424 22.6761 144.634 22.6761C144.844 22.6761 145.025 22.7514 145.175 22.902C145.326 23.0526 145.401 23.233 145.401 23.4432C145.401 23.5824 145.365 23.7102 145.294 23.8267C145.226 23.9432 145.134 24.0369 145.017 24.108C144.904 24.1761 144.776 24.2102 144.634 24.2102ZM150.836 29L154.74 21.2784V21.2102H150.24V20.2727H155.831V21.2614L151.944 29H150.836ZM156.669 29.0682C156.459 29.0682 156.278 28.9929 156.128 28.8423C155.977 28.6918 155.902 28.5114 155.902 28.3011C155.902 28.0909 155.977 27.9105 156.128 27.7599C156.278 27.6094 156.459 27.5341 156.669 27.5341C156.879 27.5341 157.06 27.6094 157.21 27.7599C157.361 27.9105 157.436 28.0909 157.436 28.3011C157.436 28.4403 157.401 28.5682 157.33 28.6847C157.261 28.8011 157.169 28.8949 157.053 28.9659C156.939 29.0341 156.811 29.0682 156.669 29.0682ZM159.224 29V28.233L162.104 25.0795C162.442 24.7102 162.721 24.3892 162.94 24.1165C163.158 23.8409 163.32 23.5824 163.425 23.3409C163.533 23.0966 163.587 22.8409 163.587 22.5739C163.587 22.267 163.513 22.0014 163.366 21.777C163.221 21.5526 163.022 21.3793 162.769 21.2571C162.516 21.1349 162.232 21.0739 161.917 21.0739C161.582 21.0739 161.289 21.1435 161.039 21.2827C160.792 21.419 160.6 21.6108 160.464 21.858C160.33 22.1051 160.263 22.3949 160.263 22.7273H159.258C159.258 22.2159 159.376 21.767 159.612 21.3807C159.847 20.9943 160.168 20.6932 160.575 20.4773C160.984 20.2614 161.442 20.1534 161.951 20.1534C162.462 20.1534 162.915 20.2614 163.31 20.4773C163.705 20.6932 164.015 20.9844 164.239 21.3509C164.464 21.7173 164.576 22.125 164.576 22.5739C164.576 22.8949 164.518 23.2088 164.401 23.5156C164.288 23.8196 164.089 24.1591 163.805 24.5341C163.523 24.9062 163.133 25.3608 162.633 25.8977L160.673 27.9943V28.0625H164.729V29H159.224ZM169.438 29.1193C168.876 29.1193 168.374 29.0227 167.934 28.8295C167.496 28.6364 167.148 28.3679 166.89 28.0241C166.634 27.6776 166.495 27.2756 166.472 26.8182H167.546C167.569 27.0994 167.665 27.3423 167.836 27.5469C168.006 27.7486 168.229 27.9048 168.505 28.0156C168.781 28.1264 169.086 28.1818 169.421 28.1818C169.796 28.1818 170.129 28.1165 170.418 27.9858C170.708 27.8551 170.935 27.6733 171.1 27.4403C171.265 27.2074 171.347 26.9375 171.347 26.6307C171.347 26.3097 171.268 26.027 171.109 25.7827C170.95 25.5355 170.717 25.3423 170.41 25.2031C170.103 25.0639 169.728 24.9943 169.285 24.9943H168.586V24.0568H169.285C169.631 24.0568 169.935 23.9943 170.197 23.8693C170.461 23.7443 170.667 23.5682 170.815 23.3409C170.965 23.1136 171.04 22.8466 171.04 22.5398C171.04 22.2443 170.975 21.9872 170.844 21.7685C170.714 21.5497 170.529 21.3793 170.29 21.2571C170.055 21.1349 169.776 21.0739 169.455 21.0739C169.154 21.0739 168.87 21.1293 168.603 21.2401C168.339 21.348 168.123 21.5057 167.955 21.7131C167.788 21.9176 167.697 22.1648 167.683 22.4545H166.66C166.677 21.9972 166.815 21.5966 167.073 21.2528C167.332 20.9062 167.67 20.6364 168.087 20.4432C168.508 20.25 168.969 20.1534 169.472 20.1534C170.012 20.1534 170.475 20.2628 170.862 20.4815C171.248 20.6974 171.545 20.983 171.752 21.3381C171.96 21.6932 172.063 22.0767 172.063 22.4886C172.063 22.9801 171.934 23.3991 171.675 23.7457C171.42 24.0923 171.072 24.3324 170.631 24.4659V24.5341C171.183 24.625 171.613 24.8594 171.923 25.2372C172.232 25.6122 172.387 26.0767 172.387 26.6307C172.387 27.1051 172.258 27.5312 171.999 27.9091C171.744 28.2841 171.394 28.5795 170.951 28.7955C170.508 29.0114 170.004 29.1193 169.438 29.1193ZM177.59 25.5057C177.582 25.0341 177.658 24.6548 177.82 24.3679C177.982 24.081 178.192 23.8722 178.451 23.7415C178.712 23.6108 178.988 23.5455 179.278 23.5455C179.567 23.5455 179.832 23.6094 180.07 23.7372C180.312 23.8622 180.587 24.0597 180.897 24.3295C181.107 24.5114 181.275 24.6392 181.4 24.7131C181.528 24.7869 181.667 24.8239 181.817 24.8239C182.062 24.8239 182.255 24.7358 182.397 24.5597C182.539 24.3807 182.607 24.1222 182.602 23.7841H183.522C183.531 24.2557 183.454 24.6349 183.292 24.9219C183.133 25.2088 182.923 25.4176 182.661 25.5483C182.4 25.679 182.124 25.7443 181.835 25.7443C181.545 25.7443 181.281 25.6818 181.042 25.5568C180.803 25.429 180.528 25.2301 180.215 24.9602C180.008 24.7784 179.84 24.6506 179.712 24.5767C179.585 24.5028 179.445 24.4659 179.295 24.4659C179.065 24.4659 178.874 24.5469 178.724 24.7088C178.576 24.8679 178.505 25.1335 178.511 25.5057H177.59ZM191.586 29.1193C191 29.1193 190.483 29.0156 190.034 28.8082C189.588 28.598 189.24 28.3097 188.99 27.9432C188.74 27.5739 188.617 27.1534 188.62 26.6818C188.617 26.3125 188.689 25.9716 188.837 25.6591C188.985 25.3437 189.186 25.081 189.442 24.8707C189.701 24.6577 189.989 24.5227 190.307 24.4659V24.4148C189.89 24.3068 189.557 24.0724 189.31 23.7116C189.063 23.348 188.941 22.9347 188.944 22.4716C188.941 22.0284 189.053 21.6321 189.28 21.2827C189.507 20.9332 189.82 20.6577 190.218 20.456C190.618 20.2543 191.074 20.1534 191.586 20.1534C192.091 20.1534 192.543 20.2543 192.941 20.456C193.338 20.6577 193.651 20.9332 193.878 21.2827C194.108 21.6321 194.225 22.0284 194.228 22.4716C194.225 22.9347 194.098 23.348 193.848 23.7116C193.601 24.0724 193.273 24.3068 192.864 24.4148V24.4659C193.179 24.5227 193.463 24.6577 193.716 24.8707C193.969 25.081 194.171 25.3437 194.321 25.6591C194.472 25.9716 194.549 26.3125 194.551 26.6818C194.549 27.1534 194.421 27.5739 194.168 27.9432C193.918 28.3097 193.57 28.598 193.124 28.8082C192.681 29.0156 192.168 29.1193 191.586 29.1193ZM191.586 28.1818C191.98 28.1818 192.321 28.1179 192.608 27.9901C192.895 27.8622 193.117 27.6818 193.273 27.4489C193.429 27.2159 193.509 26.9432 193.512 26.6307C193.509 26.3011 193.424 26.0099 193.256 25.7571C193.088 25.5043 192.86 25.3054 192.57 25.1605C192.283 25.0156 191.955 24.9432 191.586 24.9432C191.213 24.9432 190.881 25.0156 190.588 25.1605C190.299 25.3054 190.07 25.5043 189.902 25.7571C189.738 26.0099 189.657 26.3011 189.659 26.6307C189.657 26.9432 189.732 27.2159 189.885 27.4489C190.042 27.6818 190.265 27.8622 190.554 27.9901C190.844 28.1179 191.188 28.1818 191.586 28.1818ZM191.586 24.0398C191.898 24.0398 192.175 23.9773 192.417 23.8523C192.661 23.7273 192.853 23.5526 192.992 23.3281C193.131 23.1037 193.202 22.8409 193.205 22.5398C193.202 22.2443 193.132 21.9872 192.996 21.7685C192.86 21.5469 192.671 21.3764 192.429 21.2571C192.188 21.1349 191.907 21.0739 191.586 21.0739C191.259 21.0739 190.973 21.1349 190.729 21.2571C190.485 21.3764 190.296 21.5469 190.162 21.7685C190.029 21.9872 189.963 22.2443 189.966 22.5398C189.963 22.8409 190.03 23.1037 190.167 23.3281C190.306 23.5526 190.498 23.7273 190.742 23.8523C190.986 23.9773 191.267 24.0398 191.586 24.0398ZM196.665 29.0682C196.455 29.0682 196.275 28.9929 196.124 28.8423C195.973 28.6918 195.898 28.5114 195.898 28.3011C195.898 28.0909 195.973 27.9105 196.124 27.7599C196.275 27.6094 196.455 27.5341 196.665 27.5341C196.875 27.5341 197.056 27.6094 197.206 27.7599C197.357 27.9105 197.432 28.0909 197.432 28.3011C197.432 28.4403 197.397 28.5682 197.326 28.6847C197.257 28.8011 197.165 28.8949 197.049 28.9659C196.935 29.0341 196.807 29.0682 196.665 29.0682ZM199.22 29V28.233L202.1 25.0795C202.439 24.7102 202.717 24.3892 202.936 24.1165C203.154 23.8409 203.316 23.5824 203.422 23.3409C203.529 23.0966 203.583 22.8409 203.583 22.5739C203.583 22.267 203.51 22.0014 203.362 21.777C203.217 21.5526 203.018 21.3793 202.765 21.2571C202.512 21.1349 202.228 21.0739 201.913 21.0739C201.578 21.0739 201.285 21.1435 201.035 21.2827C200.788 21.419 200.596 21.6108 200.46 21.858C200.326 22.1051 200.26 22.3949 200.26 22.7273H199.254C199.254 22.2159 199.372 21.767 199.608 21.3807C199.843 20.9943 200.164 20.6932 200.571 20.4773C200.98 20.2614 201.439 20.1534 201.947 20.1534C202.458 20.1534 202.912 20.2614 203.306 20.4773C203.701 20.6932 204.011 20.9844 204.235 21.3509C204.46 21.7173 204.572 22.125 204.572 22.5739C204.572 22.8949 204.514 23.2088 204.397 23.5156C204.284 23.8196 204.085 24.1591 203.801 24.5341C203.52 24.9062 203.129 25.3608 202.629 25.8977L200.669 27.9943V28.0625H204.725V29H199.22ZM206.485 29V28.233L209.366 25.0795C209.704 24.7102 209.983 24.3892 210.201 24.1165C210.42 23.8409 210.582 23.5824 210.687 23.3409C210.795 23.0966 210.849 22.8409 210.849 22.5739C210.849 22.267 210.775 22.0014 210.627 21.777C210.483 21.5526 210.284 21.3793 210.031 21.2571C209.778 21.1349 209.494 21.0739 209.179 21.0739C208.843 21.0739 208.551 21.1435 208.301 21.2827C208.054 21.419 207.862 21.6108 207.725 21.858C207.592 22.1051 207.525 22.3949 207.525 22.7273H206.52C206.52 22.2159 206.637 21.767 206.873 21.3807C207.109 20.9943 207.43 20.6932 207.836 20.4773C208.245 20.2614 208.704 20.1534 209.213 20.1534C209.724 20.1534 210.177 20.2614 210.572 20.4773C210.967 20.6932 211.277 20.9844 211.501 21.3509C211.725 21.7173 211.838 22.125 211.838 22.5739C211.838 22.8949 211.779 23.2088 211.663 23.5156C211.549 23.8196 211.35 24.1591 211.066 24.5341C210.785 24.9062 210.395 25.3608 209.895 25.8977L207.934 27.9943V28.0625H211.991V29H206.485ZM215.268 27.8068L215.2 28.267C215.152 28.5909 215.078 28.9375 214.978 29.3068C214.882 29.6761 214.781 30.0241 214.676 30.3509C214.571 30.6776 214.484 30.9375 214.416 31.1307H213.649C213.686 30.9489 213.734 30.7088 213.794 30.4105C213.853 30.1122 213.913 29.7784 213.973 29.4091C214.035 29.0426 214.086 28.6676 214.126 28.2841L214.177 27.8068H215.268ZM224.53 20.156H225.394V20.612C225.394 22.556 223.33 23.984 221.146 24.356L220.762 23.564C222.67 23.288 224.53 22.04 224.53 20.612V20.156ZM224.782 20.156H225.634V20.612C225.634 22.04 227.506 23.288 229.402 23.564L229.03 24.356C226.834 23.984 224.782 22.556 224.782 20.612V20.156ZM224.566 25.796H225.55V29.936H224.566V25.796ZM220.186 25.268H229.99V26.084H220.186V25.268ZM221.098 19.76H229.042V20.564H221.098V19.76ZM233.625 24.668H234.609V27.92H233.625V24.668ZM237.633 24.668H238.629V27.92H237.633V24.668ZM231.225 27.728H241.053V28.556H231.225V27.728ZM236.121 19.772C238.413 19.772 240.057 20.864 240.057 22.568C240.057 24.26 238.413 25.352 236.121 25.352C233.817 25.352 232.173 24.26 232.173 22.568C232.173 20.864 233.817 19.772 236.121 19.772ZM236.121 20.564C234.381 20.564 233.133 21.356 233.133 22.568C233.133 23.768 234.381 24.56 236.121 24.56C237.861 24.56 239.097 23.768 239.097 22.568C239.097 21.356 237.861 20.564 236.121 20.564ZM250.751 20.624H253.811V21.404H250.751V20.624ZM250.751 22.604H253.811V23.384H250.751V22.604ZM253.559 19.088H254.555V24.74H253.559V19.088ZM247.571 25.28H254.555V27.848H248.567V29.516H247.595V27.104H253.571V26.072H247.571V25.28ZM247.595 29H254.951V29.792H247.595V29ZM246.167 19.58H247.151V21.14H250.091V19.58H251.063V24.32H246.167V19.58ZM247.151 21.92V23.516H250.091V21.92H247.151ZM257.732 29.0682C257.521 29.0682 257.341 28.9929 257.19 28.8423C257.04 28.6918 256.964 28.5114 256.964 28.3011C256.964 28.0909 257.04 27.9105 257.19 27.7599C257.341 27.6094 257.521 27.5341 257.732 27.5341C257.942 27.5341 258.122 27.6094 258.273 27.7599C258.423 27.9105 258.499 28.0909 258.499 28.3011C258.499 28.4403 258.463 28.5682 258.392 28.6847C258.324 28.8011 258.232 28.8949 258.115 28.9659C258.001 29.0341 257.874 29.0682 257.732 29.0682ZM257.732 24.2102C257.521 24.2102 257.341 24.1349 257.19 23.9844C257.04 23.8338 256.964 23.6534 256.964 23.4432C256.964 23.233 257.04 23.0526 257.19 22.902C257.341 22.7514 257.521 22.6761 257.732 22.6761C257.942 22.6761 258.122 22.7514 258.273 22.902C258.423 23.0526 258.499 23.233 258.499 23.4432C258.499 23.5824 258.463 23.7102 258.392 23.8267C258.324 23.9432 258.232 24.0369 258.115 24.108C258.001 24.1761 257.874 24.2102 257.732 24.2102ZM263.706 26.444H264.426C265.746 26.444 266.97 26.396 268.458 26.144L268.542 26.96C267.018 27.224 265.794 27.272 264.426 27.272H263.706V26.444ZM263.682 20.276H267.558V24.056H264.678V26.78H263.706V23.252H266.598V21.092H263.682V20.276ZM271.602 19.088H272.562V29.936H271.602V19.088ZM268.074 22.976H269.826V23.804H268.074V22.976ZM269.418 19.352H270.342V29.372H269.418V19.352ZM282.293 19.088H283.289V29.936H282.293V19.088ZM279.113 20.252H280.097C280.097 23.396 278.681 26.144 275.057 27.92L274.529 27.116C277.661 25.604 279.113 23.3 279.113 20.42V20.252ZM275.021 20.252H279.545V21.068H275.021V20.252ZM286.6 19.52H294.064V22.352H287.632V24.224H286.624V21.584H293.068V20.324H286.6V19.52ZM286.624 23.732H294.316V24.548H286.624V23.732ZM285.424 25.664H295.264V26.492H285.424V25.664ZM289.828 25.976H290.812V29.948H289.828V25.976ZM300.819 19.832H301.683V20.66C301.683 23.024 299.487 24.86 297.315 25.352L296.871 24.524C298.779 24.164 300.819 22.508 300.819 20.66V19.832ZM300.999 19.832H301.863V20.66C301.863 22.52 303.915 24.164 305.811 24.524L305.367 25.352C303.207 24.86 300.999 23.036 300.999 20.66V19.832ZM296.475 27.656H306.303V28.472H296.475V27.656Z" fill="white"/>
</svg>
