<svg width="399" height="50" viewBox="0 0 399 50" fill="none" xmlns="http://www.w3.org/2000/svg">
<rect x="5" y="5" width="389" height="40" rx="2" fill="#343251" stroke="#EBD2FF" stroke-width="2"/>
<rect x="0.5" y="0.5" width="398" height="49" rx="6.5" stroke="#EBD2FF"/>
<path d="M16 15.4889C16 15.4889 16.9923 13.7646 18.9239 14.0272C20.8555 14.2872 21.7443 15.5101 21.7443 16.7277V31.8853" stroke="white" stroke-width="2.56812" stroke-linecap="round" stroke-linejoin="round"/>
<path d="M21.7471 15.282C22.8137 14.4968 24.1722 13.7912 25.5227 14.2263C26.6105 14.5764 27.5843 15.5287 27.701 16.7278C27.9106 18.8844 27.701 31.8854 27.701 31.8854" stroke="white" stroke-width="2.56812" stroke-linecap="round" stroke-linejoin="round"/>
<path d="M28.006 15.4808C29.4122 13.9422 31.8373 13.34 33.2966 15.2686C34.1722 16.4251 33.9122 18.038 33.9122 19.3882C33.9122 21.598 33.9122 23.8103 33.9122 26.02C33.9122 28.0653 33.9122 30.1105 33.9122 32.1558C33.9122 32.1558 33.8591 35.0181 36.9926 35.1215" stroke="white" stroke-width="2.56812" stroke-linecap="round" stroke-linejoin="round"/>
<path d="M30.7257 35.1217C32.9067 34.4188 34.9816 33.1455 36.7088 31.6626C38.0408 30.5193 39.2931 29.1743 40.1846 27.6331C41.0284 26.1768 41.8668 24.0944 41.1053 22.4497C40.6383 21.439 39.6779 20.813 38.5582 20.8368C35.4592 20.9058 34.2068 23.7946 34.2068 23.7946" stroke="white" stroke-width="2.56812" stroke-linecap="round" stroke-linejoin="round"/>
<path d="M74.532 19.076H75.516V29.948H74.532V19.076ZM72.192 23.432H74.82V24.26H72.192V23.432ZM69.36 21.668H70.152V22.592C70.152 24.884 68.892 26.996 67.176 27.848L66.612 27.08C68.208 26.312 69.36 24.464 69.36 22.592V21.668ZM69.552 21.668H70.332V22.592C70.332 24.38 71.52 26.144 73.116 26.876L72.564 27.644C70.824 26.84 69.552 24.812 69.552 22.592V21.668ZM66.912 20.972H72.744V21.776H66.912V20.972ZM69.348 19.28H70.344V21.416H69.348V19.28ZM85.5831 19.088H86.5791V29.96H85.5831V19.088ZM82.3311 21.608H85.9911V22.436H82.3311V21.608ZM78.2271 20.276H79.2111V27.008H78.2271V20.276ZM78.2271 26.6H79.0431C80.8791 26.6 82.2231 26.516 83.7591 26.216L83.8791 27.032C82.2951 27.344 80.9151 27.44 79.0431 27.44H78.2271V26.6ZM82.3311 24.08H85.9911V24.896H82.3311V24.08ZM91.3541 20.636H92.1461V22.4C92.1461 24.656 90.7661 26.984 89.0741 27.848L88.4981 27.056C90.0461 26.3 91.3541 24.236 91.3541 22.4V20.636ZM91.5341 20.636H92.3261V22.4C92.3261 24.116 93.5501 26.048 95.1221 26.792L94.5581 27.584C92.8421 26.732 91.5341 24.548 91.5341 22.4V20.636ZM88.8821 20.192H94.7261V21.032H88.8821V20.192ZM96.0101 19.088H97.0181V29.936H96.0101V19.088ZM96.7781 23.468H98.7941V24.308H96.7781V23.468ZM107.613 19.076H108.609V29.948H107.613V19.076ZM100.341 26.504H101.241C103.053 26.504 104.673 26.432 106.593 26.12L106.701 26.936C104.733 27.26 103.101 27.332 101.241 27.332H100.341V26.504ZM100.317 20.096H105.333V23.972H101.337V26.816H100.341V23.156H104.325V20.912H100.317V20.096ZM114.81 24.6364C114.81 23.5625 114.949 22.5753 115.227 21.6747C115.509 20.7713 115.909 19.9403 116.429 19.1818H117.315C117.111 19.4631 116.919 19.8097 116.74 20.2216C116.564 20.6307 116.409 21.081 116.276 21.5724C116.142 22.0611 116.037 22.5668 115.96 23.0895C115.886 23.6122 115.849 24.1278 115.849 24.6364C115.849 25.3125 115.915 25.9986 116.045 26.6946C116.176 27.3906 116.352 28.0369 116.574 28.6335C116.795 29.2301 117.043 29.7159 117.315 30.0909H116.429C115.909 29.3324 115.509 28.5028 115.227 27.6023C114.949 26.6989 114.81 25.7102 114.81 24.6364ZM119.294 20.2727L121.885 27.6193H121.987L124.578 20.2727H125.686L122.481 29H121.39L118.186 20.2727H119.294ZM126.909 29V22.4545H127.914V29H126.909ZM127.42 21.3636C127.224 21.3636 127.055 21.2969 126.913 21.1634C126.774 21.0298 126.704 20.8693 126.704 20.6818C126.704 20.4943 126.774 20.3338 126.913 20.2003C127.055 20.0668 127.224 20 127.42 20C127.616 20 127.784 20.0668 127.923 20.2003C128.065 20.3338 128.136 20.4943 128.136 20.6818C128.136 20.8693 128.065 21.0298 127.923 21.1634C127.784 21.2969 127.616 21.3636 127.42 21.3636ZM129.756 29V22.4545H130.728V23.4432H130.796C130.915 23.1193 131.131 22.8565 131.444 22.6548C131.756 22.4531 132.109 22.3523 132.501 22.3523C132.575 22.3523 132.667 22.3537 132.778 22.3565C132.888 22.3594 132.972 22.3636 133.029 22.3693V23.392C132.995 23.3835 132.917 23.3707 132.795 23.3537C132.675 23.3338 132.549 23.3239 132.415 23.3239C132.097 23.3239 131.813 23.3906 131.563 23.5241C131.316 23.6548 131.12 23.8366 130.975 24.0696C130.833 24.2997 130.762 24.5625 130.762 24.858V29H129.756ZM136.664 31.5909C136.178 31.5909 135.761 31.5284 135.411 31.4034C135.062 31.2812 134.771 31.1193 134.538 30.9176C134.308 30.7188 134.124 30.5057 133.988 30.2784L134.789 29.7159C134.88 29.8352 134.995 29.9716 135.134 30.125C135.273 30.2812 135.464 30.4162 135.705 30.5298C135.95 30.6463 136.269 30.7045 136.664 30.7045C137.192 30.7045 137.629 30.5767 137.972 30.321C138.316 30.0653 138.488 29.6648 138.488 29.1193V27.7898H138.403C138.329 27.9091 138.224 28.0568 138.087 28.233C137.954 28.4062 137.761 28.5611 137.508 28.6974C137.258 28.831 136.92 28.8977 136.494 28.8977C135.965 28.8977 135.491 28.7727 135.07 28.5227C134.653 28.2727 134.322 27.9091 134.077 27.4318C133.836 26.9545 133.715 26.375 133.715 25.6932C133.715 25.0227 133.833 24.4389 134.069 23.9418C134.305 23.4418 134.633 23.0554 135.053 22.7827C135.474 22.5071 135.96 22.3693 136.511 22.3693C136.937 22.3693 137.275 22.4403 137.525 22.5824C137.778 22.7216 137.971 22.8807 138.104 23.0597C138.241 23.2358 138.346 23.3807 138.42 23.4943H138.522V22.4545H139.494V29.1875C139.494 29.75 139.366 30.2074 139.11 30.5597C138.857 30.9148 138.516 31.1747 138.087 31.3395C137.661 31.5071 137.187 31.5909 136.664 31.5909ZM136.63 27.9943C137.033 27.9943 137.374 27.902 137.653 27.7173C137.931 27.5327 138.143 27.267 138.288 26.9205C138.433 26.5739 138.505 26.1591 138.505 25.6761C138.505 25.2045 138.434 24.7884 138.292 24.4276C138.15 24.0668 137.94 23.7841 137.661 23.5795C137.383 23.375 137.039 23.2727 136.63 23.2727C136.204 23.2727 135.849 23.3807 135.565 23.5966C135.283 23.8125 135.072 24.1023 134.93 24.4659C134.79 24.8295 134.721 25.233 134.721 25.6761C134.721 26.1307 134.792 26.5327 134.934 26.8821C135.079 27.2287 135.292 27.5014 135.573 27.7003C135.857 27.8963 136.21 27.9943 136.63 27.9943ZM143.994 29.1364C143.403 29.1364 142.884 28.9957 142.438 28.7145C141.995 28.4332 141.648 28.0398 141.398 27.5341C141.151 27.0284 141.028 26.4375 141.028 25.7614C141.028 25.0795 141.151 24.4844 141.398 23.9759C141.648 23.4673 141.995 23.0724 142.438 22.7912C142.884 22.5099 143.403 22.3693 143.994 22.3693C144.585 22.3693 145.102 22.5099 145.545 22.7912C145.991 23.0724 146.337 23.4673 146.585 23.9759C146.835 24.4844 146.96 25.0795 146.96 25.7614C146.96 26.4375 146.835 27.0284 146.585 27.5341C146.337 28.0398 145.991 28.4332 145.545 28.7145C145.102 28.9957 144.585 29.1364 143.994 29.1364ZM143.994 28.233C144.442 28.233 144.812 28.1179 145.102 27.8878C145.391 27.6577 145.606 27.3551 145.745 26.9801C145.884 26.6051 145.954 26.1989 145.954 25.7614C145.954 25.3239 145.884 24.9162 145.745 24.5384C145.606 24.1605 145.391 23.8551 145.102 23.6222C144.812 23.3892 144.442 23.2727 143.994 23.2727C143.545 23.2727 143.175 23.3892 142.886 23.6222C142.596 23.8551 142.381 24.1605 142.242 24.5384C142.103 24.9162 142.033 25.3239 142.033 25.7614C142.033 26.1989 142.103 26.6051 142.242 26.9801C142.381 27.3551 142.596 27.6577 142.886 27.8878C143.175 28.1179 143.545 28.233 143.994 28.233ZM150.502 25.3182C150.502 26.392 150.361 27.3807 150.08 28.2841C149.801 29.1847 149.402 30.0142 148.882 30.7727H147.996C148.201 30.4915 148.391 30.1449 148.567 29.733C148.746 29.3239 148.902 28.875 149.036 28.3864C149.169 27.8949 149.273 27.3878 149.347 26.8651C149.424 26.3395 149.462 25.8239 149.462 25.3182C149.462 24.642 149.397 23.956 149.266 23.2599C149.135 22.5639 148.959 21.9176 148.738 21.321C148.516 20.7244 148.269 20.2386 147.996 19.8636H148.882C149.402 20.6222 149.801 21.4531 150.08 22.3565C150.361 23.2571 150.502 24.2443 150.502 25.3182ZM153.435 29.0682C153.224 29.0682 153.044 28.9929 152.893 28.8423C152.743 28.6918 152.668 28.5114 152.668 28.3011C152.668 28.0909 152.743 27.9105 152.893 27.7599C153.044 27.6094 153.224 27.5341 153.435 27.5341C153.645 27.5341 153.825 27.6094 153.976 27.7599C154.126 27.9105 154.202 28.0909 154.202 28.3011C154.202 28.4403 154.166 28.5682 154.095 28.6847C154.027 28.8011 153.935 28.8949 153.818 28.9659C153.705 29.0341 153.577 29.0682 153.435 29.0682ZM153.435 24.2102C153.224 24.2102 153.044 24.1349 152.893 23.9844C152.743 23.8338 152.668 23.6534 152.668 23.4432C152.668 23.233 152.743 23.0526 152.893 22.902C153.044 22.7514 153.224 22.6761 153.435 22.6761C153.645 22.6761 153.825 22.7514 153.976 22.902C154.126 23.0526 154.202 23.233 154.202 23.4432C154.202 23.5824 154.166 23.7102 154.095 23.8267C154.027 23.9432 153.935 24.0369 153.818 24.108C153.705 24.1761 153.577 24.2102 153.435 24.2102ZM162.16 29.1193C161.575 29.1193 161.058 29.0156 160.609 28.8082C160.163 28.598 159.815 28.3097 159.565 27.9432C159.315 27.5739 159.191 27.1534 159.194 26.6818C159.191 26.3125 159.263 25.9716 159.411 25.6591C159.559 25.3437 159.761 25.081 160.016 24.8707C160.275 24.6577 160.563 24.5227 160.881 24.4659V24.4148C160.464 24.3068 160.131 24.0724 159.884 23.7116C159.637 23.348 159.515 22.9347 159.518 22.4716C159.515 22.0284 159.627 21.6321 159.854 21.2827C160.082 20.9332 160.394 20.6577 160.792 20.456C161.192 20.2543 161.648 20.1534 162.16 20.1534C162.665 20.1534 163.117 20.2543 163.515 20.456C163.913 20.6577 164.225 20.9332 164.452 21.2827C164.683 21.6321 164.799 22.0284 164.802 22.4716C164.799 22.9347 164.673 23.348 164.423 23.7116C164.175 24.0724 163.847 24.3068 163.438 24.4148V24.4659C163.754 24.5227 164.038 24.6577 164.29 24.8707C164.543 25.081 164.745 25.3437 164.896 25.6591C165.046 25.9716 165.123 26.3125 165.126 26.6818C165.123 27.1534 164.995 27.5739 164.742 27.9432C164.492 28.3097 164.144 28.598 163.698 28.8082C163.255 29.0156 162.742 29.1193 162.16 29.1193ZM162.16 28.1818C162.555 28.1818 162.896 28.1179 163.183 27.9901C163.469 27.8622 163.691 27.6818 163.847 27.4489C164.004 27.2159 164.083 26.9432 164.086 26.6307C164.083 26.3011 163.998 26.0099 163.83 25.7571C163.663 25.5043 163.434 25.3054 163.144 25.1605C162.857 25.0156 162.529 24.9432 162.16 24.9432C161.788 24.9432 161.455 25.0156 161.163 25.1605C160.873 25.3054 160.644 25.5043 160.477 25.7571C160.312 26.0099 160.231 26.3011 160.234 26.6307C160.231 26.9432 160.306 27.2159 160.46 27.4489C160.616 27.6818 160.839 27.8622 161.129 27.9901C161.418 28.1179 161.762 28.1818 162.16 28.1818ZM162.16 24.0398C162.472 24.0398 162.749 23.9773 162.991 23.8523C163.235 23.7273 163.427 23.5526 163.566 23.3281C163.705 23.1037 163.776 22.8409 163.779 22.5398C163.776 22.2443 163.707 21.9872 163.57 21.7685C163.434 21.5469 163.245 21.3764 163.004 21.2571C162.762 21.1349 162.481 21.0739 162.16 21.0739C161.833 21.0739 161.548 21.1349 161.303 21.2571C161.059 21.3764 160.87 21.5469 160.737 21.7685C160.603 21.9872 160.538 22.2443 160.54 22.5398C160.538 22.8409 160.604 23.1037 160.741 23.3281C160.88 23.5526 161.072 23.7273 161.316 23.8523C161.56 23.9773 161.842 24.0398 162.16 24.0398ZM167.239 29.0682C167.029 29.0682 166.849 28.9929 166.698 28.8423C166.548 28.6918 166.472 28.5114 166.472 28.3011C166.472 28.0909 166.548 27.9105 166.698 27.7599C166.849 27.6094 167.029 27.5341 167.239 27.5341C167.45 27.5341 167.63 27.6094 167.781 27.7599C167.931 27.9105 168.006 28.0909 168.006 28.3011C168.006 28.4403 167.971 28.5682 167.9 28.6847C167.832 28.8011 167.739 28.8949 167.623 28.9659C167.509 29.0341 167.381 29.0682 167.239 29.0682ZM169.794 29V28.233L172.675 25.0795C173.013 24.7102 173.291 24.3892 173.51 24.1165C173.729 23.8409 173.891 23.5824 173.996 23.3409C174.104 23.0966 174.158 22.8409 174.158 22.5739C174.158 22.267 174.084 22.0014 173.936 21.777C173.791 21.5526 173.592 21.3793 173.339 21.2571C173.087 21.1349 172.803 21.0739 172.487 21.0739C172.152 21.0739 171.859 21.1435 171.609 21.2827C171.362 21.419 171.17 21.6108 171.034 21.858C170.901 22.1051 170.834 22.3949 170.834 22.7273H169.828C169.828 22.2159 169.946 21.767 170.182 21.3807C170.418 20.9943 170.739 20.6932 171.145 20.4773C171.554 20.2614 172.013 20.1534 172.521 20.1534C173.033 20.1534 173.486 20.2614 173.881 20.4773C174.276 20.6932 174.585 20.9844 174.81 21.3509C175.034 21.7173 175.146 22.125 175.146 22.5739C175.146 22.8949 175.088 23.2088 174.972 23.5156C174.858 23.8196 174.659 24.1591 174.375 24.5341C174.094 24.9062 173.703 25.3608 173.203 25.8977L171.243 27.9943V28.0625H175.3V29H169.794ZM180.009 29.1193C179.446 29.1193 178.945 29.0227 178.504 28.8295C178.067 28.6364 177.719 28.3679 177.46 28.0241C177.205 27.6776 177.065 27.2756 177.043 26.8182H178.116C178.139 27.0994 178.236 27.3423 178.406 27.5469C178.577 27.7486 178.8 27.9048 179.075 28.0156C179.351 28.1264 179.656 28.1818 179.991 28.1818C180.366 28.1818 180.699 28.1165 180.989 27.9858C181.278 27.8551 181.506 27.6733 181.67 27.4403C181.835 27.2074 181.918 26.9375 181.918 26.6307C181.918 26.3097 181.838 26.027 181.679 25.7827C181.52 25.5355 181.287 25.3423 180.98 25.2031C180.673 25.0639 180.298 24.9943 179.855 24.9943H179.156V24.0568H179.855C180.202 24.0568 180.506 23.9943 180.767 23.8693C181.031 23.7443 181.237 23.5682 181.385 23.3409C181.536 23.1136 181.611 22.8466 181.611 22.5398C181.611 22.2443 181.545 21.9872 181.415 21.7685C181.284 21.5497 181.099 21.3793 180.861 21.2571C180.625 21.1349 180.347 21.0739 180.026 21.0739C179.724 21.0739 179.44 21.1293 179.173 21.2401C178.909 21.348 178.693 21.5057 178.526 21.7131C178.358 21.9176 178.267 22.1648 178.253 22.4545H177.23C177.247 21.9972 177.385 21.5966 177.643 21.2528C177.902 20.9062 178.24 20.6364 178.658 20.4432C179.078 20.25 179.54 20.1534 180.043 20.1534C180.582 20.1534 181.045 20.2628 181.432 20.4815C181.818 20.6974 182.115 20.983 182.322 21.3381C182.53 21.6932 182.634 22.0767 182.634 22.4886C182.634 22.9801 182.504 23.3991 182.246 23.7457C181.99 24.0923 181.642 24.3324 181.202 24.4659V24.5341C181.753 24.625 182.183 24.8594 182.493 25.2372C182.803 25.6122 182.957 26.0767 182.957 26.6307C182.957 27.1051 182.828 27.5312 182.57 27.9091C182.314 28.2841 181.964 28.5795 181.521 28.7955C181.078 29.0114 180.574 29.1193 180.009 29.1193ZM188.161 25.5057C188.152 25.0341 188.229 24.6548 188.391 24.3679C188.553 24.081 188.763 23.8722 189.021 23.7415C189.283 23.6108 189.558 23.5455 189.848 23.5455C190.138 23.5455 190.402 23.6094 190.641 23.7372C190.882 23.8622 191.158 24.0597 191.467 24.3295C191.678 24.5114 191.845 24.6392 191.97 24.7131C192.098 24.7869 192.237 24.8239 192.388 24.8239C192.632 24.8239 192.825 24.7358 192.967 24.5597C193.109 24.3807 193.178 24.1222 193.172 23.7841H194.092C194.101 24.2557 194.024 24.6349 193.862 24.9219C193.703 25.2088 193.493 25.4176 193.232 25.5483C192.97 25.679 192.695 25.7443 192.405 25.7443C192.115 25.7443 191.851 25.6818 191.612 25.5568C191.374 25.429 191.098 25.2301 190.786 24.9602C190.578 24.7784 190.411 24.6506 190.283 24.5767C190.155 24.5028 190.016 24.4659 189.865 24.4659C189.635 24.4659 189.445 24.5469 189.294 24.7088C189.146 24.8679 189.075 25.1335 189.081 25.5057H188.161ZM202.139 20.1534C202.497 20.1562 202.855 20.2244 203.213 20.358C203.571 20.4915 203.897 20.7131 204.193 21.0227C204.488 21.3295 204.725 21.7486 204.904 22.2798C205.083 22.8111 205.173 23.4773 205.173 24.2784C205.173 25.054 205.099 25.7429 204.951 26.3452C204.806 26.9446 204.596 27.4503 204.321 27.8622C204.048 28.2741 203.716 28.5866 203.324 28.7997C202.934 29.0128 202.494 29.1193 202.002 29.1193C201.514 29.1193 201.078 29.0227 200.694 28.8295C200.314 28.6335 200.001 28.3622 199.757 28.0156C199.515 27.6662 199.36 27.2614 199.292 26.8011H200.332C200.426 27.2017 200.612 27.5327 200.89 27.794C201.172 28.0526 201.542 28.1818 202.002 28.1818C202.676 28.1818 203.207 27.8878 203.596 27.2997C203.988 26.7116 204.184 25.8807 204.184 24.8068H204.116C203.957 25.0455 203.768 25.2514 203.549 25.4247C203.331 25.598 203.088 25.7315 202.821 25.8253C202.554 25.919 202.27 25.9659 201.968 25.9659C201.468 25.9659 201.01 25.8423 200.592 25.5952C200.177 25.3452 199.845 25.0028 199.595 24.5682C199.348 24.1307 199.224 23.6307 199.224 23.0682C199.224 22.5341 199.343 22.0455 199.582 21.6023C199.824 21.1562 200.162 20.8011 200.596 20.5369C201.034 20.2727 201.548 20.1449 202.139 20.1534ZM202.139 21.0909C201.781 21.0909 201.458 21.1804 201.172 21.3594C200.887 21.5355 200.662 21.7741 200.494 22.0753C200.329 22.3736 200.247 22.7045 200.247 23.0682C200.247 23.4318 200.326 23.7628 200.485 24.0611C200.647 24.3565 200.868 24.5923 201.146 24.7685C201.427 24.9418 201.747 25.0284 202.105 25.0284C202.375 25.0284 202.626 24.9759 202.859 24.8707C203.092 24.7628 203.295 24.6165 203.468 24.4318C203.645 24.2443 203.782 24.0327 203.882 23.7969C203.981 23.5582 204.031 23.3097 204.031 23.0511C204.031 22.7102 203.949 22.3906 203.784 22.0923C203.622 21.794 203.397 21.5526 203.11 21.3679C202.826 21.1832 202.502 21.0909 202.139 21.0909ZM207.294 29.0682C207.084 29.0682 206.903 28.9929 206.753 28.8423C206.602 28.6918 206.527 28.5114 206.527 28.3011C206.527 28.0909 206.602 27.9105 206.753 27.7599C206.903 27.6094 207.084 27.5341 207.294 27.5341C207.504 27.5341 207.685 27.6094 207.835 27.7599C207.986 27.9105 208.061 28.0909 208.061 28.3011C208.061 28.4403 208.026 28.5682 207.955 28.6847C207.886 28.8011 207.794 28.8949 207.678 28.9659C207.564 29.0341 207.436 29.0682 207.294 29.0682ZM209.849 29V28.233L212.729 25.0795C213.067 24.7102 213.346 24.3892 213.565 24.1165C213.783 23.8409 213.945 23.5824 214.05 23.3409C214.158 23.0966 214.212 22.8409 214.212 22.5739C214.212 22.267 214.138 22.0014 213.991 21.777C213.846 21.5526 213.647 21.3793 213.394 21.2571C213.141 21.1349 212.857 21.0739 212.542 21.0739C212.207 21.0739 211.914 21.1435 211.664 21.2827C211.417 21.419 211.225 21.6108 211.089 21.858C210.955 22.1051 210.888 22.3949 210.888 22.7273H209.883C209.883 22.2159 210.001 21.767 210.237 21.3807C210.472 20.9943 210.793 20.6932 211.2 20.4773C211.609 20.2614 212.067 20.1534 212.576 20.1534C213.087 20.1534 213.54 20.2614 213.935 20.4773C214.33 20.6932 214.64 20.9844 214.864 21.3509C215.089 21.7173 215.201 22.125 215.201 22.5739C215.201 22.8949 215.143 23.2088 215.026 23.5156C214.913 23.8196 214.714 24.1591 214.43 24.5341C214.148 24.9062 213.758 25.3608 213.258 25.8977L211.298 27.9943V28.0625H215.354V29H209.849ZM217.114 29V28.233L219.995 25.0795C220.333 24.7102 220.612 24.3892 220.83 24.1165C221.049 23.8409 221.211 23.5824 221.316 23.3409C221.424 23.0966 221.478 22.8409 221.478 22.5739C221.478 22.267 221.404 22.0014 221.256 21.777C221.112 21.5526 220.913 21.3793 220.66 21.2571C220.407 21.1349 220.123 21.0739 219.808 21.0739C219.472 21.0739 219.18 21.1435 218.93 21.2827C218.683 21.419 218.491 21.6108 218.354 21.858C218.221 22.1051 218.154 22.3949 218.154 22.7273H217.148C217.148 22.2159 217.266 21.767 217.502 21.3807C217.738 20.9943 218.059 20.6932 218.465 20.4773C218.874 20.2614 219.333 20.1534 219.842 20.1534C220.353 20.1534 220.806 20.2614 221.201 20.4773C221.596 20.6932 221.906 20.9844 222.13 21.3509C222.354 21.7173 222.467 22.125 222.467 22.5739C222.467 22.8949 222.408 23.2088 222.292 23.5156C222.178 23.8196 221.979 24.1591 221.695 24.5341C221.414 24.9062 221.023 25.3608 220.523 25.8977L218.563 27.9943V28.0625H222.62V29H217.114ZM225.897 27.8068L225.829 28.267C225.781 28.5909 225.707 28.9375 225.607 29.3068C225.511 29.6761 225.41 30.0241 225.305 30.3509C225.2 30.6776 225.113 30.9375 225.045 31.1307H224.278C224.315 30.9489 224.363 30.7088 224.423 30.4105C224.482 30.1122 224.542 29.7784 224.602 29.4091C224.664 29.0426 224.715 28.6676 224.755 28.2841L224.806 27.8068H225.897ZM235.159 20.156H236.023V20.612C236.023 22.556 233.959 23.984 231.775 24.356L231.391 23.564C233.299 23.288 235.159 22.04 235.159 20.612V20.156ZM235.411 20.156H236.263V20.612C236.263 22.04 238.135 23.288 240.031 23.564L239.659 24.356C237.463 23.984 235.411 22.556 235.411 20.612V20.156ZM235.195 25.796H236.179V29.936H235.195V25.796ZM230.815 25.268H240.619V26.084H230.815V25.268ZM231.727 19.76H239.671V20.564H231.727V19.76ZM244.254 24.668H245.238V27.92H244.254V24.668ZM248.262 24.668H249.258V27.92H248.262V24.668ZM241.854 27.728H251.682V28.556H241.854V27.728ZM246.75 19.772C249.042 19.772 250.686 20.864 250.686 22.568C250.686 24.26 249.042 25.352 246.75 25.352C244.446 25.352 242.802 24.26 242.802 22.568C242.802 20.864 244.446 19.772 246.75 19.772ZM246.75 20.564C245.01 20.564 243.762 21.356 243.762 22.568C243.762 23.768 245.01 24.56 246.75 24.56C248.49 24.56 249.726 23.768 249.726 22.568C249.726 21.356 248.49 20.564 246.75 20.564ZM261.38 20.624H264.44V21.404H261.38V20.624ZM261.38 22.604H264.44V23.384H261.38V22.604ZM264.188 19.088H265.184V24.74H264.188V19.088ZM258.2 25.28H265.184V27.848H259.196V29.516H258.224V27.104H264.2V26.072H258.2V25.28ZM258.224 29H265.58V29.792H258.224V29ZM256.796 19.58H257.78V21.14H260.72V19.58H261.692V24.32H256.796V19.58ZM257.78 21.92V23.516H260.72V21.92H257.78ZM268.36 29.0682C268.15 29.0682 267.97 28.9929 267.819 28.8423C267.669 28.6918 267.593 28.5114 267.593 28.3011C267.593 28.0909 267.669 27.9105 267.819 27.7599C267.97 27.6094 268.15 27.5341 268.36 27.5341C268.571 27.5341 268.751 27.6094 268.902 27.7599C269.052 27.9105 269.127 28.0909 269.127 28.3011C269.127 28.4403 269.092 28.5682 269.021 28.6847C268.953 28.8011 268.86 28.8949 268.744 28.9659C268.63 29.0341 268.502 29.0682 268.36 29.0682ZM268.36 24.2102C268.15 24.2102 267.97 24.1349 267.819 23.9844C267.669 23.8338 267.593 23.6534 267.593 23.4432C267.593 23.233 267.669 23.0526 267.819 22.902C267.97 22.7514 268.15 22.6761 268.36 22.6761C268.571 22.6761 268.751 22.7514 268.902 22.902C269.052 23.0526 269.127 23.233 269.127 23.4432C269.127 23.5824 269.092 23.7102 269.021 23.8267C268.953 23.9432 268.86 24.0369 268.744 24.108C268.63 24.1761 268.502 24.2102 268.36 24.2102ZM278.331 19.832H279.195V20.66C279.195 23.024 276.999 24.86 274.827 25.352L274.383 24.524C276.291 24.164 278.331 22.508 278.331 20.66V19.832ZM278.511 19.832H279.375V20.66C279.375 22.52 281.427 24.164 283.323 24.524L282.879 25.352C280.719 24.86 278.511 23.036 278.511 20.66V19.832ZM273.987 27.656H283.815V28.472H273.987V27.656ZM285.158 20.252H291.194V21.068H285.158V20.252ZM285.002 27.26L284.882 26.408C286.838 26.408 289.466 26.384 291.698 26.108L291.758 26.852C289.49 27.224 286.91 27.26 285.002 27.26ZM286.322 20.864H287.294V26.636H286.322V20.864ZM289.058 20.864H290.03V26.636H289.058V20.864ZM292.358 19.088H293.366V29.936H292.358V19.088ZM293.126 23.42H295.142V24.26H293.126V23.42ZM303.937 19.076H304.933V29.948H303.937V19.076ZM299.209 19.916C300.817 19.916 301.969 21.392 301.969 23.696C301.969 26.012 300.817 27.488 299.209 27.488C297.613 27.488 296.461 26.012 296.461 23.696C296.461 21.392 297.613 19.916 299.209 19.916ZM299.209 20.816C298.153 20.816 297.409 21.944 297.409 23.696C297.409 25.46 298.153 26.612 299.209 26.612C300.277 26.612 301.009 25.46 301.009 23.696C301.009 21.944 300.277 20.816 299.209 20.816ZM311.712 20.216H312.684C312.684 23.348 311.628 26.228 307.74 28.16L307.2 27.392C310.632 25.7 311.712 23.276 311.712 20.324V20.216ZM307.788 20.216H312.3V21.02H307.788V20.216ZM311.556 22.904V23.672L307.404 24.08L307.248 23.192L311.556 22.904ZM314.436 19.076H315.444V29.936H314.436V19.076ZM315.168 23.48H317.172V24.308H315.168V23.48Z" fill="white"/>
</svg>
