<svg width="399" height="50" viewBox="0 0 399 50" fill="none" xmlns="http://www.w3.org/2000/svg">
<rect x="5" y="5" width="389" height="40" rx="2" fill="#343251" stroke="#EBD2FF" stroke-width="2"/>
<rect x="0.5" y="0.5" width="398" height="49" rx="6.5" stroke="#EBD2FF"/>
<path d="M66.3 21.128H67.116V21.668C67.116 23.624 65.928 25.232 64.116 25.868L63.624 25.088C65.232 24.536 66.3 23.192 66.3 21.668V21.128ZM66.468 21.128H67.296V21.668C67.296 23.108 68.4 24.38 70.008 24.884L69.516 25.676C67.704 25.076 66.468 23.54 66.468 21.668V21.128ZM63.9 20.54H69.684V21.344H63.9V20.54ZM66.3 19.16H67.296V20.84H66.3V19.16ZM69.324 22.424H72.06V23.252H69.324V22.424ZM71.52 19.1H72.516V27.188H71.52V19.1ZM65.592 28.88H72.816V29.696H65.592V28.88ZM65.592 26.468H66.588V29.324H65.592V26.468ZM77.5791 20.876H78.3951V21.344C78.3951 23.252 77.1591 24.836 75.3231 25.436L74.8431 24.668C76.4631 24.14 77.5791 22.82 77.5791 21.344V20.876ZM77.7471 20.876H78.5631V21.344C78.5631 22.712 79.7151 23.936 81.3231 24.392L80.8671 25.184C79.0191 24.632 77.7471 23.156 77.7471 21.344V20.876ZM75.1071 20.42H81.0111V21.224H75.1071V20.42ZM77.5791 19.088H78.5631V20.768H77.5791V19.088ZM82.5231 19.1H83.5311V25.736H82.5231V19.1ZM79.9191 25.964C82.1871 25.964 83.5671 26.684 83.5671 27.932C83.5671 29.192 82.1871 29.912 79.9191 29.912C77.6511 29.912 76.2831 29.192 76.2831 27.932C76.2831 26.684 77.6511 25.964 79.9191 25.964ZM79.9191 26.756C78.2751 26.756 77.2791 27.188 77.2791 27.932C77.2791 28.7 78.2751 29.132 79.9191 29.132C81.5751 29.132 82.5711 28.7 82.5711 27.932C82.5711 27.188 81.5751 26.756 79.9191 26.756ZM88.3541 20.636H89.1461V22.4C89.1461 24.656 87.7661 26.984 86.0741 27.848L85.4981 27.056C87.0461 26.3 88.3541 24.236 88.3541 22.4V20.636ZM88.5341 20.636H89.3261V22.4C89.3261 24.116 90.5501 26.048 92.1221 26.792L91.5581 27.584C89.8421 26.732 88.5341 24.548 88.5341 22.4V20.636ZM85.8821 20.192H91.7261V21.032H85.8821V20.192ZM93.0101 19.088H94.0181V29.936H93.0101V19.088ZM93.7781 23.468H95.7941V24.308H93.7781V23.468ZM104.613 19.076H105.609V29.948H104.613V19.076ZM97.3412 26.504H98.2412C100.053 26.504 101.673 26.432 103.593 26.12L103.701 26.936C101.733 27.26 100.101 27.332 98.2412 27.332H97.3412V26.504ZM97.3172 20.096H102.333V23.972H98.3372V26.816H97.3412V23.156H101.325V20.912H97.3172V20.096ZM111.81 24.6364C111.81 23.5625 111.949 22.5753 112.227 21.6747C112.509 20.7713 112.909 19.9403 113.429 19.1818H114.315C114.111 19.4631 113.919 19.8097 113.74 20.2216C113.564 20.6307 113.409 21.081 113.276 21.5724C113.142 22.0611 113.037 22.5668 112.96 23.0895C112.886 23.6122 112.849 24.1278 112.849 24.6364C112.849 25.3125 112.915 25.9986 113.045 26.6946C113.176 27.3906 113.352 28.0369 113.574 28.6335C113.795 29.2301 114.043 29.7159 114.315 30.0909H113.429C112.909 29.3324 112.509 28.5028 112.227 27.6023C111.949 26.6989 111.81 25.7102 111.81 24.6364ZM115.936 29V20.2727H116.993V28.0625H121.049V29H115.936ZM122.549 29V22.4545H123.555V29H122.549ZM123.061 21.3636C122.865 21.3636 122.696 21.2969 122.554 21.1634C122.414 21.0298 122.345 20.8693 122.345 20.6818C122.345 20.4943 122.414 20.3338 122.554 20.2003C122.696 20.0668 122.865 20 123.061 20C123.257 20 123.424 20.0668 123.564 20.2003C123.706 20.3338 123.777 20.4943 123.777 20.6818C123.777 20.8693 123.706 21.0298 123.564 21.1634C123.424 21.2969 123.257 21.3636 123.061 21.3636ZM125.533 29V20.2727H126.539V23.4943H126.624C126.698 23.3807 126.8 23.2358 126.931 23.0597C127.065 22.8807 127.255 22.7216 127.502 22.5824C127.752 22.4403 128.09 22.3693 128.516 22.3693C129.067 22.3693 129.553 22.5071 129.974 22.7827C130.394 23.0582 130.722 23.4489 130.958 23.9545C131.194 24.4602 131.312 25.0568 131.312 25.7443C131.312 26.4375 131.194 27.0384 130.958 27.5469C130.722 28.0526 130.396 28.4446 129.978 28.723C129.56 28.9986 129.079 29.1364 128.533 29.1364C128.113 29.1364 127.776 29.0668 127.523 28.9276C127.271 28.7855 127.076 28.625 126.94 28.446C126.803 28.2642 126.698 28.1136 126.624 27.9943H126.505V29H125.533ZM126.522 25.7273C126.522 26.2216 126.594 26.6577 126.739 27.0355C126.884 27.4105 127.096 27.7045 127.374 27.9176C127.653 28.1278 127.994 28.233 128.397 28.233C128.817 28.233 129.168 28.1222 129.45 27.9006C129.734 27.6761 129.947 27.375 130.089 26.9972C130.234 26.6165 130.306 26.1932 130.306 25.7273C130.306 25.267 130.235 24.8523 130.093 24.483C129.954 24.1108 129.742 23.8168 129.458 23.6009C129.177 23.3821 128.823 23.2727 128.397 23.2727C127.988 23.2727 127.644 23.3764 127.366 23.5838C127.087 23.7884 126.877 24.0753 126.735 24.4446C126.593 24.8111 126.522 25.2386 126.522 25.7273ZM132.85 29V22.4545H133.822V23.4432H133.89C134.009 23.1193 134.225 22.8565 134.538 22.6548C134.85 22.4531 135.202 22.3523 135.594 22.3523C135.668 22.3523 135.761 22.3537 135.871 22.3565C135.982 22.3594 136.066 22.3636 136.123 22.3693V23.392C136.089 23.3835 136.011 23.3707 135.888 23.3537C135.769 23.3338 135.643 23.3239 135.509 23.3239C135.191 23.3239 134.907 23.3906 134.657 23.5241C134.41 23.6548 134.214 23.8366 134.069 24.0696C133.927 24.2997 133.856 24.5625 133.856 24.858V29H132.85ZM139.241 29.1534C138.826 29.1534 138.45 29.0753 138.112 28.919C137.774 28.7599 137.505 28.5312 137.306 28.233C137.108 27.9318 137.008 27.5682 137.008 27.142C137.008 26.767 137.082 26.4631 137.23 26.2301C137.377 25.9943 137.575 25.8097 137.822 25.6761C138.069 25.5426 138.342 25.4432 138.64 25.3778C138.941 25.3097 139.244 25.2557 139.548 25.2159C139.946 25.1648 140.268 25.1264 140.515 25.1009C140.765 25.0724 140.947 25.0256 141.061 24.9602C141.177 24.8949 141.235 24.7812 141.235 24.6193V24.5852C141.235 24.1648 141.12 23.8381 140.89 23.6051C140.663 23.3722 140.318 23.2557 139.855 23.2557C139.375 23.2557 138.998 23.3608 138.725 23.571C138.453 23.7812 138.261 24.0057 138.15 24.2443L137.196 23.9034C137.366 23.5057 137.593 23.196 137.877 22.9744C138.164 22.75 138.477 22.5937 138.815 22.5057C139.156 22.4148 139.491 22.3693 139.821 22.3693C140.031 22.3693 140.272 22.3949 140.545 22.446C140.821 22.4943 141.086 22.5952 141.342 22.7486C141.6 22.902 141.815 23.1335 141.985 23.4432C142.156 23.7528 142.241 24.1676 142.241 24.6875V29H141.235V28.1136H141.184C141.116 28.2557 141.002 28.4077 140.843 28.5696C140.684 28.7315 140.473 28.8693 140.208 28.983C139.944 29.0966 139.622 29.1534 139.241 29.1534ZM139.395 28.25C139.792 28.25 140.127 28.1719 140.4 28.0156C140.676 27.8594 140.883 27.6577 141.022 27.4105C141.164 27.1634 141.235 26.9034 141.235 26.6307V25.7102C141.193 25.7614 141.099 25.8082 140.954 25.8509C140.812 25.8906 140.647 25.9261 140.46 25.9574C140.275 25.9858 140.095 26.0114 139.919 26.0341C139.745 26.054 139.605 26.071 139.497 26.0852C139.235 26.1193 138.991 26.1747 138.764 26.2514C138.539 26.3253 138.358 26.4375 138.218 26.5881C138.082 26.7358 138.014 26.9375 138.014 27.1932C138.014 27.5426 138.143 27.8068 138.402 27.9858C138.663 28.1619 138.994 28.25 139.395 28.25ZM146.224 25.3182C146.224 26.392 146.084 27.3807 145.803 28.2841C145.524 29.1847 145.125 30.0142 144.605 30.7727H143.719C143.923 30.4915 144.114 30.1449 144.29 29.733C144.469 29.3239 144.625 28.875 144.759 28.3864C144.892 27.8949 144.996 27.3878 145.07 26.8651C145.146 26.3395 145.185 25.8239 145.185 25.3182C145.185 24.642 145.119 23.956 144.989 23.2599C144.858 22.5639 144.682 21.9176 144.46 21.321C144.239 20.7244 143.991 20.2386 143.719 19.8636H144.605C145.125 20.6222 145.524 21.4531 145.803 22.3565C146.084 23.2571 146.224 24.2443 146.224 25.3182ZM149.157 29.0682C148.947 29.0682 148.767 28.9929 148.616 28.8423C148.466 28.6918 148.39 28.5114 148.39 28.3011C148.39 28.0909 148.466 27.9105 148.616 27.7599C148.767 27.6094 148.947 27.5341 149.157 27.5341C149.368 27.5341 149.548 27.6094 149.699 27.7599C149.849 27.9105 149.924 28.0909 149.924 28.3011C149.924 28.4403 149.889 28.5682 149.818 28.6847C149.75 28.8011 149.657 28.8949 149.541 28.9659C149.427 29.0341 149.299 29.0682 149.157 29.0682ZM149.157 24.2102C148.947 24.2102 148.767 24.1349 148.616 23.9844C148.466 23.8338 148.39 23.6534 148.39 23.4432C148.39 23.233 148.466 23.0526 148.616 22.902C148.767 22.7514 148.947 22.6761 149.157 22.6761C149.368 22.6761 149.548 22.7514 149.699 22.902C149.849 23.0526 149.924 23.233 149.924 23.4432C149.924 23.5824 149.889 23.7102 149.818 23.8267C149.75 23.9432 149.657 24.0369 149.541 24.108C149.427 24.1761 149.299 24.2102 149.157 24.2102ZM157.865 20.1534C158.223 20.1562 158.581 20.2244 158.939 20.358C159.297 20.4915 159.624 20.7131 159.919 21.0227C160.215 21.3295 160.452 21.7486 160.631 22.2798C160.81 22.8111 160.9 23.4773 160.9 24.2784C160.9 25.054 160.826 25.7429 160.678 26.3452C160.533 26.9446 160.323 27.4503 160.047 27.8622C159.775 28.2741 159.442 28.5866 159.05 28.7997C158.661 29.0128 158.221 29.1193 157.729 29.1193C157.24 29.1193 156.804 29.0227 156.421 28.8295C156.04 28.6335 155.728 28.3622 155.483 28.0156C155.242 27.6662 155.087 27.2614 155.019 26.8011H156.059C156.152 27.2017 156.338 27.5327 156.617 27.794C156.898 28.0526 157.269 28.1818 157.729 28.1818C158.402 28.1818 158.934 27.8878 159.323 27.2997C159.715 26.7116 159.911 25.8807 159.911 24.8068H159.843C159.684 25.0455 159.495 25.2514 159.276 25.4247C159.057 25.598 158.814 25.7315 158.547 25.8253C158.28 25.919 157.996 25.9659 157.695 25.9659C157.195 25.9659 156.736 25.8423 156.319 25.5952C155.904 25.3452 155.571 25.0028 155.321 24.5682C155.074 24.1307 154.951 23.6307 154.951 23.0682C154.951 22.5341 155.07 22.0455 155.309 21.6023C155.55 21.1562 155.888 20.8011 156.323 20.5369C156.76 20.2727 157.275 20.1449 157.865 20.1534ZM157.865 21.0909C157.507 21.0909 157.185 21.1804 156.898 21.3594C156.614 21.5355 156.388 21.7741 156.221 22.0753C156.056 22.3736 155.973 22.7045 155.973 23.0682C155.973 23.4318 156.053 23.7628 156.212 24.0611C156.374 24.3565 156.594 24.5923 156.873 24.7685C157.154 24.9418 157.473 25.0284 157.831 25.0284C158.101 25.0284 158.353 24.9759 158.586 24.8707C158.819 24.7628 159.022 24.6165 159.195 24.4318C159.371 24.2443 159.509 24.0327 159.608 23.7969C159.708 23.5582 159.757 23.3097 159.757 23.0511C159.757 22.7102 159.675 22.3906 159.51 22.0923C159.348 21.794 159.124 21.5526 158.837 21.3679C158.553 21.1832 158.229 21.0909 157.865 21.0909ZM163.021 29.0682C162.81 29.0682 162.63 28.9929 162.479 28.8423C162.329 28.6918 162.254 28.5114 162.254 28.3011C162.254 28.0909 162.329 27.9105 162.479 27.7599C162.63 27.6094 162.81 27.5341 163.021 27.5341C163.231 27.5341 163.411 27.6094 163.562 27.7599C163.712 27.9105 163.788 28.0909 163.788 28.3011C163.788 28.4403 163.752 28.5682 163.681 28.6847C163.613 28.8011 163.521 28.8949 163.404 28.9659C163.29 29.0341 163.163 29.0682 163.021 29.0682ZM165.575 29V28.233L168.456 25.0795C168.794 24.7102 169.072 24.3892 169.291 24.1165C169.51 23.8409 169.672 23.5824 169.777 23.3409C169.885 23.0966 169.939 22.8409 169.939 22.5739C169.939 22.267 169.865 22.0014 169.717 21.777C169.572 21.5526 169.374 21.3793 169.121 21.2571C168.868 21.1349 168.584 21.0739 168.268 21.0739C167.933 21.0739 167.641 21.1435 167.391 21.2827C167.143 21.419 166.952 21.6108 166.815 21.858C166.682 22.1051 166.615 22.3949 166.615 22.7273H165.609C165.609 22.2159 165.727 21.767 165.963 21.3807C166.199 20.9943 166.52 20.6932 166.926 20.4773C167.335 20.2614 167.794 20.1534 168.303 20.1534C168.814 20.1534 169.267 20.2614 169.662 20.4773C170.057 20.6932 170.366 20.9844 170.591 21.3509C170.815 21.7173 170.928 22.125 170.928 22.5739C170.928 22.8949 170.869 23.2088 170.753 23.5156C170.639 23.8196 170.44 24.1591 170.156 24.5341C169.875 24.9062 169.484 25.3608 168.984 25.8977L167.024 27.9943V28.0625H171.081V29H165.575ZM175.79 29.1193C175.227 29.1193 174.726 29.0227 174.286 28.8295C173.848 28.6364 173.5 28.3679 173.241 28.0241C172.986 27.6776 172.847 27.2756 172.824 26.8182H173.898C173.92 27.0994 174.017 27.3423 174.188 27.5469C174.358 27.7486 174.581 27.9048 174.857 28.0156C175.132 28.1264 175.438 28.1818 175.773 28.1818C176.148 28.1818 176.48 28.1165 176.77 27.9858C177.06 27.8551 177.287 27.6733 177.452 27.4403C177.616 27.2074 177.699 26.9375 177.699 26.6307C177.699 26.3097 177.619 26.027 177.46 25.7827C177.301 25.5355 177.068 25.3423 176.761 25.2031C176.455 25.0639 176.08 24.9943 175.636 24.9943H174.938V24.0568H175.636C175.983 24.0568 176.287 23.9943 176.548 23.8693C176.813 23.7443 177.018 23.5682 177.166 23.3409C177.317 23.1136 177.392 22.8466 177.392 22.5398C177.392 22.2443 177.327 21.9872 177.196 21.7685C177.065 21.5497 176.881 21.3793 176.642 21.2571C176.406 21.1349 176.128 21.0739 175.807 21.0739C175.506 21.0739 175.222 21.1293 174.955 21.2401C174.69 21.348 174.474 21.5057 174.307 21.7131C174.139 21.9176 174.048 22.1648 174.034 22.4545H173.011C173.028 21.9972 173.166 21.5966 173.425 21.2528C173.683 20.9062 174.021 20.6364 174.439 20.4432C174.859 20.25 175.321 20.1534 175.824 20.1534C176.364 20.1534 176.827 20.2628 177.213 20.4815C177.599 20.6974 177.896 20.983 178.104 21.3381C178.311 21.6932 178.415 22.0767 178.415 22.4886C178.415 22.9801 178.286 23.3991 178.027 23.7457C177.771 24.0923 177.423 24.3324 176.983 24.4659V24.5341C177.534 24.625 177.964 24.8594 178.274 25.2372C178.584 25.6122 178.739 26.0767 178.739 26.6307C178.739 27.1051 178.609 27.5312 178.351 27.9091C178.095 28.2841 177.746 28.5795 177.303 28.7955C176.859 29.0114 176.355 29.1193 175.79 29.1193ZM183.942 25.5057C183.933 25.0341 184.01 24.6548 184.172 24.3679C184.334 24.081 184.544 23.8722 184.803 23.7415C185.064 23.6108 185.339 23.5455 185.629 23.5455C185.919 23.5455 186.183 23.6094 186.422 23.7372C186.663 23.8622 186.939 24.0597 187.249 24.3295C187.459 24.5114 187.626 24.6392 187.751 24.7131C187.879 24.7869 188.018 24.8239 188.169 24.8239C188.413 24.8239 188.607 24.7358 188.749 24.5597C188.891 24.3807 188.959 24.1222 188.953 23.7841H189.874C189.882 24.2557 189.805 24.6349 189.643 24.9219C189.484 25.2088 189.274 25.4176 189.013 25.5483C188.751 25.679 188.476 25.7443 188.186 25.7443C187.896 25.7443 187.632 25.6818 187.393 25.5568C187.155 25.429 186.879 25.2301 186.567 24.9602C186.359 24.7784 186.192 24.6506 186.064 24.5767C185.936 24.5028 185.797 24.4659 185.646 24.4659C185.416 24.4659 185.226 24.5469 185.075 24.7088C184.928 24.8679 184.857 25.1335 184.862 25.5057H183.942ZM198.21 20.2727V29H197.153V21.3807H197.102L194.971 22.7955V21.7216L197.153 20.2727H198.21ZM203.566 29.1193C202.924 29.1193 202.377 28.9446 201.926 28.5952C201.474 28.2429 201.129 27.733 200.89 27.0653C200.652 26.3949 200.532 25.5852 200.532 24.6364C200.532 23.6932 200.652 22.8878 200.89 22.2202C201.132 21.5497 201.478 21.0384 201.93 20.6861C202.385 20.331 202.93 20.1534 203.566 20.1534C204.203 20.1534 204.747 20.331 205.199 20.6861C205.653 21.0384 206 21.5497 206.238 22.2202C206.48 22.8878 206.6 23.6932 206.6 24.6364C206.6 25.5852 206.481 26.3949 206.243 27.0653C206.004 27.733 205.659 28.2429 205.207 28.5952C204.755 28.9446 204.208 29.1193 203.566 29.1193ZM203.566 28.1818C204.203 28.1818 204.697 27.875 205.049 27.2614C205.402 26.6477 205.578 25.7727 205.578 24.6364C205.578 23.8807 205.497 23.2372 205.335 22.706C205.176 22.1747 204.946 21.7699 204.645 21.4915C204.346 21.2131 203.987 21.0739 203.566 21.0739C202.936 21.0739 202.443 21.3849 202.088 22.0071C201.733 22.6264 201.555 23.5028 201.555 24.6364C201.555 25.392 201.635 26.0341 201.794 26.5625C201.953 27.0909 202.181 27.4929 202.48 27.7685C202.781 28.044 203.143 28.1818 203.566 28.1818ZM208.665 29.0682C208.455 29.0682 208.275 28.9929 208.124 28.8423C207.973 28.6918 207.898 28.5114 207.898 28.3011C207.898 28.0909 207.973 27.9105 208.124 27.7599C208.275 27.6094 208.455 27.5341 208.665 27.5341C208.875 27.5341 209.056 27.6094 209.206 27.7599C209.357 27.9105 209.432 28.0909 209.432 28.3011C209.432 28.4403 209.397 28.5682 209.326 28.6847C209.257 28.8011 209.165 28.8949 209.049 28.9659C208.935 29.0341 208.807 29.0682 208.665 29.0682ZM211.22 29V28.233L214.1 25.0795C214.439 24.7102 214.717 24.3892 214.936 24.1165C215.154 23.8409 215.316 23.5824 215.422 23.3409C215.529 23.0966 215.583 22.8409 215.583 22.5739C215.583 22.267 215.51 22.0014 215.362 21.777C215.217 21.5526 215.018 21.3793 214.765 21.2571C214.512 21.1349 214.228 21.0739 213.913 21.0739C213.578 21.0739 213.285 21.1435 213.035 21.2827C212.788 21.419 212.596 21.6108 212.46 21.858C212.326 22.1051 212.26 22.3949 212.26 22.7273H211.254C211.254 22.2159 211.372 21.767 211.608 21.3807C211.843 20.9943 212.164 20.6932 212.571 20.4773C212.98 20.2614 213.439 20.1534 213.947 20.1534C214.458 20.1534 214.912 20.2614 215.306 20.4773C215.701 20.6932 216.011 20.9844 216.235 21.3509C216.46 21.7173 216.572 22.125 216.572 22.5739C216.572 22.8949 216.514 23.2088 216.397 23.5156C216.284 23.8196 216.085 24.1591 215.801 24.5341C215.52 24.9062 215.129 25.3608 214.629 25.8977L212.669 27.9943V28.0625H216.725V29H211.22ZM218.485 29V28.233L221.366 25.0795C221.704 24.7102 221.983 24.3892 222.201 24.1165C222.42 23.8409 222.582 23.5824 222.687 23.3409C222.795 23.0966 222.849 22.8409 222.849 22.5739C222.849 22.267 222.775 22.0014 222.627 21.777C222.483 21.5526 222.284 21.3793 222.031 21.2571C221.778 21.1349 221.494 21.0739 221.179 21.0739C220.843 21.0739 220.551 21.1435 220.301 21.2827C220.054 21.419 219.862 21.6108 219.725 21.858C219.592 22.1051 219.525 22.3949 219.525 22.7273H218.52C218.52 22.2159 218.637 21.767 218.873 21.3807C219.109 20.9943 219.43 20.6932 219.836 20.4773C220.245 20.2614 220.704 20.1534 221.213 20.1534C221.724 20.1534 222.177 20.2614 222.572 20.4773C222.967 20.6932 223.277 20.9844 223.501 21.3509C223.725 21.7173 223.838 22.125 223.838 22.5739C223.838 22.8949 223.779 23.2088 223.663 23.5156C223.549 23.8196 223.35 24.1591 223.066 24.5341C222.785 24.9062 222.395 25.3608 221.895 25.8977L219.934 27.9943V28.0625H223.991V29H218.485ZM227.268 27.8068L227.2 28.267C227.152 28.5909 227.078 28.9375 226.978 29.3068C226.882 29.6761 226.781 30.0241 226.676 30.3509C226.571 30.6776 226.484 30.9375 226.416 31.1307H225.649C225.686 30.9489 225.734 30.7088 225.794 30.4105C225.853 30.1122 225.913 29.7784 225.973 29.4091C226.035 29.0426 226.086 28.6676 226.126 28.2841L226.177 27.8068H227.268ZM236.53 20.156H237.394V20.612C237.394 22.556 235.33 23.984 233.146 24.356L232.762 23.564C234.67 23.288 236.53 22.04 236.53 20.612V20.156ZM236.782 20.156H237.634V20.612C237.634 22.04 239.506 23.288 241.402 23.564L241.03 24.356C238.834 23.984 236.782 22.556 236.782 20.612V20.156ZM236.566 25.796H237.55V29.936H236.566V25.796ZM232.186 25.268H241.99V26.084H232.186V25.268ZM233.098 19.76H241.042V20.564H233.098V19.76ZM245.625 24.668H246.609V27.92H245.625V24.668ZM249.633 24.668H250.629V27.92H249.633V24.668ZM243.225 27.728H253.053V28.556H243.225V27.728ZM248.121 19.772C250.413 19.772 252.057 20.864 252.057 22.568C252.057 24.26 250.413 25.352 248.121 25.352C245.817 25.352 244.173 24.26 244.173 22.568C244.173 20.864 245.817 19.772 248.121 19.772ZM248.121 20.564C246.381 20.564 245.133 21.356 245.133 22.568C245.133 23.768 246.381 24.56 248.121 24.56C249.861 24.56 251.097 23.768 251.097 22.568C251.097 21.356 249.861 20.564 248.121 20.564ZM262.751 20.624H265.811V21.404H262.751V20.624ZM262.751 22.604H265.811V23.384H262.751V22.604ZM265.559 19.088H266.555V24.74H265.559V19.088ZM259.571 25.28H266.555V27.848H260.567V29.516H259.595V27.104H265.571V26.072H259.571V25.28ZM259.595 29H266.951V29.792H259.595V29ZM258.167 19.58H259.151V21.14H262.091V19.58H263.063V24.32H258.167V19.58ZM259.151 21.92V23.516H262.091V21.92H259.151ZM269.732 29.0682C269.521 29.0682 269.341 28.9929 269.19 28.8423C269.04 28.6918 268.964 28.5114 268.964 28.3011C268.964 28.0909 269.04 27.9105 269.19 27.7599C269.341 27.6094 269.521 27.5341 269.732 27.5341C269.942 27.5341 270.122 27.6094 270.273 27.7599C270.423 27.9105 270.499 28.0909 270.499 28.3011C270.499 28.4403 270.463 28.5682 270.392 28.6847C270.324 28.8011 270.232 28.8949 270.115 28.9659C270.001 29.0341 269.874 29.0682 269.732 29.0682ZM269.732 24.2102C269.521 24.2102 269.341 24.1349 269.19 23.9844C269.04 23.8338 268.964 23.6534 268.964 23.4432C268.964 23.233 269.04 23.0526 269.19 22.902C269.341 22.7514 269.521 22.6761 269.732 22.6761C269.942 22.6761 270.122 22.7514 270.273 22.902C270.423 23.0526 270.499 23.233 270.499 23.4432C270.499 23.5824 270.463 23.7102 270.392 23.8267C270.324 23.9432 270.232 24.0369 270.115 24.108C270.001 24.1761 269.874 24.2102 269.732 24.2102ZM283.578 19.088H284.538V24.86H283.578V19.088ZM279.318 21.488H281.97V22.268H279.318V21.488ZM281.502 19.304H282.438V24.752H281.502V19.304ZM275.874 23.516H276.558C278.19 23.516 279.222 23.48 280.494 23.24L280.566 24.044C279.27 24.296 278.214 24.32 276.558 24.32H275.874V23.516ZM275.874 19.712H279.978V20.516H276.858V24.032H275.874V19.712ZM277.338 25.34H284.538V27.872H278.346V29.48H277.362V27.128H283.554V26.12H277.338V25.34ZM277.362 29H284.934V29.792H277.362V29ZM286.853 26.504H287.705C289.709 26.504 291.089 26.456 292.721 26.168L292.829 26.984C291.149 27.272 289.733 27.332 287.705 27.332H286.853V26.504ZM286.853 20.072H291.905V20.9H287.849V26.792H286.853V20.072ZM287.597 23.108H291.665V23.912H287.597V23.108ZM293.729 19.088H294.737V29.936H293.729V19.088ZM294.497 23.444H296.513V24.284H294.497V23.444ZM305.332 19.076H306.328V29.948H305.332V19.076ZM298.06 26.504H298.96C300.772 26.504 302.392 26.432 304.312 26.12L304.42 26.936C302.452 27.26 300.82 27.332 298.96 27.332H298.06V26.504ZM298.036 20.096H303.052V23.972H299.056V26.816H298.06V23.156H302.044V20.912H298.036V20.096ZM308.463 25.304H318.303V26.12H308.463V25.304ZM312.855 25.808H313.839V29.936H312.855V25.808ZM313.359 19.52C315.627 19.52 317.151 20.444 317.151 21.896C317.151 23.348 315.627 24.272 313.359 24.272C311.103 24.272 309.567 23.348 309.567 21.896C309.567 20.444 311.103 19.52 313.359 19.52ZM313.359 20.324C311.703 20.324 310.575 20.936 310.575 21.896C310.575 22.856 311.703 23.468 313.359 23.468C315.015 23.468 316.131 22.856 316.131 21.896C316.131 20.936 315.015 20.324 313.359 20.324ZM323.858 19.832H324.722V20.66C324.722 23.024 322.526 24.86 320.354 25.352L319.91 24.524C321.818 24.164 323.858 22.508 323.858 20.66V19.832ZM324.038 19.832H324.902V20.66C324.902 22.52 326.954 24.164 328.85 24.524L328.406 25.352C326.246 24.86 324.038 23.036 324.038 20.66V19.832ZM319.514 27.656H329.342V28.472H319.514V27.656Z" fill="white"/>
<path d="M17 29.612H26.8702C26.8702 29.612 19.1412 24.3915 24.1532 17.7597C27.3849 13.4835 34.9122 14.3907 37.3824 19.0065C39.3857 22.7494 37.2657 27.2034 34.2861 29.8216H43.1639" stroke="white" stroke-width="2.56812" stroke-linecap="round" stroke-linejoin="round"/>
<path d="M17 34.8326L43.1666 34.5249" stroke="white" stroke-width="2.56812" stroke-linecap="round" stroke-linejoin="round"/>
</svg>
