<svg width="399" height="50" viewBox="0 0 399 50" fill="none" xmlns="http://www.w3.org/2000/svg">
<rect x="5" y="5" width="389" height="40" rx="2" fill="#343251" stroke="#EBD2FF" stroke-width="2"/>
<rect x="0.5" y="0.5" width="398" height="49" rx="6.5" stroke="#EBD2FF"/>
<path d="M17 15.4889C17 15.4889 17.9923 13.7646 19.9239 14.0272C21.8555 14.2872 22.7443 15.5101 22.7443 16.7277C22.7443 17.9453 22.7443 31.8853 22.7443 31.8853" stroke="white" stroke-width="2.56812" stroke-linecap="round" stroke-linejoin="round"/>
<path d="M22.7444 15.2791C23.811 14.4939 25.1695 13.7883 26.52 14.2233C27.6078 14.5735 28.5816 15.5258 28.6983 16.7248C28.9079 18.8815 28.6983 31.8825 28.6983 31.8825" stroke="white" stroke-width="2.56812" stroke-linecap="round" stroke-linejoin="round"/>
<path d="M29.0061 15.4783C30.4123 13.9398 32.8374 13.3376 34.2967 15.2661C35.1723 16.4227 34.9123 18.0356 34.9123 19.3858C34.9123 21.5955 34.9123 23.8079 34.9123 26.0176C34.9123 28.0628 34.9123 30.1081 34.9123 32.1533C34.9123 32.1533 34.8592 35.0156 37.9927 35.1191C41.1262 35.2225 43.8432 32.9253 43.5275 26.7126L40.1339 28.6438" stroke="white" stroke-width="2.56812" stroke-linecap="round" stroke-linejoin="round"/>
<path d="M69.348 22.076H72.084V22.892H69.348V22.076ZM71.52 19.1H72.516V27.044H71.52V19.1ZM65.592 28.88H72.816V29.696H65.592V28.88ZM65.592 26.348H66.588V29.3H65.592V26.348ZM66.36 20.444H67.176V21.32C67.176 23.288 65.952 24.992 64.14 25.664L63.624 24.872C65.244 24.296 66.36 22.856 66.36 21.32V20.444ZM66.552 20.444H67.356V21.308C67.356 22.712 68.412 24.08 69.984 24.632L69.48 25.412C67.716 24.776 66.552 23.144 66.552 21.308V20.444ZM63.936 19.976H69.732V20.78H63.936V19.976ZM82.0551 19.088H83.0511V24.608H82.0551V19.088ZM82.7751 21.512H84.6591V22.34H82.7751V21.512ZM79.0431 19.616H80.1231C80.1231 22.34 78.1671 24.128 75.0231 24.872L74.6511 24.044C77.4711 23.42 79.0431 21.968 79.0431 20.144V19.616ZM75.1191 19.616H79.6311V20.432H75.1191V19.616ZM76.1631 25.1H83.0511V27.788H77.1711V29.48H76.1871V27.02H82.0791V25.892H76.1631V25.1ZM76.1871 29.036H83.4471V29.828H76.1871V29.036ZM88.3541 20.636H89.1461V22.4C89.1461 24.656 87.7661 26.984 86.0741 27.848L85.4981 27.056C87.0461 26.3 88.3541 24.236 88.3541 22.4V20.636ZM88.5341 20.636H89.3261V22.4C89.3261 24.116 90.5501 26.048 92.1221 26.792L91.5581 27.584C89.8421 26.732 88.5341 24.548 88.5341 22.4V20.636ZM85.8821 20.192H91.7261V21.032H85.8821V20.192ZM93.0101 19.088H94.0181V29.936H93.0101V19.088ZM93.7781 23.468H95.7941V24.308H93.7781V23.468ZM104.613 19.076H105.609V29.948H104.613V19.076ZM97.3412 26.504H98.2412C100.053 26.504 101.673 26.432 103.593 26.12L103.701 26.936C101.733 27.26 100.101 27.332 98.2412 27.332H97.3412V26.504ZM97.3172 20.096H102.333V23.972H98.3372V26.816H97.3412V23.156H101.325V20.912H97.3172V20.096ZM111.81 24.6364C111.81 23.5625 111.949 22.5753 112.227 21.6747C112.509 20.7713 112.909 19.9403 113.429 19.1818H114.315C114.111 19.4631 113.919 19.8097 113.74 20.2216C113.564 20.6307 113.409 21.081 113.276 21.5724C113.142 22.0611 113.037 22.5668 112.96 23.0895C112.886 23.6122 112.849 24.1278 112.849 24.6364C112.849 25.3125 112.915 25.9986 113.045 26.6946C113.176 27.3906 113.352 28.0369 113.574 28.6335C113.795 29.2301 114.043 29.7159 114.315 30.0909H113.429C112.909 29.3324 112.509 28.5028 112.227 27.6023C111.949 26.6989 111.81 25.7102 111.81 24.6364ZM120.708 22.4545C120.657 22.0227 120.45 21.6875 120.086 21.4489C119.723 21.2102 119.277 21.0909 118.748 21.0909C118.362 21.0909 118.024 21.1534 117.734 21.2784C117.447 21.4034 117.223 21.5753 117.061 21.794C116.902 22.0128 116.822 22.2614 116.822 22.5398C116.822 22.7727 116.877 22.973 116.988 23.1406C117.102 23.3054 117.247 23.4432 117.423 23.554C117.599 23.6619 117.784 23.7514 117.977 23.8224C118.17 23.8906 118.348 23.946 118.51 23.9886L119.396 24.2273C119.623 24.2869 119.876 24.3693 120.154 24.4744C120.436 24.5795 120.704 24.723 120.96 24.9048C121.218 25.0838 121.431 25.3139 121.599 25.5952C121.767 25.8764 121.85 26.2216 121.85 26.6307C121.85 27.1023 121.727 27.5284 121.48 27.9091C121.235 28.2898 120.877 28.5923 120.406 28.8168C119.937 29.0412 119.368 29.1534 118.697 29.1534C118.072 29.1534 117.531 29.0526 117.074 28.8509C116.619 28.6491 116.261 28.3679 116 28.0071C115.741 27.6463 115.595 27.2273 115.561 26.75H116.652C116.68 27.0795 116.791 27.3523 116.984 27.5682C117.18 27.7812 117.427 27.9403 117.725 28.0455C118.027 28.1477 118.35 28.1989 118.697 28.1989C119.1 28.1989 119.463 28.1335 119.784 28.0028C120.105 27.8693 120.359 27.6847 120.547 27.4489C120.734 27.2102 120.828 26.9318 120.828 26.6136C120.828 26.3239 120.747 26.0881 120.585 25.9062C120.423 25.7244 120.21 25.5767 119.946 25.4631C119.681 25.3494 119.396 25.25 119.089 25.1648L118.015 24.858C117.333 24.6619 116.794 24.3821 116.396 24.0185C115.998 23.6548 115.799 23.179 115.799 22.5909C115.799 22.1023 115.931 21.6761 116.196 21.3125C116.463 20.946 116.821 20.6619 117.27 20.4602C117.721 20.2557 118.225 20.1534 118.782 20.1534C119.345 20.1534 119.845 20.2543 120.282 20.456C120.72 20.6548 121.066 20.9276 121.322 21.2741C121.581 21.6207 121.717 22.0142 121.731 22.4545H120.708ZM126.111 29.1364C125.497 29.1364 124.969 28.9915 124.526 28.7017C124.082 28.4119 123.741 28.0128 123.503 27.5043C123.264 26.9957 123.145 26.4148 123.145 25.7614C123.145 25.0966 123.267 24.5099 123.511 24.0014C123.759 23.4901 124.102 23.0909 124.543 22.804C124.986 22.5142 125.503 22.3693 126.094 22.3693C126.554 22.3693 126.969 22.4545 127.338 22.625C127.707 22.7955 128.01 23.0341 128.246 23.3409C128.482 23.6477 128.628 24.0057 128.685 24.4148H127.679C127.602 24.1165 127.432 23.8523 127.168 23.6222C126.906 23.3892 126.554 23.2727 126.111 23.2727C125.719 23.2727 125.375 23.375 125.08 23.5795C124.787 23.7812 124.558 24.0668 124.393 24.4361C124.232 24.8026 124.151 25.233 124.151 25.7273C124.151 26.233 124.23 26.6733 124.389 27.0483C124.551 27.4233 124.778 27.7145 125.071 27.9219C125.366 28.1293 125.713 28.233 126.111 28.233C126.372 28.233 126.609 28.1875 126.822 28.0966C127.036 28.0057 127.216 27.875 127.364 27.7045C127.511 27.5341 127.616 27.3295 127.679 27.0909H128.685C128.628 27.4773 128.487 27.8253 128.263 28.1349C128.041 28.4418 127.747 28.6861 127.381 28.8679C127.017 29.0469 126.594 29.1364 126.111 29.1364ZM132.814 29.1364C132.223 29.1364 131.705 28.9957 131.259 28.7145C130.815 28.4332 130.469 28.0398 130.219 27.5341C129.972 27.0284 129.848 26.4375 129.848 25.7614C129.848 25.0795 129.972 24.4844 130.219 23.9759C130.469 23.4673 130.815 23.0724 131.259 22.7912C131.705 22.5099 132.223 22.3693 132.814 22.3693C133.405 22.3693 133.922 22.5099 134.365 22.7912C134.811 23.0724 135.158 23.4673 135.405 23.9759C135.655 24.4844 135.78 25.0795 135.78 25.7614C135.78 26.4375 135.655 27.0284 135.405 27.5341C135.158 28.0398 134.811 28.4332 134.365 28.7145C133.922 28.9957 133.405 29.1364 132.814 29.1364ZM132.814 28.233C133.263 28.233 133.632 28.1179 133.922 27.8878C134.212 27.6577 134.426 27.3551 134.565 26.9801C134.705 26.6051 134.774 26.1989 134.774 25.7614C134.774 25.3239 134.705 24.9162 134.565 24.5384C134.426 24.1605 134.212 23.8551 133.922 23.6222C133.632 23.3892 133.263 23.2727 132.814 23.2727C132.365 23.2727 131.996 23.3892 131.706 23.6222C131.416 23.8551 131.202 24.1605 131.062 24.5384C130.923 24.9162 130.854 25.3239 130.854 25.7614C130.854 26.1989 130.923 26.6051 131.062 26.9801C131.202 27.3551 131.416 27.6577 131.706 27.8878C131.996 28.1179 132.365 28.233 132.814 28.233ZM137.315 29V22.4545H138.287V23.4432H138.355C138.474 23.1193 138.69 22.8565 139.002 22.6548C139.315 22.4531 139.667 22.3523 140.059 22.3523C140.133 22.3523 140.225 22.3537 140.336 22.3565C140.447 22.3594 140.531 22.3636 140.588 22.3693V23.392C140.554 23.3835 140.475 23.3707 140.353 23.3537C140.234 23.3338 140.108 23.3239 139.974 23.3239C139.656 23.3239 139.372 23.3906 139.122 23.5241C138.875 23.6548 138.679 23.8366 138.534 24.0696C138.392 24.2997 138.321 24.5625 138.321 24.858V29H137.315ZM141.78 31.4545V22.4545H142.751V23.4943H142.871C142.945 23.3807 143.047 23.2358 143.178 23.0597C143.311 22.8807 143.501 22.7216 143.749 22.5824C143.999 22.4403 144.337 22.3693 144.763 22.3693C145.314 22.3693 145.8 22.5071 146.22 22.7827C146.641 23.0582 146.969 23.4489 147.205 23.9545C147.44 24.4602 147.558 25.0568 147.558 25.7443C147.558 26.4375 147.44 27.0384 147.205 27.5469C146.969 28.0526 146.642 28.4446 146.224 28.723C145.807 28.9986 145.325 29.1364 144.78 29.1364C144.359 29.1364 144.023 29.0668 143.77 28.9276C143.517 28.7855 143.322 28.625 143.186 28.446C143.05 28.2642 142.945 28.1136 142.871 27.9943H142.786V31.4545H141.78ZM142.768 25.7273C142.768 26.2216 142.841 26.6577 142.986 27.0355C143.131 27.4105 143.342 27.7045 143.621 27.9176C143.899 28.1278 144.24 28.233 144.643 28.233C145.064 28.233 145.415 28.1222 145.696 27.9006C145.98 27.6761 146.193 27.375 146.335 26.9972C146.48 26.6165 146.553 26.1932 146.553 25.7273C146.553 25.267 146.482 24.8523 146.339 24.483C146.2 24.1108 145.989 23.8168 145.705 23.6009C145.423 23.3821 145.07 23.2727 144.643 23.2727C144.234 23.2727 143.891 23.3764 143.612 23.5838C143.334 23.7884 143.124 24.0753 142.982 24.4446C142.839 24.8111 142.768 25.2386 142.768 25.7273ZM149.092 29V22.4545H150.098V29H149.092ZM149.604 21.3636C149.408 21.3636 149.239 21.2969 149.097 21.1634C148.957 21.0298 148.888 20.8693 148.888 20.6818C148.888 20.4943 148.957 20.3338 149.097 20.2003C149.239 20.0668 149.408 20 149.604 20C149.8 20 149.967 20.0668 150.107 20.2003C150.249 20.3338 150.32 20.4943 150.32 20.6818C150.32 20.8693 150.249 21.0298 150.107 21.1634C149.967 21.2969 149.8 21.3636 149.604 21.3636ZM154.599 29.1364C154.008 29.1364 153.49 28.9957 153.044 28.7145C152.6 28.4332 152.254 28.0398 152.004 27.5341C151.757 27.0284 151.633 26.4375 151.633 25.7614C151.633 25.0795 151.757 24.4844 152.004 23.9759C152.254 23.4673 152.6 23.0724 153.044 22.7912C153.49 22.5099 154.008 22.3693 154.599 22.3693C155.19 22.3693 155.707 22.5099 156.15 22.7912C156.596 23.0724 156.943 23.4673 157.19 23.9759C157.44 24.4844 157.565 25.0795 157.565 25.7614C157.565 26.4375 157.44 27.0284 157.19 27.5341C156.943 28.0398 156.596 28.4332 156.15 28.7145C155.707 28.9957 155.19 29.1364 154.599 29.1364ZM154.599 28.233C155.048 28.233 155.417 28.1179 155.707 27.8878C155.997 27.6577 156.211 27.3551 156.35 26.9801C156.49 26.6051 156.559 26.1989 156.559 25.7614C156.559 25.3239 156.49 24.9162 156.35 24.5384C156.211 24.1605 155.997 23.8551 155.707 23.6222C155.417 23.3892 155.048 23.2727 154.599 23.2727C154.15 23.2727 153.781 23.3892 153.491 23.6222C153.201 23.8551 152.987 24.1605 152.848 24.5384C152.708 24.9162 152.639 25.3239 152.639 25.7614C152.639 26.1989 152.708 26.6051 152.848 26.9801C152.987 27.3551 153.201 27.6577 153.491 27.8878C153.781 28.1179 154.15 28.233 154.599 28.233ZM161.107 25.3182C161.107 26.392 160.967 27.3807 160.685 28.2841C160.407 29.1847 160.008 30.0142 159.488 30.7727H158.602C158.806 30.4915 158.996 30.1449 159.173 29.733C159.352 29.3239 159.508 28.875 159.641 28.3864C159.775 27.8949 159.879 27.3878 159.952 26.8651C160.029 26.3395 160.067 25.8239 160.067 25.3182C160.067 24.642 160.002 23.956 159.871 23.2599C159.741 22.5639 159.565 21.9176 159.343 21.321C159.121 20.7244 158.874 20.2386 158.602 19.8636H159.488C160.008 20.6222 160.407 21.4531 160.685 22.3565C160.967 23.2571 161.107 24.2443 161.107 25.3182ZM164.04 29.0682C163.83 29.0682 163.65 28.9929 163.499 28.8423C163.348 28.6918 163.273 28.5114 163.273 28.3011C163.273 28.0909 163.348 27.9105 163.499 27.7599C163.65 27.6094 163.83 27.5341 164.04 27.5341C164.25 27.5341 164.431 27.6094 164.581 27.7599C164.732 27.9105 164.807 28.0909 164.807 28.3011C164.807 28.4403 164.772 28.5682 164.701 28.6847C164.632 28.8011 164.54 28.8949 164.424 28.9659C164.31 29.0341 164.182 29.0682 164.04 29.0682ZM164.04 24.2102C163.83 24.2102 163.65 24.1349 163.499 23.9844C163.348 23.8338 163.273 23.6534 163.273 23.4432C163.273 23.233 163.348 23.0526 163.499 22.902C163.65 22.7514 163.83 22.6761 164.04 22.6761C164.25 22.6761 164.431 22.7514 164.581 22.902C164.732 23.0526 164.807 23.233 164.807 23.4432C164.807 23.5824 164.772 23.7102 164.701 23.8267C164.632 23.9432 164.54 24.0369 164.424 24.108C164.31 24.1761 164.182 24.2102 164.04 24.2102ZM173.038 20.2727V29H171.981V21.3807H171.93L169.799 22.7955V21.7216L171.981 20.2727H173.038ZM178.395 29.1193C177.752 29.1193 177.206 28.9446 176.754 28.5952C176.302 28.2429 175.957 27.733 175.718 27.0653C175.48 26.3949 175.36 25.5852 175.36 24.6364C175.36 23.6932 175.48 22.8878 175.718 22.2202C175.96 21.5497 176.306 21.0384 176.758 20.6861C177.213 20.331 177.758 20.1534 178.395 20.1534C179.031 20.1534 179.575 20.331 180.027 20.6861C180.481 21.0384 180.828 21.5497 181.066 22.2202C181.308 22.8878 181.429 23.6932 181.429 24.6364C181.429 25.5852 181.309 26.3949 181.071 27.0653C180.832 27.733 180.487 28.2429 180.035 28.5952C179.583 28.9446 179.037 29.1193 178.395 29.1193ZM178.395 28.1818C179.031 28.1818 179.525 27.875 179.877 27.2614C180.23 26.6477 180.406 25.7727 180.406 24.6364C180.406 23.8807 180.325 23.2372 180.163 22.706C180.004 22.1747 179.774 21.7699 179.473 21.4915C179.174 21.2131 178.815 21.0739 178.395 21.0739C177.764 21.0739 177.271 21.3849 176.916 22.0071C176.561 22.6264 176.383 23.5028 176.383 24.6364C176.383 25.392 176.463 26.0341 176.622 26.5625C176.781 27.0909 177.01 27.4929 177.308 27.7685C177.609 28.044 177.971 28.1818 178.395 28.1818ZM183.493 29.0682C183.283 29.0682 183.103 28.9929 182.952 28.8423C182.801 28.6918 182.726 28.5114 182.726 28.3011C182.726 28.0909 182.801 27.9105 182.952 27.7599C183.103 27.6094 183.283 27.5341 183.493 27.5341C183.703 27.5341 183.884 27.6094 184.034 27.7599C184.185 27.9105 184.26 28.0909 184.26 28.3011C184.26 28.4403 184.225 28.5682 184.154 28.6847C184.086 28.8011 183.993 28.8949 183.877 28.9659C183.763 29.0341 183.635 29.0682 183.493 29.0682ZM186.048 29V28.233L188.929 25.0795C189.267 24.7102 189.545 24.3892 189.764 24.1165C189.983 23.8409 190.145 23.5824 190.25 23.3409C190.358 23.0966 190.412 22.8409 190.412 22.5739C190.412 22.267 190.338 22.0014 190.19 21.777C190.045 21.5526 189.846 21.3793 189.593 21.2571C189.341 21.1349 189.056 21.0739 188.741 21.0739C188.406 21.0739 188.113 21.1435 187.863 21.2827C187.616 21.419 187.424 21.6108 187.288 21.858C187.154 22.1051 187.088 22.3949 187.088 22.7273H186.082C186.082 22.2159 186.2 21.767 186.436 21.3807C186.672 20.9943 186.993 20.6932 187.399 20.4773C187.808 20.2614 188.267 20.1534 188.775 20.1534C189.287 20.1534 189.74 20.2614 190.135 20.4773C190.529 20.6932 190.839 20.9844 191.064 21.3509C191.288 21.7173 191.4 22.125 191.4 22.5739C191.4 22.8949 191.342 23.2088 191.225 23.5156C191.112 23.8196 190.913 24.1591 190.629 24.5341C190.348 24.9062 189.957 25.3608 189.457 25.8977L187.497 27.9943V28.0625H191.554V29H186.048ZM196.262 29.1193C195.7 29.1193 195.199 29.0227 194.758 28.8295C194.321 28.6364 193.973 28.3679 193.714 28.0241C193.458 27.6776 193.319 27.2756 193.297 26.8182H194.37C194.393 27.0994 194.49 27.3423 194.66 27.5469C194.831 27.7486 195.054 27.9048 195.329 28.0156C195.605 28.1264 195.91 28.1818 196.245 28.1818C196.62 28.1818 196.953 28.1165 197.243 27.9858C197.532 27.8551 197.76 27.6733 197.924 27.4403C198.089 27.2074 198.172 26.9375 198.172 26.6307C198.172 26.3097 198.092 26.027 197.933 25.7827C197.774 25.5355 197.541 25.3423 197.234 25.2031C196.927 25.0639 196.552 24.9943 196.109 24.9943H195.41V24.0568H196.109C196.456 24.0568 196.76 23.9943 197.021 23.8693C197.285 23.7443 197.491 23.5682 197.639 23.3409C197.789 23.1136 197.865 22.8466 197.865 22.5398C197.865 22.2443 197.799 21.9872 197.669 21.7685C197.538 21.5497 197.353 21.3793 197.115 21.2571C196.879 21.1349 196.6 21.0739 196.279 21.0739C195.978 21.0739 195.694 21.1293 195.427 21.2401C195.163 21.348 194.947 21.5057 194.779 21.7131C194.612 21.9176 194.521 22.1648 194.507 22.4545H193.484C193.501 21.9972 193.639 21.5966 193.897 21.2528C194.156 20.9062 194.494 20.6364 194.912 20.4432C195.332 20.25 195.794 20.1534 196.297 20.1534C196.836 20.1534 197.299 20.2628 197.686 20.4815C198.072 20.6974 198.369 20.983 198.576 21.3381C198.784 21.6932 198.887 22.0767 198.887 22.4886C198.887 22.9801 198.758 23.3991 198.5 23.7457C198.244 24.0923 197.896 24.3324 197.456 24.4659V24.5341C198.007 24.625 198.437 24.8594 198.747 25.2372C199.056 25.6122 199.211 26.0767 199.211 26.6307C199.211 27.1051 199.082 27.5312 198.824 27.9091C198.568 28.2841 198.218 28.5795 197.775 28.7955C197.332 29.0114 196.828 29.1193 196.262 29.1193ZM204.414 25.5057C204.406 25.0341 204.483 24.6548 204.645 24.3679C204.806 24.081 205.017 23.8722 205.275 23.7415C205.537 23.6108 205.812 23.5455 206.102 23.5455C206.392 23.5455 206.656 23.6094 206.895 23.7372C207.136 23.8622 207.412 24.0597 207.721 24.3295C207.931 24.5114 208.099 24.6392 208.224 24.7131C208.352 24.7869 208.491 24.8239 208.642 24.8239C208.886 24.8239 209.079 24.7358 209.221 24.5597C209.363 24.3807 209.431 24.1222 209.426 23.7841H210.346C210.355 24.2557 210.278 24.6349 210.116 24.9219C209.957 25.2088 209.747 25.4176 209.485 25.5483C209.224 25.679 208.949 25.7443 208.659 25.7443C208.369 25.7443 208.105 25.6818 207.866 25.5568C207.627 25.429 207.352 25.2301 207.039 24.9602C206.832 24.7784 206.664 24.6506 206.537 24.5767C206.409 24.5028 206.27 24.4659 206.119 24.4659C205.889 24.4659 205.699 24.5469 205.548 24.7088C205.4 24.8679 205.329 25.1335 205.335 25.5057H204.414ZM218.683 20.2727V29H217.626V21.3807H217.575L215.444 22.7955V21.7216L217.626 20.2727H218.683ZM224.261 20.2727V29H223.204V21.3807H223.153L221.022 22.7955V21.7216L223.204 20.2727H224.261ZM227.005 29.0682C226.795 29.0682 226.614 28.9929 226.464 28.8423C226.313 28.6918 226.238 28.5114 226.238 28.3011C226.238 28.0909 226.313 27.9105 226.464 27.7599C226.614 27.6094 226.795 27.5341 227.005 27.5341C227.215 27.5341 227.396 27.6094 227.546 27.7599C227.697 27.9105 227.772 28.0909 227.772 28.3011C227.772 28.4403 227.737 28.5682 227.665 28.6847C227.597 28.8011 227.505 28.8949 227.388 28.9659C227.275 29.0341 227.147 29.0682 227.005 29.0682ZM229.56 29V28.233L232.44 25.0795C232.778 24.7102 233.057 24.3892 233.276 24.1165C233.494 23.8409 233.656 23.5824 233.761 23.3409C233.869 23.0966 233.923 22.8409 233.923 22.5739C233.923 22.267 233.849 22.0014 233.702 21.777C233.557 21.5526 233.358 21.3793 233.105 21.2571C232.852 21.1349 232.568 21.0739 232.253 21.0739C231.918 21.0739 231.625 21.1435 231.375 21.2827C231.128 21.419 230.936 21.6108 230.8 21.858C230.666 22.1051 230.599 22.3949 230.599 22.7273H229.594C229.594 22.2159 229.712 21.767 229.947 21.3807C230.183 20.9943 230.504 20.6932 230.911 20.4773C231.32 20.2614 231.778 20.1534 232.287 20.1534C232.798 20.1534 233.251 20.2614 233.646 20.4773C234.041 20.6932 234.351 20.9844 234.575 21.3509C234.8 21.7173 234.912 22.125 234.912 22.5739C234.912 22.8949 234.854 23.2088 234.737 23.5156C234.624 23.8196 234.425 24.1591 234.141 24.5341C233.859 24.9062 233.469 25.3608 232.969 25.8977L231.009 27.9943V28.0625H235.065V29H229.56ZM239.893 20.2727V29H238.837V21.3807H238.786L236.655 22.7955V21.7216L238.837 20.2727H239.893ZM243.405 27.8068L243.337 28.267C243.288 28.5909 243.214 28.9375 243.115 29.3068C243.018 29.6761 242.918 30.0241 242.812 30.3509C242.707 30.6776 242.621 30.9375 242.553 31.1307H241.786C241.822 30.9489 241.871 30.7088 241.93 30.4105C241.99 30.1122 242.05 29.7784 242.109 29.4091C242.172 29.0426 242.223 28.6676 242.263 28.2841L242.314 27.8068H243.405ZM252.667 20.156H253.531V20.612C253.531 22.556 251.467 23.984 249.283 24.356L248.899 23.564C250.807 23.288 252.667 22.04 252.667 20.612V20.156ZM252.919 20.156H253.771V20.612C253.771 22.04 255.643 23.288 257.539 23.564L257.167 24.356C254.971 23.984 252.919 22.556 252.919 20.612V20.156ZM252.703 25.796H253.687V29.936H252.703V25.796ZM248.323 25.268H258.127V26.084H248.323V25.268ZM249.235 19.76H257.179V20.564H249.235V19.76ZM261.762 24.668H262.746V27.92H261.762V24.668ZM265.77 24.668H266.766V27.92H265.77V24.668ZM259.362 27.728H269.19V28.556H259.362V27.728ZM264.258 19.772C266.55 19.772 268.194 20.864 268.194 22.568C268.194 24.26 266.55 25.352 264.258 25.352C261.954 25.352 260.31 24.26 260.31 22.568C260.31 20.864 261.954 19.772 264.258 19.772ZM264.258 20.564C262.518 20.564 261.27 21.356 261.27 22.568C261.27 23.768 262.518 24.56 264.258 24.56C265.998 24.56 267.234 23.768 267.234 22.568C267.234 21.356 265.998 20.564 264.258 20.564ZM278.888 20.624H281.948V21.404H278.888V20.624ZM278.888 22.604H281.948V23.384H278.888V22.604ZM281.696 19.088H282.692V24.74H281.696V19.088ZM275.708 25.28H282.692V27.848H276.704V29.516H275.732V27.104H281.708V26.072H275.708V25.28ZM275.732 29H283.088V29.792H275.732V29ZM274.304 19.58H275.288V21.14H278.228V19.58H279.2V24.32H274.304V19.58ZM275.288 21.92V23.516H278.228V21.92H275.288ZM285.868 29.0682C285.658 29.0682 285.478 28.9929 285.327 28.8423C285.176 28.6918 285.101 28.5114 285.101 28.3011C285.101 28.0909 285.176 27.9105 285.327 27.7599C285.478 27.6094 285.658 27.5341 285.868 27.5341C286.078 27.5341 286.259 27.6094 286.409 27.7599C286.56 27.9105 286.635 28.0909 286.635 28.3011C286.635 28.4403 286.6 28.5682 286.529 28.6847C286.461 28.8011 286.368 28.8949 286.252 28.9659C286.138 29.0341 286.01 29.0682 285.868 29.0682ZM285.868 24.2102C285.658 24.2102 285.478 24.1349 285.327 23.9844C285.176 23.8338 285.101 23.6534 285.101 23.4432C285.101 23.233 285.176 23.0526 285.327 22.902C285.478 22.7514 285.658 22.6761 285.868 22.6761C286.078 22.6761 286.259 22.7514 286.409 22.902C286.56 23.0526 286.635 23.233 286.635 23.4432C286.635 23.5824 286.6 23.7102 286.529 23.8267C286.461 23.9432 286.368 24.0369 286.252 24.108C286.138 24.1761 286.01 24.2102 285.868 24.2102ZM294.063 19.928C295.479 19.928 296.523 21.02 296.523 22.568C296.523 24.128 295.479 25.208 294.063 25.208C292.623 25.208 291.591 24.128 291.591 22.568C291.591 21.02 292.623 19.928 294.063 19.928ZM294.063 20.792C293.163 20.792 292.503 21.524 292.503 22.568C292.503 23.624 293.163 24.356 294.063 24.356C294.951 24.356 295.623 23.624 295.623 22.568C295.623 21.524 294.951 20.792 294.063 20.792ZM299.679 19.1H300.627V27.248H299.679V19.1ZM297.939 22.256H299.979V23.084H297.939V22.256ZM297.363 19.292H298.311V26.864H297.363V19.292ZM293.559 28.88H300.963V29.696H293.559V28.88ZM293.559 26.168H294.555V29.276H293.559V26.168ZM303.794 24.932H311.246V25.736H303.794V24.932ZM302.534 27.716H312.362V28.544H302.534V27.716ZM303.794 20.012H311.126V20.828H304.802V25.184H303.794V20.012ZM304.478 22.436H310.898V23.228H304.478V22.436ZM320.917 19.076H321.913V29.948H320.917V19.076ZM321.673 23.396H323.689V24.236H321.673V23.396ZM314.005 26.504H314.869C316.909 26.504 318.325 26.432 319.969 26.12L320.077 26.948C318.385 27.248 316.945 27.332 314.869 27.332H314.005V26.504ZM313.981 20.096H318.889V23.984H314.989V26.84H314.005V23.168H317.905V20.912H313.981V20.096ZM324.96 26.444H325.68C327 26.444 328.224 26.396 329.712 26.144L329.796 26.96C328.272 27.224 327.048 27.272 325.68 27.272H324.96V26.444ZM324.936 20.276H328.812V24.056H325.932V26.78H324.96V23.252H327.852V21.092H324.936V20.276ZM332.856 19.088H333.816V29.936H332.856V19.088ZM329.328 22.976H331.08V23.804H329.328V22.976ZM330.672 19.352H331.596V29.372H330.672V19.352ZM339.995 19.832H340.859V20.66C340.859 23.024 338.663 24.86 336.491 25.352L336.047 24.524C337.955 24.164 339.995 22.508 339.995 20.66V19.832ZM340.175 19.832H341.039V20.66C341.039 22.52 343.091 24.164 344.987 24.524L344.543 25.352C342.383 24.86 340.175 23.036 340.175 20.66V19.832ZM335.651 27.656H345.479V28.472H335.651V27.656Z" fill="white"/>
</svg>
