<svg width="399" height="50" viewBox="0 0 399 50" fill="none" xmlns="http://www.w3.org/2000/svg">
<rect x="5" y="5" width="389" height="40" rx="2" fill="#343251" stroke="#EBD2FF" stroke-width="2"/>
<rect x="0.5" y="0.5" width="398" height="49" rx="6.5" stroke="#EBD2FF"/>
<path d="M29.3979 15H38.6366L39.1142 23.9582" stroke="white" stroke-width="2.53937" stroke-linecap="round" stroke-linejoin="round"/>
<path d="M38.3978 15.3579L20 34.1896" stroke="white" stroke-width="2.53937" stroke-linecap="round" stroke-linejoin="round"/>
<path d="M23.6642 17.9761L36.644 30.1282" stroke="white" stroke-width="2.53937" stroke-linecap="round" stroke-linejoin="round"/>
<path d="M64.848 19.556H71.832V20.36H64.848V19.556ZM63.6 23.42H73.428V24.236H63.6V23.42ZM67.992 23.996H68.988V26.24H67.992V23.996ZM71.184 19.556H72.156V20.336C72.156 21.224 72.156 22.316 71.796 23.792L70.824 23.672C71.184 22.232 71.184 21.2 71.184 20.336V19.556ZM68.484 25.904C70.824 25.904 72.252 26.636 72.252 27.92C72.252 29.192 70.824 29.924 68.484 29.924C66.144 29.924 64.728 29.192 64.728 27.92C64.728 26.636 66.144 25.904 68.484 25.904ZM68.484 26.72C66.768 26.72 65.724 27.152 65.724 27.92C65.724 28.676 66.768 29.12 68.484 29.12C70.212 29.12 71.244 28.676 71.244 27.92C71.244 27.152 70.212 26.72 68.484 26.72ZM79.0191 19.472H79.8951V20.072C79.8951 22.148 77.7831 23.636 75.5271 24.02L75.1311 23.216C77.1111 22.916 79.0191 21.62 79.0191 20.072V19.472ZM79.1991 19.472H80.0631V20.072C80.0631 21.584 81.9951 22.916 83.9511 23.216L83.5551 24.02C81.3231 23.636 79.1991 22.124 79.1991 20.072V19.472ZM79.0191 25.808H80.0031V29.936H79.0191V25.808ZM74.6391 25.196H84.4431V26.024H74.6391V25.196ZM88.3541 20.636H89.1461V22.4C89.1461 24.656 87.7661 26.984 86.0741 27.848L85.4981 27.056C87.0461 26.3 88.3541 24.236 88.3541 22.4V20.636ZM88.5341 20.636H89.3261V22.4C89.3261 24.116 90.5501 26.048 92.1221 26.792L91.5581 27.584C89.8421 26.732 88.5341 24.548 88.5341 22.4V20.636ZM85.8821 20.192H91.7261V21.032H85.8821V20.192ZM93.0101 19.088H94.0181V29.936H93.0101V19.088ZM93.7781 23.468H95.7941V24.308H93.7781V23.468ZM104.613 19.076H105.609V29.948H104.613V19.076ZM97.3412 26.504H98.2412C100.053 26.504 101.673 26.432 103.593 26.12L103.701 26.936C101.733 27.26 100.101 27.332 98.2412 27.332H97.3412V26.504ZM97.3172 20.096H102.333V23.972H98.3372V26.816H97.3412V23.156H101.325V20.912H97.3172V20.096ZM111.81 24.6364C111.81 23.5625 111.949 22.5753 112.227 21.6747C112.509 20.7713 112.909 19.9403 113.429 19.1818H114.315C114.111 19.4631 113.919 19.8097 113.74 20.2216C113.564 20.6307 113.409 21.081 113.276 21.5724C113.142 22.0611 113.037 22.5668 112.96 23.0895C112.886 23.6122 112.849 24.1278 112.849 24.6364C112.849 25.3125 112.915 25.9986 113.045 26.6946C113.176 27.3906 113.352 28.0369 113.574 28.6335C113.795 29.2301 114.043 29.7159 114.315 30.0909H113.429C112.909 29.3324 112.509 28.5028 112.227 27.6023C111.949 26.6989 111.81 25.7102 111.81 24.6364ZM120.708 22.4545C120.657 22.0227 120.45 21.6875 120.086 21.4489C119.723 21.2102 119.277 21.0909 118.748 21.0909C118.362 21.0909 118.024 21.1534 117.734 21.2784C117.447 21.4034 117.223 21.5753 117.061 21.794C116.902 22.0128 116.822 22.2614 116.822 22.5398C116.822 22.7727 116.877 22.973 116.988 23.1406C117.102 23.3054 117.247 23.4432 117.423 23.554C117.599 23.6619 117.784 23.7514 117.977 23.8224C118.17 23.8906 118.348 23.946 118.51 23.9886L119.396 24.2273C119.623 24.2869 119.876 24.3693 120.154 24.4744C120.436 24.5795 120.704 24.723 120.96 24.9048C121.218 25.0838 121.431 25.3139 121.599 25.5952C121.767 25.8764 121.85 26.2216 121.85 26.6307C121.85 27.1023 121.727 27.5284 121.48 27.9091C121.235 28.2898 120.877 28.5923 120.406 28.8168C119.937 29.0412 119.368 29.1534 118.697 29.1534C118.072 29.1534 117.531 29.0526 117.074 28.8509C116.619 28.6491 116.261 28.3679 116 28.0071C115.741 27.6463 115.595 27.2273 115.561 26.75H116.652C116.68 27.0795 116.791 27.3523 116.984 27.5682C117.18 27.7812 117.427 27.9403 117.725 28.0455C118.027 28.1477 118.35 28.1989 118.697 28.1989C119.1 28.1989 119.463 28.1335 119.784 28.0028C120.105 27.8693 120.359 27.6847 120.547 27.4489C120.734 27.2102 120.828 26.9318 120.828 26.6136C120.828 26.3239 120.747 26.0881 120.585 25.9062C120.423 25.7244 120.21 25.5767 119.946 25.4631C119.681 25.3494 119.396 25.25 119.089 25.1648L118.015 24.858C117.333 24.6619 116.794 24.3821 116.396 24.0185C115.998 23.6548 115.799 23.179 115.799 22.5909C115.799 22.1023 115.931 21.6761 116.196 21.3125C116.463 20.946 116.821 20.6619 117.27 20.4602C117.721 20.2557 118.225 20.1534 118.782 20.1534C119.345 20.1534 119.845 20.2543 120.282 20.456C120.72 20.6548 121.066 20.9276 121.322 21.2741C121.581 21.6207 121.717 22.0142 121.731 22.4545H120.708ZM125.378 29.1534C124.963 29.1534 124.587 29.0753 124.249 28.919C123.911 28.7599 123.642 28.5312 123.443 28.233C123.244 27.9318 123.145 27.5682 123.145 27.142C123.145 26.767 123.219 26.4631 123.366 26.2301C123.514 25.9943 123.712 25.8097 123.959 25.6761C124.206 25.5426 124.479 25.4432 124.777 25.3778C125.078 25.3097 125.381 25.2557 125.685 25.2159C126.082 25.1648 126.405 25.1264 126.652 25.1009C126.902 25.0724 127.084 25.0256 127.197 24.9602C127.314 24.8949 127.372 24.7812 127.372 24.6193V24.5852C127.372 24.1648 127.257 23.8381 127.027 23.6051C126.8 23.3722 126.455 23.2557 125.991 23.2557C125.511 23.2557 125.135 23.3608 124.862 23.571C124.589 23.7812 124.398 24.0057 124.287 24.2443L123.332 23.9034C123.503 23.5057 123.73 23.196 124.014 22.9744C124.301 22.75 124.614 22.5937 124.952 22.5057C125.293 22.4148 125.628 22.3693 125.957 22.3693C126.168 22.3693 126.409 22.3949 126.682 22.446C126.957 22.4943 127.223 22.5952 127.479 22.7486C127.737 22.902 127.952 23.1335 128.122 23.4432C128.293 23.7528 128.378 24.1676 128.378 24.6875V29H127.372V28.1136H127.321C127.253 28.2557 127.139 28.4077 126.98 28.5696C126.821 28.7315 126.609 28.8693 126.345 28.983C126.081 29.0966 125.759 29.1534 125.378 29.1534ZM125.531 28.25C125.929 28.25 126.264 28.1719 126.537 28.0156C126.813 27.8594 127.02 27.6577 127.159 27.4105C127.301 27.1634 127.372 26.9034 127.372 26.6307V25.7102C127.33 25.7614 127.236 25.8082 127.091 25.8509C126.949 25.8906 126.784 25.9261 126.597 25.9574C126.412 25.9858 126.232 26.0114 126.055 26.0341C125.882 26.054 125.741 26.071 125.634 26.0852C125.372 26.1193 125.128 26.1747 124.901 26.2514C124.676 26.3253 124.494 26.4375 124.355 26.5881C124.219 26.7358 124.151 26.9375 124.151 27.1932C124.151 27.5426 124.28 27.8068 124.538 27.9858C124.8 28.1619 125.131 28.25 125.531 28.25ZM132.855 31.5909C132.37 31.5909 131.952 31.5284 131.603 31.4034C131.253 31.2812 130.962 31.1193 130.729 30.9176C130.499 30.7188 130.316 30.5057 130.179 30.2784L130.98 29.7159C131.071 29.8352 131.186 29.9716 131.326 30.125C131.465 30.2812 131.655 30.4162 131.897 30.5298C132.141 30.6463 132.461 30.7045 132.855 30.7045C133.384 30.7045 133.82 30.5767 134.164 30.321C134.507 30.0653 134.679 29.6648 134.679 29.1193V27.7898H134.594C134.52 27.9091 134.415 28.0568 134.279 28.233C134.145 28.4062 133.952 28.5611 133.699 28.6974C133.449 28.831 133.111 28.8977 132.685 28.8977C132.157 28.8977 131.682 28.7727 131.262 28.5227C130.844 28.2727 130.513 27.9091 130.269 27.4318C130.027 26.9545 129.907 26.375 129.907 25.6932C129.907 25.0227 130.025 24.4389 130.26 23.9418C130.496 23.4418 130.824 23.0554 131.245 22.7827C131.665 22.5071 132.151 22.3693 132.702 22.3693C133.128 22.3693 133.466 22.4403 133.716 22.5824C133.969 22.7216 134.162 22.8807 134.296 23.0597C134.432 23.2358 134.537 23.3807 134.611 23.4943H134.713V22.4545H135.685V29.1875C135.685 29.75 135.557 30.2074 135.301 30.5597C135.049 30.9148 134.708 31.1747 134.279 31.3395C133.853 31.5071 133.378 31.5909 132.855 31.5909ZM132.821 27.9943C133.225 27.9943 133.566 27.902 133.844 27.7173C134.123 27.5327 134.334 27.267 134.479 26.9205C134.624 26.5739 134.696 26.1591 134.696 25.6761C134.696 25.2045 134.625 24.7884 134.483 24.4276C134.341 24.0668 134.131 23.7841 133.853 23.5795C133.574 23.375 133.23 23.2727 132.821 23.2727C132.395 23.2727 132.04 23.3807 131.756 23.5966C131.475 23.8125 131.263 24.1023 131.121 24.4659C130.982 24.8295 130.912 25.233 130.912 25.6761C130.912 26.1307 130.983 26.5327 131.125 26.8821C131.27 27.2287 131.483 27.5014 131.765 27.7003C132.049 27.8963 132.401 27.9943 132.821 27.9943ZM137.526 29V22.4545H138.532V29H137.526ZM138.037 21.3636C137.841 21.3636 137.672 21.2969 137.53 21.1634C137.391 21.0298 137.321 20.8693 137.321 20.6818C137.321 20.4943 137.391 20.3338 137.53 20.2003C137.672 20.0668 137.841 20 138.037 20C138.233 20 138.401 20.0668 138.54 20.2003C138.682 20.3338 138.753 20.4943 138.753 20.6818C138.753 20.8693 138.682 21.0298 138.54 21.1634C138.401 21.2969 138.233 21.3636 138.037 21.3636ZM143.22 22.4545V23.3068H139.828V22.4545H143.22ZM140.817 20.8864H141.822V27.125C141.822 27.4091 141.864 27.6222 141.946 27.7642C142.031 27.9034 142.139 27.9972 142.27 28.0455C142.403 28.0909 142.544 28.1136 142.692 28.1136C142.803 28.1136 142.893 28.108 142.964 28.0966C143.036 28.0824 143.092 28.071 143.135 28.0625L143.339 28.9659C143.271 28.9915 143.176 29.017 143.054 29.0426C142.932 29.071 142.777 29.0852 142.589 29.0852C142.305 29.0852 142.027 29.0241 141.754 28.902C141.484 28.7798 141.26 28.5938 141.081 28.3438C140.905 28.0938 140.817 27.7784 140.817 27.3977V20.8864ZM147.58 22.4545V23.3068H144.188V22.4545H147.58ZM145.176 20.8864H146.182V27.125C146.182 27.4091 146.223 27.6222 146.305 27.7642C146.391 27.9034 146.499 27.9972 146.629 28.0455C146.763 28.0909 146.903 28.1136 147.051 28.1136C147.162 28.1136 147.253 28.108 147.324 28.0966C147.395 28.0824 147.452 28.071 147.494 28.0625L147.699 28.9659C147.631 28.9915 147.536 29.017 147.413 29.0426C147.291 29.071 147.136 29.0852 146.949 29.0852C146.665 29.0852 146.386 29.0241 146.114 28.902C145.844 28.7798 145.619 28.5938 145.44 28.3438C145.264 28.0938 145.176 27.7784 145.176 27.3977V20.8864ZM151.018 29.1534C150.604 29.1534 150.227 29.0753 149.889 28.919C149.551 28.7599 149.283 28.5312 149.084 28.233C148.885 27.9318 148.786 27.5682 148.786 27.142C148.786 26.767 148.859 26.4631 149.007 26.2301C149.155 25.9943 149.352 25.8097 149.599 25.6761C149.847 25.5426 150.119 25.4432 150.418 25.3778C150.719 25.3097 151.021 25.2557 151.325 25.2159C151.723 25.1648 152.045 25.1264 152.293 25.1009C152.543 25.0724 152.724 25.0256 152.838 24.9602C152.955 24.8949 153.013 24.7812 153.013 24.6193V24.5852C153.013 24.1648 152.898 23.8381 152.668 23.6051C152.44 23.3722 152.095 23.2557 151.632 23.2557C151.152 23.2557 150.776 23.3608 150.503 23.571C150.23 23.7812 150.038 24.0057 149.928 24.2443L148.973 23.9034C149.143 23.5057 149.371 23.196 149.655 22.9744C149.942 22.75 150.254 22.5937 150.592 22.5057C150.933 22.4148 151.268 22.3693 151.598 22.3693C151.808 22.3693 152.05 22.3949 152.322 22.446C152.598 22.4943 152.864 22.5952 153.119 22.7486C153.378 22.902 153.592 23.1335 153.763 23.4432C153.933 23.7528 154.018 24.1676 154.018 24.6875V29H153.013V28.1136H152.962C152.893 28.2557 152.78 28.4077 152.621 28.5696C152.462 28.7315 152.25 28.8693 151.986 28.983C151.722 29.0966 151.399 29.1534 151.018 29.1534ZM151.172 28.25C151.57 28.25 151.905 28.1719 152.178 28.0156C152.453 27.8594 152.661 27.6577 152.8 27.4105C152.942 27.1634 153.013 26.9034 153.013 26.6307V25.7102C152.97 25.7614 152.876 25.8082 152.732 25.8509C152.589 25.8906 152.425 25.9261 152.237 25.9574C152.053 25.9858 151.872 26.0114 151.696 26.0341C151.523 26.054 151.382 26.071 151.274 26.0852C151.013 26.1193 150.768 26.1747 150.541 26.2514C150.317 26.3253 150.135 26.4375 149.996 26.5881C149.859 26.7358 149.791 26.9375 149.791 27.1932C149.791 27.5426 149.92 27.8068 150.179 27.9858C150.44 28.1619 150.771 28.25 151.172 28.25ZM155.854 29V22.4545H156.826V23.4432H156.894C157.013 23.1193 157.229 22.8565 157.542 22.6548C157.854 22.4531 158.206 22.3523 158.598 22.3523C158.672 22.3523 158.765 22.3537 158.875 22.3565C158.986 22.3594 159.07 22.3636 159.127 22.3693V23.392C159.093 23.3835 159.015 23.3707 158.892 23.3537C158.773 23.3338 158.647 23.3239 158.513 23.3239C158.195 23.3239 157.911 23.3906 157.661 23.5241C157.414 23.6548 157.218 23.8366 157.073 24.0696C156.931 24.2997 156.86 24.5625 156.86 24.858V29H155.854ZM160.319 29V22.4545H161.325V29H160.319ZM160.83 21.3636C160.634 21.3636 160.465 21.2969 160.323 21.1634C160.184 21.0298 160.114 20.8693 160.114 20.6818C160.114 20.4943 160.184 20.3338 160.323 20.2003C160.465 20.0668 160.634 20 160.83 20C161.026 20 161.194 20.0668 161.333 20.2003C161.475 20.3338 161.546 20.4943 161.546 20.6818C161.546 20.8693 161.475 21.0298 161.333 21.1634C161.194 21.2969 161.026 21.3636 160.83 21.3636ZM167.292 26.3239V22.4545H168.297V29H167.292V27.892H167.223C167.07 28.2244 166.831 28.5071 166.507 28.7401C166.184 28.9702 165.775 29.0852 165.28 29.0852C164.871 29.0852 164.507 28.9957 164.189 28.8168C163.871 28.6349 163.621 28.3622 163.439 27.9986C163.257 27.6321 163.167 27.1705 163.167 26.6136V22.4545H164.172V26.5455C164.172 27.0227 164.306 27.4034 164.573 27.6875C164.843 27.9716 165.186 28.1136 165.604 28.1136C165.854 28.1136 166.108 28.0497 166.367 27.9219C166.628 27.794 166.847 27.598 167.023 27.3338C167.202 27.0696 167.292 26.733 167.292 26.3239ZM174.776 23.9205L173.872 24.1761C173.815 24.0256 173.732 23.8793 173.621 23.7372C173.513 23.5923 173.365 23.473 173.178 23.3793C172.99 23.2855 172.75 23.2386 172.457 23.2386C172.057 23.2386 171.723 23.331 171.456 23.5156C171.192 23.6974 171.06 23.929 171.06 24.2102C171.06 24.4602 171.151 24.6577 171.332 24.8026C171.514 24.9474 171.798 25.0682 172.185 25.1648L173.156 25.4034C173.741 25.5455 174.178 25.7628 174.464 26.0554C174.751 26.3452 174.895 26.7187 174.895 27.1761C174.895 27.5511 174.787 27.8864 174.571 28.1818C174.358 28.4773 174.06 28.7102 173.676 28.8807C173.293 29.0511 172.847 29.1364 172.338 29.1364C171.67 29.1364 171.118 28.9915 170.68 28.7017C170.243 28.4119 169.966 27.9886 169.849 27.4318L170.804 27.1932C170.895 27.5455 171.067 27.8097 171.32 27.9858C171.575 28.1619 171.909 28.25 172.321 28.25C172.79 28.25 173.162 28.1506 173.438 27.9517C173.716 27.75 173.855 27.5085 173.855 27.2273C173.855 27 173.776 26.8097 173.616 26.6562C173.457 26.5 173.213 26.3835 172.884 26.3068L171.793 26.0511C171.193 25.9091 170.753 25.6889 170.472 25.3906C170.193 25.0895 170.054 24.7131 170.054 24.2614C170.054 23.892 170.158 23.5653 170.365 23.2812C170.575 22.9972 170.861 22.7741 171.222 22.6122C171.585 22.4503 171.997 22.3693 172.457 22.3693C173.105 22.3693 173.614 22.5114 173.983 22.7955C174.355 23.0795 174.619 23.4545 174.776 23.9205ZM178.556 25.3182C178.556 26.392 178.416 27.3807 178.135 28.2841C177.856 29.1847 177.457 30.0142 176.937 30.7727H176.051C176.255 30.4915 176.446 30.1449 176.622 29.733C176.801 29.3239 176.957 28.875 177.091 28.3864C177.224 27.8949 177.328 27.3878 177.402 26.8651C177.478 26.3395 177.517 25.8239 177.517 25.3182C177.517 24.642 177.451 23.956 177.321 23.2599C177.19 22.5639 177.014 21.9176 176.792 21.321C176.571 20.7244 176.324 20.2386 176.051 19.8636H176.937C177.457 20.6222 177.856 21.4531 178.135 22.3565C178.416 23.2571 178.556 24.2443 178.556 25.3182ZM181.489 29.0682C181.279 29.0682 181.099 28.9929 180.948 28.8423C180.798 28.6918 180.722 28.5114 180.722 28.3011C180.722 28.0909 180.798 27.9105 180.948 27.7599C181.099 27.6094 181.279 27.5341 181.489 27.5341C181.7 27.5341 181.88 27.6094 182.031 27.7599C182.181 27.9105 182.256 28.0909 182.256 28.3011C182.256 28.4403 182.221 28.5682 182.15 28.6847C182.082 28.8011 181.989 28.8949 181.873 28.9659C181.759 29.0341 181.631 29.0682 181.489 29.0682ZM181.489 24.2102C181.279 24.2102 181.099 24.1349 180.948 23.9844C180.798 23.8338 180.722 23.6534 180.722 23.4432C180.722 23.233 180.798 23.0526 180.948 22.902C181.099 22.7514 181.279 22.6761 181.489 22.6761C181.7 22.6761 181.88 22.7514 182.031 22.902C182.181 23.0526 182.256 23.233 182.256 23.4432C182.256 23.5824 182.221 23.7102 182.15 23.8267C182.082 23.9432 181.989 24.0369 181.873 24.108C181.759 24.1761 181.631 24.2102 181.489 24.2102ZM190.487 20.2727V29H189.43V21.3807H189.379L187.249 22.7955V21.7216L189.43 20.2727H190.487ZM196.065 20.2727V29H195.009V21.3807H194.957L192.827 22.7955V21.7216L195.009 20.2727H196.065ZM198.81 29.0682C198.599 29.0682 198.419 28.9929 198.268 28.8423C198.118 28.6918 198.043 28.5114 198.043 28.3011C198.043 28.0909 198.118 27.9105 198.268 27.7599C198.419 27.6094 198.599 27.5341 198.81 27.5341C199.02 27.5341 199.2 27.6094 199.351 27.7599C199.501 27.9105 199.577 28.0909 199.577 28.3011C199.577 28.4403 199.541 28.5682 199.47 28.6847C199.402 28.8011 199.31 28.8949 199.193 28.9659C199.08 29.0341 198.952 29.0682 198.81 29.0682ZM201.364 29V28.233L204.245 25.0795C204.583 24.7102 204.862 24.3892 205.08 24.1165C205.299 23.8409 205.461 23.5824 205.566 23.3409C205.674 23.0966 205.728 22.8409 205.728 22.5739C205.728 22.267 205.654 22.0014 205.506 21.777C205.362 21.5526 205.163 21.3793 204.91 21.2571C204.657 21.1349 204.373 21.0739 204.058 21.0739C203.722 21.0739 203.43 21.1435 203.18 21.2827C202.933 21.419 202.741 21.6108 202.604 21.858C202.471 22.1051 202.404 22.3949 202.404 22.7273H201.398C201.398 22.2159 201.516 21.767 201.752 21.3807C201.988 20.9943 202.309 20.6932 202.715 20.4773C203.124 20.2614 203.583 20.1534 204.092 20.1534C204.603 20.1534 205.056 20.2614 205.451 20.4773C205.846 20.6932 206.156 20.9844 206.38 21.3509C206.604 21.7173 206.717 22.125 206.717 22.5739C206.717 22.8949 206.658 23.2088 206.542 23.5156C206.428 23.8196 206.229 24.1591 205.945 24.5341C205.664 24.9062 205.273 25.3608 204.773 25.8977L202.813 27.9943V28.0625H206.87V29H201.364ZM208.63 29V28.233L211.511 25.0795C211.849 24.7102 212.127 24.3892 212.346 24.1165C212.565 23.8409 212.727 23.5824 212.832 23.3409C212.94 23.0966 212.994 22.8409 212.994 22.5739C212.994 22.267 212.92 22.0014 212.772 21.777C212.627 21.5526 212.428 21.3793 212.175 21.2571C211.923 21.1349 211.638 21.0739 211.323 21.0739C210.988 21.0739 210.695 21.1435 210.445 21.2827C210.198 21.419 210.006 21.6108 209.87 21.858C209.737 22.1051 209.67 22.3949 209.67 22.7273H208.664C208.664 22.2159 208.782 21.767 209.018 21.3807C209.254 20.9943 209.575 20.6932 209.981 20.4773C210.39 20.2614 210.849 20.1534 211.357 20.1534C211.869 20.1534 212.322 20.2614 212.717 20.4773C213.112 20.6932 213.421 20.9844 213.646 21.3509C213.87 21.7173 213.982 22.125 213.982 22.5739C213.982 22.8949 213.924 23.2088 213.808 23.5156C213.694 23.8196 213.495 24.1591 213.211 24.5341C212.93 24.9062 212.539 25.3608 212.039 25.8977L210.079 27.9943V28.0625H214.136V29H208.63ZM219.356 25.5057C219.347 25.0341 219.424 24.6548 219.586 24.3679C219.748 24.081 219.958 23.8722 220.217 23.7415C220.478 23.6108 220.754 23.5455 221.043 23.5455C221.333 23.5455 221.597 23.6094 221.836 23.7372C222.077 23.8622 222.353 24.0597 222.663 24.3295C222.873 24.5114 223.04 24.6392 223.165 24.7131C223.293 24.7869 223.433 24.8239 223.583 24.8239C223.827 24.8239 224.021 24.7358 224.163 24.5597C224.305 24.3807 224.373 24.1222 224.367 23.7841H225.288C225.296 24.2557 225.219 24.6349 225.058 24.9219C224.898 25.2088 224.688 25.4176 224.427 25.5483C224.165 25.679 223.89 25.7443 223.6 25.7443C223.31 25.7443 223.046 25.6818 222.808 25.5568C222.569 25.429 222.293 25.2301 221.981 24.9602C221.773 24.7784 221.606 24.6506 221.478 24.5767C221.35 24.5028 221.211 24.4659 221.06 24.4659C220.83 24.4659 220.64 24.5469 220.489 24.7088C220.342 24.8679 220.271 25.1335 220.276 25.5057H219.356ZM233.624 20.2727V29H232.567V21.3807H232.516L230.385 22.7955V21.7216L232.567 20.2727H233.624ZM236.134 29V28.233L239.015 25.0795C239.353 24.7102 239.631 24.3892 239.85 24.1165C240.069 23.8409 240.23 23.5824 240.336 23.3409C240.444 23.0966 240.498 22.8409 240.498 22.5739C240.498 22.267 240.424 22.0014 240.276 21.777C240.131 21.5526 239.932 21.3793 239.679 21.2571C239.426 21.1349 239.142 21.0739 238.827 21.0739C238.492 21.0739 238.199 21.1435 237.949 21.2827C237.702 21.419 237.51 21.6108 237.374 21.858C237.24 22.1051 237.174 22.3949 237.174 22.7273H236.168C236.168 22.2159 236.286 21.767 236.522 21.3807C236.757 20.9943 237.078 20.6932 237.485 20.4773C237.894 20.2614 238.353 20.1534 238.861 20.1534C239.373 20.1534 239.826 20.2614 240.221 20.4773C240.615 20.6932 240.925 20.9844 241.15 21.3509C241.374 21.7173 241.486 22.125 241.486 22.5739C241.486 22.8949 241.428 23.2088 241.311 23.5156C241.198 23.8196 240.999 24.1591 240.715 24.5341C240.434 24.9062 240.043 25.3608 239.543 25.8977L237.583 27.9943V28.0625H241.64V29H236.134ZM244.15 29.0682C243.939 29.0682 243.759 28.9929 243.608 28.8423C243.458 28.6918 243.382 28.5114 243.382 28.3011C243.382 28.0909 243.458 27.9105 243.608 27.7599C243.759 27.6094 243.939 27.5341 244.15 27.5341C244.36 27.5341 244.54 27.6094 244.691 27.7599C244.841 27.9105 244.917 28.0909 244.917 28.3011C244.917 28.4403 244.881 28.5682 244.81 28.6847C244.742 28.8011 244.65 28.8949 244.533 28.9659C244.419 29.0341 244.292 29.0682 244.15 29.0682ZM246.704 29V28.233L249.585 25.0795C249.923 24.7102 250.201 24.3892 250.42 24.1165C250.639 23.8409 250.801 23.5824 250.906 23.3409C251.014 23.0966 251.068 22.8409 251.068 22.5739C251.068 22.267 250.994 22.0014 250.846 21.777C250.701 21.5526 250.502 21.3793 250.25 21.2571C249.997 21.1349 249.713 21.0739 249.397 21.0739C249.062 21.0739 248.77 21.1435 248.52 21.2827C248.272 21.419 248.081 21.6108 247.944 21.858C247.811 22.1051 247.744 22.3949 247.744 22.7273H246.738C246.738 22.2159 246.856 21.767 247.092 21.3807C247.328 20.9943 247.649 20.6932 248.055 20.4773C248.464 20.2614 248.923 20.1534 249.431 20.1534C249.943 20.1534 250.396 20.2614 250.791 20.4773C251.186 20.6932 251.495 20.9844 251.72 21.3509C251.944 21.7173 252.056 22.125 252.056 22.5739C252.056 22.8949 251.998 23.2088 251.882 23.5156C251.768 23.8196 251.569 24.1591 251.285 24.5341C251.004 24.9062 250.613 25.3608 250.113 25.8977L248.153 27.9943V28.0625H252.21V29H246.704ZM257.038 20.2727V29H255.981V21.3807H255.93L253.799 22.7955V21.7216L255.981 20.2727H257.038ZM260.549 27.8068L260.481 28.267C260.433 28.5909 260.359 28.9375 260.26 29.3068C260.163 29.6761 260.062 30.0241 259.957 30.3509C259.852 30.6776 259.765 30.9375 259.697 31.1307H258.93C258.967 30.9489 259.015 30.7088 259.075 30.4105C259.135 30.1122 259.194 29.7784 259.254 29.4091C259.316 29.0426 259.368 28.6676 259.407 28.2841L259.458 27.8068H260.549ZM269.811 20.156H270.675V20.612C270.675 22.556 268.611 23.984 266.427 24.356L266.043 23.564C267.951 23.288 269.811 22.04 269.811 20.612V20.156ZM270.063 20.156H270.915V20.612C270.915 22.04 272.787 23.288 274.683 23.564L274.311 24.356C272.115 23.984 270.063 22.556 270.063 20.612V20.156ZM269.847 25.796H270.831V29.936H269.847V25.796ZM265.467 25.268H275.271V26.084H265.467V25.268ZM266.379 19.76H274.323V20.564H266.379V19.76ZM278.906 24.668H279.89V27.92H278.906V24.668ZM282.914 24.668H283.91V27.92H282.914V24.668ZM276.506 27.728H286.334V28.556H276.506V27.728ZM281.402 19.772C283.694 19.772 285.338 20.864 285.338 22.568C285.338 24.26 283.694 25.352 281.402 25.352C279.098 25.352 277.454 24.26 277.454 22.568C277.454 20.864 279.098 19.772 281.402 19.772ZM281.402 20.564C279.662 20.564 278.414 21.356 278.414 22.568C278.414 23.768 279.662 24.56 281.402 24.56C283.142 24.56 284.378 23.768 284.378 22.568C284.378 21.356 283.142 20.564 281.402 20.564ZM296.032 20.624H299.092V21.404H296.032V20.624ZM296.032 22.604H299.092V23.384H296.032V22.604ZM298.84 19.088H299.836V24.74H298.84V19.088ZM292.852 25.28H299.836V27.848H293.848V29.516H292.876V27.104H298.852V26.072H292.852V25.28ZM292.876 29H300.232V29.792H292.876V29ZM291.448 19.58H292.432V21.14H295.372V19.58H296.344V24.32H291.448V19.58ZM292.432 21.92V23.516H295.372V21.92H292.432ZM303.013 29.0682C302.803 29.0682 302.622 28.9929 302.472 28.8423C302.321 28.6918 302.246 28.5114 302.246 28.3011C302.246 28.0909 302.321 27.9105 302.472 27.7599C302.622 27.6094 302.803 27.5341 303.013 27.5341C303.223 27.5341 303.403 27.6094 303.554 27.7599C303.705 27.9105 303.78 28.0909 303.78 28.3011C303.78 28.4403 303.744 28.5682 303.673 28.6847C303.605 28.8011 303.513 28.8949 303.396 28.9659C303.283 29.0341 303.155 29.0682 303.013 29.0682ZM303.013 24.2102C302.803 24.2102 302.622 24.1349 302.472 23.9844C302.321 23.8338 302.246 23.6534 302.246 23.4432C302.246 23.233 302.321 23.0526 302.472 22.902C302.622 22.7514 302.803 22.6761 303.013 22.6761C303.223 22.6761 303.403 22.7514 303.554 22.902C303.705 23.0526 303.78 23.233 303.78 23.4432C303.78 23.5824 303.744 23.7102 303.673 23.8267C303.605 23.9432 303.513 24.0369 303.396 24.108C303.283 24.1761 303.155 24.2102 303.013 24.2102ZM316.535 19.076H317.531V29.948H316.535V19.076ZM309.263 26.504H310.163C311.975 26.504 313.595 26.432 315.515 26.12L315.623 26.936C313.655 27.26 312.023 27.332 310.163 27.332H309.263V26.504ZM309.239 20.096H314.255V23.972H310.259V26.816H309.263V23.156H313.247V20.912H309.239V20.096ZM320.926 19.544H327.91V20.348H320.926V19.544ZM319.678 23.12H329.506V23.936H319.678V23.12ZM327.262 19.544H328.234V20.24C328.234 21.02 328.234 22.028 327.946 23.372L326.974 23.264C327.262 21.944 327.262 21.008 327.262 20.24V19.544ZM320.83 25.004H328.27V27.764H321.85V29.276H320.854V26.996H327.286V25.808H320.83V25.004ZM320.854 29.012H328.546V29.816H320.854V29.012Z" fill="white"/>
</svg>
